<svg width="48" height="48" viewBox="0 0 48 48" fill="none" xmlns="http://www.w3.org/2000/svg">
<g clip-path="url(#clip0_7112_37646)">
<path d="M9.6237 18.248H38.3737C38.3737 18.248 40.2904 18.248 40.2904 20.1647V44.123C40.2904 44.123 40.2904 46.0397 38.3737 46.0397H9.6237C9.6237 46.0397 7.70703 46.0397 7.70703 44.123V20.1647C7.70703 20.1647 7.70703 18.248 9.6237 18.248Z" fill="#F9D835"/>
<path d="M23.9987 18.248H9.6237C9.11537 18.248 8.62785 18.45 8.26841 18.8094C7.90897 19.1689 7.70703 19.6564 7.70703 20.1647V44.123C7.70703 44.3747 7.75661 44.624 7.85293 44.8565C7.94925 45.0891 8.09043 45.3004 8.26841 45.4783C8.44639 45.6563 8.65768 45.7975 8.89022 45.8938C9.12276 45.9901 9.372 46.0397 9.6237 46.0397H23.9987V18.248Z" fill="#ECF2FB"/>
<path d="M9.6237 18.248H38.3737C38.3737 18.248 40.2904 18.248 40.2904 20.1647V44.123C40.2904 44.123 40.2904 46.0397 38.3737 46.0397H9.6237C9.6237 46.0397 7.70703 46.0397 7.70703 44.123V20.1647C7.70703 20.1647 7.70703 18.248 9.6237 18.248Z" stroke="black" stroke-width="2" stroke-linecap="round" stroke-linejoin="round"/>
<path d="M40.2923 25.916H32.6257C32.1173 25.916 31.6298 26.1179 31.2704 26.4774C30.9109 26.8368 30.709 27.3244 30.709 27.8327V35.4993C30.709 36.0077 30.9109 36.4952 31.2704 36.8546C31.6298 37.2141 32.1173 37.416 32.6257 37.416H40.2923V25.916Z" fill="#F9D835" stroke="black" stroke-width="2" stroke-linecap="round" stroke-linejoin="round"/>
<path d="M13.459 12.4987C13.459 9.70287 14.5696 7.02156 16.5466 5.04461C18.5235 3.06767 21.2048 1.95703 24.0007 1.95703C26.7965 1.95703 29.4778 3.06767 31.4547 5.04461C33.4317 7.02156 34.5423 9.70287 34.5423 12.4987V18.2487H13.459V12.4987Z" stroke="black" stroke-width="2" stroke-linecap="round" stroke-linejoin="round"/>
<path d="M30.709 31.668H40.2847" stroke="black" stroke-width="2" stroke-linecap="round" stroke-linejoin="round"/>
</g>
<defs>
<clipPath id="clip0_7112_37646">
<rect width="48" height="48" fill="white"/>
</clipPath>
</defs>
</svg>
