<svg width="24" height="24" viewBox="0 0 24 24" fill="none" xmlns="http://www.w3.org/2000/svg">
<path d="M1.93783 3.85547H21.1045C21.1045 3.85547 22.0628 3.85547 22.0628 4.8138V22.0638C22.0628 22.0638 22.0628 23.0221 21.1045 23.0221H1.93783C1.93783 23.0221 0.979492 23.0221 0.979492 22.0638V4.8138C0.979492 4.8138 0.979492 3.85547 1.93783 3.85547Z" fill="#ECF2FB"/>
<path d="M22.0628 7.68685H0.979492V4.81185C0.979492 4.55768 1.08046 4.31393 1.26018 4.1342C1.4399 3.95448 1.68366 3.85352 1.93783 3.85352H21.1045C21.3587 3.85352 21.6024 3.95448 21.7821 4.1342C21.9619 4.31393 22.0628 4.55768 22.0628 4.81185V7.68685Z" fill="white"/>
<path d="M1.93783 3.85547H21.1045C21.1045 3.85547 22.0628 3.85547 22.0628 4.8138V22.0638C22.0628 22.0638 22.0628 23.0221 21.1045 23.0221H1.93783C1.93783 23.0221 0.979492 23.0221 0.979492 22.0638V4.8138C0.979492 4.8138 0.979492 3.85547 1.93783 3.85547Z" stroke="black" stroke-width="0.666667" stroke-linecap="round" stroke-linejoin="round"/>
<path d="M3.85449 1.9375V4.8125" stroke="black" stroke-width="0.666667" stroke-linecap="round" stroke-linejoin="round"/>
<path d="M7.6875 1.9375V4.8125" stroke="black" stroke-width="0.666667" stroke-linecap="round" stroke-linejoin="round"/>
<path d="M11.5205 1.9375V4.8125" stroke="black" stroke-width="0.666667" stroke-linecap="round" stroke-linejoin="round"/>
<path d="M15.3545 1.9375V4.8125" stroke="black" stroke-width="0.666667" stroke-linecap="round" stroke-linejoin="round"/>
<path d="M19.1875 1.9375V4.8125" stroke="black" stroke-width="0.666667" stroke-linecap="round" stroke-linejoin="round"/>
<path d="M12.4788 8.64648H15.3538V12.4798H11.5205V9.60482C11.5205 9.35065 11.6215 9.1069 11.8012 8.92717C11.9809 8.74745 12.2247 8.64648 12.4788 8.64648Z" fill="#F9D835" stroke="black" stroke-width="0.666667" stroke-linecap="round" stroke-linejoin="round"/>
<path d="M15.3545 8.64648H18.2295C18.4837 8.64648 18.7274 8.74745 18.9071 8.92717C19.0869 9.1069 19.1878 9.35065 19.1878 9.60482V12.4798H15.3545V8.64648Z" fill="#F9D835" stroke="black" stroke-width="0.666667" stroke-linecap="round" stroke-linejoin="round"/>
<path d="M11.5205 12.4805H15.3538V16.3138H11.5205V12.4805Z" fill="#F9D835" stroke="black" stroke-width="0.666667" stroke-linecap="round" stroke-linejoin="round"/>
<path d="M15.3545 12.4805H19.1878V16.3138H15.3545V12.4805Z" fill="#F9D835" stroke="black" stroke-width="0.666667" stroke-linecap="round" stroke-linejoin="round"/>
<path d="M11.5205 16.3145H15.3538V20.1478H11.5205V16.3145Z" fill="#F9D835" stroke="black" stroke-width="0.666667" stroke-linecap="round" stroke-linejoin="round"/>
<path d="M15.3545 16.3125H19.1878V19.1875C19.1878 19.4417 19.0869 19.6854 18.9071 19.8651C18.7274 20.0449 18.4837 20.1458 18.2295 20.1458H15.3545V16.3125Z" fill="#F9D835" stroke="black" stroke-width="0.666667" stroke-linecap="round" stroke-linejoin="round"/>
<path d="M4.81283 12.4785H7.68783V16.3118H3.85449V13.4368C3.85449 13.1827 3.95546 12.9389 4.13518 12.7592C4.3149 12.5795 4.55866 12.4785 4.81283 12.4785Z" fill="#F9D835" stroke="black" stroke-width="0.666667" stroke-linecap="round" stroke-linejoin="round"/>
<path d="M7.6875 12.4805H11.5208V16.3138H7.6875V12.4805Z" fill="#F9D835" stroke="black" stroke-width="0.666667" stroke-linecap="round" stroke-linejoin="round"/>
<path d="M3.85449 16.3125H7.68783V20.1458H4.81283C4.55866 20.1458 4.3149 20.0449 4.13518 19.8651C3.95546 19.6854 3.85449 19.4417 3.85449 19.1875V16.3125Z" fill="#F9D835" stroke="black" stroke-width="0.666667" stroke-linecap="round" stroke-linejoin="round"/>
<path d="M7.6875 16.3145H11.5208V20.1478H7.6875V16.3145Z" fill="#F9D835" stroke="black" stroke-width="0.666667" stroke-linecap="round" stroke-linejoin="round"/>
</svg>
