<svg width="24" height="24" viewBox="0 0 24 24" fill="none" xmlns="http://www.w3.org/2000/svg">
<g clip-path="url(#clip0_4999_2514)">
<path d="M14.082 9.91858L23.0214 0.979248" stroke="black" stroke-linecap="round" stroke-linejoin="round"/>
<path d="M0.978516 15.3542C0.978516 17.3875 1.78625 19.3375 3.22403 20.7753C4.66181 22.2131 6.61186 23.0208 8.64518 23.0208C10.6785 23.0208 12.6286 22.2131 14.0663 20.7753C15.5041 19.3375 16.3118 17.3875 16.3118 15.3542C16.3118 13.3208 15.5041 11.3708 14.0663 9.93301C12.6286 8.49524 10.6785 7.6875 8.64518 7.6875C6.61186 7.6875 4.66181 8.49524 3.22403 9.93301C1.78625 11.3708 0.978516 13.3208 0.978516 15.3542Z" stroke="black" stroke-linecap="round" stroke-linejoin="round"/>
<path d="M23.0208 7.68758V0.979248H16.3125" stroke="black" stroke-linecap="round" stroke-linejoin="round"/>
<path d="M2.41699 15.3542C2.41699 17.0062 3.07328 18.5907 4.24147 19.7589C5.40967 20.927 6.99408 21.5833 8.64616 21.5833C10.2982 21.5833 11.8826 20.927 13.0508 19.7589C14.219 18.5907 14.8753 17.0062 14.8753 15.3542C14.8753 13.7021 14.219 12.1177 13.0508 10.9495C11.8826 9.78129 10.2982 9.125 8.64616 9.125C6.99408 9.125 5.40967 9.78129 4.24147 10.9495C3.07328 12.1177 2.41699 13.7021 2.41699 15.3542Z" fill="#F9D835"/>
</g>
<defs>
<clipPath id="clip0_4999_2514">
<rect width="24" height="24" fill="white"/>
</clipPath>
</defs>
</svg>
