<svg width="20" height="20" viewBox="0 0 20 20" fill="none" xmlns="http://www.w3.org/2000/svg">
<g clip-path="url(#clip0_7112_37468)">
<path d="M17.6172 3.55469H2.38281C1.7356 3.55469 1.21094 4.07935 1.21094 4.72656V17.6172C1.21094 18.2644 1.7356 18.7891 2.38281 18.7891H17.6172C18.2644 18.7891 18.7891 18.2644 18.7891 17.6172V4.72656C18.7891 4.07935 18.2644 3.55469 17.6172 3.55469Z" stroke="black" stroke-width="1.25" stroke-linecap="round" stroke-linejoin="round"/>
<path d="M1.21094 8.24219H18.7891" stroke="black" stroke-width="1.25" stroke-linecap="round" stroke-linejoin="round"/>
<path d="M5.89844 5.3125V1.21094" stroke="black" stroke-width="1.25" stroke-linecap="round" stroke-linejoin="round"/>
<path d="M14.1016 5.3125V1.21094" stroke="black" stroke-width="1.25" stroke-linecap="round" stroke-linejoin="round"/>
<path d="M5.01953 11.7578C4.85773 11.7578 4.72656 11.6266 4.72656 11.4648C4.72656 11.303 4.85773 11.1719 5.01953 11.1719" stroke="black" stroke-width="1.25"/>
<path d="M5.01953 11.7578C5.18134 11.7578 5.3125 11.6266 5.3125 11.4648C5.3125 11.303 5.18134 11.1719 5.01953 11.1719" stroke="black" stroke-width="1.25"/>
<path d="M5.01953 15.8594C4.85773 15.8594 4.72656 15.7282 4.72656 15.5664C4.72656 15.4046 4.85773 15.2734 5.01953 15.2734" stroke="black" stroke-width="1.25"/>
<path d="M5.01953 15.8594C5.18134 15.8594 5.3125 15.7282 5.3125 15.5664C5.3125 15.4046 5.18134 15.2734 5.01953 15.2734" stroke="black" stroke-width="1.25"/>
<path d="M10 11.7578C9.8382 11.7578 9.70703 11.6266 9.70703 11.4648C9.70703 11.303 9.8382 11.1719 10 11.1719" stroke="black" stroke-width="1.25"/>
<path d="M10 11.7578C10.1618 11.7578 10.293 11.6266 10.293 11.4648C10.293 11.303 10.1618 11.1719 10 11.1719" stroke="black" stroke-width="1.25"/>
<path d="M10 15.8594C9.8382 15.8594 9.70703 15.7282 9.70703 15.5664C9.70703 15.4046 9.8382 15.2734 10 15.2734" stroke="black" stroke-width="1.25"/>
<path d="M10 15.8594C10.1618 15.8594 10.293 15.7282 10.293 15.5664C10.293 15.4046 10.1618 15.2734 10 15.2734" stroke="black" stroke-width="1.25"/>
<path d="M14.9805 11.7578C14.8187 11.7578 14.6875 11.6266 14.6875 11.4648C14.6875 11.303 14.8187 11.1719 14.9805 11.1719" stroke="black" stroke-width="1.25"/>
<path d="M14.9805 11.7578C15.1423 11.7578 15.2734 11.6266 15.2734 11.4648C15.2734 11.303 15.1423 11.1719 14.9805 11.1719" stroke="black" stroke-width="1.25"/>
<path d="M14.9805 15.8594C14.8187 15.8594 14.6875 15.7282 14.6875 15.5664C14.6875 15.4046 14.8187 15.2734 14.9805 15.2734" stroke="black" stroke-width="1.25"/>
<path d="M14.9805 15.8594C15.1423 15.8594 15.2734 15.7282 15.2734 15.5664C15.2734 15.4046 15.1423 15.2734 14.9805 15.2734" stroke="black" stroke-width="1.25"/>
</g>
<defs>
<clipPath id="clip0_7112_37468">
<rect width="20" height="20" fill="white"/>
</clipPath>
</defs>
</svg>
