<svg width="30" height="30" viewBox="0 0 30 30" fill="none" xmlns="http://www.w3.org/2000/svg">
<g clip-path="url(#clip0_188_927)">
<path d="M7.21419 11.6626C7.48198 11.6604 7.74518 11.7321 7.97487 11.8698L10.0233 13.0833C10.1618 13.1661 10.3216 13.2063 10.4828 13.1991C10.644 13.1918 10.7996 13.1374 10.9301 13.0426C11.0628 12.9454 11.1656 12.813 11.2268 12.6603C11.288 12.5076 11.3052 12.3408 11.2763 12.1789L10.8331 9.61655C10.7896 9.37011 10.8058 9.11682 10.8804 8.87794C10.955 8.63907 11.0859 8.42158 11.262 8.24374L12.9486 6.55348C13.062 6.4387 13.1418 6.29509 13.1794 6.1382C13.217 5.9813 13.2109 5.81712 13.1618 5.66343C13.1147 5.51237 13.0264 5.37744 12.9068 5.27376C12.7873 5.17008 12.6412 5.10176 12.485 5.07645L10.1491 4.72666C9.90519 4.6909 9.67383 4.59571 9.47538 4.44948C9.27692 4.30326 9.11747 4.11047 9.01107 3.88812L7.97128 1.70312C7.90315 1.56004 7.79587 1.43921 7.66188 1.3546C7.52788 1.27 7.37266 1.2251 7.21419 1.2251C7.05573 1.2251 6.9005 1.27 6.76651 1.3546C6.63252 1.43921 6.52524 1.56004 6.45711 1.70312L5.41732 3.88452C5.3118 4.10567 5.15383 4.29768 4.95716 4.44383C4.76048 4.58997 4.53107 4.68584 4.28888 4.72306L1.94336 5.07525C1.7857 5.09962 1.63812 5.16796 1.51755 5.27243C1.39698 5.37689 1.30832 5.51324 1.26175 5.66582C1.21256 5.8195 1.20643 5.98372 1.24402 6.14064C1.28161 6.29756 1.36149 6.44117 1.47498 6.55588L3.16643 8.24614C3.34226 8.42415 3.47293 8.64165 3.54753 8.88048C3.62214 9.1193 3.63851 9.37251 3.59529 9.61895L3.15206 12.1813C3.12334 12.3432 3.14055 12.51 3.20174 12.6626C3.26293 12.8153 3.36565 12.9477 3.49826 13.045C3.62882 13.1398 3.78435 13.1942 3.94555 13.2014C4.10676 13.2087 4.26654 13.1684 4.40508 13.0857L6.45112 11.8698C6.6816 11.7319 6.94563 11.6602 7.21419 11.6626Z" fill="#ECF2FB"/>
<path d="M1.98616 7.06739L4.28855 6.72119C4.53074 6.68396 4.76016 6.5881 4.95683 6.44195C5.1535 6.2958 5.31148 6.1038 5.41699 5.88265L6.45678 3.70004C6.52491 3.55697 6.63219 3.43613 6.76618 3.35153C6.90018 3.26693 7.0554 3.22202 7.21387 3.22202C7.37233 3.22202 7.52756 3.26693 7.66155 3.35153C7.79554 3.43613 7.90282 3.55697 7.97095 3.70004L9.01074 5.88265C9.11749 6.10476 9.27704 6.29732 9.47542 6.44351C9.67381 6.58969 9.905 6.68503 10.1488 6.72119L12.4356 7.0614L12.9483 6.54749C13.0617 6.43271 13.1415 6.2891 13.1791 6.13221C13.2166 5.97532 13.2106 5.81113 13.1615 5.65744C13.1144 5.50638 13.0261 5.37145 12.9065 5.26777C12.787 5.16409 12.6409 5.09577 12.4847 5.07046L10.1488 4.72666C9.90486 4.6909 9.6735 4.59571 9.47505 4.44948C9.2766 4.30326 9.11715 4.11047 9.01074 3.88812L7.97095 1.70312C7.90282 1.56004 7.79554 1.43921 7.66155 1.3546C7.52756 1.27 7.37233 1.2251 7.21387 1.2251C7.0554 1.2251 6.90018 1.27 6.76618 1.3546C6.63219 1.43921 6.52491 1.56004 6.45678 1.70312L5.41699 3.88452C5.31148 4.10567 5.1535 4.29768 4.95683 4.44383C4.76016 4.58997 4.53074 4.68584 4.28855 4.72306L1.94303 5.07525C1.78538 5.09962 1.63779 5.16796 1.51722 5.27243C1.39665 5.37689 1.30799 5.51324 1.26142 5.66582C1.2125 5.81953 1.20651 5.98368 1.24409 6.14054C1.28167 6.29741 1.36139 6.44102 1.47465 6.55588L1.98616 7.06739Z" fill="#F9D835"/>
<path d="M7.21419 11.6626C7.48198 11.6604 7.74518 11.7321 7.97487 11.8698L10.0233 13.0833C10.1619 13.1661 10.3216 13.2063 10.4828 13.1991C10.644 13.1918 10.7996 13.1374 10.9301 13.0426C11.0628 12.9454 11.1656 12.813 11.2268 12.6603C11.288 12.5076 11.3052 12.3408 11.2763 12.1789L10.8331 9.61655C10.7896 9.37011 10.8058 9.11682 10.8804 8.87795C10.955 8.63907 11.0859 8.42158 11.262 8.24374L12.9486 6.55348C13.062 6.4387 13.1418 6.29509 13.1794 6.1382C13.217 5.9813 13.2109 5.81712 13.1618 5.66343C13.1147 5.51237 13.0264 5.37744 12.9068 5.27376C12.7873 5.17008 12.6412 5.10176 12.485 5.07645L10.1491 4.72666C9.90519 4.6909 9.67383 4.59571 9.47538 4.44948C9.27692 4.30326 9.11747 4.11047 9.01107 3.88812L7.97128 1.70312C7.90315 1.56004 7.79587 1.43921 7.66188 1.3546C7.52788 1.27 7.37266 1.2251 7.21419 1.2251C7.05573 1.2251 6.9005 1.27 6.76651 1.3546C6.63252 1.43921 6.52524 1.56004 6.45711 1.70312L5.41732 3.88452C5.3118 4.10567 5.15383 4.29768 4.95716 4.44383C4.76048 4.58997 4.53107 4.68584 4.28888 4.72306L1.94336 5.07525C1.7857 5.09962 1.63812 5.16796 1.51755 5.27243C1.39698 5.37689 1.30832 5.51324 1.26175 5.66582C1.21256 5.8195 1.20643 5.98372 1.24402 6.14064C1.28161 6.29756 1.36149 6.44117 1.47498 6.55588L3.16643 8.24614C3.34226 8.42415 3.47293 8.64165 3.54753 8.88048C3.62214 9.1193 3.63851 9.37251 3.59529 9.61895L3.15206 12.1813C3.12334 12.3432 3.14055 12.51 3.20174 12.6626C3.26293 12.8153 3.36565 12.9477 3.49826 13.045C3.62882 13.1398 3.78435 13.1942 3.94556 13.2014C4.10676 13.2087 4.26654 13.1684 4.40508 13.0857L6.45112 11.8698C6.6816 11.7319 6.94563 11.6602 7.21419 11.6626Z" stroke="black" stroke-width="1.25" stroke-linecap="round" stroke-linejoin="round"/>
<path d="M25.7813 16.7646C24.987 16.7646 24.2252 17.0802 23.6636 17.6418C23.102 18.2034 22.7865 18.9652 22.7865 19.7594C22.7865 19.3662 22.709 18.9767 22.5585 18.6134C22.408 18.25 22.1874 17.9199 21.9093 17.6418C21.6312 17.3637 21.3011 17.1431 20.9377 16.9926C20.5744 16.8421 20.1849 16.7646 19.7917 16.7646C19.3984 16.7646 19.009 16.8421 18.6456 16.9926C18.2823 17.1431 17.9521 17.3637 17.674 17.6418C17.3959 17.9199 17.1753 18.25 17.0248 18.6134C16.8743 18.9767 16.7969 19.3662 16.7969 19.7594C16.7969 23.473 20.8914 27.3962 22.3073 28.5713C22.4416 28.6838 22.6112 28.7455 22.7865 28.7455C22.9617 28.7455 23.1313 28.6838 23.2656 28.5713C24.6852 27.395 28.776 23.473 28.776 19.7594C28.776 18.9652 28.4605 18.2034 27.8989 17.6418C27.3373 17.0802 26.5755 16.7646 25.7813 16.7646Z" fill="#ECF2FB"/>
<path d="M19.7917 20.0698C20.5859 20.0698 21.3477 20.3853 21.9093 20.9469C22.4709 21.5086 22.7865 22.2703 22.7865 23.0646C22.7772 22.3891 22.9981 21.7305 23.4127 21.1971C23.8273 20.6637 24.411 20.2871 25.0679 20.1294C25.7248 19.9716 26.4159 20.042 27.0275 20.329C27.6391 20.616 28.1349 21.1025 28.4334 21.7085C28.65 21.0827 28.7656 20.4265 28.776 19.7643C28.776 18.9701 28.4605 18.2083 27.8989 17.6467C27.3373 17.0851 26.5755 16.7695 25.7813 16.7695C24.987 16.7695 24.2252 17.0851 23.6636 17.6467C23.102 18.2083 22.7865 18.9701 22.7865 19.7643C22.7865 19.371 22.709 18.9816 22.5585 18.6183C22.408 18.2549 22.1874 17.9248 21.9093 17.6467C21.6312 17.3686 21.3011 17.148 20.9377 16.9975C20.5744 16.847 20.1849 16.7695 19.7917 16.7695C19.3984 16.7695 19.009 16.847 18.6456 16.9975C18.2823 17.148 17.9521 17.3686 17.674 17.6467C17.3959 17.9248 17.1753 18.2549 17.0248 18.6183C16.8743 18.9816 16.7969 19.371 16.7969 19.7643C16.8066 20.4257 16.9223 21.0813 17.1395 21.7061C17.3877 21.2154 17.7668 20.8028 18.2349 20.5141C18.7029 20.2253 19.2417 20.0715 19.7917 20.0698Z" fill="#F9D835"/>
<path d="M25.7813 16.7969C24.987 16.7969 24.2252 17.1124 23.6636 17.674C23.102 18.2357 22.7865 18.9974 22.7865 19.7917C22.7865 18.9974 22.4709 18.2357 21.9093 17.674C21.3477 17.1124 20.5859 16.7969 19.7917 16.7969C18.9974 16.7969 18.2357 17.1124 17.674 17.674C17.1124 18.2357 16.7969 18.9974 16.7969 19.7917C16.7969 23.5052 20.8914 27.4284 22.3073 28.6035C22.4416 28.716 22.6112 28.7777 22.7865 28.7777C22.9617 28.7777 23.1313 28.716 23.2656 28.6035C24.6852 27.4272 28.776 23.5052 28.776 19.7917C28.776 18.9974 28.4605 18.2357 27.8989 17.674C27.3373 17.1124 26.5755 16.7969 25.7813 16.7969Z" stroke="black" stroke-width="1.25" stroke-linecap="round" stroke-linejoin="round"/>
<path d="M22.7865 13.2028C23.9711 13.2028 25.1291 12.8515 26.1141 12.1934C27.0991 11.5352 27.8668 10.5998 28.3201 9.50533C28.7735 8.41088 28.8921 7.20657 28.661 6.04471C28.4298 4.88284 27.8594 3.8156 27.0217 2.97794C26.1841 2.14029 25.1168 1.56983 23.955 1.33872C22.7931 1.10761 21.5888 1.22623 20.4943 1.67957C19.3999 2.1329 18.4644 2.9006 17.8063 3.88558C17.1482 4.87057 16.7969 6.02859 16.7969 7.21322C16.7969 8.80176 17.4279 10.3252 18.5512 11.4485C19.6744 12.5718 21.1979 13.2028 22.7865 13.2028Z" fill="#ECF2FB"/>
<path d="M22.7865 4.10702C24.1221 4.10938 25.4186 4.55892 26.469 5.38396C27.5194 6.209 28.2633 7.36201 28.582 8.6591C28.7055 8.18688 28.7707 7.7013 28.776 7.21322C28.776 5.62468 28.145 4.10121 27.0217 2.97794C25.8985 1.85468 24.375 1.22363 22.7865 1.22363C21.1979 1.22363 19.6744 1.85468 18.5512 2.97794C17.4279 4.10121 16.7969 5.62468 16.7969 7.21322C16.8029 7.69849 16.8681 8.18121 16.9909 8.65072C17.3113 7.35518 18.0558 6.20406 19.1061 5.38066C20.1564 4.55726 21.4519 4.10891 22.7865 4.10702Z" fill="#F9D835"/>
<path d="M22.7865 13.2028C23.9711 13.2028 25.1291 12.8515 26.1141 12.1934C27.0991 11.5352 27.8668 10.5998 28.3201 9.50533C28.7735 8.41088 28.8921 7.20657 28.661 6.04471C28.4298 4.88284 27.8594 3.8156 27.0217 2.97794C26.1841 2.14029 25.1168 1.56983 23.955 1.33872C22.7931 1.10761 21.5888 1.22623 20.4943 1.67957C19.3999 2.1329 18.4644 2.9006 17.8063 3.88558C17.1482 4.87057 16.7969 6.02859 16.7969 7.21322C16.7969 8.80176 17.4279 10.3252 18.5512 11.4485C19.6744 12.5718 21.1979 13.2028 22.7865 13.2028Z" stroke="black" stroke-width="1.25" stroke-linecap="round" stroke-linejoin="round"/>
<path d="M11.5696 23.0844C11.8902 22.7822 12.1468 22.4187 12.3243 22.0154C12.5018 21.6122 12.5966 21.1774 12.6031 20.7369C12.6096 20.2964 12.5276 19.859 12.3619 19.4507C12.1963 19.0425 11.9505 18.6716 11.6389 18.36C11.3274 18.0485 10.9565 17.8026 10.5482 17.637C10.14 17.4714 9.70261 17.3894 9.26207 17.3959C8.82154 17.4023 8.38678 17.4971 7.98354 17.6746C7.5803 17.8522 7.21678 18.1088 6.91452 18.4293C6.61225 18.1088 6.24874 17.8522 5.8455 17.6746C5.44226 17.4971 5.0075 17.4023 4.56696 17.3959C4.12643 17.3894 3.68907 17.4714 3.2808 17.637C2.87253 17.8026 2.50164 18.0485 2.1901 18.36C1.87857 18.6716 1.63271 19.0425 1.46709 19.4507C1.30148 19.859 1.21948 20.2964 1.22594 20.7369C1.2324 21.1774 1.3272 21.6122 1.50472 22.0154C1.68224 22.4187 1.93887 22.7822 2.25941 23.0844C1.93887 23.3867 1.68224 23.7502 1.50472 24.1535C1.3272 24.5567 1.2324 24.9915 1.22594 25.432C1.21948 25.8725 1.30148 26.3099 1.46709 26.7182C1.63271 27.1264 1.87857 27.4973 2.1901 27.8089C2.50164 28.1204 2.87253 28.3662 3.2808 28.5319C3.68907 28.6975 4.12643 28.7795 4.56696 28.773C5.0075 28.7666 5.44226 28.6718 5.8455 28.4942C6.24874 28.3167 6.61225 28.0601 6.91452 27.7395C7.21678 28.0601 7.5803 28.3167 7.98354 28.4942C8.38678 28.6718 8.82154 28.7666 9.26207 28.773C9.70261 28.7795 10.14 28.6975 10.5482 28.5319C10.9565 28.3662 11.3274 28.1204 11.6389 27.8089C11.9505 27.4973 12.1963 27.1264 12.3619 26.7182C12.5276 26.3099 12.6096 25.8725 12.6031 25.432C12.5966 24.9915 12.5018 24.5567 12.3243 24.1535C12.1468 23.7502 11.8902 23.3867 11.5696 23.0844Z" fill="#ECF2FB"/>
<path d="M3.6975 20.703C4.26776 20.5563 4.86695 20.5651 5.43265 20.7286C5.99835 20.8921 6.50986 21.2043 6.9139 21.6326C7.26772 21.2565 7.70517 20.9691 8.19079 20.7936C8.67641 20.6181 9.19655 20.5595 9.70906 20.6225C10.2216 20.6855 10.712 20.8683 11.1407 21.1562C11.5693 21.4441 11.9241 21.8289 12.1764 22.2795C12.5675 21.5795 12.6891 20.7606 12.5181 19.9771C12.3472 19.1937 11.8956 18.4998 11.2484 18.0263C10.6013 17.5528 9.80324 17.3325 9.0048 17.4067C8.20637 17.4809 7.46267 17.8447 6.9139 18.4294C6.36593 17.842 5.62166 17.4759 4.82193 17.4003C4.02221 17.3247 3.22252 17.5449 2.57421 18.0193C1.9259 18.4936 1.47396 19.1891 1.30391 19.9742C1.13386 20.7592 1.25751 21.5794 1.65145 22.2795C1.86843 21.8922 2.16157 21.5529 2.51321 21.282C2.86485 21.011 3.2677 20.8141 3.6975 20.703Z" fill="#F9D835"/>
<path d="M11.5696 23.0844C11.8902 22.7822 12.1468 22.4187 12.3243 22.0154C12.5018 21.6122 12.5966 21.1774 12.6031 20.7369C12.6096 20.2964 12.5276 19.859 12.3619 19.4507C12.1963 19.0425 11.9505 18.6716 11.6389 18.36C11.3274 18.0485 10.9565 17.8026 10.5482 17.637C10.14 17.4714 9.70261 17.3894 9.26207 17.3959C8.82154 17.4023 8.38678 17.4971 7.98354 17.6746C7.5803 17.8522 7.21678 18.1088 6.91452 18.4293C6.61225 18.1088 6.24874 17.8522 5.8455 17.6746C5.44226 17.4971 5.0075 17.4023 4.56696 17.3959C4.12643 17.3894 3.68907 17.4714 3.2808 17.637C2.87253 17.8026 2.50164 18.0485 2.1901 18.36C1.87857 18.6716 1.63271 19.0425 1.46709 19.4507C1.30148 19.859 1.21948 20.2964 1.22594 20.7369C1.2324 21.1774 1.3272 21.6122 1.50472 22.0154C1.68224 22.4187 1.93887 22.7822 2.25941 23.0844C1.93887 23.3867 1.68224 23.7502 1.50472 24.1535C1.3272 24.5567 1.2324 24.9915 1.22594 25.432C1.21948 25.8725 1.30148 26.3099 1.46709 26.7182C1.63271 27.1264 1.87857 27.4973 2.1901 27.8089C2.50164 28.1204 2.87253 28.3662 3.2808 28.5319C3.68907 28.6975 4.12643 28.7795 4.56696 28.773C5.0075 28.7666 5.44226 28.6718 5.8455 28.4942C6.24874 28.3167 6.61225 28.0601 6.91452 27.7395C7.21678 28.0601 7.5803 28.3167 7.98354 28.4942C8.38678 28.6718 8.82154 28.7666 9.26207 28.773C9.70261 28.7795 10.14 28.6975 10.5482 28.5319C10.9565 28.3662 11.3274 28.1204 11.6389 27.8089C11.9505 27.4973 12.1963 27.1264 12.3619 26.7182C12.5276 26.3099 12.6096 25.8725 12.6031 25.432C12.5966 24.9915 12.5018 24.5567 12.3243 24.1535C12.1468 23.7502 11.8902 23.3867 11.5696 23.0844Z" stroke="black" stroke-width="1.25" stroke-linecap="round" stroke-linejoin="round"/>
</g>
<defs>
<clipPath id="clip0_188_927">
<rect width="30" height="30" fill="white"/>
</clipPath>
</defs>
</svg>
