<svg width="24" height="24" viewBox="0 0 24 24" fill="none" xmlns="http://www.w3.org/2000/svg">
<g clip-path="url(#clip0_7112_12360)">
<path d="M0.979492 21.1042C0.979492 21.6125 2.14061 22.1 4.20742 22.4595C6.27423 22.8189 9.07742 23.0208 12.0003 23.0208C14.9232 23.0208 17.7264 22.8189 19.7932 22.4595C21.86 22.1 23.0212 21.6125 23.0212 21.1042C23.0212 20.5958 21.86 20.1083 19.7932 19.7489C17.7264 19.3894 14.9232 19.1875 12.0003 19.1875C9.07742 19.1875 6.27423 19.3894 4.20742 19.7489C2.14061 20.1083 0.979492 20.5958 0.979492 21.1042Z" fill="#F9D835"/>
<path d="M12 0.978516C13.7424 0.97877 15.4134 1.67111 16.6453 2.90326C17.8773 4.13541 18.5694 5.80645 18.5694 7.54885C18.5694 10.6299 13.8333 18.2678 12.4035 20.5026C12.3601 20.5703 12.3005 20.626 12.23 20.6645C12.1595 20.7031 12.0804 20.7233 12 20.7233C11.9197 20.7233 11.8406 20.7031 11.7701 20.6645C11.6996 20.626 11.6399 20.5703 11.5966 20.5026C10.1667 18.2678 5.43066 10.6318 5.43066 7.54885C5.43054 6.68607 5.60037 5.83171 5.93045 5.03456C6.26054 4.23742 6.74442 3.5131 7.35445 2.90298C7.96449 2.29286 8.68873 1.80887 9.48583 1.47867C10.2829 1.14847 11.1373 0.978516 12 0.978516Z" fill="#F9D835"/>
<path d="M12 20.7202C11.9196 20.7201 11.8405 20.6998 11.77 20.6611C11.6995 20.6224 11.6398 20.5666 11.5966 20.4988C10.1667 18.264 5.43066 10.628 5.43066 7.54502C5.43143 5.80321 6.12389 4.133 7.35581 2.90162C8.58772 1.67025 10.2582 0.978515 12 0.978516V20.7202Z" fill="white"/>
<path d="M8.64648 7.20964C8.64648 8.09922 8.99987 8.95236 9.6289 9.58139C10.2579 10.2104 11.1111 10.5638 12.0007 10.5638C12.8902 10.5638 13.7434 10.2104 14.3724 9.58139C15.0014 8.95236 15.3548 8.09922 15.3548 7.20964C15.3548 6.32006 15.0014 5.46691 14.3724 4.83788C13.7434 4.20885 12.8902 3.85547 12.0007 3.85547C11.1111 3.85547 10.2579 4.20885 9.6289 4.83788C8.99987 5.46691 8.64648 6.32006 8.64648 7.20964Z" fill="white"/>
<path d="M12.0007 10.5638C11.1111 10.5638 10.2579 10.2104 9.6289 9.58139C8.99987 8.95236 8.64648 8.09922 8.64648 7.20964C8.64648 6.32006 8.99987 5.46691 9.6289 4.83788C10.2579 4.20885 11.1111 3.85547 12.0007 3.85547V10.5638Z" fill="white"/>
<path d="M8.64648 7.20964C8.64648 8.09922 8.99987 8.95236 9.6289 9.58139C10.2579 10.2104 11.1111 10.5638 12.0007 10.5638C12.8902 10.5638 13.7434 10.2104 14.3724 9.58139C15.0014 8.95236 15.3548 8.09922 15.3548 7.20964C15.3548 6.32006 15.0014 5.46691 14.3724 4.83788C13.7434 4.20885 12.8902 3.85547 12.0007 3.85547C11.1111 3.85547 10.2579 4.20885 9.6289 4.83788C8.99987 5.46691 8.64648 6.32006 8.64648 7.20964Z" stroke="black" stroke-linecap="round" stroke-linejoin="round"/>
<path d="M12 0.978516C13.7424 0.97877 15.4134 1.67111 16.6453 2.90326C17.8773 4.13541 18.5694 5.80645 18.5694 7.54885C18.5694 10.6299 13.8333 18.2678 12.4035 20.5026C12.3601 20.5703 12.3005 20.626 12.23 20.6645C12.1595 20.7031 12.0804 20.7233 12 20.7233C11.9197 20.7233 11.8406 20.7031 11.7701 20.6645C11.6996 20.626 11.6399 20.5703 11.5966 20.5026C10.1667 18.2678 5.43066 10.6318 5.43066 7.54885C5.43054 6.68607 5.60037 5.83171 5.93045 5.03456C6.26054 4.23742 6.74442 3.5131 7.35445 2.90298C7.96449 2.29286 8.68873 1.80887 9.48583 1.47867C10.2829 1.14847 11.1373 0.978516 12 0.978516Z" stroke="black" stroke-linecap="round" stroke-linejoin="round"/>
<path d="M16.792 19.3789C20.4797 19.6894 23.0212 20.3459 23.0212 21.1039C23.0212 22.1629 18.0877 23.0206 12.0003 23.0206C5.91299 23.0206 0.979492 22.1629 0.979492 21.1039C0.979492 20.3468 3.5047 19.6923 7.16841 19.3789" stroke="black" stroke-linecap="round" stroke-linejoin="round"/>
</g>
<defs>
<clipPath id="clip0_7112_12360">
<rect width="24" height="24" fill="white"/>
</clipPath>
</defs>
</svg>
