<svg width="48" height="48" viewBox="0 0 48 48" fill="none" xmlns="http://www.w3.org/2000/svg">
<g clip-path="url(#clip0_7112_37439)">
<path d="M10.0224 34.6816V40.3717H5.2806C4.52604 40.3717 3.80239 40.072 3.26884 39.5384C2.73529 39.0049 2.43555 38.2812 2.43555 37.5267C2.43555 36.7721 2.73529 36.0485 3.26884 35.5149C3.80239 34.9814 4.52604 34.6816 5.2806 34.6816H10.0224Z" fill="#F9D835"/>
<path d="M17.6102 37.5267C17.6102 38.2812 17.3105 39.0049 16.7769 39.5384C16.2434 40.072 15.5197 40.3717 14.7652 40.3717H10.0234V34.6816H14.7652C15.5197 34.6816 16.2434 34.9814 16.7769 35.5149C17.3105 36.0485 17.6102 36.7721 17.6102 37.5267Z" fill="white"/>
<path d="M17.6102 37.5267C17.6102 36.7721 17.3105 36.0485 16.7769 35.5149C16.2434 34.9814 15.5197 34.6816 14.7652 34.6816H10.0234V37.5267H17.6102Z" fill="white"/>
<path d="M10.0224 34.6816H5.2806C4.52604 34.6816 3.80239 34.9814 3.26884 35.5149C2.73529 36.0485 2.43555 36.7721 2.43555 37.5267H10.0224V34.6816Z" fill="white"/>
<path d="M44.1665 13.8184V36.5788C44.1634 37.5839 43.7628 38.5471 43.0521 39.2578C42.3413 39.9686 41.3782 40.3692 40.373 40.3722H27.0961C26.091 40.3692 25.1279 39.9686 24.4171 39.2578C23.7064 38.5471 23.3057 37.5839 23.3027 36.5788V13.8184H44.1665Z" fill="#F9D835"/>
<path d="M33.7346 13.8184H23.3027V36.5788C23.3057 37.5839 23.7064 38.5471 24.4171 39.2578C25.1279 39.9686 26.091 40.3692 27.0961 40.3722H33.7346V13.8184Z" fill="white"/>
<path d="M46.0634 12.8687C46.0634 12.9932 46.0388 13.1166 45.9912 13.2316C45.9435 13.3467 45.8737 13.4512 45.7856 13.5393C45.6975 13.6274 45.593 13.6972 45.4779 13.7449C45.3629 13.7925 45.2396 13.8171 45.115 13.8171H22.3546C22.1031 13.8171 21.8619 13.7171 21.684 13.5393C21.5062 13.3614 21.4063 13.1202 21.4062 12.8687V10.972C21.4063 10.5984 21.4798 10.2284 21.6228 9.88325C21.7658 9.53807 21.9754 9.22444 22.2395 8.96025C22.5037 8.69606 22.8174 8.4865 23.1625 8.34352C23.5077 8.20054 23.8777 8.12695 24.2513 8.12695H43.2183C43.9729 8.12695 44.6965 8.4267 45.2301 8.96025C45.7636 9.4938 46.0634 10.2175 46.0634 10.972V12.8687Z" fill="#F9D835" stroke="black" stroke-width="1.97917" stroke-linecap="round" stroke-linejoin="round"/>
<path d="M44.1656 32.7828H31.837C31.7125 32.7828 31.5892 32.7582 31.4741 32.7106C31.359 32.6629 31.2545 32.5931 31.1664 32.505C31.0784 32.4169 31.0085 32.3124 30.9609 32.1973C30.9132 32.0823 30.8887 31.959 30.8887 31.8344V20.4542C30.8887 20.2027 30.9886 19.9615 31.1664 19.7836C31.3443 19.6058 31.5855 19.5059 31.837 19.5059H44.1656V32.7828Z" fill="white"/>
<path d="M33.7337 19.5059H31.837C31.5855 19.5059 31.3443 19.6058 31.1664 19.7836C30.9886 19.9615 30.8887 20.2027 30.8887 20.4542V31.8344C30.8887 31.959 30.9132 32.0823 30.9609 32.1973C31.0085 32.3124 31.0784 32.4169 31.1664 32.505C31.2545 32.5931 31.359 32.6629 31.4741 32.7106C31.5892 32.7582 31.7125 32.7828 31.837 32.7828H33.7337V19.5059Z" fill="white"/>
<path d="M44.1664 13.8184V36.5788C44.1634 37.5839 43.7628 38.5471 43.0521 39.2578C42.3413 39.9686 41.3782 40.3692 40.373 40.3722H27.0961C26.091 40.3692 25.1279 39.9686 24.4171 39.2578C23.7064 38.5471 23.3057 37.5839 23.3027 36.5788V13.8184H44.1664Z" stroke="black" stroke-width="1.97917" stroke-linecap="round" stroke-linejoin="round"/>
<path d="M44.1656 32.7828H31.837C31.7125 32.7828 31.5892 32.7582 31.4741 32.7106C31.359 32.6629 31.2545 32.5931 31.1664 32.505C31.0784 32.4169 31.0085 32.3124 30.9609 32.1973C30.9132 32.0823 30.8887 31.959 30.8887 31.8344V20.4542C30.8887 20.2027 30.9886 19.9615 31.1664 19.7836C31.3443 19.6058 31.5855 19.5059 31.837 19.5059H44.1656V32.7828Z" stroke="black" stroke-width="1.97917" stroke-linecap="round" stroke-linejoin="round"/>
<path d="M10.0224 34.6816V40.3717H5.2806C4.52604 40.3717 3.80239 40.072 3.26884 39.5384C2.73529 39.0049 2.43555 38.2812 2.43555 37.5267C2.43555 36.7721 2.73529 36.0485 3.26884 35.5149C3.80239 34.9814 4.52604 34.6816 5.2806 34.6816H10.0224Z" stroke="black" stroke-width="1.97917" stroke-linecap="round" stroke-linejoin="round"/>
<path d="M17.6102 37.5267C17.6102 38.2812 17.3105 39.0049 16.7769 39.5384C16.2434 40.072 15.5197 40.3717 14.7652 40.3717H10.0234V34.6816H14.7652C15.5197 34.6816 16.2434 34.9814 16.7769 35.5149C17.3105 36.0485 17.6102 36.7721 17.6102 37.5267Z" stroke="black" stroke-width="1.97917" stroke-linecap="round" stroke-linejoin="round"/>
<path d="M14.9991 28.577L11.2266 24.317L14.7772 21.1741C15.3421 20.6739 16.0826 20.4185 16.8358 20.4642C17.589 20.5099 18.2932 20.853 18.7935 21.4179C19.2937 21.9828 19.5491 22.7233 19.5034 23.4765C19.4577 24.2297 19.1146 24.9339 18.5497 25.4341L14.9991 28.577Z" fill="#F9D835"/>
<path d="M7.43307 31.4745C6.93318 30.9095 6.67814 30.1692 6.72402 29.4162C6.7699 28.6632 7.11296 27.9593 7.67774 27.4592L11.2265 24.3145L14.999 28.5744L11.4503 31.7192C11.1705 31.967 10.8446 32.1572 10.4913 32.2791C10.1379 32.4009 9.76404 32.4519 9.39098 32.4292C9.01792 32.4064 8.65299 32.3104 8.31704 32.1466C7.98109 31.9828 7.68071 31.7544 7.43307 31.4745Z" fill="white"/>
<path d="M7.42969 31.4773C7.67734 31.7573 7.97771 31.9856 8.31366 32.1495C8.64961 32.3133 9.01454 32.4093 9.3876 32.432C9.76066 32.4547 10.1345 32.4037 10.4879 32.2819C10.8412 32.1601 11.1671 31.9698 11.4469 31.722L14.9956 28.5773L13.1103 26.4473L7.42969 31.4773Z" fill="white"/>
<path d="M14.9966 28.5761L18.5473 25.4332C18.8271 25.1854 19.0553 24.885 19.2189 24.549C19.3826 24.2129 19.4784 23.848 19.501 23.4749C19.5235 23.1019 19.4723 22.728 19.3503 22.3747C19.2284 22.0215 19.038 21.6957 18.7901 21.416L13.1113 26.4461L14.9966 28.5761Z" fill="white"/>
<path d="M14.9991 28.577L11.2266 24.317L14.7772 21.1741C15.3421 20.6739 16.0826 20.4185 16.8358 20.4642C17.589 20.5099 18.2932 20.853 18.7935 21.4179C19.2937 21.9828 19.5491 22.7233 19.5034 23.4765C19.4577 24.2297 19.1146 24.9339 18.5497 25.4341L14.9991 28.577Z" stroke="black" stroke-width="1.97917" stroke-linecap="round" stroke-linejoin="round"/>
<path d="M7.43307 31.4745C6.93318 30.9095 6.67814 30.1692 6.72402 29.4162C6.7699 28.6632 7.11296 27.9593 7.67774 27.4592L11.2265 24.3145L14.999 28.5744L11.4503 31.7192C11.1705 31.967 10.8446 32.1572 10.4913 32.2791C10.1379 32.4009 9.76404 32.4519 9.39098 32.4292C9.01792 32.4064 8.65299 32.3104 8.31704 32.1466C7.98109 31.9828 7.68071 31.7544 7.43307 31.4745Z" stroke="black" stroke-width="1.97917" stroke-linecap="round" stroke-linejoin="round"/>
</g>
<defs>
<clipPath id="clip0_7112_37439">
<rect width="48" height="48" fill="white"/>
</clipPath>
</defs>
</svg>
