<svg width="30" height="30" viewBox="0 0 30 30" fill="none" xmlns="http://www.w3.org/2000/svg">
<g clip-path="url(#clip0_188_949)">
<path d="M1.22363 28.7762L12.3559 17.644C12.5805 17.4194 12.8852 17.2932 13.2028 17.2932C13.5204 17.2932 13.8251 17.4194 14.0497 17.644L17.7465 21.3407C17.9711 21.5653 18.2758 21.6915 18.5934 21.6915C18.9111 21.6915 19.2157 21.5653 19.4404 21.3407L28.7757 12.0054V28.7762H1.22363Z" fill="#F9D835"/>
<path d="M1.22363 28.7762L12.3559 17.644C12.5805 17.4194 12.8852 17.2932 13.2028 17.2932C13.5204 17.2932 13.8251 17.4194 14.0497 17.644L17.7465 21.3407C17.9711 21.5653 18.2758 21.6915 18.5934 21.6915C18.9111 21.6915 19.2157 21.5653 19.4404 21.3407L28.7757 12.0054" stroke="black" stroke-width="1.25" stroke-linecap="round" stroke-linejoin="round"/>
<path d="M20.3906 12.0054H28.776V20.3908" stroke="black" stroke-width="1.25" stroke-linecap="round" stroke-linejoin="round"/>
<path d="M8.4115 13.8024L2.28535 7.41147C1.74744 6.87372 1.39239 6.18033 1.27048 5.42955C1.14858 4.67878 1.266 3.90867 1.60613 3.22835C1.86306 2.71471 2.23836 2.26946 2.7011 1.9293C3.16385 1.58915 3.7008 1.36381 4.26771 1.27186C4.83462 1.17991 5.41526 1.22398 5.9618 1.40043C6.50834 1.57689 7.00513 1.88069 7.41123 2.28679L8.4115 3.28705L9.41176 2.28679C9.81786 1.88069 10.3147 1.57689 10.8612 1.40043C11.4077 1.22398 11.9884 1.17991 12.5553 1.27186C13.1222 1.36381 13.6591 1.58915 14.1219 1.9293C14.5846 2.26946 14.9599 2.71471 15.2169 3.22835C15.557 3.90867 15.6744 4.67878 15.5525 5.42955C15.4306 6.18033 15.0755 6.87372 14.5376 7.41147L8.4115 13.8024Z" fill="#F9D835"/>
<path d="M15.2172 3.22817C14.9602 2.71453 14.5849 2.26929 14.1222 1.92913C13.6594 1.58897 13.1225 1.36363 12.5556 1.27168C11.9887 1.17973 11.408 1.2238 10.8615 1.40026C10.315 1.57671 9.81816 1.88051 9.41206 2.28661L8.4118 3.28687L7.41153 2.28661C6.85162 1.71955 6.12004 1.35337 5.33053 1.24501C4.54102 1.13665 3.73784 1.29218 3.04585 1.68743C2.35386 2.08267 1.81186 2.69548 1.5041 3.43057C1.19635 4.16565 1.1401 4.98183 1.34409 5.75218C2.2374 6.66297 3.30345 7.38638 4.47982 7.88004C5.65618 8.37371 6.91922 8.62771 8.19497 8.62718C9.60272 8.62856 10.9935 8.32021 12.2688 7.72399C13.544 7.12777 14.6725 6.25828 15.5741 5.17718C15.639 4.50694 15.5154 3.8319 15.2172 3.22817Z" fill="#ECF2FB"/>
<path d="M8.4115 13.8024L2.28535 7.41147C1.74744 6.87372 1.39239 6.18033 1.27048 5.42955C1.14858 4.67878 1.266 3.90867 1.60613 3.22835C1.86306 2.71471 2.23836 2.26946 2.7011 1.9293C3.16385 1.58915 3.7008 1.36381 4.26771 1.27186C4.83462 1.17991 5.41526 1.22398 5.9618 1.40043C6.50834 1.57689 7.00513 1.88069 7.41123 2.28679L8.4115 3.28705L9.41176 2.28679C9.81786 1.88069 10.3147 1.57689 10.8612 1.40043C11.4077 1.22398 11.9884 1.17991 12.5553 1.27186C13.1222 1.36381 13.6591 1.58915 14.1219 1.9293C14.5846 2.26946 14.9599 2.71471 15.2169 3.22835C15.557 3.90867 15.6744 4.67878 15.5525 5.42955C15.4306 6.18033 15.0755 6.87372 14.5376 7.41147L8.4115 13.8024Z" stroke="black" stroke-width="1.25" stroke-linecap="round" stroke-linejoin="round"/>
</g>
<defs>
<clipPath id="clip0_188_949">
<rect width="30" height="30" fill="white"/>
</clipPath>
</defs>
</svg>
