<svg width="30" height="30" viewBox="0 0 30 30" fill="none" xmlns="http://www.w3.org/2000/svg">
<path d="M14.4404 2.50678C14.4833 2.39274 14.5599 2.2945 14.6601 2.22515C14.7603 2.1558 14.8792 2.11865 15.001 2.11865C15.1229 2.11865 15.2418 2.1558 15.342 2.22515C15.4421 2.2945 15.5188 2.39274 15.5616 2.50678L18.5936 11.103H27.1563C27.2787 11.103 27.3982 11.1405 27.4987 11.2105C27.5992 11.2805 27.6758 11.3796 27.7182 11.4945C27.7606 11.6093 27.7668 11.7344 27.736 11.8529C27.7051 11.9714 27.6387 12.0776 27.5456 12.1572L20.3904 18.0893L23.3852 27.0856C23.4253 27.2062 23.426 27.3364 23.3872 27.4573C23.3484 27.5783 23.2722 27.6838 23.1695 27.7586C23.0669 27.8334 22.9431 27.8736 22.816 27.8735C22.689 27.8733 22.5653 27.8327 22.4628 27.7577L14.9998 22.282L7.53321 27.7577C7.43067 27.8313 7.30749 27.8706 7.18126 27.87C7.05504 27.8695 6.93221 27.8291 6.83033 27.7545C6.72845 27.68 6.65271 27.5752 6.61393 27.4551C6.57516 27.335 6.57532 27.2057 6.61441 27.0856L9.6092 18.0893L2.45285 12.1572C2.35979 12.0776 2.29336 11.9714 2.2625 11.8529C2.23164 11.7344 2.23784 11.6093 2.28026 11.4945C2.32268 11.3796 2.39928 11.2805 2.49975 11.2105C2.60022 11.1405 2.71972 11.103 2.84217 11.103H11.4061L14.4404 2.50678Z" fill="#F9D835"/>
<path d="M14.9998 22.282L7.53321 27.7577C7.43067 27.8313 7.30749 27.8706 7.18126 27.87C7.05504 27.8695 6.93221 27.8291 6.83033 27.7545C6.72845 27.68 6.65271 27.5752 6.61393 27.4551C6.57516 27.335 6.57532 27.2057 6.61441 27.0856L9.6092 18.0893L2.45285 12.1572C2.35979 12.0776 2.29336 11.9714 2.2625 11.8529C2.23164 11.7344 2.23784 11.6093 2.28026 11.4945C2.32268 11.3796 2.39928 11.2805 2.49975 11.2105C2.60022 11.1405 2.71972 11.103 2.84217 11.103H11.4061L14.4392 2.50678C14.4821 2.39274 14.5587 2.2945 14.6589 2.22515C14.7591 2.1558 14.878 2.11865 14.9998 2.11865V22.282Z" fill="#ECF2FB"/>
<path d="M14.4404 2.50678C14.4833 2.39274 14.5599 2.2945 14.6601 2.22515C14.7603 2.1558 14.8792 2.11865 15.001 2.11865C15.1229 2.11865 15.2418 2.1558 15.342 2.22515C15.4421 2.2945 15.5188 2.39274 15.5616 2.50678L18.5936 11.103H27.1563C27.2787 11.103 27.3982 11.1405 27.4987 11.2105C27.5992 11.2805 27.6758 11.3796 27.7182 11.4945C27.7606 11.6093 27.7668 11.7344 27.736 11.8529C27.7051 11.9714 27.6387 12.0776 27.5456 12.1572L20.3904 18.0893L23.3852 27.0856C23.4253 27.2062 23.426 27.3364 23.3872 27.4573C23.3484 27.5783 23.2722 27.6838 23.1695 27.7586C23.0669 27.8334 22.9431 27.8736 22.816 27.8735C22.689 27.8733 22.5653 27.8327 22.4628 27.7577L14.9998 22.282L7.53321 27.7577C7.43067 27.8313 7.30749 27.8706 7.18126 27.87C7.05504 27.8695 6.93221 27.8291 6.83033 27.7545C6.72845 27.68 6.65271 27.5752 6.61393 27.4551C6.57516 27.335 6.57532 27.2057 6.61441 27.0856L9.6092 18.0893L2.45285 12.1572C2.35979 12.0776 2.29336 11.9714 2.2625 11.8529C2.23164 11.7344 2.23784 11.6093 2.28026 11.4945C2.32268 11.3796 2.39928 11.2805 2.49975 11.2105C2.60022 11.1405 2.71972 11.103 2.84217 11.103H11.4061L14.4404 2.50678Z" stroke="black" stroke-width="1.25" stroke-linecap="round" stroke-linejoin="round"/>
</svg>
