<svg width="51" height="50" viewBox="0 0 51 50" fill="none" xmlns="http://www.w3.org/2000/svg">
<rect x="0.333008" width="50" height="50" rx="25" fill="#F9D835"/>
<g clip-path="url(#clip0_1017_734)">
<path d="M32.6556 24.5281C31.494 24.5402 30.3484 24.7997 29.2949 25.2892C28.2415 25.7788 27.3045 26.4871 26.5462 27.3672C26.5418 26.4072 26.3052 25.4626 25.8568 24.6139C25.4083 23.7651 24.7612 23.0374 23.9707 22.4928C24.9706 21.7804 26.1691 21.4004 27.3967 21.4063C28.4731 21.4055 29.5297 21.695 30.4552 22.2444C31.3808 22.7939 32.1409 23.5828 32.6556 24.5281Z" fill="#F9D835"/>
<path d="M19.609 38.776L20.208 31.5885H23.2028V27.3958C23.2028 25.8073 22.5718 24.2838 21.4485 23.1606C20.3252 22.0373 18.8018 21.4062 17.2132 21.4062C15.6247 21.4063 14.1012 22.0373 12.9779 23.1606C11.8547 24.2838 11.2236 25.8073 11.2236 27.3958V31.5885H14.2184L14.8174 38.776H19.609Z" fill="#ECF2FB"/>
<path d="M13.0205 15.4154C13.0205 16.5273 13.4622 17.5938 14.2485 18.3801C15.0348 19.1663 16.1012 19.6081 17.2132 19.6081C18.3252 19.6081 19.3916 19.1663 20.1779 18.3801C20.9642 17.5938 21.4059 16.5273 21.4059 15.4154C21.4059 14.3034 20.9642 13.237 20.1779 12.4507C19.3916 11.6644 18.3252 11.2227 17.2132 11.2227C16.1012 11.2227 15.0348 11.6644 14.2485 12.4507C13.4622 13.237 13.0205 14.3034 13.0205 15.4154Z" fill="#ECF2FB"/>
<path d="M23.8027 16.0137C23.8027 16.9668 24.1814 17.8809 24.8553 18.5548C25.5293 19.2288 26.4434 19.6074 27.3965 19.6074C28.3496 19.6074 29.2637 19.2288 29.9376 18.5548C30.6116 17.8809 30.9902 16.9668 30.9902 16.0137C30.9902 15.0606 30.6116 14.1465 29.9376 13.4725C29.2637 12.7985 28.3496 12.4199 27.3965 12.4199C26.4434 12.4199 25.5293 12.7985 24.8553 13.4725C24.1814 14.1465 23.8027 15.0606 23.8027 16.0137Z" fill="#F9D835"/>
<path d="M23.2028 27.3958V29.588C23.2028 27.9995 22.5718 26.476 21.4485 25.3527C20.3252 24.2295 18.8018 23.5984 17.2132 23.5984C15.6247 23.5984 14.1012 24.2295 12.9779 25.3527C11.8547 26.476 11.2236 27.9995 11.2236 29.588V27.3958C11.2236 25.8073 11.8547 24.2838 12.9779 23.1606C14.1012 22.0373 15.6247 21.4062 17.2132 21.4062C18.8018 21.4062 20.3252 22.0373 21.4485 23.1606C22.5718 24.2838 23.2028 25.8073 23.2028 27.3958Z" fill="white"/>
<path d="M25.4334 23.9339C26.3403 23.6107 27.3128 23.515 28.2653 23.6552C29.2179 23.7953 30.1216 24.167 30.8971 24.7377C31.4739 24.6043 32.0636 24.5341 32.6556 24.5281C32.1409 23.5828 31.3808 22.7938 30.4552 22.2444C29.5297 21.695 28.4731 21.4054 27.3967 21.4063C26.1687 21.4019 24.9704 21.7832 23.9707 22.4964C24.5372 22.888 25.032 23.3743 25.4334 23.9339Z" fill="#ECF2FB"/>
<path d="M17.2132 13.4136C18.132 13.4155 19.0245 13.7199 19.753 14.2798C20.4814 14.8398 21.005 15.6241 21.243 16.5115C21.346 16.155 21.4008 15.7864 21.4059 15.4154C21.4059 14.3034 20.9642 13.237 20.1779 12.4507C19.3916 11.6644 18.3252 11.2227 17.2132 11.2227C16.1012 11.2227 15.0348 11.6644 14.2485 12.4507C13.4622 13.237 13.0205 14.3034 13.0205 15.4154C13.0256 15.7864 13.0804 16.155 13.1834 16.5115C13.4214 15.6241 13.9451 14.8398 14.6735 14.2798C15.4019 13.7199 16.2945 13.4155 17.2132 13.4136Z" fill="white"/>
<path d="M27.3965 14.6114C28.1557 14.6132 28.8948 14.8562 29.5069 15.3053C30.119 15.7545 30.5726 16.3865 30.8022 17.1102C30.9843 16.5697 31.0351 15.9935 30.9504 15.4294C30.8658 14.8654 30.648 14.3295 30.3152 13.8663C29.9825 13.403 29.5442 13.0256 29.0366 12.7652C28.5291 12.5049 27.9669 12.3691 27.3965 12.3691C26.8261 12.3691 26.2639 12.5049 25.7563 12.7652C25.2488 13.0256 24.8105 13.403 24.4777 13.8663C24.1449 14.3295 23.9272 14.8654 23.8425 15.4294C23.7579 15.9935 23.8087 16.5697 23.9908 17.1102C24.2204 16.3865 24.6739 15.7545 25.2861 15.3053C25.8982 14.8562 26.6372 14.6132 27.3965 14.6114Z" fill="#ECF2FB"/>
<path d="M19.609 38.776L20.208 31.5885H23.2028V27.3958C23.2028 25.8073 22.5718 24.2838 21.4485 23.1606C20.3252 22.0373 18.8018 21.4062 17.2132 21.4062C15.6247 21.4063 14.1012 22.0373 12.9779 23.1606C11.8547 24.2838 11.2236 25.8073 11.2236 27.3958V31.5885H14.2184L14.8174 38.776H19.609Z" stroke="black" stroke-width="1.25" stroke-miterlimit="10"/>
<path d="M13.0205 15.4154C13.0205 16.5273 13.4622 17.5938 14.2485 18.3801C15.0348 19.1663 16.1012 19.6081 17.2132 19.6081C18.3252 19.6081 19.3916 19.1663 20.1779 18.3801C20.9642 17.5938 21.4059 16.5273 21.4059 15.4154C21.4059 14.3034 20.9642 13.237 20.1779 12.4507C19.3916 11.6644 18.3252 11.2227 17.2132 11.2227C16.1012 11.2227 15.0348 11.6644 14.2485 12.4507C13.4622 13.237 13.0205 14.3034 13.0205 15.4154Z" stroke="black" stroke-width="1.25" stroke-miterlimit="10"/>
<path d="M23.8027 16.0137C23.8027 16.9668 24.1814 17.8809 24.8553 18.5548C25.5293 19.2288 26.4434 19.6074 27.3965 19.6074C28.3496 19.6074 29.2637 19.2288 29.9376 18.5548C30.6116 17.8809 30.9902 16.9668 30.9902 16.0137C30.9902 15.0606 30.6116 14.1465 29.9376 13.4725C29.2637 12.7985 28.3496 12.4199 27.3965 12.4199C26.4434 12.4199 25.5293 12.7985 24.8553 13.4725C24.1814 14.1465 23.8027 15.0606 23.8027 16.0137Z" stroke="black" stroke-width="1.25" stroke-miterlimit="10"/>
<path d="M19.609 38.776L20.208 31.5885H23.2028V27.3958C23.2028 25.8073 22.5718 24.2838 21.4485 23.1606C20.3252 22.0373 18.8018 21.4062 17.2132 21.4062C15.6247 21.4063 14.1012 22.0373 12.9779 23.1606C11.8547 24.2838 11.2236 25.8073 11.2236 27.3958V31.5885H14.2184L14.8174 38.776H19.609Z" stroke="black" stroke-width="1.25" stroke-linecap="round" stroke-linejoin="round"/>
<path d="M13.0205 15.4154C13.0205 16.5273 13.4622 17.5938 14.2485 18.3801C15.0348 19.1663 16.1012 19.6081 17.2132 19.6081C18.3252 19.6081 19.3916 19.1663 20.1779 18.3801C20.9642 17.5938 21.4059 16.5273 21.4059 15.4154C21.4059 14.3034 20.9642 13.237 20.1779 12.4507C19.3916 11.6644 18.3252 11.2227 17.2132 11.2227C16.1012 11.2227 15.0348 11.6644 14.2485 12.4507C13.4622 13.237 13.0205 14.3034 13.0205 15.4154Z" stroke="black" stroke-width="1.25" stroke-linecap="round" stroke-linejoin="round"/>
<path d="M31.5161 23.0444C30.6421 22.217 29.5394 21.6717 28.3513 21.4794C27.1633 21.2871 25.9448 21.4567 24.8545 21.9663" stroke="black" stroke-width="1.25" stroke-linecap="round" stroke-linejoin="round"/>
<path d="M23.8027 16.0137C23.8027 16.9668 24.1814 17.8809 24.8553 18.5548C25.5293 19.2288 26.4434 19.6074 27.3965 19.6074C28.3496 19.6074 29.2637 19.2288 29.9376 18.5548C30.6116 17.8809 30.9902 16.9668 30.9902 16.0137C30.9902 15.0606 30.6116 14.1465 29.9376 13.4725C29.2637 12.7985 28.3496 12.4199 27.3965 12.4199C26.4434 12.4199 25.5293 12.7985 24.8553 13.4725C24.1814 14.1465 23.8027 15.0606 23.8027 16.0137Z" stroke="black" stroke-width="1.25" stroke-linecap="round" stroke-linejoin="round"/>
<path d="M34.3922 32.1285C34.3898 32.4242 34.3 32.7125 34.134 32.9572C33.9681 33.2018 33.7334 33.3919 33.4596 33.5034C33.1858 33.6149 32.8851 33.6428 32.5954 33.5837C32.3057 33.5246 32.04 33.381 31.8318 33.1712C31.6236 32.9613 31.4822 32.6945 31.4254 32.4043C31.3686 32.1142 31.3989 31.8137 31.5126 31.5408C31.6263 31.2679 31.8182 31.0347 32.0642 30.8707C32.3101 30.7067 32.5992 30.6192 32.8948 30.6192C33.0928 30.6179 33.2891 30.6561 33.4721 30.7317C33.6552 30.8072 33.8213 30.9185 33.9608 31.0591C34.1002 31.1997 34.2102 31.3667 34.2843 31.5503C34.3584 31.734 34.3951 31.9305 34.3922 32.1285Z" stroke="black" stroke-width="1.25" stroke-linecap="round" stroke-linejoin="round"/>
<path d="M37.4944 32.7993C37.3214 32.6164 37.225 32.3742 37.225 32.1224C37.225 31.8707 37.3214 31.6285 37.4944 31.4456L38.5247 30.3316C38.7167 30.1219 38.8372 29.8567 38.8686 29.5741C38.9 29.2915 38.8407 29.0063 38.6994 28.7596C38.558 28.5129 38.3419 28.3175 38.0823 28.2017C37.8226 28.0859 37.5328 28.0557 37.2549 28.1154L35.7814 28.4628C35.5356 28.5202 35.2771 28.4815 35.0588 28.3546C34.8406 28.2277 34.6791 28.0221 34.6075 27.78L34.1642 26.3305C34.0821 26.0576 33.9142 25.8185 33.6855 25.6485C33.4568 25.4785 33.1794 25.3867 32.8944 25.3867C32.6095 25.3867 32.3321 25.4785 32.1034 25.6485C31.8747 25.8185 31.7068 26.0576 31.6247 26.3305L31.1814 27.78C31.1098 28.0221 30.9483 28.2277 30.7301 28.3546C30.5118 28.4815 30.2533 28.5202 30.0075 28.4628L28.534 28.1154C28.2561 28.0557 27.9663 28.0859 27.7066 28.2017C27.447 28.3175 27.2308 28.5129 27.0895 28.7596C26.9482 29.0063 26.8889 29.2915 26.9203 29.5741C26.9517 29.8567 27.0722 30.1219 27.2642 30.3316L28.2944 31.4456C28.4675 31.6285 28.5639 31.8707 28.5639 32.1224C28.5639 32.3742 28.4675 32.6164 28.2944 32.7993L27.2642 33.9133C27.0722 34.123 26.9517 34.3882 26.9203 34.6708C26.8889 34.9534 26.9482 35.2386 27.0895 35.4853C27.2308 35.732 27.447 35.9273 27.7066 36.0431C27.9663 36.1589 28.2561 36.1892 28.534 36.1295L30.0075 35.7821C30.2533 35.7246 30.5118 35.7633 30.7301 35.8903C30.9483 36.0172 31.1098 36.2228 31.1814 36.4649L31.6247 37.9144C31.7068 38.1872 31.8747 38.4264 32.1034 38.5964C32.3321 38.7664 32.6095 38.8582 32.8944 38.8582C33.1794 38.8582 33.4568 38.7664 33.6855 38.5964C33.9142 38.4264 34.0821 38.1872 34.1642 37.9144L34.6075 36.4649C34.6791 36.2228 34.8406 36.0172 35.0588 35.8903C35.2771 35.7633 35.5356 35.7246 35.7814 35.7821L37.2549 36.1295C37.5328 36.1892 37.8226 36.1589 38.0823 36.0431C38.3419 35.9273 38.558 35.732 38.6994 35.4853C38.8407 35.2386 38.9 34.9534 38.8686 34.6708C38.8372 34.3882 38.7167 34.123 38.5247 33.9133L37.4944 32.7993ZM32.8944 33.6138C32.5978 33.6138 32.3078 33.5257 32.0613 33.3606C31.8148 33.1956 31.6229 32.961 31.5099 32.6867C31.3969 32.4124 31.368 32.1107 31.4268 31.8199C31.4855 31.5291 31.6293 31.2623 31.8399 31.0534C32.0505 30.8445 32.3185 30.7028 32.6097 30.6464C32.901 30.59 33.2024 30.6213 33.4758 30.7365C33.7492 30.8517 33.9822 31.0455 34.1453 31.2933C34.3084 31.5411 34.3942 31.8318 34.3918 32.1284C34.3915 32.3244 34.3525 32.5184 34.277 32.6993C34.2015 32.8801 34.091 33.0443 33.9518 33.1823C33.8127 33.3203 33.6477 33.4295 33.4662 33.5036C33.2847 33.5776 33.0904 33.6151 32.8944 33.6138Z" fill="#ECF2FB"/>
<path d="M35.7814 28.4628C35.5356 28.5202 35.2771 28.4815 35.0588 28.3546C34.8406 28.2277 34.6791 28.0221 34.6075 27.78L34.1642 26.3305C34.0821 26.0576 33.9142 25.8185 33.6855 25.6485C33.4568 25.4785 33.1794 25.3867 32.8944 25.3867C32.6095 25.3867 32.3321 25.4785 32.1034 25.6485C31.8747 25.8185 31.7068 26.0576 31.6247 26.3305L31.1814 27.78C31.1098 28.0221 30.9483 28.2277 30.7301 28.3546C30.5118 28.4815 30.2533 28.5202 30.0075 28.4628L28.534 28.1154C28.2561 28.0557 27.9663 28.0859 27.7066 28.2017C27.447 28.3175 27.2308 28.5129 27.0895 28.7596C26.9482 29.0063 26.8889 29.2915 26.9203 29.5741C26.9517 29.8567 27.0722 30.1219 27.2642 30.3316L28.2944 31.4456C28.4675 31.6285 28.5639 31.8707 28.5639 32.1224C28.5639 32.3742 28.4675 32.6164 28.2944 32.7993L27.2642 33.9133C27.0722 34.123 26.9517 34.3882 26.9203 34.6708C26.8889 34.9534 26.9482 35.2386 27.0895 35.4853C27.2308 35.732 27.447 35.9273 27.7066 36.0431C27.9663 36.1589 28.2561 36.1892 28.534 36.1295L29.0911 35.9977L31.8786 33.2101C31.7284 33.0734 31.6083 32.907 31.5258 32.7214C31.4433 32.5358 31.4003 32.3351 31.3994 32.132C31.3983 31.9345 31.4362 31.7387 31.5109 31.5559C31.5857 31.373 31.6957 31.2067 31.8348 31.0665C31.9739 30.9263 32.1394 30.8149 32.3216 30.7387C32.5038 30.6626 32.6993 30.6231 32.8968 30.6226C33.1022 30.6236 33.3051 30.6673 33.4926 30.751C33.6801 30.8348 33.848 30.9567 33.9857 31.109L36.8895 28.2064L35.7814 28.4628Z" fill="white"/>
<path d="M37.4944 32.7993C37.3214 32.6164 37.225 32.3742 37.225 32.1224C37.225 31.8707 37.3214 31.6285 37.4944 31.4456L38.5247 30.3316C38.7167 30.1219 38.8372 29.8567 38.8686 29.5741C38.9 29.2915 38.8407 29.0063 38.6994 28.7596C38.558 28.5129 38.3419 28.3175 38.0823 28.2017C37.8226 28.0859 37.5328 28.0557 37.2549 28.1154L35.7814 28.4628C35.5356 28.5202 35.2771 28.4815 35.0588 28.3546C34.8406 28.2277 34.6791 28.0221 34.6075 27.78L34.1642 26.3305C34.0821 26.0576 33.9142 25.8185 33.6855 25.6485C33.4568 25.4785 33.1794 25.3867 32.8944 25.3867C32.6095 25.3867 32.3321 25.4785 32.1034 25.6485C31.8747 25.8185 31.7068 26.0576 31.6247 26.3305L31.1814 27.78C31.1098 28.0221 30.9483 28.2277 30.7301 28.3546C30.5118 28.4815 30.2533 28.5202 30.0075 28.4628L28.534 28.1154C28.2561 28.0557 27.9663 28.0859 27.7066 28.2017C27.447 28.3175 27.2308 28.5129 27.0895 28.7596C26.9482 29.0063 26.8889 29.2915 26.9203 29.5741C26.9517 29.8567 27.0722 30.1219 27.2642 30.3316L28.2944 31.4456C28.4675 31.6285 28.5639 31.8707 28.5639 32.1224C28.5639 32.3742 28.4675 32.6164 28.2944 32.7993L27.2642 33.9133C27.0722 34.123 26.9517 34.3882 26.9203 34.6708C26.8889 34.9534 26.9482 35.2386 27.0895 35.4853C27.2308 35.732 27.447 35.9273 27.7066 36.0431C27.9663 36.1589 28.2561 36.1892 28.534 36.1295L30.0075 35.7821C30.2533 35.7246 30.5118 35.7633 30.7301 35.8903C30.9483 36.0172 31.1098 36.2228 31.1814 36.4649L31.6247 37.9144C31.7068 38.1872 31.8747 38.4264 32.1034 38.5964C32.3321 38.7664 32.6095 38.8582 32.8944 38.8582C33.1794 38.8582 33.4568 38.7664 33.6855 38.5964C33.9142 38.4264 34.0821 38.1872 34.1642 37.9144L34.6075 36.4649C34.6791 36.2228 34.8406 36.0172 35.0588 35.8903C35.2771 35.7633 35.5356 35.7246 35.7814 35.7821L37.2549 36.1295C37.5328 36.1892 37.8226 36.1589 38.0823 36.0431C38.3419 35.9273 38.558 35.732 38.6994 35.4853C38.8407 35.2386 38.9 34.9534 38.8686 34.6708C38.8372 34.3882 38.7167 34.123 38.5247 33.9133L37.4944 32.7993ZM32.8944 33.6138C32.5978 33.6138 32.3078 33.5257 32.0613 33.3606C31.8148 33.1956 31.6229 32.961 31.5099 32.6867C31.3969 32.4124 31.368 32.1107 31.4268 31.8199C31.4855 31.5291 31.6293 31.2623 31.8399 31.0534C32.0505 30.8445 32.3185 30.7028 32.6097 30.6464C32.901 30.59 33.2024 30.6213 33.4758 30.7365C33.7492 30.8517 33.9822 31.0455 34.1453 31.2933C34.3084 31.5411 34.3942 31.8318 34.3918 32.1284C34.3915 32.3244 34.3525 32.5184 34.277 32.6993C34.2015 32.8801 34.091 33.0443 33.9518 33.1823C33.8127 33.3203 33.6477 33.4295 33.4662 33.5036C33.2847 33.5776 33.0904 33.6151 32.8944 33.6138Z" stroke="black" stroke-width="1.25" stroke-linecap="round" stroke-linejoin="round"/>
</g>
<defs>
<clipPath id="clip0_1017_734">
<rect width="30" height="30" fill="white" transform="translate(10 10)"/>
</clipPath>
</defs>
</svg>
