<svg width="51" height="50" viewBox="0 0 51 50" fill="none" xmlns="http://www.w3.org/2000/svg">
<rect x="0.666992" width="50" height="50" rx="25" fill="#F9D835"/>
<g clip-path="url(#clip0_1017_761)">
<path d="M32.2891 20.5052C32.2891 21.3789 32.6361 22.2168 33.2539 22.8346C33.8717 23.4524 34.7096 23.7995 35.5833 23.7995C36.457 23.7995 37.2949 23.4524 37.9127 22.8346C38.5305 22.2168 38.8776 21.3789 38.8776 20.5052C38.8776 19.6315 38.5305 18.7936 37.9127 18.1758C37.2949 17.558 36.457 17.2109 35.5833 17.2109C34.7096 17.2109 33.8717 17.558 33.2539 18.1758C32.6361 18.7936 32.2891 19.6315 32.2891 20.5052Z" fill="#ECF2FB"/>
<path d="M39.776 29.1927C39.776 28.0807 39.3343 27.0143 38.548 26.228C37.7617 25.4417 36.6953 25 35.5833 25C34.4714 25 33.4049 25.4417 32.6186 26.228C31.8324 27.0143 31.3906 28.0807 31.3906 29.1927V32.7865H33.2869L33.7865 38.776H37.3802L37.8797 32.7865H39.776V29.1927Z" fill="#ECF2FB"/>
<path d="M35.5833 19.8898C36.2195 19.8905 36.8418 20.0755 37.3749 20.4225C37.9081 20.7694 38.3294 21.2635 38.5877 21.8448C38.8134 21.3431 38.9098 20.7929 38.8682 20.2443C38.8266 19.6958 38.6483 19.1664 38.3495 18.7045C38.0508 18.2426 37.6411 17.8629 37.158 17.5999C36.6748 17.337 36.1334 17.1992 35.5833 17.1992C35.0332 17.1992 34.4919 17.337 34.0087 17.5999C33.5255 17.8629 33.1159 18.2426 32.8171 18.7045C32.5184 19.1664 32.3401 19.6958 32.2985 20.2443C32.2569 20.7929 32.3533 21.3431 32.579 21.8448C32.8373 21.2635 33.2585 20.7694 33.7917 20.4225C34.3249 20.0755 34.9472 19.8905 35.5833 19.8898Z" fill="white"/>
<path d="M35.5833 25C35.0327 25 34.4875 25.1084 33.9789 25.3192C33.4702 25.5299 33.008 25.8387 32.6186 26.228C32.2293 26.6173 31.9205 27.0795 31.7098 27.5882C31.4991 28.0969 31.3906 28.6421 31.3906 29.1927V31.8712C31.3906 30.7593 31.8324 29.6928 32.6186 28.9066C33.4049 28.1203 34.4714 27.6785 35.5833 27.6785C36.6953 27.6785 37.7617 28.1203 38.548 28.9066C39.3343 29.6928 39.776 30.7593 39.776 31.8712V29.1927C39.776 28.6421 39.6676 28.0969 39.4569 27.5882C39.2462 27.0795 38.9374 26.6173 38.548 26.228C38.1587 25.8387 37.6965 25.5299 37.1878 25.3192C36.6791 25.1084 36.1339 25 35.5833 25Z" fill="white"/>
<path d="M32.2891 20.5052C32.2891 21.3789 32.6361 22.2168 33.2539 22.8346C33.8717 23.4524 34.7096 23.7995 35.5833 23.7995C36.457 23.7995 37.2949 23.4524 37.9127 22.8346C38.5305 22.2168 38.8776 21.3789 38.8776 20.5052C38.8776 19.6315 38.5305 18.7936 37.9127 18.1758C37.2949 17.558 36.457 17.2109 35.5833 17.2109C34.7096 17.2109 33.8717 17.558 33.2539 18.1758C32.6361 18.7936 32.2891 19.6315 32.2891 20.5052Z" stroke="black" stroke-width="1.25" stroke-linecap="round" stroke-linejoin="round"/>
<path d="M39.776 29.1927C39.776 28.0807 39.3343 27.0143 38.548 26.228C37.7617 25.4417 36.6953 25 35.5833 25C34.4714 25 33.4049 25.4417 32.6186 26.228C31.8324 27.0143 31.3906 28.0807 31.3906 29.1927V32.7865H33.2869L33.7865 38.776H37.3802L37.8797 32.7865H39.776V29.1927Z" stroke="black" stroke-width="1.25" stroke-linecap="round" stroke-linejoin="round"/>
<path d="M23.3037 13.918C23.3037 14.6328 23.5877 15.3184 24.0931 15.8238C24.5986 16.3293 25.2842 16.6133 25.999 16.6133C26.7139 16.6133 27.3994 16.3293 27.9049 15.8238C28.4104 15.3184 28.6943 14.6328 28.6943 13.918C28.6943 13.2031 28.4104 12.5176 27.9049 12.0121C27.3994 11.5066 26.7139 11.2227 25.999 11.2227C25.2842 11.2227 24.5986 11.5066 24.0931 12.0121C23.5877 12.5176 23.3037 13.2031 23.3037 13.918Z" fill="#ECF2FB"/>
<path d="M26.001 17.8125C25.0479 17.8125 24.1338 18.1911 23.4598 18.8651C22.7859 19.539 22.4072 20.4531 22.4072 21.4063V24.401H24.2041L24.8031 29.7917H27.1989L27.7979 24.401H29.5947V21.4063C29.5947 20.4531 29.2161 19.539 28.5421 18.8651C27.8682 18.1911 26.9541 17.8125 26.001 17.8125Z" fill="#ECF2FB"/>
<path d="M25.999 13.9012C26.4717 13.9023 26.9357 14.0283 27.344 14.2664C27.7523 14.5046 28.0905 14.8464 28.3242 15.2572C28.5639 14.8514 28.6916 14.3893 28.6943 13.918C28.6943 13.2031 28.4104 12.5176 27.9049 12.0121C27.3994 11.5066 26.7139 11.2227 25.999 11.2227C25.2842 11.2227 24.5986 11.5066 24.0931 12.0121C23.5877 12.5176 23.3037 13.2031 23.3037 13.918C23.3065 14.3893 23.4342 14.8514 23.6739 15.2572C23.9076 14.8464 24.2457 14.5046 24.654 14.2664C25.0623 14.0283 25.5263 13.9023 25.999 13.9012Z" fill="white"/>
<path d="M26.001 17.8125C25.0479 17.8125 24.1338 18.1911 23.4598 18.8651C22.7859 19.539 22.4072 20.4531 22.4072 21.4063V24.0848C22.4072 23.1317 22.7859 22.2176 23.4598 21.5436C24.1338 20.8697 25.0479 20.491 26.001 20.491C26.9541 20.491 27.8682 20.8697 28.5421 21.5436C29.2161 22.2176 29.5947 23.1317 29.5947 24.0848V21.4063C29.5947 20.4531 29.2161 19.539 28.5421 18.8651C27.8682 18.1911 26.9541 17.8125 26.001 17.8125Z" fill="white"/>
<path d="M23.3037 13.918C23.3037 14.6328 23.5877 15.3184 24.0931 15.8238C24.5986 16.3293 25.2842 16.6133 25.999 16.6133C26.7139 16.6133 27.3994 16.3293 27.9049 15.8238C28.4104 15.3184 28.6943 14.6328 28.6943 13.918C28.6943 13.2031 28.4104 12.5176 27.9049 12.0121C27.3994 11.5066 26.7139 11.2227 25.999 11.2227C25.2842 11.2227 24.5986 11.5066 24.0931 12.0121C23.5877 12.5176 23.3037 13.2031 23.3037 13.918Z" stroke="black" stroke-width="1.25" stroke-linecap="round" stroke-linejoin="round"/>
<path d="M26.001 17.8125C25.0479 17.8125 24.1338 18.1911 23.4598 18.8651C22.7859 19.539 22.4072 20.4531 22.4072 21.4063V24.401H24.2041L24.8031 29.7917H27.1989L27.7979 24.401H29.5947V21.4063C29.5947 20.4531 29.2161 19.539 28.5421 18.8651C27.8682 18.1911 26.9541 17.8125 26.001 17.8125Z" stroke="black" stroke-width="1.25" stroke-linecap="round" stroke-linejoin="round"/>
<path d="M13.1221 20.5052C13.1221 21.3789 13.4691 22.2168 14.0869 22.8346C14.7047 23.4524 15.5426 23.7995 16.4163 23.7995C17.29 23.7995 18.1279 23.4524 18.7457 22.8346C19.3635 22.2168 19.7106 21.3789 19.7106 20.5052C19.7106 19.6315 19.3635 18.7936 18.7457 18.1758C18.1279 17.558 17.29 17.2109 16.4163 17.2109C15.5426 17.2109 14.7047 17.558 14.0869 18.1758C13.4691 18.7936 13.1221 19.6315 13.1221 20.5052Z" fill="#ECF2FB"/>
<path d="M20.609 29.1927C20.609 28.0807 20.1673 27.0143 19.381 26.228C18.5947 25.4417 17.5283 25 16.4163 25C15.3044 25 14.2379 25.4417 13.4516 26.228C12.6654 27.0143 12.2236 28.0807 12.2236 29.1927V32.7865H14.1199L14.6195 38.776H18.2132L18.7127 32.7865H20.609V29.1927Z" fill="#ECF2FB"/>
<path d="M16.4163 19.8918C17.0525 19.8925 17.6748 20.0776 18.208 20.4245C18.7411 20.7715 19.1624 21.2655 19.4207 21.8468C19.6204 21.3988 19.7174 20.9118 19.7047 20.4215C19.692 19.9312 19.5699 19.45 19.3474 19.0129C19.1248 18.5758 18.8074 18.194 18.4183 17.8954C18.0292 17.5968 17.5783 17.3888 17.0986 17.2868C16.6188 17.1848 16.1224 17.1913 15.6454 17.3058C15.1685 17.4203 14.7232 17.6399 14.3421 17.9486C13.9609 18.2573 13.6536 18.6473 13.4425 19.09C13.2314 19.5327 13.122 20.017 13.1221 20.5075C13.123 20.9694 13.2218 21.4259 13.412 21.8468C13.6703 21.2655 14.0915 20.7715 14.6247 20.4245C15.1579 20.0776 15.7802 19.8925 16.4163 19.8918Z" fill="white"/>
<path d="M16.4163 25C15.8657 25 15.3205 25.1084 14.8119 25.3192C14.3032 25.5299 13.841 25.8387 13.4516 26.228C13.0623 26.6173 12.7535 27.0795 12.5428 27.5882C12.3321 28.0969 12.2236 28.6421 12.2236 29.1927V31.8712C12.2236 30.7593 12.6654 29.6928 13.4516 28.9066C14.2379 28.1203 15.3044 27.6785 16.4163 27.6785C17.5283 27.6785 18.5947 28.1203 19.381 28.9066C20.1673 29.6928 20.609 30.7593 20.609 31.8712V29.1927C20.609 28.6421 20.5006 28.0969 20.2899 27.5882C20.0792 27.0795 19.7704 26.6173 19.381 26.228C18.9917 25.8387 18.5295 25.5299 18.0208 25.3192C17.5121 25.1084 16.9669 25 16.4163 25Z" fill="white"/>
<path d="M13.1221 20.5052C13.1221 21.3789 13.4691 22.2168 14.0869 22.8346C14.7047 23.4524 15.5426 23.7995 16.4163 23.7995C17.29 23.7995 18.1279 23.4524 18.7457 22.8346C19.3635 22.2168 19.7106 21.3789 19.7106 20.5052C19.7106 19.6315 19.3635 18.7936 18.7457 18.1758C18.1279 17.558 17.29 17.2109 16.4163 17.2109C15.5426 17.2109 14.7047 17.558 14.0869 18.1758C13.4691 18.7936 13.1221 19.6315 13.1221 20.5052Z" stroke="black" stroke-width="1.25" stroke-linecap="round" stroke-linejoin="round"/>
<path d="M20.609 29.1927C20.609 28.0807 20.1673 27.0143 19.381 26.228C18.5947 25.4417 17.5283 25 16.4163 25C15.3044 25 14.2379 25.4417 13.4516 26.228C12.6654 27.0143 12.2236 28.0807 12.2236 29.1927V32.7865H14.1199L14.6195 38.776H18.2132L18.7127 32.7865H20.609V29.1927Z" stroke="black" stroke-width="1.25" stroke-linecap="round" stroke-linejoin="round"/>
</g>
<defs>
<clipPath id="clip0_1017_761">
<rect width="30" height="30" fill="white" transform="translate(11 10)"/>
</clipPath>
</defs>
</svg>
