<svg width="15" height="16" viewBox="0 0 15 16" fill="none" xmlns="http://www.w3.org/2000/svg">
<path d="M0.625 3.625H14.375" stroke="black" stroke-linecap="round" stroke-linejoin="round"/>
<path d="M8.90625 1.125H6.09375C5.84511 1.125 5.60665 1.22377 5.43084 1.39959C5.25502 1.5754 5.15625 1.81386 5.15625 2.0625V3.625H9.84375V2.0625C9.84375 1.81386 9.74498 1.5754 9.56916 1.39959C9.39335 1.22377 9.15489 1.125 8.90625 1.125Z" stroke="black" stroke-linecap="round" stroke-linejoin="round"/>
<path d="M6.09375 11.5938V6.90625" stroke="black" stroke-linecap="round" stroke-linejoin="round"/>
<path d="M8.90625 11.5938V6.90625" stroke="black" stroke-linecap="round" stroke-linejoin="round"/>
<path d="M11.7875 14.0125C11.7701 14.2474 11.6644 14.4669 11.4916 14.627C11.3188 14.787 11.0918 14.8756 10.8562 14.875H4.14375C3.90823 14.8756 3.68121 14.787 3.50842 14.627C3.33562 14.4669 3.22989 14.2474 3.2125 14.0125L2.34375 3.625H12.6562L11.7875 14.0125Z" stroke="black" stroke-linecap="round" stroke-linejoin="round"/>
</svg>
