<svg width="30" height="30" viewBox="0 0 30 30" fill="none" xmlns="http://www.w3.org/2000/svg">
<g clip-path="url(#clip0_5026_16762)">
<path d="M21.2891 10.5052C21.2891 11.3789 21.6361 12.2168 22.2539 12.8346C22.8717 13.4524 23.7096 13.7995 24.5833 13.7995C25.457 13.7995 26.2949 13.4524 26.9127 12.8346C27.5305 12.2168 27.8776 11.3789 27.8776 10.5052C27.8776 9.63151 27.5305 8.7936 26.9127 8.17581C26.2949 7.55801 25.457 7.21094 24.5833 7.21094C23.7096 7.21094 22.8717 7.55801 22.2539 8.17581C21.6361 8.7936 21.2891 9.63151 21.2891 10.5052Z" fill="#ECF2FB"/>
<path d="M28.776 19.1927C28.776 18.0807 28.3343 17.0143 27.548 16.228C26.7617 15.4417 25.6953 15 24.5833 15C23.4714 15 22.4049 15.4417 21.6186 16.228C20.8324 17.0143 20.3906 18.0807 20.3906 19.1927V22.7865H22.2869L22.7865 28.776H26.3802L26.8797 22.7865H28.776V19.1927Z" fill="#ECF2FB"/>
<path d="M24.5833 9.88977C25.2195 9.8905 25.8418 10.0755 26.3749 10.4225C26.9081 10.7694 27.3294 11.2635 27.5877 11.8448C27.8134 11.3431 27.9098 10.7929 27.8682 10.2443C27.8266 9.69582 27.6483 9.16645 27.3495 8.70453C27.0508 8.24261 26.6411 7.86286 26.158 7.59992C25.6748 7.33697 25.1334 7.19922 24.5833 7.19922C24.0332 7.19922 23.4919 7.33697 23.0087 7.59992C22.5255 7.86286 22.1159 8.24261 21.8171 8.70453C21.5184 9.16645 21.3401 9.69582 21.2985 10.2443C21.2569 10.7929 21.3533 11.3431 21.579 11.8448C21.8373 11.2635 22.2585 10.7694 22.7917 10.4225C23.3249 10.0755 23.9472 9.8905 24.5833 9.88977Z" fill="white"/>
<path d="M24.5833 15C24.0327 15 23.4875 15.1084 22.9789 15.3192C22.4702 15.5299 22.008 15.8387 21.6186 16.228C21.2293 16.6173 20.9205 17.0795 20.7098 17.5882C20.4991 18.0969 20.3906 18.6421 20.3906 19.1927V21.8712C20.3906 20.7593 20.8324 19.6928 21.6186 18.9066C22.4049 18.1203 23.4714 17.6785 24.5833 17.6785C25.6953 17.6785 26.7617 18.1203 27.548 18.9066C28.3343 19.6928 28.776 20.7593 28.776 21.8712V19.1927C28.776 18.6421 28.6676 18.0969 28.4569 17.5882C28.2462 17.0795 27.9374 16.6173 27.548 16.228C27.1587 15.8387 26.6965 15.5299 26.1878 15.3192C25.6791 15.1084 25.1339 15 24.5833 15Z" fill="white"/>
<path d="M21.2891 10.5052C21.2891 11.3789 21.6361 12.2168 22.2539 12.8346C22.8717 13.4524 23.7096 13.7995 24.5833 13.7995C25.457 13.7995 26.2949 13.4524 26.9127 12.8346C27.5305 12.2168 27.8776 11.3789 27.8776 10.5052C27.8776 9.63151 27.5305 8.7936 26.9127 8.17581C26.2949 7.55801 25.457 7.21094 24.5833 7.21094C23.7096 7.21094 22.8717 7.55801 22.2539 8.17581C21.6361 8.7936 21.2891 9.63151 21.2891 10.5052Z" stroke="black" stroke-width="1.25" stroke-linecap="round" stroke-linejoin="round"/>
<path d="M28.776 19.1927C28.776 18.0807 28.3343 17.0143 27.548 16.228C26.7617 15.4417 25.6953 15 24.5833 15C23.4714 15 22.4049 15.4417 21.6186 16.228C20.8324 17.0143 20.3906 18.0807 20.3906 19.1927V22.7865H22.2869L22.7865 28.776H26.3802L26.8797 22.7865H28.776V19.1927Z" stroke="black" stroke-width="1.25" stroke-linecap="round" stroke-linejoin="round"/>
<path d="M12.3037 3.91797C12.3037 4.63281 12.5877 5.31837 13.0932 5.82384C13.5986 6.32931 14.2842 6.61328 14.999 6.61328C15.7139 6.61328 16.3994 6.32931 16.9049 5.82384C17.4104 5.31837 17.6943 4.63281 17.6943 3.91797C17.6943 3.20313 17.4104 2.51756 16.9049 2.0121C16.3994 1.50663 15.7139 1.22266 14.999 1.22266C14.2842 1.22266 13.5986 1.50663 13.0932 2.0121C12.5877 2.51756 12.3037 3.20313 12.3037 3.91797Z" fill="#ECF2FB"/>
<path d="M15.001 7.8125C14.0479 7.8125 13.1338 8.19113 12.4598 8.86509C11.7859 9.53904 11.4072 10.4531 11.4072 11.4062V14.401H13.2041L13.8031 19.7917H16.1989L16.7979 14.401H18.5947V11.4062C18.5947 10.4531 18.2161 9.53904 17.5421 8.86509C16.8682 8.19113 15.9541 7.8125 15.001 7.8125Z" fill="#ECF2FB"/>
<path d="M14.999 3.9012C15.4717 3.9023 15.9357 4.02829 16.344 4.26642C16.7523 4.50456 17.0905 4.84637 17.3242 5.25724C17.5639 4.85142 17.6916 4.38928 17.6943 3.91797C17.6943 3.20313 17.4104 2.51756 16.9049 2.0121C16.3994 1.50663 15.7139 1.22266 14.999 1.22266C14.2842 1.22266 13.5986 1.50663 13.0932 2.0121C12.5877 2.51756 12.3037 3.20313 12.3037 3.91797C12.3065 4.38928 12.4342 4.85142 12.6739 5.25724C12.9076 4.84637 13.2457 4.50456 13.654 4.26642C14.0623 4.02829 14.5263 3.9023 14.999 3.9012Z" fill="white"/>
<path d="M15.001 7.8125C14.0479 7.8125 13.1338 8.19113 12.4598 8.86509C11.7859 9.53904 11.4072 10.4531 11.4072 11.4062V14.0848C11.4072 13.1317 11.7859 12.2176 12.4598 11.5436C13.1338 10.8697 14.0479 10.491 15.001 10.491C15.9541 10.491 16.8682 10.8697 17.5421 11.5436C18.2161 12.2176 18.5947 13.1317 18.5947 14.0848V11.4062C18.5947 10.4531 18.2161 9.53904 17.5421 8.86509C16.8682 8.19113 15.9541 7.8125 15.001 7.8125Z" fill="white"/>
<path d="M12.3037 3.91797C12.3037 4.63281 12.5877 5.31837 13.0931 5.82384C13.5986 6.32931 14.2842 6.61328 14.999 6.61328C15.7139 6.61328 16.3994 6.32931 16.9049 5.82384C17.4104 5.31837 17.6943 4.63281 17.6943 3.91797C17.6943 3.20313 17.4104 2.51756 16.9049 2.0121C16.3994 1.50663 15.7139 1.22266 14.999 1.22266C14.2842 1.22266 13.5986 1.50663 13.0931 2.0121C12.5877 2.51756 12.3037 3.20313 12.3037 3.91797Z" stroke="black" stroke-width="1.25" stroke-linecap="round" stroke-linejoin="round"/>
<path d="M15.001 7.8125C14.0479 7.8125 13.1338 8.19113 12.4598 8.86509C11.7859 9.53904 11.4072 10.4531 11.4072 11.4063V14.401H13.2041L13.8031 19.7917H16.1989L16.7979 14.401H18.5947V11.4063C18.5947 10.4531 18.2161 9.53904 17.5421 8.86509C16.8682 8.19113 15.9541 7.8125 15.001 7.8125Z" stroke="black" stroke-width="1.25" stroke-linecap="round" stroke-linejoin="round"/>
<path d="M2.12207 10.5052C2.12207 11.3789 2.46914 12.2168 3.08694 12.8346C3.70474 13.4524 4.54265 13.7995 5.41634 13.7995C6.29004 13.7995 7.12795 13.4524 7.74574 12.8346C8.36354 12.2168 8.71061 11.3789 8.71061 10.5052C8.71061 9.63151 8.36354 8.7936 7.74574 8.17581C7.12795 7.55801 6.29004 7.21094 5.41634 7.21094C4.54265 7.21094 3.70474 7.55801 3.08694 8.17581C2.46914 8.7936 2.12207 9.63151 2.12207 10.5052Z" fill="#ECF2FB"/>
<path d="M9.60905 19.1927C9.60905 18.0807 9.16732 17.0143 8.38103 16.228C7.59475 15.4417 6.52832 15 5.41634 15C4.30437 15 3.23793 15.4417 2.45165 16.228C1.66536 17.0143 1.22363 18.0807 1.22363 19.1927V22.7865H3.11993L3.61947 28.776H7.21322L7.71275 22.7865H9.60905V19.1927Z" fill="#ECF2FB"/>
<path d="M5.41634 9.89178C6.05247 9.89252 6.67477 10.0776 7.20795 10.4245C7.74114 10.7715 8.16237 11.2655 8.42072 11.8468C8.62038 11.3988 8.71741 10.9118 8.70472 10.4215C8.69203 9.93123 8.56993 9.44996 8.34736 9.01289C8.12479 8.57583 7.80737 8.19403 7.41829 7.89539C7.02922 7.59676 6.57833 7.38883 6.09859 7.28683C5.61884 7.18482 5.12236 7.1913 4.64544 7.3058C4.16853 7.42031 3.72322 7.63993 3.34208 7.94863C2.96094 8.25733 2.6536 8.64729 2.44252 9.09002C2.23144 9.53274 2.12195 10.017 2.12207 10.5075C2.123 10.9694 2.22181 11.4259 2.41197 11.8468C2.67031 11.2655 3.09155 10.7715 3.62473 10.4245C4.15792 10.0776 4.78021 9.89252 5.41634 9.89178Z" fill="white"/>
<path d="M5.41634 15C4.86575 15 4.32054 15.1084 3.81186 15.3192C3.30318 15.5299 2.84098 15.8387 2.45165 16.228C2.06232 16.6173 1.75349 17.0795 1.54278 17.5882C1.33208 18.0969 1.22363 18.6421 1.22363 19.1927V21.8712C1.22363 20.7593 1.66536 19.6928 2.45165 18.9066C3.23793 18.1203 4.30437 17.6785 5.41634 17.6785C6.52832 17.6785 7.59475 18.1203 8.38103 18.9066C9.16732 19.6928 9.60905 20.7593 9.60905 21.8712V19.1927C9.60905 18.6421 9.5006 18.0969 9.2899 17.5882C9.07919 17.0795 8.77036 16.6173 8.38103 16.228C7.9917 15.8387 7.5295 15.5299 7.02082 15.3192C6.51214 15.1084 5.96694 15 5.41634 15Z" fill="white"/>
<path d="M2.12207 10.5052C2.12207 11.3789 2.46914 12.2168 3.08694 12.8346C3.70474 13.4524 4.54265 13.7995 5.41634 13.7995C6.29004 13.7995 7.12795 13.4524 7.74574 12.8346C8.36354 12.2168 8.71061 11.3789 8.71061 10.5052C8.71061 9.63151 8.36354 8.7936 7.74574 8.17581C7.12795 7.55801 6.29004 7.21094 5.41634 7.21094C4.54265 7.21094 3.70474 7.55801 3.08694 8.17581C2.46914 8.7936 2.12207 9.63151 2.12207 10.5052Z" stroke="black" stroke-width="1.25" stroke-linecap="round" stroke-linejoin="round"/>
<path d="M9.60905 19.1927C9.60905 18.0807 9.16732 17.0143 8.38103 16.228C7.59475 15.4417 6.52832 15 5.41634 15C4.30437 15 3.23793 15.4417 2.45165 16.228C1.66536 17.0143 1.22363 18.0807 1.22363 19.1927V22.7865H3.11993L3.61947 28.776H7.21322L7.71275 22.7865H9.60905V19.1927Z" stroke="black" stroke-width="1.25" stroke-linecap="round" stroke-linejoin="round"/>
</g>
<defs>
<clipPath id="clip0_5026_16762">
<rect width="30" height="30" fill="white"/>
</clipPath>
</defs>
</svg>
