<svg width="30" height="30" viewBox="0 0 30 30" fill="none" xmlns="http://www.w3.org/2000/svg">
<g clip-path="url(#clip0_5026_16782)">
<path d="M22.6556 14.5281C21.494 14.5402 20.3484 14.7997 19.2949 15.2892C18.2415 15.7788 17.3045 16.4871 16.5462 17.3672C16.5418 16.4072 16.3052 15.4626 15.8568 14.6139C15.4083 13.7651 14.7612 13.0374 13.9707 12.4928C14.9706 11.7804 16.1691 11.4004 17.3967 11.4063C18.4731 11.4055 19.5297 11.695 20.4552 12.2444C21.3808 12.7939 22.1409 13.5828 22.6556 14.5281Z" fill="#F9D835"/>
<path d="M9.60905 28.776L10.208 21.5885H13.2028V17.3958C13.2028 15.8073 12.5718 14.2838 11.4485 13.1606C10.3252 12.0373 8.80175 11.4063 7.21322 11.4062C5.62468 11.4063 4.10121 12.0373 2.97794 13.1606C1.85468 14.2838 1.22363 15.8073 1.22363 17.3958V21.5885H4.21842L4.81738 28.776H9.60905Z" fill="#ECF2FB"/>
<path d="M3.02051 5.41536C3.02051 6.52734 3.46224 7.59377 4.24852 8.38006C5.03481 9.16634 6.10124 9.60807 7.21322 9.60807C8.32519 9.60807 9.39162 9.16634 10.1779 8.38006C10.9642 7.59377 11.4059 6.52734 11.4059 5.41536C11.4059 4.30339 10.9642 3.23696 10.1779 2.45067C9.39162 1.66439 8.32519 1.22266 7.21322 1.22266C6.10124 1.22266 5.03481 1.66439 4.24852 2.45067C3.46224 3.23696 3.02051 4.30339 3.02051 5.41536Z" fill="#ECF2FB"/>
<path d="M13.8027 6.01172C13.8027 6.96484 14.1814 7.87892 14.8553 8.55288C15.5293 9.22684 16.4434 9.60547 17.3965 9.60547C18.3496 9.60547 19.2637 9.22684 19.9376 8.55288C20.6116 7.87892 20.9902 6.96484 20.9902 6.01172C20.9902 5.0586 20.6116 4.14451 19.9376 3.47055C19.2637 2.79659 18.3496 2.41797 17.3965 2.41797C16.4434 2.41797 15.5293 2.79659 14.8553 3.47055C14.1814 4.14451 13.8027 5.0586 13.8027 6.01172Z" fill="#F9D835"/>
<path d="M13.2028 17.3958V19.588C13.2028 17.9995 12.5718 16.476 11.4485 15.3527C10.3252 14.2295 8.80175 13.5984 7.21322 13.5984C5.62468 13.5984 4.10121 14.2295 2.97794 15.3527C1.85468 16.476 1.22363 17.9995 1.22363 19.588V17.3958C1.22363 15.8073 1.85468 14.2838 2.97794 13.1606C4.10121 12.0373 5.62468 11.4062 7.21322 11.4062C8.80175 11.4062 10.3252 12.0373 11.4485 13.1606C12.5718 14.2838 13.2028 15.8073 13.2028 17.3958Z" fill="white"/>
<path d="M15.4334 13.9339C16.3403 13.6107 17.3128 13.515 18.2653 13.6552C19.2179 13.7953 20.1216 14.167 20.8971 14.7377C21.4739 14.6043 22.0636 14.5341 22.6556 14.5281C22.1409 13.5828 21.3808 12.7938 20.4552 12.2444C19.5297 11.695 18.4731 11.4054 17.3967 11.4063C16.1687 11.4019 14.9704 11.7832 13.9707 12.4964C14.5372 12.888 15.032 13.3743 15.4334 13.9339Z" fill="#ECF2FB"/>
<path d="M7.21322 3.41365C8.13197 3.41546 9.02455 3.71987 9.75295 4.27981C10.4814 4.83976 11.005 5.62406 11.243 6.51146C11.346 6.15501 11.4008 5.78637 11.4059 5.41536C11.4059 4.30339 10.9642 3.23696 10.1779 2.45067C9.39162 1.66439 8.32519 1.22266 7.21322 1.22266C6.10124 1.22266 5.03481 1.66439 4.24852 2.45067C3.46224 3.23696 3.02051 4.30339 3.02051 5.41536C3.02559 5.78637 3.08039 6.15501 3.18342 6.51146C3.4214 5.62406 3.94508 4.83976 4.67348 4.27981C5.40189 3.71987 6.29446 3.41546 7.21322 3.41365Z" fill="white"/>
<path d="M17.3965 4.61334C18.1557 4.61513 18.8948 4.85814 19.5069 5.30729C20.119 5.75643 20.5726 6.38848 20.8022 7.11219C20.9843 6.57163 21.0351 5.99549 20.9504 5.4314C20.8658 4.86731 20.648 4.33148 20.3152 3.86821C19.9825 3.40494 19.5442 3.02753 19.0366 2.7672C18.5291 2.50687 17.9669 2.37109 17.3965 2.37109C16.8261 2.37109 16.2639 2.50687 15.7563 2.7672C15.2488 3.02753 14.8105 3.40494 14.4777 3.86821C14.1449 4.33148 13.9272 4.86731 13.8425 5.4314C13.7579 5.99549 13.8087 6.57163 13.9908 7.11219C14.2204 6.38848 14.6739 5.75643 15.2861 5.30729C15.8982 4.85814 16.6372 4.61513 17.3965 4.61334Z" fill="#ECF2FB"/>
<path d="M9.60905 28.776L10.208 21.5885H13.2028V17.3958C13.2028 15.8073 12.5718 14.2838 11.4485 13.1606C10.3252 12.0373 8.80175 11.4063 7.21322 11.4062C5.62468 11.4063 4.10121 12.0373 2.97794 13.1606C1.85468 14.2838 1.22363 15.8073 1.22363 17.3958V21.5885H4.21842L4.81738 28.776H9.60905Z" stroke="black" stroke-width="1.25" stroke-miterlimit="10"/>
<path d="M3.02051 5.41536C3.02051 6.52734 3.46224 7.59377 4.24852 8.38006C5.03481 9.16634 6.10124 9.60807 7.21322 9.60807C8.32519 9.60807 9.39162 9.16634 10.1779 8.38006C10.9642 7.59377 11.4059 6.52734 11.4059 5.41536C11.4059 4.30339 10.9642 3.23696 10.1779 2.45067C9.39162 1.66439 8.32519 1.22266 7.21322 1.22266C6.10124 1.22266 5.03481 1.66439 4.24852 2.45067C3.46224 3.23696 3.02051 4.30339 3.02051 5.41536Z" stroke="black" stroke-width="1.25" stroke-miterlimit="10"/>
<path d="M13.8027 6.01172C13.8027 6.96484 14.1814 7.87893 14.8553 8.55288C15.5293 9.22684 16.4434 9.60547 17.3965 9.60547C18.3496 9.60547 19.2637 9.22684 19.9376 8.55288C20.6116 7.87893 20.9902 6.96484 20.9902 6.01172C20.9902 5.0586 20.6116 4.14451 19.9376 3.47055C19.2637 2.79659 18.3496 2.41797 17.3965 2.41797C16.4434 2.41797 15.5293 2.79659 14.8553 3.47055C14.1814 4.14451 13.8027 5.0586 13.8027 6.01172Z" stroke="black" stroke-width="1.25" stroke-miterlimit="10"/>
<path d="M9.60905 28.776L10.208 21.5885H13.2028V17.3958C13.2028 15.8073 12.5718 14.2838 11.4485 13.1606C10.3252 12.0373 8.80175 11.4063 7.21322 11.4062C5.62468 11.4063 4.10121 12.0373 2.97794 13.1606C1.85468 14.2838 1.22363 15.8073 1.22363 17.3958V21.5885H4.21842L4.81738 28.776H9.60905Z" stroke="black" stroke-width="1.25" stroke-linecap="round" stroke-linejoin="round"/>
<path d="M3.02051 5.41536C3.02051 6.52734 3.46224 7.59377 4.24852 8.38006C5.03481 9.16634 6.10124 9.60807 7.21322 9.60807C8.32519 9.60807 9.39162 9.16634 10.1779 8.38006C10.9642 7.59377 11.4059 6.52734 11.4059 5.41536C11.4059 4.30339 10.9642 3.23696 10.1779 2.45067C9.39162 1.66439 8.32519 1.22266 7.21322 1.22266C6.10124 1.22266 5.03481 1.66439 4.24852 2.45067C3.46224 3.23696 3.02051 4.30339 3.02051 5.41536Z" stroke="black" stroke-width="1.25" stroke-linecap="round" stroke-linejoin="round"/>
<path d="M21.5161 13.0444C20.6421 12.217 19.5394 11.6717 18.3513 11.4794C17.1633 11.2871 15.9448 11.4567 14.8545 11.9663" stroke="black" stroke-width="1.25" stroke-linecap="round" stroke-linejoin="round"/>
<path d="M13.8027 6.01172C13.8027 6.96484 14.1814 7.87893 14.8553 8.55288C15.5293 9.22684 16.4434 9.60547 17.3965 9.60547C18.3496 9.60547 19.2637 9.22684 19.9376 8.55288C20.6116 7.87893 20.9902 6.96484 20.9902 6.01172C20.9902 5.0586 20.6116 4.14451 19.9376 3.47055C19.2637 2.79659 18.3496 2.41797 17.3965 2.41797C16.4434 2.41797 15.5293 2.79659 14.8553 3.47055C14.1814 4.14451 13.8027 5.0586 13.8027 6.01172Z" stroke="black" stroke-width="1.25" stroke-linecap="round" stroke-linejoin="round"/>
<path d="M24.3922 22.1266C24.3898 22.4222 24.3 22.7105 24.134 22.9552C23.9681 23.1999 23.7334 23.3899 23.4596 23.5014C23.1858 23.6129 22.8851 23.6409 22.5954 23.5818C22.3057 23.5226 22.04 23.3791 21.8318 23.1692C21.6236 22.9593 21.4822 22.6925 21.4254 22.4024C21.3686 22.1122 21.3989 21.8118 21.5126 21.5389C21.6263 21.2659 21.8182 21.0328 22.0642 20.8688C22.3101 20.7048 22.5992 20.6172 22.8948 20.6172C23.0928 20.6159 23.2891 20.6542 23.4721 20.7297C23.6552 20.8053 23.8213 20.9166 23.9608 21.0572C24.1002 21.1977 24.2102 21.3647 24.2843 21.5484C24.3584 21.732 24.3951 21.9286 24.3922 22.1266Z" stroke="black" stroke-width="1.25" stroke-linecap="round" stroke-linejoin="round"/>
<path d="M27.4944 22.7993C27.3214 22.6164 27.225 22.3742 27.225 22.1224C27.225 21.8707 27.3214 21.6285 27.4944 21.4456L28.5247 20.3316C28.7167 20.1219 28.8372 19.8567 28.8686 19.5741C28.9 19.2915 28.8407 19.0063 28.6994 18.7596C28.558 18.5129 28.3419 18.3175 28.0823 18.2017C27.8226 18.0859 27.5328 18.0557 27.2549 18.1154L25.7814 18.4628C25.5356 18.5202 25.2771 18.4815 25.0588 18.3546C24.8406 18.2277 24.6791 18.0221 24.6075 17.78L24.1642 16.3305C24.0821 16.0576 23.9142 15.8185 23.6855 15.6485C23.4568 15.4785 23.1794 15.3867 22.8944 15.3867C22.6095 15.3867 22.3321 15.4785 22.1034 15.6485C21.8747 15.8185 21.7068 16.0576 21.6247 16.3305L21.1814 17.78C21.1098 18.0221 20.9483 18.2277 20.7301 18.3546C20.5118 18.4815 20.2533 18.5202 20.0075 18.4628L18.534 18.1154C18.2561 18.0557 17.9663 18.0859 17.7066 18.2017C17.447 18.3175 17.2308 18.5129 17.0895 18.7596C16.9482 19.0063 16.8889 19.2915 16.9203 19.5741C16.9517 19.8567 17.0722 20.1219 17.2642 20.3316L18.2944 21.4456C18.4675 21.6285 18.5639 21.8707 18.5639 22.1224C18.5639 22.3742 18.4675 22.6164 18.2944 22.7993L17.2642 23.9133C17.0722 24.123 16.9517 24.3882 16.9203 24.6708C16.8889 24.9534 16.9482 25.2386 17.0895 25.4853C17.2308 25.732 17.447 25.9273 17.7066 26.0431C17.9663 26.1589 18.2561 26.1892 18.534 26.1295L20.0075 25.7821C20.2533 25.7246 20.5118 25.7633 20.7301 25.8903C20.9483 26.0172 21.1098 26.2228 21.1814 26.4649L21.6247 27.9144C21.7068 28.1872 21.8747 28.4264 22.1034 28.5964C22.3321 28.7664 22.6095 28.8582 22.8944 28.8582C23.1794 28.8582 23.4568 28.7664 23.6855 28.5964C23.9142 28.4264 24.0821 28.1872 24.1642 27.9144L24.6075 26.4649C24.6791 26.2228 24.8406 26.0172 25.0588 25.8903C25.2771 25.7633 25.5356 25.7246 25.7814 25.7821L27.2549 26.1295C27.5328 26.1892 27.8226 26.1589 28.0823 26.0431C28.3419 25.9273 28.558 25.732 28.6994 25.4853C28.8407 25.2386 28.9 24.9534 28.8686 24.6708C28.8372 24.3882 28.7167 24.123 28.5247 23.9133L27.4944 22.7993ZM22.8944 23.6138C22.5978 23.6138 22.3078 23.5257 22.0613 23.3606C21.8148 23.1956 21.6229 22.961 21.5099 22.6867C21.3969 22.4124 21.368 22.1107 21.4268 21.8199C21.4855 21.5291 21.6293 21.2623 21.8399 21.0534C22.0505 20.8445 22.3185 20.7028 22.6097 20.6464C22.901 20.59 23.2024 20.6213 23.4758 20.7365C23.7492 20.8517 23.9822 21.0455 24.1453 21.2933C24.3084 21.5411 24.3942 21.8318 24.3918 22.1284C24.3915 22.3244 24.3525 22.5184 24.277 22.6993C24.2015 22.8801 24.091 23.0443 23.9518 23.1823C23.8127 23.3203 23.6477 23.4295 23.4662 23.5036C23.2847 23.5776 23.0904 23.6151 22.8944 23.6138Z" fill="#ECF2FB"/>
<path d="M25.7814 18.4628C25.5356 18.5202 25.2771 18.4815 25.0588 18.3546C24.8406 18.2277 24.6791 18.0221 24.6075 17.78L24.1642 16.3305C24.0821 16.0576 23.9142 15.8185 23.6855 15.6485C23.4568 15.4785 23.1794 15.3867 22.8944 15.3867C22.6095 15.3867 22.3321 15.4785 22.1034 15.6485C21.8747 15.8185 21.7068 16.0576 21.6247 16.3305L21.1814 17.78C21.1098 18.0221 20.9483 18.2277 20.7301 18.3546C20.5118 18.4815 20.2533 18.5202 20.0075 18.4628L18.534 18.1154C18.2561 18.0557 17.9663 18.0859 17.7066 18.2017C17.447 18.3175 17.2308 18.5129 17.0895 18.7596C16.9482 19.0063 16.8889 19.2915 16.9203 19.5741C16.9517 19.8567 17.0722 20.1219 17.2642 20.3316L18.2944 21.4456C18.4675 21.6285 18.5639 21.8707 18.5639 22.1224C18.5639 22.3742 18.4675 22.6164 18.2944 22.7993L17.2642 23.9133C17.0722 24.123 16.9517 24.3882 16.9203 24.6708C16.8889 24.9534 16.9482 25.2386 17.0895 25.4853C17.2308 25.732 17.447 25.9273 17.7066 26.0431C17.9663 26.1589 18.2561 26.1892 18.534 26.1295L19.0911 25.9977L21.8786 23.2101C21.7284 23.0734 21.6083 22.907 21.5258 22.7214C21.4433 22.5358 21.4003 22.3351 21.3994 22.132C21.3983 21.9345 21.4362 21.7387 21.5109 21.5559C21.5857 21.373 21.6957 21.2067 21.8348 21.0665C21.9739 20.9263 22.1394 20.8149 22.3216 20.7387C22.5038 20.6626 22.6993 20.6231 22.8968 20.6226C23.1022 20.6236 23.3051 20.6673 23.4926 20.751C23.6801 20.8348 23.848 20.9567 23.9857 21.109L26.8895 18.2064L25.7814 18.4628Z" fill="white"/>
<path d="M27.4944 22.7993C27.3214 22.6164 27.225 22.3742 27.225 22.1224C27.225 21.8707 27.3214 21.6285 27.4944 21.4456L28.5247 20.3316C28.7167 20.1219 28.8372 19.8567 28.8686 19.5741C28.9 19.2915 28.8407 19.0063 28.6994 18.7596C28.558 18.5129 28.3419 18.3175 28.0823 18.2017C27.8226 18.0859 27.5328 18.0557 27.2549 18.1154L25.7814 18.4628C25.5356 18.5202 25.2771 18.4815 25.0588 18.3546C24.8406 18.2277 24.6791 18.0221 24.6075 17.78L24.1642 16.3305C24.0821 16.0576 23.9142 15.8185 23.6855 15.6485C23.4568 15.4785 23.1794 15.3867 22.8944 15.3867C22.6095 15.3867 22.3321 15.4785 22.1034 15.6485C21.8747 15.8185 21.7068 16.0576 21.6247 16.3305L21.1814 17.78C21.1098 18.0221 20.9483 18.2277 20.7301 18.3546C20.5118 18.4815 20.2533 18.5202 20.0075 18.4628L18.534 18.1154C18.2561 18.0557 17.9663 18.0859 17.7066 18.2017C17.447 18.3175 17.2308 18.5129 17.0895 18.7596C16.9482 19.0063 16.8889 19.2915 16.9203 19.5741C16.9517 19.8567 17.0722 20.1219 17.2642 20.3316L18.2944 21.4456C18.4675 21.6285 18.5639 21.8707 18.5639 22.1224C18.5639 22.3742 18.4675 22.6164 18.2944 22.7993L17.2642 23.9133C17.0722 24.123 16.9517 24.3882 16.9203 24.6708C16.8889 24.9534 16.9482 25.2386 17.0895 25.4853C17.2308 25.732 17.447 25.9273 17.7066 26.0431C17.9663 26.1589 18.2561 26.1892 18.534 26.1295L20.0075 25.7821C20.2533 25.7246 20.5118 25.7633 20.7301 25.8903C20.9483 26.0172 21.1098 26.2228 21.1814 26.4649L21.6247 27.9144C21.7068 28.1872 21.8747 28.4264 22.1034 28.5964C22.3321 28.7664 22.6095 28.8582 22.8944 28.8582C23.1794 28.8582 23.4568 28.7664 23.6855 28.5964C23.9142 28.4264 24.0821 28.1872 24.1642 27.9144L24.6075 26.4649C24.6791 26.2228 24.8406 26.0172 25.0588 25.8903C25.2771 25.7633 25.5356 25.7246 25.7814 25.7821L27.2549 26.1295C27.5328 26.1892 27.8226 26.1589 28.0823 26.0431C28.3419 25.9273 28.558 25.732 28.6994 25.4853C28.8407 25.2386 28.9 24.9534 28.8686 24.6708C28.8372 24.3882 28.7167 24.123 28.5247 23.9133L27.4944 22.7993ZM22.8944 23.6138C22.5978 23.6138 22.3078 23.5257 22.0613 23.3606C21.8148 23.1956 21.6229 22.961 21.5099 22.6867C21.3969 22.4124 21.368 22.1107 21.4268 21.8199C21.4855 21.5291 21.6293 21.2623 21.8399 21.0534C22.0505 20.8445 22.3185 20.7028 22.6097 20.6464C22.901 20.59 23.2024 20.6213 23.4758 20.7365C23.7492 20.8517 23.9822 21.0455 24.1453 21.2933C24.3084 21.5411 24.3942 21.8318 24.3918 22.1284C24.3915 22.3244 24.3525 22.5184 24.277 22.6993C24.2015 22.8801 24.091 23.0443 23.9518 23.1823C23.8127 23.3203 23.6477 23.4295 23.4662 23.5036C23.2847 23.5776 23.0904 23.6151 22.8944 23.6138Z" stroke="black" stroke-width="1.25" stroke-linecap="round" stroke-linejoin="round"/>
</g>
<defs>
<clipPath id="clip0_5026_16782">
<rect width="30" height="30" fill="white"/>
</clipPath>
</defs>
</svg>
