<svg width="30" height="30" viewBox="0 0 30 30" fill="none" xmlns="http://www.w3.org/2000/svg">
<path d="M3.61914 2.42057C3.61914 2.10287 3.74535 1.79817 3.97 1.57352C4.19466 1.34887 4.49935 1.22266 4.81706 1.22266H25.1816C25.4993 1.22266 25.804 1.34887 26.0287 1.57352C26.2533 1.79817 26.3796 2.10287 26.3796 2.42057V9.92432C26.3795 13.8049 25.3195 17.6118 23.3139 20.9339C21.3083 24.2561 18.4333 26.9672 14.9993 28.7747C11.5651 26.9676 8.68981 24.2566 6.68414 20.9343C4.67848 17.6121 3.61865 13.805 3.61914 9.92432V2.42057Z" fill="#F9D835"/>
<path d="M14.9993 1.22266H4.81706C4.49935 1.22266 4.19466 1.34887 3.97 1.57352C3.74535 1.79817 3.61914 2.10287 3.61914 2.42057V9.92432C3.61865 13.805 4.67848 17.6121 6.68414 20.9343C8.68981 24.2566 11.5651 26.9676 14.9993 28.7747V1.22266Z" fill="#ECF2FB"/>
<path d="M3.61914 2.42057C3.61914 2.10287 3.74535 1.79817 3.97 1.57352C4.19466 1.34887 4.49935 1.22266 4.81706 1.22266H25.1816C25.4993 1.22266 25.804 1.34887 26.0287 1.57352C26.2533 1.79817 26.3796 2.10287 26.3796 2.42057V9.92432C26.3795 13.8049 25.3195 17.6118 23.3139 20.9339C21.3083 24.2561 18.4333 26.9672 14.9993 28.7747C11.5651 26.9676 8.68981 24.2566 6.68414 20.9343C4.67848 17.6121 3.61865 13.805 3.61914 9.92432V2.42057Z" stroke="black" stroke-width="1.25" stroke-linecap="round" stroke-linejoin="round"/>
<path d="M10.208 7.80859L19.7913 17.3919" stroke="black" stroke-width="1.25" stroke-linecap="round" stroke-linejoin="round"/>
<path d="M19.7913 7.80859L10.208 17.3919" stroke="black" stroke-width="1.25" stroke-linecap="round" stroke-linejoin="round"/>
</svg>
