<svg width="50" height="50" viewBox="0 0 50 50" fill="none" xmlns="http://www.w3.org/2000/svg">
<rect width="50" height="50" rx="25" fill="#F9D835"/>
<g clip-path="url(#clip0_1017_716)">
<path d="M17.2139 24.4017C17.2139 26.4668 18.0342 28.4473 19.4945 29.9076C20.9547 31.3678 22.9352 32.1882 25.0003 32.1882C27.0654 32.1882 29.0459 31.3678 30.5062 29.9076C31.9664 28.4473 32.7868 26.4668 32.7868 24.4017C32.7868 22.3366 31.9664 20.3561 30.5062 18.8958C29.0459 17.4356 27.0654 16.6152 25.0003 16.6152C22.9352 16.6152 20.9547 17.4356 19.4945 18.8958C18.0342 20.3561 17.2139 22.3366 17.2139 24.4017Z" fill="#ECF2FB"/>
<path d="M24.999 16.6133C25.5321 16.6133 26.0532 16.4552 26.4965 16.159C26.9397 15.8629 27.2852 15.4419 27.4892 14.9494C27.6932 14.4569 27.7465 13.915 27.6425 13.3921C27.5385 12.8693 27.2818 12.389 26.9049 12.0121C26.528 11.6352 26.0477 11.3784 25.5249 11.2744C25.002 11.1704 24.4601 11.2238 23.9676 11.4278C23.4751 11.6318 23.0541 11.9773 22.758 12.4205C22.4618 12.8638 22.3037 13.3849 22.3037 13.918C22.3037 14.6328 22.5877 15.3184 23.0932 15.8238C23.5986 16.3293 24.2842 16.6133 24.999 16.6133Z" fill="#ECF2FB" stroke="black" stroke-width="1.25" stroke-linecap="round" stroke-linejoin="round"/>
<path d="M30.3906 22.003C30.0852 20.8051 29.3895 19.7431 28.4133 18.9847C27.4372 18.2262 26.2362 17.8145 25 17.8145C23.7638 17.8145 22.5628 18.2262 21.5867 18.9847C20.6105 19.7431 19.9148 20.8051 19.6094 22.003H30.3906Z" fill="#F9D835" stroke="black" stroke-width="1.25" stroke-linecap="round" stroke-linejoin="round"/>
<path d="M16.6152 33.3848C17.1483 33.3848 17.6694 33.2267 18.1127 32.9305C18.5559 32.6344 18.9014 32.2134 19.1054 31.7209C19.3094 31.2284 19.3628 30.6865 19.2588 30.1636C19.1548 29.6408 18.8981 29.1605 18.5211 28.7836C18.1442 28.4066 17.6639 28.1499 17.1411 28.0459C16.6182 27.9419 16.0763 27.9953 15.5838 28.1993C15.0913 28.4033 14.6703 28.7488 14.3742 29.192C14.078 29.6353 13.9199 30.1564 13.9199 30.6895C13.9199 31.0434 13.9896 31.3939 14.1251 31.7209C14.2605 32.0479 14.4591 32.345 14.7094 32.5953C14.9596 32.8456 15.2568 33.0441 15.5838 33.1796C15.9108 33.3151 16.2613 33.3848 16.6152 33.3848Z" fill="#ECF2FB" stroke="black" stroke-width="1.25" stroke-linecap="round" stroke-linejoin="round"/>
<path d="M22.0049 38.7745C21.6994 37.5766 21.0037 36.5146 20.0276 35.7561C19.0514 34.9977 17.8504 34.5859 16.6143 34.5859C15.3781 34.5859 14.1771 34.9977 13.201 35.7561C12.2248 36.5146 11.5291 37.5766 11.2236 38.7745H22.0049Z" fill="#F9D835" stroke="black" stroke-width="1.25" stroke-linecap="round" stroke-linejoin="round"/>
<path d="M33.3857 33.3848C33.9188 33.3848 34.4399 33.2267 34.8832 32.9305C35.3264 32.6344 35.6719 32.2134 35.8759 31.7209C36.0799 31.2284 36.1333 30.6865 36.0293 30.1636C35.9253 29.6408 35.6686 29.1605 35.2916 28.7836C34.9147 28.4066 34.4344 28.1499 33.9116 28.0459C33.3887 27.9419 32.8468 27.9953 32.3543 28.1993C31.8618 28.4033 31.4408 28.7488 31.1447 29.192C30.8485 29.6353 30.6904 30.1564 30.6904 30.6895C30.6904 31.0434 30.7601 31.3939 30.8956 31.7209C31.0311 32.0479 31.2296 32.345 31.4799 32.5953C31.7302 32.8456 32.0273 33.0441 32.3543 33.1796C32.6813 33.3151 33.0318 33.3848 33.3857 33.3848Z" fill="#ECF2FB" stroke="black" stroke-width="1.25" stroke-linecap="round" stroke-linejoin="round"/>
<path d="M38.7754 38.7745C38.4699 37.5766 37.7742 36.5146 36.7981 35.7561C35.8219 34.9977 34.6209 34.5859 33.3848 34.5859C32.1486 34.5859 30.9476 34.9977 29.9715 35.7561C28.9953 36.5146 28.2996 37.5766 27.9941 38.7745H38.7754Z" fill="#F9D835" stroke="black" stroke-width="1.25" stroke-linecap="round" stroke-linejoin="round"/>
<path d="M28.5947 33.2871C26.2891 34.2167 23.7129 34.2167 21.4072 33.2871" stroke="black" stroke-width="1.25" stroke-linecap="round" stroke-linejoin="round"/>
<path d="M30.3906 16.4766C31.8498 17.4708 33.0063 18.8484 33.7329 20.4577C34.4596 22.0669 34.7281 23.8454 34.5091 25.5975" stroke="black" stroke-width="1.25" stroke-linecap="round" stroke-linejoin="round"/>
<path d="M19.6096 16.4766C18.1504 17.4708 16.9939 18.8484 16.2673 20.4577C15.5406 22.0669 15.2721 23.8454 15.4911 25.5975" stroke="black" stroke-width="1.25" stroke-linecap="round" stroke-linejoin="round"/>
</g>
<defs>
<clipPath id="clip0_1017_716">
<rect width="30" height="30" fill="white" transform="translate(10 10)"/>
</clipPath>
</defs>
</svg>
