<svg width="50" height="50" viewBox="0 0 50 50" fill="none" xmlns="http://www.w3.org/2000/svg">
<rect width="50" height="50" rx="25" fill="#F9D835"/>
<path d="M13.6191 12.4206C13.6191 12.1029 13.7453 11.7982 13.97 11.5735C14.1947 11.3489 14.4994 11.2227 14.8171 11.2227H35.1816C35.4993 11.2227 35.804 11.3489 36.0287 11.5735C36.2533 11.7982 36.3796 12.1029 36.3796 12.4206V19.9243C36.3795 23.8049 35.3195 27.6118 33.3139 30.9339C31.3083 34.2561 28.4333 36.9672 24.9993 38.7747C21.5651 36.9676 18.6898 34.2566 16.6841 30.9343C14.6785 27.6121 13.6187 23.805 13.6191 19.9243V12.4206Z" fill="#F9D835"/>
<path d="M24.9993 11.2227H14.8171C14.4994 11.2227 14.1947 11.3489 13.97 11.5735C13.7453 11.7982 13.6191 12.1029 13.6191 12.4206V19.9243C13.6187 23.805 14.6785 27.6121 16.6841 30.9343C18.6898 34.2566 21.5651 36.9676 24.9993 38.7747V11.2227Z" fill="#ECF2FB"/>
<path d="M13.6191 12.4206C13.6191 12.1029 13.7453 11.7982 13.97 11.5735C14.1947 11.3489 14.4994 11.2227 14.8171 11.2227H35.1816C35.4993 11.2227 35.804 11.3489 36.0287 11.5735C36.2533 11.7982 36.3796 12.1029 36.3796 12.4206V19.9243C36.3795 23.8049 35.3195 27.6118 33.3139 30.9339C31.3083 34.2561 28.4333 36.9672 24.9993 38.7747C21.5651 36.9676 18.6898 34.2566 16.6841 30.9343C14.6785 27.6121 13.6187 23.805 13.6191 19.9243V12.4206Z" stroke="black" stroke-width="1.25" stroke-linecap="round" stroke-linejoin="round"/>
<path d="M20.208 17.8086L29.7913 27.3919" stroke="black" stroke-width="1.25" stroke-linecap="round" stroke-linejoin="round"/>
<path d="M29.7913 17.8086L20.208 27.3919" stroke="black" stroke-width="1.25" stroke-linecap="round" stroke-linejoin="round"/>
</svg>
