<svg width="24" height="24" viewBox="0 0 24 24" fill="none" xmlns="http://www.w3.org/2000/svg">
<g clip-path="url(#clip0_1958_1743)">
<path d="M18.7074 3.99414H19.6657C19.7915 3.99414 19.9162 4.01893 20.0324 4.06709C20.1487 4.11525 20.2543 4.18584 20.3433 4.27483C20.4323 4.36382 20.5029 4.46947 20.5511 4.58574C20.5992 4.70201 20.624 4.82662 20.624 4.95247V22.0626C20.624 22.1884 20.5992 22.313 20.5511 22.4293C20.5029 22.5456 20.4323 22.6512 20.3433 22.7402C20.2543 22.8292 20.1487 22.8998 20.0324 22.9479C19.9162 22.9961 19.7915 23.0209 19.6657 23.0209H4.33236C4.20651 23.0209 4.08189 22.9961 3.96562 22.9479C3.84935 22.8998 3.7437 22.8292 3.65471 22.7402C3.56572 22.6512 3.49513 22.5456 3.44697 22.4293C3.39881 22.313 3.37402 22.1884 3.37402 22.0626V4.95247C3.37402 4.69831 3.47499 4.45455 3.65471 4.27483C3.83444 4.09511 4.07819 3.99414 4.33236 3.99414H5.29069" fill="#F9D835"/>
<path d="M20.2934 4.23756C20.1209 4.08249 19.8976 3.9959 19.6657 3.99414H4.33236C4.07819 3.99414 3.83444 4.09511 3.65471 4.27483C3.47499 4.45455 3.37402 4.69831 3.37402 4.95247V21.1598L20.2934 4.23756Z" fill="#F9D835"/>
<path d="M18.7074 3.99414H19.6657C19.7915 3.99414 19.9162 4.01893 20.0324 4.06709C20.1487 4.11525 20.2543 4.18584 20.3433 4.27483C20.4323 4.36382 20.5029 4.46947 20.5511 4.58574C20.5992 4.70201 20.624 4.82662 20.624 4.95247V22.0626C20.624 22.1884 20.5992 22.313 20.5511 22.4293C20.5029 22.5456 20.4323 22.6512 20.3433 22.7402C20.2543 22.8292 20.1487 22.8998 20.0324 22.9479C19.9162 22.9961 19.7915 23.0209 19.6657 23.0209H4.33236C4.20651 23.0209 4.08189 22.9961 3.96562 22.9479C3.84935 22.8998 3.7437 22.8292 3.65471 22.7402C3.56572 22.6512 3.49513 22.5456 3.44697 22.4293C3.39881 22.313 3.37402 22.1884 3.37402 22.0626V4.95247C3.37402 4.69831 3.47499 4.45455 3.65471 4.27483C3.83444 4.09511 4.07819 3.99414 4.33236 3.99414H5.29069" stroke="black" stroke-linecap="round" stroke-linejoin="round"/>
<path d="M13.9173 2.89518C13.9173 2.38685 13.7154 1.89934 13.3559 1.53989C12.9965 1.18045 12.509 0.978516 12.0007 0.978516C11.4923 0.978516 11.0048 1.18045 10.6454 1.53989C10.2859 1.89934 10.084 2.38685 10.084 2.89518H7.68815C7.56107 2.89518 7.43919 2.94567 7.34933 3.03553C7.25947 3.12539 7.20898 3.24727 7.20898 3.37435V5.29102C7.20898 5.4181 7.25947 5.53998 7.34933 5.62984C7.43919 5.7197 7.56107 5.77018 7.68815 5.77018H16.3132C16.4402 5.77018 16.5621 5.7197 16.652 5.62984C16.7418 5.53998 16.7923 5.4181 16.7923 5.29102V3.37435C16.7923 3.24727 16.7418 3.12539 16.652 3.03553C16.5621 2.94567 16.4402 2.89518 16.3132 2.89518H13.9173Z" fill="#ECF2FB"/>
<path d="M16.3132 4.33268H7.68815C7.56107 4.33268 7.43919 4.2822 7.34933 4.19234C7.25947 4.10248 7.20898 3.9806 7.20898 3.85352V5.29102C7.20898 5.4181 7.25947 5.53998 7.34933 5.62984C7.43919 5.7197 7.56107 5.77018 7.68815 5.77018H16.3132C16.4402 5.77018 16.5621 5.7197 16.652 5.62984C16.7418 5.53998 16.7923 5.4181 16.7923 5.29102V3.85352C16.7923 3.9806 16.7418 4.10248 16.652 4.19234C16.5621 4.2822 16.4402 4.33268 16.3132 4.33268Z" fill="#F9D835"/>
<path d="M13.9173 2.89518C13.9173 2.38685 13.7154 1.89934 13.3559 1.53989C12.9965 1.18045 12.509 0.978516 12.0007 0.978516C11.4923 0.978516 11.0048 1.18045 10.6454 1.53989C10.2859 1.89934 10.084 2.38685 10.084 2.89518H7.68815C7.56107 2.89518 7.43919 2.94567 7.34933 3.03553C7.25947 3.12539 7.20898 3.24727 7.20898 3.37435V5.29102C7.20898 5.4181 7.25947 5.53998 7.34933 5.62984C7.43919 5.7197 7.56107 5.77018 7.68815 5.77018H16.3132C16.4402 5.77018 16.5621 5.7197 16.652 5.62984C16.7418 5.53998 16.7923 5.4181 16.7923 5.29102V3.37435C16.7923 3.24727 16.7418 3.12539 16.652 3.03553C16.5621 2.94567 16.4402 2.89518 16.3132 2.89518H13.9173Z" stroke="black" stroke-linecap="round" stroke-linejoin="round"/>
<path d="M8.16699 13.4388C8.16699 13.9422 8.26614 14.4407 8.45879 14.9058C8.65143 15.3708 8.93379 15.7934 9.28975 16.1494C9.64571 16.5053 10.0683 16.7877 10.5334 16.9803C10.9985 17.173 11.4969 17.2721 12.0003 17.2721C12.5037 17.2721 13.0022 17.173 13.4673 16.9803C13.9324 16.7877 14.3549 16.5053 14.7109 16.1494C15.0669 15.7934 15.3492 15.3708 15.5419 14.9058C15.7345 14.4407 15.8337 13.9422 15.8337 13.4388C15.8337 12.9354 15.7345 12.4369 15.5419 11.9718C15.3492 11.5068 15.0669 11.0842 14.7109 10.7282C14.3549 10.3723 13.9324 10.0899 13.4673 9.89726C13.0022 9.70462 12.5037 9.60547 12.0003 9.60547C11.4969 9.60547 10.9985 9.70462 10.5334 9.89726C10.0683 10.0899 9.64571 10.3723 9.28975 10.7282C8.93379 11.0842 8.65143 11.5068 8.45879 11.9718C8.26614 12.4369 8.16699 12.9354 8.16699 13.4388Z" fill="#F9D835"/>
<path d="M15.8337 13.4388C15.8337 14.197 15.6088 14.9381 15.1876 15.5685C14.7664 16.1989 14.1677 16.6902 13.4673 16.9803C12.7668 17.2705 11.9961 17.3464 11.2525 17.1985C10.5089 17.0506 9.82585 16.6855 9.28975 16.1494C8.75365 15.6133 8.38856 14.9302 8.24065 14.1866C8.09274 13.4431 8.16865 12.6723 8.45879 11.9718C8.74892 11.2714 9.24025 10.6727 9.87064 10.2515C10.501 9.83029 11.2422 9.60547 12.0003 9.60547" stroke="black" stroke-linecap="round" stroke-linejoin="round"/>
<path d="M15.8333 10.5625L12.3392 14.0566C12.2947 14.1012 12.2419 14.1366 12.1836 14.1608C12.1254 14.1849 12.063 14.1974 12 14.1974C11.937 14.1974 11.8746 14.1849 11.8164 14.1608C11.7581 14.1366 11.7053 14.1012 11.6608 14.0566L10.5625 12.9583" stroke="black" stroke-linecap="round" stroke-linejoin="round"/>
</g>
<defs>
<clipPath id="clip0_1958_1743">
<rect width="24" height="24" fill="white"/>
</clipPath>
</defs>
</svg>
