<svg width="24" height="24" viewBox="0 0 24 24" fill="none" xmlns="http://www.w3.org/2000/svg">
<path d="M7.3623 12.4795H16.5048V15.2203H7.3623V12.4795Z" fill="#F9D835"/>
<path d="M16.5048 15.2207V16.3036C16.5021 16.8732 16.3982 17.4378 16.1981 17.9711H7.68814C7.47269 17.4416 7.36203 16.8753 7.36231 16.3036V15.2207H16.5048Z" fill="#F9D835"/>
<path d="M16.1879 17.9707C15.8562 18.8285 15.2727 19.5659 14.5142 20.0859C13.7556 20.6059 12.8574 20.8842 11.9377 20.8842C11.018 20.8842 10.1198 20.6059 9.36125 20.0859C8.60267 19.5659 8.01919 18.8285 7.6875 17.9707H16.1879Z" fill="#F9D835"/>
<path d="M16.5048 6.54716V7.908C15.1768 8.81131 13.6068 9.29232 12.0006 9.288C10.3527 9.29241 8.7398 8.81253 7.3623 7.908V6.67175L8.90522 5.25341C9.74905 4.4769 10.8539 4.0459 12.0006 4.0459C13.1474 4.0459 14.2522 4.4769 15.0961 5.25341L16.5048 6.54716Z" fill="#F9D835"/>
<path d="M7.36193 6.67188V15.2777L6.45152 16.169C5.86395 16.7477 5.07586 17.0777 4.25122 17.0902C3.42657 17.1026 2.62885 16.7967 2.02402 16.236C1.71163 15.9404 1.461 15.5858 1.28663 15.1926C1.11226 14.7995 1.01762 14.3756 1.00818 13.9456C1.00161 13.515 1.08229 13.0876 1.24534 12.689C1.40839 12.2904 1.65045 11.929 1.95693 11.6265L7.36193 6.67188Z" fill="#ECF2FB" stroke="black" stroke-linecap="round" stroke-linejoin="round"/>
<path d="M22.9918 13.9452C22.9824 14.3752 22.8877 14.799 22.7134 15.1922C22.539 15.5853 22.2884 15.94 21.976 16.2356C21.3712 16.7963 20.5734 17.1022 19.7488 17.0897C18.9241 17.0772 18.1361 16.7473 17.5485 16.1685L16.5039 15.1431V6.54688L22.0431 11.626C22.3496 11.9286 22.5916 12.29 22.7547 12.6886C22.9177 13.0872 22.9984 13.5146 22.9918 13.9452Z" fill="#ECF2FB" stroke="black" stroke-linecap="round" stroke-linejoin="round"/>
<path d="M16.5048 7.9082V12.4795H7.3623V7.9082C8.7398 8.81274 10.3527 9.29261 12.0006 9.2882C13.6068 9.29253 15.1768 8.81152 16.5048 7.9082Z" fill="#F9D835"/>
<path d="M12 17.9707H7.6875C8.01722 18.8289 8.59956 19.5668 9.35757 20.087C10.1156 20.6071 11.0136 20.8851 11.9329 20.884C11.9569 20.884 11.9808 20.884 12.0048 20.8783L12 17.9707Z" fill="#ECF2FB"/>
<path d="M12.0006 15.2207H7.36231V16.3036C7.36203 16.8753 7.47269 17.4416 7.68814 17.9711H12.0006V15.2207Z" fill="#F9D835"/>
<path d="M7.3623 12.4795H12.0006V15.2203H7.3623V12.4795Z" fill="#F9D835"/>
<path d="M12.0006 9.2882C10.3527 9.29261 8.7398 8.81274 7.3623 7.9082V12.4795H12.0006V9.2882Z" fill="#ECF2FB"/>
<path d="M12.0006 4.0459C10.8538 4.04543 9.74879 4.47649 8.90522 5.2534L7.3623 6.67173V7.90798C8.7398 8.81252 10.3527 9.29239 12.0006 9.28798V4.0459Z" fill="#ECF2FB"/>
<path d="M7.3623 12.4795H16.5048V15.2203H7.3623V12.4795Z" stroke="black" stroke-linecap="round" stroke-linejoin="round"/>
<path d="M16.5048 15.2207V16.3036C16.5021 16.8732 16.3982 17.4378 16.1981 17.9711H7.68814C7.47269 17.4416 7.36203 16.8753 7.36231 16.3036V15.2207H16.5048Z" stroke="black" stroke-linecap="round" stroke-linejoin="round"/>
<path d="M16.1879 17.9707C15.8562 18.8285 15.2727 19.5659 14.5142 20.0859C13.7556 20.6059 12.8574 20.8842 11.9377 20.8842C11.018 20.8842 10.1198 20.6059 9.36125 20.0859C8.60267 19.5659 8.01919 18.8285 7.6875 17.9707H16.1879Z" stroke="black" stroke-linecap="round" stroke-linejoin="round"/>
<path d="M16.5048 6.54716V7.908C15.1768 8.81131 13.6068 9.29232 12.0006 9.288C10.3527 9.2924 8.7398 8.81253 7.3623 7.908V6.67175L8.90522 5.25341C9.74905 4.4769 10.8539 4.0459 12.0006 4.0459C13.1474 4.0459 14.2522 4.4769 15.0961 5.25341L16.5048 6.54716Z" stroke="black" stroke-linecap="round" stroke-linejoin="round"/>
<path d="M16.5048 7.9082V12.4795H7.3623V7.9082C8.7398 8.81274 10.3527 9.29261 12.0006 9.2882C13.6068 9.29253 15.1768 8.81152 16.5048 7.9082Z" stroke="black" stroke-linecap="round" stroke-linejoin="round"/>
<path d="M12 20.8809V22.5417" stroke="black" stroke-linecap="round" stroke-linejoin="round"/>
<path d="M14.5947 4.85403L17.0318 2.41699" stroke="black" stroke-linecap="round" stroke-linejoin="round"/>
<path d="M9.40579 4.85403L6.96875 2.41699" stroke="black" stroke-linecap="round" stroke-linejoin="round"/>
</svg>
