<svg width="24" height="24" viewBox="0 0 24 24" fill="none" xmlns="http://www.w3.org/2000/svg">
<g clip-path="url(#clip0_49_16717)">
<path d="M11.9996 23.0208C11.9007 23.0206 11.8044 22.9891 11.7246 22.9307C10.6359 22.1496 6.59848 19.1251 4.7671 15.9531C2.60798 11.4374 4.5486 8.65631 7.74273 8.24327C8.6747 8.18068 9.60071 8.43262 10.3725 8.95874C11.1443 9.48486 11.7173 10.2547 11.9996 11.1451C12.282 10.2547 12.855 9.48486 13.6268 8.95874C14.3986 8.43262 15.3246 8.18068 16.2566 8.24327C19.4507 8.65631 21.3913 11.4374 19.2322 15.9531C17.4008 19.1251 13.3634 22.1496 12.2747 22.9307C12.1949 22.9891 12.0986 23.0206 11.9996 23.0208Z" fill="#F9D835"/>
<path d="M16.2572 8.24327C15.3252 8.18068 14.3992 8.43262 13.6274 8.95874C12.8556 9.48486 12.2827 10.2547 12.0003 11.1451C11.7179 10.2547 11.145 9.48486 10.3732 8.95874C9.60136 8.43262 8.67534 8.18068 7.74337 8.24327C4.90287 8.61127 3.06096 10.8547 4.20617 14.5223C6.4952 16.1058 9.21696 16.9448 12.0003 16.9248C14.7836 16.9448 17.5054 16.1058 19.7944 14.5223C20.9396 10.8547 19.0977 8.61127 16.2572 8.24327Z" fill="#ECF2FB"/>
<path d="M16.257 8.24327C15.325 8.18068 14.399 8.43262 13.6272 8.95874C12.8554 9.48486 12.2825 10.2547 12.0001 11.1451C11.7177 10.2547 11.1448 9.48486 10.373 8.95874C9.60115 8.43262 8.67513 8.18068 7.74316 8.24327" stroke="black" stroke-linecap="round" stroke-linejoin="round"/>
<path d="M3.37467 0.979248H8.16634C8.16634 0.979248 8.64551 0.979248 8.64551 1.45841V2.41675C8.64551 2.41675 8.64551 2.89591 8.16634 2.89591H3.37467C3.37467 2.89591 2.89551 2.89591 2.89551 2.41675V1.45841C2.89551 1.45841 2.89551 0.979248 3.37467 0.979248Z" fill="#F9D835" stroke="black" stroke-linecap="round" stroke-linejoin="round"/>
<path d="M20.6253 2.89591H15.8337C15.8337 2.89591 15.3545 2.89591 15.3545 2.41675V1.45841C15.3545 1.45841 15.3545 0.979248 15.8337 0.979248H20.6253C20.6253 0.979248 21.1045 0.979248 21.1045 1.45841V2.41675C21.1045 2.41675 21.1045 2.89591 20.6253 2.89591Z" fill="#F9D835" stroke="black" stroke-linecap="round" stroke-linejoin="round"/>
<path d="M5.29199 6.96867L3.99633 9.12492C3.85011 9.41745 3.81577 9.75332 3.89978 10.0694C3.98378 10.3855 4.18033 10.66 4.45249 10.8413C4.60355 10.9418 4.77343 11.0107 4.95186 11.0437C5.13029 11.0767 5.31355 11.0731 5.49057 11.0332C5.66759 10.9934 5.83468 10.918 5.98174 10.8117C6.1288 10.7054 6.25278 10.5704 6.34616 10.4148L7.44153 8.77417C7.91492 8.06557 8.1674 7.23243 8.16699 6.38025V2.89575H4.23783L1.92441 5.78704C1.31253 6.55194 0.979278 7.50236 0.979492 8.48188V13.4374C0.979492 13.8187 1.13094 14.1843 1.40053 14.4539C1.67011 14.7235 2.03574 14.8749 2.41699 14.8749C2.79824 14.8749 3.16387 14.7235 3.43346 14.4539C3.70304 14.1843 3.85449 13.8187 3.85449 13.4374V9.72388" fill="#ECF2FB"/>
<path d="M5.29199 6.96867L3.99633 9.12492C3.85011 9.41745 3.81577 9.75332 3.89978 10.0694C3.98378 10.3855 4.18033 10.66 4.45249 10.8413C4.60355 10.9418 4.77343 11.0107 4.95186 11.0437C5.13029 11.0767 5.31355 11.0731 5.49057 11.0332C5.66759 10.9934 5.83468 10.918 5.98174 10.8117C6.1288 10.7054 6.25278 10.5704 6.34616 10.4148L7.44153 8.77417C7.91492 8.06557 8.1674 7.23243 8.16699 6.38025V2.89575H4.23783L1.92441 5.78704C1.31253 6.55194 0.979278 7.50235 0.979492 8.48188V13.4374C0.979492 13.8187 1.13094 14.1843 1.40053 14.4539C1.67011 14.7235 2.03574 14.8749 2.41699 14.8749C2.79824 14.8749 3.16387 14.7235 3.43346 14.4539C3.70304 14.1843 3.85449 13.8187 3.85449 13.4374V9.72388" stroke="black" stroke-linecap="round" stroke-linejoin="round"/>
<path d="M18.708 6.96867L20.0037 9.12492C20.1499 9.41745 20.1842 9.75332 20.1002 10.0694C20.0162 10.3855 19.8197 10.66 19.5475 10.8413C19.3964 10.942 19.2265 11.0109 19.0479 11.044C18.8694 11.0771 18.686 11.0736 18.5089 11.0337C18.3318 10.9939 18.1646 10.9184 18.0174 10.8121C17.8703 10.7057 17.7463 10.5705 17.6529 10.4148L16.5585 8.77417C16.0851 8.06557 15.8326 7.23243 15.833 6.38025V2.89575H19.7622L22.0756 5.78704C22.6875 6.55194 23.0207 7.50236 23.0205 8.48188V13.4374C23.0205 13.8187 22.8691 14.1843 22.5995 14.4539C22.3299 14.7235 21.9643 14.8749 21.583 14.8749C21.2018 14.8749 20.8361 14.7235 20.5665 14.4539C20.297 14.1843 20.1455 13.8187 20.1455 13.4374V9.72388" fill="#ECF2FB"/>
<path d="M18.708 6.96867L20.0037 9.12492C20.1499 9.41745 20.1842 9.75332 20.1002 10.0694C20.0162 10.3855 19.8197 10.66 19.5475 10.8413C19.3964 10.942 19.2265 11.0109 19.0479 11.044C18.8694 11.0771 18.686 11.0736 18.5089 11.0337C18.3318 10.9939 18.1646 10.9184 18.0174 10.8121C17.8703 10.7057 17.7463 10.5705 17.6529 10.4148L16.5585 8.77417C16.0851 8.06557 15.8326 7.23243 15.833 6.38025V2.89575H19.7622L22.0756 5.78704C22.6875 6.55194 23.0207 7.50235 23.0205 8.48188V13.4374C23.0205 13.8187 22.8691 14.1843 22.5995 14.4539C22.3299 14.7235 21.9643 14.8749 21.583 14.8749C21.2018 14.8749 20.8361 14.7235 20.5665 14.4539C20.297 14.1843 20.1455 13.8187 20.1455 13.4374V9.72388" stroke="black" stroke-linecap="round" stroke-linejoin="round"/>
<path d="M19.2327 15.9531C17.4013 19.1252 13.3638 22.1497 12.2752 22.9308C12.1954 22.9893 12.0991 23.0209 12.0001 23.0209C11.9012 23.0209 11.8048 22.9893 11.7251 22.9308C10.6364 22.1497 6.59895 19.1252 4.76758 15.9531" stroke="black" stroke-linecap="round" stroke-linejoin="round"/>
</g>
<defs>
<clipPath id="clip0_49_16717">
<rect width="24" height="24" fill="white"/>
</clipPath>
</defs>
</svg>
