<svg width="24" height="24" viewBox="0 0 24 24" fill="none" xmlns="http://www.w3.org/2000/svg">
<g clip-path="url(#clip0_6_2075)">
<path d="M1.93783 16.3125H9.60449C9.60449 16.3125 10.5628 16.3125 10.5628 17.2708V22.0625C10.5628 22.0625 10.5628 23.0208 9.60449 23.0208H1.93783C1.93783 23.0208 0.979492 23.0208 0.979492 22.0625V17.2708C0.979492 17.2708 0.979492 16.3125 1.93783 16.3125Z" fill="#F9D835"/>
<path d="M5.77116 16.3125H1.93783C1.68366 16.3125 1.4399 16.4135 1.26018 16.5932C1.08046 16.7729 0.979492 17.0167 0.979492 17.2708V22.0625C0.979492 22.1884 1.00428 22.313 1.05244 22.4292C1.1006 22.5455 1.17119 22.6512 1.26018 22.7401C1.34917 22.8291 1.45482 22.8997 1.57109 22.9479C1.68736 22.996 1.81198 23.0208 1.93783 23.0208H5.77116V16.3125Z" fill="white"/>
<path d="M22.0625 23.0208H14.3958C14.3958 23.0208 13.4375 23.0208 13.4375 22.0625V11.5208C13.4375 11.5208 13.4375 10.5625 14.3958 10.5625H22.0625C22.0625 10.5625 23.0208 10.5625 23.0208 11.5208V22.0625C23.0208 22.0625 23.0208 23.0208 22.0625 23.0208Z" fill="#F9D835"/>
<path d="M18.2292 10.5625H14.3958C14.1417 10.5625 13.8979 10.6635 13.7182 10.8432C13.5385 11.0229 13.4375 11.2667 13.4375 11.5208V22.0625C13.4375 22.1883 13.4623 22.313 13.5104 22.4292C13.5586 22.5455 13.6292 22.6512 13.7182 22.7401C13.8072 22.8291 13.9128 22.8997 14.0291 22.9479C14.1454 22.996 14.27 23.0208 14.3958 23.0208H18.2292V10.5625Z" fill="white"/>
<path d="M22.0625 7.68783H14.3958C14.3958 7.68783 13.4375 7.68783 13.4375 6.72949V1.93783C13.4375 1.93783 13.4375 0.979492 14.3958 0.979492H22.0625C22.0625 0.979492 23.0208 0.979492 23.0208 1.93783V6.72949C23.0208 6.72949 23.0208 7.68783 22.0625 7.68783Z" fill="#F9D835"/>
<path d="M18.2292 0.979492H14.3958C14.1417 0.979492 13.8979 1.08046 13.7182 1.26018C13.5385 1.4399 13.4375 1.68366 13.4375 1.93783V6.72949C13.4375 6.98366 13.5385 7.22741 13.7182 7.40714C13.8979 7.58686 14.1417 7.68783 14.3958 7.68783H18.2292V0.979492Z" fill="white"/>
<path d="M1.93783 0.979492H9.60449C9.60449 0.979492 10.5628 0.979492 10.5628 1.93783V12.4795C10.5628 12.4795 10.5628 13.4378 9.60449 13.4378H1.93783C1.93783 13.4378 0.979492 13.4378 0.979492 12.4795V1.93783C0.979492 1.93783 0.979492 0.979492 1.93783 0.979492Z" fill="#F9D835"/>
<path d="M5.77116 0.979492H1.93783C1.68366 0.979492 1.4399 1.08046 1.26018 1.26018C1.08046 1.4399 0.979492 1.68366 0.979492 1.93783V12.4795C0.979492 12.7337 1.08046 12.9774 1.26018 13.1571C1.4399 13.3369 1.68366 13.4378 1.93783 13.4378H5.77116V0.979492Z" fill="white"/>
<path d="M1.93783 16.3125H9.60449C9.60449 16.3125 10.5628 16.3125 10.5628 17.2708V22.0625C10.5628 22.0625 10.5628 23.0208 9.60449 23.0208H1.93783C1.93783 23.0208 0.979492 23.0208 0.979492 22.0625V17.2708C0.979492 17.2708 0.979492 16.3125 1.93783 16.3125Z" stroke="black" stroke-linecap="round" stroke-linejoin="round"/>
<path d="M22.0625 23.0208H14.3958C14.3958 23.0208 13.4375 23.0208 13.4375 22.0625V11.5208C13.4375 11.5208 13.4375 10.5625 14.3958 10.5625H22.0625C22.0625 10.5625 23.0208 10.5625 23.0208 11.5208V22.0625C23.0208 22.0625 23.0208 23.0208 22.0625 23.0208Z" stroke="black" stroke-linecap="round" stroke-linejoin="round"/>
<path d="M22.0625 7.68783H14.3958C14.3958 7.68783 13.4375 7.68783 13.4375 6.72949V1.93783C13.4375 1.93783 13.4375 0.979492 14.3958 0.979492H22.0625C22.0625 0.979492 23.0208 0.979492 23.0208 1.93783V6.72949C23.0208 6.72949 23.0208 7.68783 22.0625 7.68783Z" stroke="black" stroke-linecap="round" stroke-linejoin="round"/>
<path d="M1.93783 0.979492H9.60449C9.60449 0.979492 10.5628 0.979492 10.5628 1.93783V12.4795C10.5628 12.4795 10.5628 13.4378 9.60449 13.4378H1.93783C1.93783 13.4378 0.979492 13.4378 0.979492 12.4795V1.93783C0.979492 1.93783 0.979492 0.979492 1.93783 0.979492Z" stroke="black" stroke-linecap="round" stroke-linejoin="round"/>
</g>
<defs>
<clipPath id="clip0_6_2075">
<rect width="24" height="24" fill="white"/>
</clipPath>
</defs>
</svg>
