<svg width="24" height="24" viewBox="0 0 24 24" fill="none" xmlns="http://www.w3.org/2000/svg">
<g clip-path="url(#clip0_49_11286)">
<path d="M14.875 20.1445C14.875 20.907 14.5721 21.6383 14.0329 22.1775C13.4938 22.7166 12.7625 23.0195 12 23.0195C11.2375 23.0195 10.5062 22.7166 9.96707 22.1775C9.4279 21.6383 9.125 20.907 9.125 20.1445H14.875Z" fill="#F9D835" stroke="black" stroke-linecap="round" stroke-linejoin="round"/>
<path d="M20.1452 17.2714V11.0423C20.1434 9.38113 19.6337 7.76026 18.6846 6.39697C17.7355 5.03368 16.3923 3.99315 14.8351 3.41488C14.7254 2.74135 14.3797 2.1288 13.8598 1.68674C13.34 1.24468 12.6798 1.00195 11.9974 1.00195C11.315 1.00195 10.6549 1.24468 10.135 1.68674C9.61516 2.1288 9.26948 2.74135 9.15981 3.41488C7.60276 3.99296 6.25983 5.03356 5.31131 6.39697C4.36279 7.76039 3.8541 9.38136 3.85352 11.0423V17.2714C3.85352 18.0339 3.55062 18.7652 3.01145 19.3044C2.47228 19.8435 1.74101 20.1464 0.978516 20.1464H23.0202C22.2577 20.1464 21.5264 19.8435 20.9872 19.3044C20.4481 18.7652 20.1452 18.0339 20.1452 17.2714Z" fill="#F9D835"/>
<path d="M11.9993 0.978516C11.3129 0.979006 10.6493 1.22507 10.1286 1.67221C9.60777 2.11936 9.26414 2.73808 9.15981 3.41652C7.60375 3.99524 6.26168 5.0356 5.31333 6.39826C4.36498 7.76093 3.85563 9.38083 3.85352 11.041V17.2702C3.85352 18.0327 3.55062 18.7639 3.01145 19.3031C2.47228 19.8423 1.74101 20.1452 0.978516 20.1452H11.9993V0.978516Z" fill="#ECF2FB"/>
<path d="M20.1452 17.2714V11.0423C20.1434 9.38113 19.6337 7.76026 18.6846 6.39697C17.7355 5.03368 16.3923 3.99315 14.8351 3.41488C14.7254 2.74135 14.3797 2.1288 13.8598 1.68674C13.34 1.24468 12.6798 1.00195 11.9974 1.00195C11.315 1.00195 10.6549 1.24468 10.135 1.68674C9.61516 2.1288 9.26948 2.74135 9.15981 3.41488C7.60276 3.99296 6.25983 5.03356 5.31131 6.39697C4.36279 7.76039 3.8541 9.38136 3.85352 11.0423V17.2714C3.85352 18.0339 3.55061 18.7652 3.01145 19.3044C2.47228 19.8435 1.74101 20.1464 0.978516 20.1464H23.0202C22.2577 20.1464 21.5264 19.8435 20.9872 19.3044C20.4481 18.7652 20.1452 18.0339 20.1452 17.2714Z" stroke="black" stroke-linecap="round" stroke-linejoin="round"/>
</g>
<defs>
<clipPath id="clip0_49_11286">
<rect width="24" height="24" fill="white"/>
</clipPath>
</defs>
</svg>
