<svg width="24" height="24" viewBox="0 0 24 24" fill="none" xmlns="http://www.w3.org/2000/svg">
<path d="M23.0202 12.0404L12.6769 1.69709C12.4972 1.51743 12.2535 1.4165 11.9993 1.4165C11.7452 1.4165 11.5015 1.51743 11.3218 1.69709L0.978516 12.0404H3.37435C3.50143 12.0404 3.62331 12.0909 3.71317 12.1807C3.80303 12.2706 3.85352 12.3925 3.85352 12.5195V22.1029H20.1452V12.5195C20.1452 12.3925 20.1957 12.2706 20.2855 12.1807C20.3754 12.0909 20.4973 12.0404 20.6243 12.0404H23.0202Z" fill="#ECF2FB"/>
<path d="M11.3218 3.93576C11.5015 3.7561 11.7452 3.65517 11.9993 3.65517C12.2535 3.65517 12.4972 3.7561 12.6769 3.93576L20.6406 11.8995C20.6853 11.9443 20.7383 11.9798 20.7967 12.0039C20.8551 12.0281 20.9177 12.0405 20.9809 12.0404H23.0202L12.6769 1.69709C12.4972 1.51743 12.2535 1.4165 11.9993 1.4165C11.7452 1.4165 11.5015 1.51743 11.3218 1.69709L0.978516 12.0404H3.01785C3.08104 12.0405 3.14364 12.0281 3.20203 12.0039C3.26041 11.9798 3.31344 11.9443 3.35806 11.8995L11.3218 3.93576Z" fill="#F9D835"/>
<path d="M19.1872 8.20573V2.45573C19.1872 2.32865 19.1367 2.20677 19.0468 2.11691C18.957 2.02705 18.8351 1.97656 18.708 1.97656H15.833V4.85156L19.1872 8.20573Z" fill="#F9D835"/>
<path d="M3.85449 12.5188V22.1021H20.1462V12.998" stroke="black" stroke-linecap="round" stroke-linejoin="round"/>
<path d="M0.978516 12.0404L11.3218 1.69709C11.5015 1.51743 11.7452 1.4165 11.9993 1.4165C12.2535 1.4165 12.4972 1.51743 12.6769 1.69709L23.0202 12.0404" stroke="black" stroke-linecap="round" stroke-linejoin="round"/>
<path d="M19.1872 5.33073V2.45573C19.1872 2.32865 19.1367 2.20677 19.0468 2.11691C18.957 2.02705 18.8351 1.97656 18.708 1.97656H15.833" stroke="black" stroke-linecap="round" stroke-linejoin="round"/>
<path d="M1.9375 22.1057H3.85417" stroke="black" stroke-linecap="round" stroke-linejoin="round"/>
<path d="M20.1455 22.1057H22.0622" stroke="black" stroke-linecap="round" stroke-linejoin="round"/>
<path d="M9.84375 9.40405C9.84375 9.97593 10.0709 10.5244 10.4753 10.9288C10.8797 11.3331 11.4281 11.5603 12 11.5603C12.5719 11.5603 13.1203 11.3331 13.5247 10.9288C13.9291 10.5244 14.1562 9.97593 14.1562 9.40405C14.1562 8.83218 13.9291 8.28373 13.5247 7.87935C13.1203 7.47498 12.5719 7.2478 12 7.2478C11.4281 7.2478 10.8797 7.47498 10.4753 7.87935C10.0709 8.28373 9.84375 8.83218 9.84375 9.40405Z" fill="#ECF2FB" stroke="black" stroke-linecap="round" stroke-linejoin="round"/>
<path d="M12.001 12.5188C11.2385 12.5188 10.5072 12.8217 9.96804 13.3609C9.42888 13.9 9.12598 14.6313 9.12598 15.3938V17.7896H10.5635L11.0426 22.1021H12.9593L13.4385 17.7896H14.876V15.3938C14.876 14.6313 14.5731 13.9 14.0339 13.3609C13.4947 12.8217 12.7635 12.5188 12.001 12.5188Z" fill="#F9D835" stroke="black" stroke-linecap="round" stroke-linejoin="round"/>
</svg>
