<svg width="24" height="24" viewBox="0 0 24 24" fill="none" xmlns="http://www.w3.org/2000/svg">
<g clip-path="url(#clip0_49_17836)">
<path d="M5.77116 9.32998C5.98539 9.32825 6.19595 9.38562 6.3797 9.49577L8.01845 10.4666C8.12928 10.5327 8.25711 10.5649 8.38607 10.5591C8.51503 10.5534 8.63945 10.5098 8.74391 10.434C8.85008 10.3562 8.93232 10.2503 8.98128 10.1281C9.03024 10.006 9.04395 9.87257 9.02087 9.74302L8.66628 7.69314C8.63146 7.49599 8.64444 7.29336 8.70414 7.10226C8.76384 6.91116 8.86851 6.73717 9.00937 6.59489L10.3587 5.24269C10.4494 5.15086 10.5132 5.03597 10.5433 4.91046C10.5734 4.78495 10.5685 4.6536 10.5293 4.53065C10.4916 4.4098 10.4209 4.30185 10.3253 4.21891C10.2296 4.13597 10.1128 4.08131 9.98783 4.06106L8.11908 3.78123C7.92396 3.75262 7.73887 3.67647 7.5801 3.55949C7.42134 3.44251 7.29378 3.28828 7.20866 3.11039L6.37683 1.3624C6.32232 1.24794 6.2365 1.15127 6.1293 1.08358C6.02211 1.0159 5.89793 0.97998 5.77116 0.97998C5.64439 0.97998 5.52021 1.0159 5.41301 1.08358C5.30582 1.15127 5.22 1.24794 5.16549 1.3624L4.33366 3.10752C4.24925 3.28444 4.12287 3.43804 3.96553 3.55496C3.80819 3.67188 3.62466 3.74857 3.43091 3.77835L1.55449 4.0601C1.42837 4.0796 1.3103 4.13427 1.21384 4.21784C1.11739 4.30142 1.04646 4.4105 1.0092 4.53256C0.969852 4.6555 0.964947 4.78688 0.995022 4.91241C1.0251 5.03795 1.089 5.15284 1.17978 5.2446L2.53295 6.59681C2.67361 6.73922 2.77815 6.91322 2.83783 7.10428C2.89752 7.29534 2.91062 7.49791 2.87603 7.69506L2.52145 9.74494C2.49848 9.87448 2.51225 10.0079 2.5612 10.13C2.61015 10.2521 2.69232 10.3581 2.79841 10.4359C2.90286 10.5117 3.02729 10.5553 3.15625 10.5611C3.28521 10.5669 3.41303 10.5347 3.52387 10.4685L5.1607 9.49577C5.34509 9.38546 5.5563 9.3281 5.77116 9.32998Z" fill="#ECF2FB"/>
<path d="M1.58873 5.65381L3.43065 5.37685C3.6244 5.34707 3.80793 5.27038 3.96527 5.15346C4.12261 5.03654 4.24899 4.88294 4.3334 4.70602L5.16523 2.95994C5.21974 2.84548 5.30556 2.74881 5.41275 2.68113C5.51995 2.61344 5.64412 2.57752 5.7709 2.57752C5.89767 2.57752 6.02185 2.61344 6.12904 2.68113C6.23624 2.74881 6.32206 2.84548 6.37656 2.95994L7.2084 4.70602C7.2938 4.88371 7.42143 5.03776 7.58014 5.15471C7.73886 5.27165 7.92381 5.34792 8.11881 5.37685L9.94827 5.64902L10.3584 5.2379C10.4491 5.14607 10.513 5.03118 10.543 4.90567C10.5731 4.78015 10.5683 4.64881 10.529 4.52585C10.4913 4.40501 10.4207 4.29706 10.325 4.21412C10.2294 4.13118 10.1125 4.07652 9.98757 4.05627L8.11881 3.78123C7.9237 3.75262 7.7386 3.67647 7.57984 3.55949C7.42108 3.44251 7.29352 3.28828 7.2084 3.1104L6.37656 1.3624C6.32206 1.24794 6.23624 1.15127 6.12904 1.08358C6.02185 1.0159 5.89767 0.97998 5.7709 0.97998C5.64412 0.97998 5.51995 1.0159 5.41275 1.08358C5.30556 1.15127 5.21974 1.24794 5.16523 1.3624L4.3334 3.10752C4.24899 3.28444 4.12261 3.43804 3.96527 3.55496C3.80793 3.67188 3.6244 3.74857 3.43065 3.77835L1.55423 4.0601C1.42811 4.0796 1.31004 4.13427 1.21358 4.21785C1.11713 4.30142 1.0462 4.4105 1.00894 4.53256C0.969805 4.65553 0.96501 4.78685 0.995074 4.91234C1.02514 5.03783 1.08892 5.15272 1.17952 5.2446L1.58873 5.65381Z" fill="#F9D835"/>
<path d="M5.77116 9.32998C5.98539 9.32825 6.19595 9.38562 6.3797 9.49577L8.01845 10.4666C8.12928 10.5327 8.25711 10.5649 8.38607 10.5591C8.51503 10.5534 8.63945 10.5098 8.74391 10.434C8.85008 10.3562 8.93232 10.2503 8.98128 10.1281C9.03024 10.006 9.04395 9.87257 9.02087 9.74302L8.66628 7.69314C8.63146 7.49599 8.64444 7.29336 8.70414 7.10226C8.76384 6.91116 8.86851 6.73717 9.00937 6.59489L10.3587 5.24269C10.4494 5.15086 10.5132 5.03597 10.5433 4.91046C10.5734 4.78495 10.5685 4.6536 10.5293 4.53065C10.4916 4.4098 10.4209 4.30185 10.3253 4.21891C10.2296 4.13597 10.1128 4.08131 9.98783 4.06106L8.11908 3.78123C7.92396 3.75262 7.73887 3.67647 7.5801 3.55949C7.42134 3.44251 7.29378 3.28828 7.20866 3.11039L6.37683 1.3624C6.32232 1.24794 6.2365 1.15127 6.1293 1.08358C6.02211 1.0159 5.89793 0.97998 5.77116 0.97998C5.64439 0.97998 5.52021 1.0159 5.41301 1.08358C5.30582 1.15127 5.22 1.24794 5.16549 1.3624L4.33366 3.10752C4.24925 3.28444 4.12287 3.43804 3.96553 3.55496C3.80819 3.67188 3.62466 3.74857 3.43091 3.77835L1.55449 4.0601C1.42837 4.0796 1.3103 4.13427 1.21384 4.21785C1.11739 4.30142 1.04646 4.4105 1.0092 4.53256C0.969852 4.6555 0.964947 4.78688 0.995022 4.91241C1.0251 5.03795 1.089 5.15284 1.17978 5.2446L2.53295 6.59681C2.67361 6.73922 2.77815 6.91322 2.83783 7.10428C2.89752 7.29534 2.91062 7.49791 2.87603 7.69506L2.52145 9.74494C2.49848 9.87448 2.51225 10.0079 2.5612 10.13C2.61015 10.2521 2.69232 10.3581 2.79841 10.4359C2.90286 10.5117 3.02729 10.5553 3.15625 10.5611C3.28521 10.5669 3.41303 10.5347 3.52387 10.4685L5.1607 9.49577C5.34509 9.38546 5.55631 9.3281 5.77116 9.32998Z" stroke="black" stroke-linecap="round" stroke-linejoin="round"/>
<path d="M20.625 13.4116C19.9896 13.4116 19.3802 13.664 18.9309 14.1133C18.4816 14.5626 18.2292 15.172 18.2292 15.8075C18.2292 15.4928 18.1672 15.1813 18.0468 14.8906C17.9264 14.5999 17.7499 14.3358 17.5274 14.1133C17.305 13.8909 17.0409 13.7144 16.7502 13.594C16.4595 13.4736 16.148 13.4116 15.8333 13.4116C15.5187 13.4116 15.2072 13.4736 14.9165 13.594C14.6258 13.7144 14.3617 13.8909 14.1392 14.1133C13.9168 14.3358 13.7403 14.5999 13.6199 14.8906C13.4995 15.1813 13.4375 15.4928 13.4375 15.8075C13.4375 18.7783 16.7131 21.9168 17.8458 22.857C17.9533 22.947 18.089 22.9963 18.2292 22.9963C18.3693 22.9963 18.505 22.947 18.6125 22.857C19.7481 21.9159 23.0208 18.7783 23.0208 15.8075C23.0208 15.172 22.7684 14.5626 22.3191 14.1133C21.8698 13.664 21.2604 13.4116 20.625 13.4116Z" fill="#ECF2FB"/>
<path d="M15.8333 16.0557C16.4687 16.0557 17.0781 16.3082 17.5274 16.7575C17.9767 17.2068 18.2292 17.8162 18.2292 18.4516C18.2218 17.9111 18.3985 17.3843 18.7301 16.9576C19.0618 16.5308 19.5288 16.2296 20.0543 16.1034C20.5799 15.9772 21.1327 16.0335 21.622 16.2631C22.1113 16.4927 22.5079 16.8819 22.7467 17.3667C22.92 16.8661 23.0125 16.3411 23.0208 15.8114C23.0208 15.1759 22.7684 14.5666 22.3191 14.1173C21.8698 13.6679 21.2604 13.4155 20.625 13.4155C19.9896 13.4155 19.3802 13.6679 18.9309 14.1173C18.4816 14.5666 18.2292 15.1759 18.2292 15.8114C18.2292 15.4967 18.1672 15.1852 18.0468 14.8945C17.9264 14.6038 17.7499 14.3397 17.5274 14.1173C17.305 13.8948 17.0409 13.7183 16.7502 13.5979C16.4595 13.4775 16.148 13.4155 15.8333 13.4155C15.5187 13.4155 15.2072 13.4775 14.9165 13.5979C14.6258 13.7183 14.3617 13.8948 14.1392 14.1173C13.9168 14.3397 13.7403 14.6038 13.6199 14.8945C13.4995 15.1852 13.4375 15.4967 13.4375 15.8114C13.4453 16.3405 13.5378 16.865 13.7116 17.3648C13.9102 16.9722 14.2135 16.6422 14.5879 16.4112C14.9623 16.1801 15.3934 16.0571 15.8333 16.0557Z" fill="#F9D835"/>
<path d="M20.625 13.4375C19.9896 13.4375 19.3802 13.6899 18.9309 14.1392C18.4816 14.5885 18.2292 15.1979 18.2292 15.8333C18.2292 15.1979 17.9767 14.5885 17.5274 14.1392C17.0781 13.6899 16.4687 13.4375 15.8333 13.4375C15.1979 13.4375 14.5885 13.6899 14.1392 14.1392C13.6899 14.5885 13.4375 15.1979 13.4375 15.8333C13.4375 18.8042 16.7131 21.9427 17.8458 22.8828C17.9533 22.9728 18.089 23.0221 18.2292 23.0221C18.3693 23.0221 18.505 22.9728 18.6125 22.8828C19.7481 21.9417 23.0208 18.8042 23.0208 15.8333C23.0208 15.1979 22.7684 14.5885 22.3191 14.1392C21.8698 13.6899 21.2604 13.4375 20.625 13.4375Z" stroke="black" stroke-linecap="round" stroke-linejoin="round"/>
<path d="M18.2292 10.5623C19.1769 10.5623 20.1033 10.2813 20.8913 9.7548C21.6793 9.22828 22.2934 8.47993 22.6561 7.60436C23.0188 6.7288 23.1137 5.76536 22.9288 4.83587C22.7439 3.90637 22.2875 3.05258 21.6174 2.38245C20.9473 1.71233 20.0935 1.25596 19.164 1.07108C18.2345 0.886189 17.271 0.98108 16.3955 1.34375C15.5199 1.70642 14.7716 2.32058 14.245 3.10857C13.7185 3.89655 13.4375 4.82297 13.4375 5.77067C13.4375 7.0415 13.9423 8.26028 14.8409 9.15889C15.7396 10.0575 16.9583 10.5623 18.2292 10.5623Z" fill="#ECF2FB"/>
<path d="M18.2292 3.28571C19.2977 3.2876 20.3348 3.64724 21.1752 4.30727C22.0155 4.9673 22.6106 5.88971 22.8656 6.92738C22.9644 6.5496 23.0165 6.16113 23.0208 5.77067C23.0208 4.49984 22.516 3.28106 21.6174 2.38245C20.7188 1.48384 19.5 0.979004 18.2292 0.979004C16.9583 0.979004 15.7396 1.48384 14.8409 2.38245C13.9423 3.28106 13.4375 4.49984 13.4375 5.77067C13.4423 6.15889 13.4945 6.54507 13.5928 6.92067C13.849 5.88424 14.4447 4.96335 15.2849 4.30463C16.1251 3.6459 17.1615 3.28723 18.2292 3.28571Z" fill="#F9D835"/>
<path d="M18.2292 10.5623C19.1769 10.5623 20.1033 10.2813 20.8913 9.7548C21.6793 9.22828 22.2934 8.47993 22.6561 7.60436C23.0188 6.7288 23.1137 5.76536 22.9288 4.83587C22.7439 3.90637 22.2875 3.05258 21.6174 2.38245C20.9473 1.71233 20.0935 1.25596 19.164 1.07108C18.2345 0.886189 17.271 0.98108 16.3955 1.34375C15.5199 1.70642 14.7716 2.32058 14.245 3.10857C13.7185 3.89655 13.4375 4.82297 13.4375 5.77067C13.4375 7.0415 13.9423 8.26028 14.8409 9.15889C15.7396 10.0575 16.9583 10.5623 18.2292 10.5623Z" stroke="black" stroke-linecap="round" stroke-linejoin="round"/>
<path d="M9.2557 18.4676C9.51213 18.2258 9.71744 17.935 9.85945 17.6124C10.0015 17.2898 10.0773 16.942 10.0825 16.5896C10.0876 16.2372 10.022 15.8873 9.88955 15.5607C9.75706 15.2341 9.56038 14.9374 9.31115 14.6881C9.06191 14.4389 8.7652 14.2422 8.43859 14.1097C8.11197 13.9772 7.76209 13.9116 7.40966 13.9168C7.05723 13.922 6.70942 13.9978 6.38683 14.1398C6.06424 14.2818 5.77343 14.4871 5.53161 14.7436C5.2898 14.4871 4.99899 14.2818 4.6764 14.1398C4.35381 13.9978 4.006 13.922 3.65357 13.9168C3.30114 13.9116 2.95126 13.9772 2.62464 14.1097C2.29803 14.2422 2.00132 14.4389 1.75208 14.6881C1.50285 14.9374 1.30617 15.2341 1.17368 15.5607C1.04118 15.8873 0.975582 16.2372 0.980752 16.5896C0.985923 16.942 1.06176 17.2898 1.20378 17.6124C1.34579 17.935 1.5511 18.2258 1.80753 18.4676C1.5511 18.7095 1.34579 19.0003 1.20378 19.3229C1.06176 19.6455 0.985923 19.9933 0.980752 20.3457C0.975582 20.6981 1.04118 21.048 1.17368 21.3746C1.30617 21.7012 1.50285 21.9979 1.75208 22.2472C2.00132 22.4964 2.29803 22.6931 2.62464 22.8256C2.95126 22.9581 3.30114 23.0237 3.65357 23.0185C4.006 23.0133 4.35381 22.9375 4.6764 22.7955C4.99899 22.6535 5.2898 22.4482 5.53161 22.1917C5.77343 22.4482 6.06424 22.6535 6.38683 22.7955C6.70942 22.9375 7.05723 23.0133 7.40966 23.0185C7.76209 23.0237 8.11197 22.9581 8.43859 22.8256C8.7652 22.6931 9.06191 22.4964 9.31115 22.2472C9.56038 21.9979 9.75706 21.7012 9.88955 21.3746C10.022 21.048 10.0876 20.6981 10.0825 20.3457C10.0773 19.9933 10.0015 19.6455 9.85945 19.3229C9.71744 19.0003 9.51213 18.7095 9.2557 18.4676Z" fill="#ECF2FB"/>
<path d="M2.9578 16.5625C3.41401 16.4451 3.89337 16.4522 4.34593 16.583C4.79848 16.7138 5.20769 16.9635 5.53093 17.3062C5.81398 17.0053 6.16394 16.7754 6.55244 16.635C6.94094 16.4946 7.35705 16.4477 7.76705 16.4981C8.17706 16.5485 8.56942 16.6947 8.91235 16.9251C9.25528 17.1554 9.53912 17.4632 9.74089 17.8237C10.0538 17.2637 10.1511 16.6086 10.0143 15.9818C9.87757 15.355 9.51628 14.7999 8.99854 14.4212C8.48081 14.0424 7.8424 13.8661 7.20365 13.9255C6.5649 13.9849 5.96994 14.2759 5.53093 14.7436C5.09255 14.2737 4.49713 13.9808 3.85735 13.9203C3.21757 13.8599 2.57782 14.036 2.05917 14.4155C1.54053 14.7949 1.17897 15.3514 1.04293 15.9794C0.906897 16.6075 1.00582 17.2636 1.32097 17.8237C1.49455 17.5139 1.72906 17.2424 2.01037 17.0257C2.29168 16.8089 2.61397 16.6514 2.9578 16.5625Z" fill="#F9D835"/>
<path d="M9.2557 18.4676C9.51213 18.2258 9.71744 17.935 9.85945 17.6124C10.0015 17.2898 10.0773 16.942 10.0825 16.5896C10.0876 16.2372 10.022 15.8873 9.88955 15.5607C9.75706 15.2341 9.56038 14.9374 9.31115 14.6881C9.06191 14.4389 8.7652 14.2422 8.43859 14.1097C8.11197 13.9772 7.76209 13.9116 7.40966 13.9168C7.05723 13.922 6.70942 13.9978 6.38683 14.1398C6.06424 14.2818 5.77343 14.4871 5.53161 14.7436C5.2898 14.4871 4.99899 14.2818 4.6764 14.1398C4.35381 13.9978 4.006 13.922 3.65357 13.9168C3.30114 13.9116 2.95126 13.9772 2.62464 14.1097C2.29803 14.2422 2.00132 14.4389 1.75208 14.6881C1.50285 14.9374 1.30617 15.2341 1.17368 15.5607C1.04118 15.8873 0.975582 16.2372 0.980752 16.5896C0.985923 16.942 1.06176 17.2898 1.20378 17.6124C1.34579 17.935 1.5511 18.2258 1.80753 18.4676C1.5511 18.7095 1.34579 19.0003 1.20378 19.3229C1.06176 19.6455 0.985923 19.9933 0.980752 20.3457C0.975582 20.6981 1.04118 21.048 1.17368 21.3746C1.30617 21.7012 1.50285 21.9979 1.75208 22.2472C2.00132 22.4964 2.29803 22.6931 2.62464 22.8256C2.95126 22.9581 3.30114 23.0237 3.65357 23.0185C4.006 23.0133 4.35381 22.9375 4.6764 22.7955C4.99899 22.6535 5.2898 22.4482 5.53161 22.1917C5.77343 22.4482 6.06424 22.6535 6.38683 22.7955C6.70942 22.9375 7.05723 23.0133 7.40966 23.0185C7.76209 23.0237 8.11197 22.9581 8.43859 22.8256C8.7652 22.6931 9.06191 22.4964 9.31115 22.2472C9.56038 21.9979 9.75706 21.7012 9.88955 21.3746C10.022 21.048 10.0876 20.6981 10.0825 20.3457C10.0773 19.9933 10.0015 19.6455 9.85945 19.3229C9.71744 19.0003 9.51213 18.7095 9.2557 18.4676Z" stroke="black" stroke-linecap="round" stroke-linejoin="round"/>
</g>
<defs>
<clipPath id="clip0_49_17836">
<rect width="24" height="24" fill="white"/>
</clipPath>
</defs>
</svg>
