<svg width="24" height="24" viewBox="0 0 24 24" fill="none" xmlns="http://www.w3.org/2000/svg">
<g clip-path="url(#clip0_49_12820)">
<path d="M4.8125 19.3605C4.81125 19.2988 4.79787 19.238 4.77311 19.1815C4.74836 19.125 4.71271 19.0739 4.66821 19.0312C4.62372 18.9885 4.57124 18.955 4.51378 18.9325C4.45632 18.9101 4.395 18.8992 4.33333 18.9005H2.41667C2.355 18.8992 2.29368 18.9101 2.23622 18.9325C2.17876 18.955 2.12628 18.9885 2.08179 19.0312C2.03729 19.0739 2.00164 19.125 1.97689 19.1815C1.95213 19.238 1.93875 19.2988 1.9375 19.3605V22.5805H4.8125V19.3605Z" fill="#F9D835"/>
<path d="M10.5625 14.7589C10.5613 14.6973 10.5479 14.6364 10.5231 14.5799C10.4984 14.5234 10.4627 14.4724 10.4182 14.4297C10.3737 14.3869 10.3212 14.3534 10.2638 14.331C10.2063 14.3085 10.145 14.2977 10.0833 14.2989H8.16667C8.105 14.2977 8.04368 14.3085 7.98622 14.331C7.92876 14.3534 7.87628 14.3869 7.83179 14.4297C7.78729 14.4724 7.75164 14.5234 7.72689 14.5799C7.70213 14.6364 7.68875 14.6973 7.6875 14.7589V22.5789H10.5625V14.7589Z" fill="#F9D835"/>
<path d="M16.3125 17.5187C16.3113 17.457 16.2979 17.3962 16.2731 17.3397C16.2484 17.2832 16.2127 17.2321 16.1682 17.1894C16.1237 17.1467 16.0712 17.1132 16.0138 17.0907C15.9563 17.0683 15.895 17.0574 15.8333 17.0587H13.9167C13.855 17.0574 13.7937 17.0683 13.7362 17.0907C13.6788 17.1132 13.6263 17.1467 13.5818 17.1894C13.5373 17.2321 13.5016 17.2832 13.4769 17.3397C13.4521 17.3962 13.4387 17.457 13.4375 17.5187V22.5787H16.3125V17.5187Z" fill="#F9D835"/>
<path d="M22.0625 10.1593C22.0613 10.0976 22.0479 10.0368 22.0231 9.98033C21.9984 9.92383 21.9627 9.87277 21.9182 9.83005C21.8737 9.78733 21.8212 9.7538 21.7638 9.73137C21.7063 9.70894 21.645 9.69805 21.5833 9.69932H19.6667C19.605 9.69805 19.5437 9.70894 19.4862 9.73137C19.4288 9.7538 19.3763 9.78733 19.3318 9.83005C19.2873 9.87277 19.2516 9.92383 19.2269 9.98033C19.2021 10.0368 19.1887 10.0976 19.1875 10.1593V22.5793H22.0625V10.1593Z" fill="#F9D835"/>
<path d="M4.33333 18.9005H2.41667C2.355 18.8992 2.29368 18.9101 2.23622 18.9325C2.17876 18.955 2.12628 18.9885 2.08179 19.0312C2.03729 19.0739 2.00164 19.125 1.97689 19.1815C1.95213 19.238 1.93875 19.2988 1.9375 19.3605V21.2388C1.93875 21.1772 1.95213 21.1163 1.97689 21.0598C2.00164 21.0033 2.03729 20.9523 2.08179 20.9096C2.12628 20.8668 2.17876 20.8333 2.23622 20.8109C2.29368 20.7884 2.355 20.7776 2.41667 20.7788H4.33333C4.395 20.7776 4.45632 20.7884 4.51378 20.8109C4.57124 20.8333 4.62372 20.8668 4.66821 20.9096C4.71271 20.9523 4.74836 21.0033 4.77311 21.0598C4.79787 21.1163 4.81125 21.1772 4.8125 21.2388V19.3605C4.81125 19.2988 4.79787 19.238 4.77311 19.1815C4.74836 19.125 4.71271 19.0739 4.66821 19.0312C4.62372 18.9885 4.57124 18.955 4.51378 18.9325C4.45632 18.9101 4.395 18.8992 4.33333 18.9005Z" fill="#ECF2FB"/>
<path d="M10.0833 14.2989H8.16667C8.105 14.2977 8.04368 14.3085 7.98622 14.331C7.92876 14.3534 7.87628 14.3869 7.83179 14.4297C7.78729 14.4724 7.75164 14.5234 7.72689 14.5799C7.70213 14.6364 7.68875 14.6973 7.6875 14.7589V16.6373C7.68875 16.5756 7.70213 16.5148 7.72689 16.4583C7.75164 16.4018 7.78729 16.3507 7.83179 16.308C7.87628 16.2653 7.92876 16.2317 7.98622 16.2093C8.04368 16.1869 8.105 16.176 8.16667 16.1773H10.0833C10.145 16.176 10.2063 16.1869 10.2638 16.2093C10.3212 16.2317 10.3737 16.2653 10.4182 16.308C10.4627 16.3507 10.4984 16.4018 10.5231 16.4583C10.5479 16.5148 10.5613 16.5756 10.5625 16.6373V14.7589C10.5613 14.6973 10.5479 14.6364 10.5231 14.5799C10.4984 14.5234 10.4627 14.4724 10.4182 14.4297C10.3737 14.3869 10.3212 14.3534 10.2638 14.331C10.2063 14.3085 10.145 14.2977 10.0833 14.2989Z" fill="#ECF2FB"/>
<path d="M15.8333 17.0587H13.9167C13.855 17.0574 13.7937 17.0683 13.7362 17.0907C13.6788 17.1132 13.6263 17.1467 13.5818 17.1894C13.5373 17.2321 13.5016 17.2832 13.4769 17.3397C13.4521 17.3962 13.4387 17.457 13.4375 17.5187V19.397C13.4387 19.3354 13.4521 19.2745 13.4769 19.218C13.5016 19.1615 13.5373 19.1105 13.5818 19.0678C13.6263 19.025 13.6788 18.9915 13.7362 18.9691C13.7937 18.9466 13.855 18.9358 13.9167 18.937H15.8333C15.895 18.9358 15.9563 18.9466 16.0138 18.9691C16.0712 18.9915 16.1237 19.025 16.1682 19.0678C16.2127 19.1105 16.2484 19.1615 16.2731 19.218C16.2979 19.2745 16.3113 19.3354 16.3125 19.397V17.5187C16.3113 17.457 16.2979 17.3962 16.2731 17.3397C16.2484 17.2832 16.2127 17.2321 16.1682 17.1894C16.1237 17.1467 16.0712 17.1132 16.0138 17.0907C15.9563 17.0683 15.895 17.0574 15.8333 17.0587Z" fill="#ECF2FB"/>
<path d="M21.5833 9.69932H19.6667C19.605 9.69805 19.5437 9.70894 19.4862 9.73137C19.4288 9.7538 19.3763 9.78733 19.3318 9.83005C19.2873 9.87277 19.2516 9.92383 19.2269 9.98033C19.2021 10.0368 19.1887 10.0976 19.1875 10.1593V12.0377C19.1887 11.976 19.2021 11.9152 19.2269 11.8587C19.2516 11.8022 19.2873 11.7511 19.3318 11.7084C19.3763 11.6657 19.4288 11.6321 19.4862 11.6097C19.5437 11.5873 19.605 11.5764 19.6667 11.5777H21.5833C21.645 11.5764 21.7063 11.5873 21.7638 11.6097C21.8212 11.6321 21.8737 11.6657 21.9182 11.7084C21.9627 11.7511 21.9984 11.8022 22.0231 11.8587C22.0479 11.9152 22.0613 11.976 22.0625 12.0377V10.1593C22.0613 10.0976 22.0479 10.0368 22.0231 9.98033C21.9984 9.92383 21.9627 9.87277 21.9182 9.83005C21.8737 9.78733 21.8212 9.7538 21.7638 9.73137C21.7063 9.70894 21.645 9.69805 21.5833 9.69932Z" fill="#ECF2FB"/>
<path d="M4.8125 19.3605C4.81125 19.2988 4.79787 19.238 4.77311 19.1815C4.74836 19.125 4.71271 19.0739 4.66821 19.0312C4.62372 18.9885 4.57124 18.955 4.51378 18.9325C4.45632 18.9101 4.395 18.8992 4.33333 18.9005H2.41667C2.355 18.8992 2.29368 18.9101 2.23622 18.9325C2.17876 18.955 2.12628 18.9885 2.08179 19.0312C2.03729 19.0739 2.00164 19.125 1.97689 19.1815C1.95213 19.238 1.93875 19.2988 1.9375 19.3605V22.5805H4.8125V19.3605Z" stroke="black" stroke-linecap="round" stroke-linejoin="round"/>
<path d="M10.5625 14.7589C10.5613 14.6973 10.5479 14.6364 10.5231 14.5799C10.4984 14.5234 10.4627 14.4724 10.4182 14.4297C10.3737 14.3869 10.3212 14.3534 10.2638 14.331C10.2063 14.3085 10.145 14.2977 10.0833 14.2989H8.16667C8.105 14.2977 8.04368 14.3085 7.98622 14.331C7.92876 14.3534 7.87628 14.3869 7.83179 14.4297C7.78729 14.4724 7.75164 14.5234 7.72689 14.5799C7.70213 14.6364 7.68875 14.6973 7.6875 14.7589V22.5789H10.5625V14.7589Z" stroke="black" stroke-linecap="round" stroke-linejoin="round"/>
<path d="M16.3125 17.5187C16.3113 17.457 16.2979 17.3962 16.2731 17.3397C16.2484 17.2832 16.2127 17.2321 16.1682 17.1894C16.1237 17.1467 16.0712 17.1132 16.0138 17.0907C15.9563 17.0683 15.895 17.0574 15.8333 17.0587H13.9167C13.855 17.0574 13.7937 17.0683 13.7362 17.0907C13.6788 17.1132 13.6263 17.1467 13.5818 17.1894C13.5373 17.2321 13.5016 17.2832 13.4769 17.3397C13.4521 17.3962 13.4387 17.457 13.4375 17.5187V22.5787H16.3125V17.5187Z" stroke="black" stroke-linecap="round" stroke-linejoin="round"/>
<path d="M22.0625 10.1593C22.0613 10.0976 22.0479 10.0368 22.0231 9.98033C21.9984 9.92383 21.9627 9.87277 21.9182 9.83005C21.8737 9.78733 21.8212 9.7538 21.7638 9.73137C21.7063 9.70894 21.645 9.69805 21.5833 9.69932H19.6667C19.605 9.69805 19.5437 9.70894 19.4862 9.73137C19.4288 9.7538 19.3763 9.78733 19.3318 9.83005C19.2873 9.87277 19.2516 9.92383 19.2269 9.98033C19.2021 10.0368 19.1887 10.0976 19.1875 10.1593V22.5793H22.0625V10.1593Z" stroke="black" stroke-linecap="round" stroke-linejoin="round"/>
<path d="M0.978516 22.5801H23.0202" stroke="black" stroke-linecap="round" stroke-linejoin="round"/>
<path d="M4.25098 8.86047L6.81164 6.40234" stroke="black" stroke-linecap="round" stroke-linejoin="round"/>
<path d="M9.82227 6.02734L12.2603 7.39776" stroke="black" stroke-linecap="round" stroke-linejoin="round"/>
<path d="M15.4248 7.18627L19.1182 4.40039" stroke="black" stroke-linecap="round" stroke-linejoin="round"/>
<path d="M20.6247 5.09846C21.1228 5.10848 21.6045 4.92028 21.9639 4.57525C22.3233 4.23021 22.531 3.75658 22.5413 3.25846C22.5413 2.75013 22.3394 2.26262 21.98 1.90318C21.6205 1.54373 21.133 1.3418 20.6247 1.3418C20.1163 1.3418 19.6288 1.54373 19.2694 1.90318C18.9099 2.26262 18.708 2.75013 18.708 3.25846C18.7183 3.75658 18.926 4.23021 19.2854 4.57525C19.6448 4.92028 20.1266 5.10848 20.6247 5.09846Z" fill="#F9D835" stroke="black" stroke-linecap="round" stroke-linejoin="round"/>
<path d="M13.9167 10.159C14.4148 10.169 14.8965 9.98083 15.2559 9.6358C15.6153 9.29076 15.823 8.81713 15.8333 8.31901C15.8333 7.81068 15.6314 7.32317 15.272 6.96372C14.9125 6.60428 14.425 6.40234 13.9167 6.40234C13.4083 6.40234 12.9208 6.60428 12.5614 6.96372C12.2019 7.32317 12 7.81068 12 8.31901C12.0103 8.81713 12.218 9.29076 12.5774 9.6358C12.9368 9.98083 13.4185 10.169 13.9167 10.159Z" fill="#F9D835" stroke="black" stroke-linecap="round" stroke-linejoin="round"/>
<path d="M8.16667 6.94026C8.66479 6.95028 9.1465 6.76208 9.50591 6.41705C9.86532 6.07201 10.073 5.59838 10.0833 5.10026C10.0833 4.59193 9.8814 4.10442 9.52195 3.74497C9.16251 3.38553 8.675 3.18359 8.16667 3.18359C7.65833 3.18359 7.17082 3.38553 6.81138 3.74497C6.45193 4.10442 6.25 4.59193 6.25 5.10026C6.26032 5.59838 6.46801 6.07201 6.82742 6.41705C7.18683 6.76208 7.66854 6.95028 8.16667 6.94026Z" fill="#F9D835" stroke="black" stroke-linecap="round" stroke-linejoin="round"/>
<path d="M2.89565 12.0003C3.14435 12.0116 3.39277 11.9725 3.6259 11.8851C3.85903 11.7978 4.07203 11.6641 4.25204 11.4921C4.43205 11.3201 4.57533 11.1134 4.67321 10.8845C4.7711 10.6556 4.82157 10.4092 4.82157 10.1603C4.82157 9.91132 4.7711 9.66495 4.67321 9.43604C4.57533 9.20714 4.43205 9.00045 4.25204 8.82847C4.07203 8.6565 3.85903 8.5228 3.6259 8.43545C3.39277 8.3481 3.14435 8.30892 2.89565 8.32028C2.64695 8.30892 2.39853 8.3481 2.1654 8.43545C1.93227 8.5228 1.71927 8.6565 1.53926 8.82847C1.35925 9.00045 1.21597 9.20714 1.11808 9.43604C1.0202 9.66495 0.969727 9.91132 0.969727 10.1603C0.969727 10.4092 1.0202 10.6556 1.11808 10.8845C1.21597 11.1134 1.35925 11.3201 1.53926 11.4921C1.71927 11.6641 1.93227 11.7978 2.1654 11.8851C2.39853 11.9725 2.64695 12.0116 2.89565 12.0003Z" fill="#F9D835" stroke="black" stroke-linecap="round" stroke-linejoin="round"/>
</g>
<defs>
<clipPath id="clip0_49_12820">
<rect width="24" height="24" fill="white"/>
</clipPath>
</defs>
</svg>
