<svg width="24" height="24" viewBox="0 0 24 24" fill="none" xmlns="http://www.w3.org/2000/svg">
<g clip-path="url(#clip0_49_13304)">
<path d="M22.0618 10.5618H19.9085C19.7131 9.59048 19.3909 8.649 18.9501 7.7616L20.4729 6.23977C20.6526 6.06005 20.7535 5.81634 20.7535 5.56222C20.7535 5.30811 20.6526 5.0644 20.4729 4.88468L19.114 3.5296C18.9343 3.34994 18.6906 3.24901 18.4365 3.24901C18.1824 3.24901 17.9386 3.34994 17.7589 3.5296L16.2352 5.05239C15.3485 4.61149 14.4077 4.28927 13.4368 4.09406V1.93685C13.4368 1.68268 13.3359 1.43893 13.1562 1.25921C12.9764 1.07948 12.7327 0.978516 12.4785 0.978516H11.5202C11.266 0.978516 11.0223 1.07948 10.8425 1.25921C10.6628 1.43893 10.5618 1.68268 10.5618 1.93685V4.09214C9.59074 4.28736 8.64956 4.60957 7.76256 5.05047L6.23881 3.5296C6.05909 3.34994 5.81538 3.24901 5.56127 3.24901C5.30715 3.24901 5.06344 3.34994 4.88372 3.5296L3.52768 4.88564C3.34802 5.06535 3.2471 5.30907 3.2471 5.56318C3.2471 5.8173 3.34802 6.06101 3.52768 6.24072L5.05143 7.76352C4.61098 8.6507 4.28879 9.59183 4.0931 10.5628H1.93685C1.68268 10.5628 1.43893 10.6638 1.25921 10.8435C1.07948 11.0232 0.978516 11.267 0.978516 11.5211V12.4795C0.978516 12.7336 1.07948 12.9774 1.25921 13.1571C1.43893 13.3368 1.68268 13.4378 1.93685 13.4378H4.08927C4.28496 14.4088 4.60715 15.3499 5.0476 16.2371L3.52385 17.7609C3.34419 17.9406 3.24326 18.1843 3.24326 18.4384C3.24326 18.6925 3.34419 18.9362 3.52385 19.1159L4.88372 20.471C5.06344 20.6507 5.30715 20.7516 5.56127 20.7516C5.81538 20.7516 6.05909 20.6507 6.23881 20.471L7.7616 18.9473C8.649 19.388 9.59048 19.7102 10.5618 19.9056V22.0618C10.5618 22.316 10.6628 22.5598 10.8425 22.7395C11.0223 22.9192 11.266 23.0202 11.5202 23.0202H12.4785C12.7327 23.0202 12.9764 22.9192 13.1562 22.7395C13.3359 22.5598 13.4368 22.316 13.4368 22.0618V19.9104C14.4076 19.7148 15.3484 19.3926 16.2352 18.9521L17.7599 20.4748C17.9396 20.6545 18.1833 20.7554 18.4374 20.7554C18.6915 20.7554 18.9353 20.6545 19.115 20.4748L20.4701 19.1198C20.6497 18.9401 20.7506 18.6963 20.7506 18.4422C20.7506 18.1881 20.6497 17.9444 20.4701 17.7647L18.9473 16.2409C19.3877 15.3537 19.7099 14.4126 19.9056 13.4416H22.0618C22.316 13.4416 22.5598 13.3407 22.7395 13.161C22.9192 12.9812 23.0202 12.7375 23.0202 12.4833V11.525C23.0208 11.3987 22.9965 11.2736 22.9486 11.1568C22.9007 11.0399 22.8302 10.9337 22.7412 10.8442C22.6521 10.7547 22.5463 10.6837 22.4297 10.6353C22.3131 10.5868 22.1881 10.5618 22.0618 10.5618ZM11.9993 16.3119C11.1464 16.3119 10.3126 16.0589 9.60345 15.5851C8.89427 15.1112 8.34152 14.4377 8.01512 13.6497C7.68872 12.8617 7.60331 11.9946 7.76971 11.158C7.93611 10.3215 8.34684 9.55307 8.94995 8.94995C9.55307 8.34684 10.3215 7.93611 11.158 7.76971C11.9946 7.60331 12.8617 7.68872 13.6497 8.01512C14.4377 8.34152 15.1112 8.89427 15.5851 9.60345C16.0589 10.3126 16.3119 11.1464 16.3119 11.9993C16.3119 13.1431 15.8575 14.24 15.0487 15.0487C14.24 15.8575 13.1431 16.3119 11.9993 16.3119Z" fill="#F9D835"/>
<path d="M4.08927 13.4368C4.28496 14.4078 4.60715 15.349 5.0476 16.2361L3.52385 17.7599C3.34419 17.9396 3.24326 18.1833 3.24326 18.4374C3.24326 18.6915 3.34419 18.9353 3.52385 19.115L4.20139 19.7925L8.94514 15.0488C8.13626 14.2399 7.68183 13.1428 7.68183 11.9989C7.68183 10.8549 8.13626 9.75786 8.94514 8.94897C9.75402 8.14009 10.8511 7.68567 11.995 7.68567C13.139 7.68567 14.2361 8.14009 15.0449 8.94897L19.7877 4.20618L19.1102 3.52864C18.9305 3.34898 18.6868 3.24805 18.4326 3.24805C18.1785 3.24805 17.9348 3.34898 17.7551 3.52864L16.2352 5.05239C15.3485 4.61149 14.4077 4.28927 13.4368 4.09406V1.93685C13.4368 1.68268 13.3359 1.43893 13.1562 1.25921C12.9764 1.07948 12.7327 0.978516 12.4785 0.978516H11.5202C11.266 0.978516 11.0223 1.07948 10.8425 1.25921C10.6628 1.43893 10.5618 1.68268 10.5618 1.93685V4.09214C9.59074 4.28736 8.64956 4.60957 7.76256 5.05047L6.23881 3.5296C6.05909 3.34994 5.81538 3.24901 5.56127 3.24901C5.30715 3.24901 5.06344 3.34994 4.88372 3.5296L3.52768 4.88564C3.34802 5.06535 3.2471 5.30907 3.2471 5.56318C3.2471 5.8173 3.34802 6.06101 3.52768 6.24072L5.05143 7.76352C4.61098 8.6507 4.28879 9.59183 4.0931 10.5628H1.93685C1.68268 10.5628 1.43893 10.6638 1.25921 10.8435C1.07948 11.0232 0.978516 11.267 0.978516 11.5211V12.4795C0.978516 12.7336 1.07948 12.9774 1.25921 13.1571C1.43893 13.3368 1.68268 13.4378 1.93685 13.4378L4.08927 13.4368Z" fill="white"/>
<path d="M22.0618 10.5618H19.9085C19.7131 9.59048 19.3909 8.649 18.9501 7.7616L20.4729 6.23977C20.6526 6.06005 20.7535 5.81634 20.7535 5.56222C20.7535 5.30811 20.6526 5.0644 20.4729 4.88468L19.114 3.5296C18.9343 3.34994 18.6906 3.24901 18.4365 3.24901C18.1824 3.24901 17.9386 3.34994 17.7589 3.5296L16.2352 5.05239C15.3485 4.61149 14.4077 4.28927 13.4368 4.09406V1.93685C13.4368 1.68268 13.3359 1.43893 13.1562 1.25921C12.9764 1.07948 12.7327 0.978516 12.4785 0.978516H11.5202C11.266 0.978516 11.0223 1.07948 10.8425 1.25921C10.6628 1.43893 10.5618 1.68268 10.5618 1.93685V4.09214C9.59074 4.28736 8.64956 4.60957 7.76256 5.05047L6.23881 3.5296C6.05909 3.34994 5.81538 3.24901 5.56127 3.24901C5.30715 3.24901 5.06344 3.34994 4.88372 3.5296L3.52768 4.88564C3.34802 5.06535 3.2471 5.30907 3.2471 5.56318C3.2471 5.8173 3.34802 6.06101 3.52768 6.24072L5.05143 7.76352C4.61098 8.6507 4.28879 9.59183 4.0931 10.5628H1.93685C1.68268 10.5628 1.43893 10.6638 1.25921 10.8435C1.07948 11.0232 0.978516 11.267 0.978516 11.5211V12.4795C0.978516 12.7336 1.07948 12.9774 1.25921 13.1571C1.43893 13.3368 1.68268 13.4378 1.93685 13.4378H4.08927C4.28496 14.4088 4.60715 15.3499 5.0476 16.2371L3.52385 17.7609C3.34419 17.9406 3.24326 18.1843 3.24326 18.4384C3.24326 18.6925 3.34419 18.9362 3.52385 19.1159L4.88372 20.471C5.06344 20.6507 5.30715 20.7516 5.56127 20.7516C5.81538 20.7516 6.05909 20.6507 6.23881 20.471L7.7616 18.9473C8.649 19.388 9.59048 19.7102 10.5618 19.9056V22.0618C10.5618 22.316 10.6628 22.5598 10.8425 22.7395C11.0223 22.9192 11.266 23.0202 11.5202 23.0202H12.4785C12.7327 23.0202 12.9764 22.9192 13.1562 22.7395C13.3359 22.5598 13.4368 22.316 13.4368 22.0618V19.9104C14.4076 19.7148 15.3484 19.3926 16.2352 18.9521L17.7599 20.4748C17.9396 20.6545 18.1833 20.7554 18.4374 20.7554C18.6915 20.7554 18.9353 20.6545 19.115 20.4748L20.4701 19.1198C20.6497 18.9401 20.7506 18.6963 20.7506 18.4422C20.7506 18.1881 20.6497 17.9444 20.4701 17.7647L18.9473 16.2409C19.3877 15.3537 19.7099 14.4126 19.9056 13.4416H22.0618C22.316 13.4416 22.5598 13.3407 22.7395 13.161C22.9192 12.9812 23.0202 12.7375 23.0202 12.4833V11.525C23.0208 11.3987 22.9965 11.2736 22.9486 11.1568C22.9007 11.0399 22.8302 10.9337 22.7412 10.8442C22.6521 10.7547 22.5463 10.6837 22.4297 10.6353C22.3131 10.5868 22.1881 10.5618 22.0618 10.5618ZM11.9993 16.3119C11.1464 16.3119 10.3126 16.0589 9.60345 15.5851C8.89427 15.1112 8.34152 14.4377 8.01512 13.6497C7.68872 12.8617 7.60331 11.9946 7.76971 11.158C7.93611 10.3215 8.34684 9.55306 8.94995 8.94995C9.55306 8.34684 10.3215 7.93611 11.158 7.76971C11.9946 7.60331 12.8617 7.68872 13.6497 8.01512C14.4377 8.34152 15.1112 8.89427 15.5851 9.60345C16.0589 10.3126 16.3119 11.1464 16.3119 11.9993C16.3119 13.1431 15.8575 14.24 15.0487 15.0487C14.24 15.8575 13.1431 16.3119 11.9993 16.3119Z" stroke="black" stroke-linecap="round" stroke-linejoin="round"/>
</g>
<defs>
<clipPath id="clip0_49_13304">
<rect width="24" height="24" fill="white"/>
</clipPath>
</defs>
</svg>
