<svg width="24" height="24" viewBox="0 0 24 24" fill="none" xmlns="http://www.w3.org/2000/svg">
<path d="M9.41952 23.0213V21.1046H7.50285C7.20696 21.1045 6.91284 21.0589 6.63077 20.9695C4.66427 20.7884 4.81185 18.7136 4.62785 15.8338V15.3546H2.41602C2.34058 15.3544 2.26627 15.3363 2.19914 15.3019C2.132 15.2675 2.07393 15.2178 2.02966 15.1567C1.98539 15.0956 1.95617 15.0249 1.94437 14.9504C1.93257 14.8759 1.93854 14.7997 1.96177 14.7279C3.78931 9.0584 5.10606 2.9634 11.3362 2.05298L14.2112 2.01465C18.8735 2.59923 22.8362 6.52648 22.8362 11.2836C22.836 12.7526 22.4886 14.2007 21.8225 15.5098C21.1563 16.819 20.1902 17.9522 19.0029 18.8171V23.0213H9.41952Z" fill="#ECF2FB"/>
<path d="M11.1631 5.8154L14.5076 5.77132C16.1828 5.98816 17.7921 6.56138 19.2271 7.45239C20.6621 8.34339 21.8896 9.5315 22.8269 10.9367C22.6353 6.33673 18.7579 2.58486 14.2096 2.01465L11.3346 2.05298C5.10544 2.9634 3.78773 9.0584 1.95827 14.726C1.93676 14.7933 1.93041 14.8646 1.93969 14.9347C1.94897 15.0048 1.97364 15.0719 2.01194 15.1314C3.66027 10.516 5.91331 6.58302 11.1631 5.8154Z" fill="#ECF2FB"/>
<path d="M14.1817 8.88477C15.1458 9.21784 15.9606 9.88183 16.4814 10.7588C17.0022 11.6358 17.1953 12.6689 17.0264 13.6748C16.8576 14.6807 16.3376 15.5942 15.559 16.253C14.7804 16.9118 13.7934 17.2733 12.7734 17.2733C11.7535 17.2733 10.7665 16.9118 9.9879 16.253C9.20926 15.5942 8.68933 14.6807 8.52046 13.6748C8.35159 12.6689 8.54472 11.6358 9.06553 10.7588C9.58634 9.88183 10.4011 9.21784 11.3652 8.88477" fill="#ECF2FB"/>
<path d="M14.1817 8.88477C15.1458 9.21784 15.9606 9.88183 16.4814 10.7588C17.0022 11.6358 17.1953 12.6689 17.0264 13.6748C16.8576 14.6807 16.3376 15.5942 15.559 16.253C14.7804 16.9118 13.7934 17.2733 12.7734 17.2733C11.7535 17.2733 10.7665 16.9118 9.9879 16.253C9.20926 15.5942 8.68933 14.6807 8.52046 13.6748C8.35159 12.6689 8.54472 11.6358 9.06553 10.7588C9.58634 9.88183 10.4011 9.21784 11.3652 8.88477" stroke="black" stroke-linecap="round" stroke-linejoin="round"/>
<path d="M14.21 2.01465C18.8723 2.59923 22.835 6.52648 22.835 11.2836C22.8348 12.7526 22.4874 14.2007 21.8213 15.5098C21.1551 16.819 20.189 17.9522 19.0016 18.8171V23.0213" stroke="black" stroke-linecap="round" stroke-linejoin="round"/>
<path d="M4.62786 15.8336V15.3544H2.41602C2.34058 15.3541 2.26627 15.3361 2.19914 15.3017C2.132 15.2673 2.07393 15.2175 2.02966 15.1564C1.98539 15.0954 1.95617 15.0247 1.94437 14.9502C1.93257 14.8757 1.93854 14.7994 1.96177 14.7277C3.78931 9.05815 5.10606 2.96315 11.3362 2.05273" stroke="black" stroke-linecap="round" stroke-linejoin="round"/>
<path d="M9.41863 23.0206V21.1039H7.50197C7.20616 21.1036 6.91211 21.0583 6.62988 20.9697" stroke="black" stroke-linecap="round" stroke-linejoin="round"/>
<path d="M11.3369 1.93783C11.3369 1.68366 11.4379 1.4399 11.6176 1.26018C11.7973 1.08046 12.0411 0.979492 12.2952 0.979492H13.2536C13.5077 0.979492 13.7515 1.08046 13.9312 1.26018C14.1109 1.4399 14.2119 1.68366 14.2119 1.93783V8.64616C14.2119 8.77201 14.1871 8.89663 14.139 9.0129C14.0908 9.12917 14.0202 9.23481 13.9312 9.3238C13.8422 9.41279 13.7366 9.48338 13.6203 9.53154C13.504 9.5797 13.3794 9.60449 13.2536 9.60449H12.2952C12.1694 9.60449 12.0448 9.5797 11.9285 9.53154C11.8122 9.48338 11.7066 9.41279 11.6176 9.3238C11.5286 9.23481 11.458 9.12917 11.4099 9.0129C11.3617 8.89663 11.3369 8.77201 11.3369 8.64616V1.93783Z" fill="#F9D835" stroke="black" stroke-linecap="round" stroke-linejoin="round"/>
<path d="M12.7744 14.3955C13.0587 14.3955 13.3367 14.3112 13.573 14.1532C13.8094 13.9953 13.9937 13.7708 14.1025 13.5081C14.2113 13.2454 14.2398 12.9564 14.1843 12.6776C14.1288 12.3987 13.9919 12.1426 13.7909 11.9415C13.5898 11.7405 13.3337 11.6036 13.0549 11.5481C12.776 11.4927 12.487 11.5211 12.2243 11.6299C11.9616 11.7387 11.7371 11.923 11.5792 12.1594C11.4212 12.3958 11.3369 12.6737 11.3369 12.958C11.3369 13.3393 11.4884 13.7049 11.7579 13.9745C12.0275 14.2441 12.3932 14.3955 12.7744 14.3955Z" fill="#F9D835" stroke="black" stroke-linecap="round" stroke-linejoin="round"/>
<path d="M2.70996 18.947C2.71021 18.6294 2.83654 18.325 3.06116 18.1005C3.28579 17.8761 3.59034 17.75 3.90788 17.75H4.38704C4.54436 17.75 4.70013 17.781 4.84547 17.8412C4.99081 17.9014 5.12286 17.9896 5.2341 18.1009C5.34534 18.2121 5.43357 18.3442 5.49377 18.4895C5.55398 18.6348 5.58496 18.7906 5.58496 18.9479C5.58496 19.2656 5.45875 19.5703 5.2341 19.795C5.00945 20.0196 4.70475 20.1458 4.38704 20.1458H3.90788C3.59017 20.1458 3.28548 20.0196 3.06082 19.795C2.83617 19.5703 2.70996 19.2647 2.70996 18.947Z" fill="#F9D835" stroke="black" stroke-linecap="round" stroke-linejoin="round"/>
<path d="M12.3374 14.3281C10.6862 16.9693 7.90319 18.9482 5.58594 18.9482" stroke="black" stroke-linecap="round" stroke-linejoin="round"/>
</svg>
