<svg width="24" height="24" viewBox="0 0 24 24" fill="none" xmlns="http://www.w3.org/2000/svg">
<g clip-path="url(#clip0_49_5770)">
<path d="M14.875 4.33268C14.875 4.77316 14.9618 5.20932 15.1303 5.61627C15.2989 6.02321 15.5459 6.39297 15.8574 6.70444C16.1689 7.0159 16.5386 7.26297 16.9456 7.43153C17.3525 7.60009 17.7887 7.68685 18.2292 7.68685C18.6696 7.68685 19.1058 7.60009 19.5128 7.43153C19.9197 7.26297 20.2895 7.0159 20.6009 6.70444C20.9124 6.39297 21.1595 6.02321 21.328 5.61627C21.4966 5.20932 21.5833 4.77316 21.5833 4.33268C21.5833 3.4431 21.2299 2.58996 20.6009 1.96093C19.9719 1.3319 19.1187 0.978516 18.2292 0.978516C17.3396 0.978516 16.4864 1.3319 15.8574 1.96093C15.2284 2.58996 14.875 3.4431 14.875 4.33268Z" fill="#ECF2FB"/>
<path d="M18.2293 2.54177C18.9824 2.54258 19.7133 2.79684 20.3044 3.2636C20.8954 3.73036 21.3122 4.38246 21.4876 5.11489C21.6115 4.6203 21.6211 4.10395 21.5156 3.60511C21.41 3.10626 21.1921 2.63805 20.8784 2.23606C20.5648 1.83407 20.1636 1.50888 19.7053 1.28522C19.2471 1.06156 18.7439 0.945312 18.2341 0.945312C17.7242 0.945313 17.221 1.06156 16.7628 1.28522C16.3045 1.50888 15.9033 1.83407 15.5897 2.23606C15.276 2.63805 15.0581 3.10626 14.9525 3.60511C14.847 4.10395 14.8566 4.6203 14.9805 5.11489C15.1555 4.38405 15.5708 3.73315 16.1599 3.26656C16.749 2.79997 17.4778 2.54473 18.2293 2.54177Z" fill="white"/>
<path d="M12.0003 20.626L12.4795 17.2718H14.8753V13.9176C14.8753 12.6468 14.3705 11.428 13.4719 10.5294C12.5733 9.63081 11.3545 9.12598 10.0837 9.12598C8.81283 9.12598 7.59405 9.63081 6.69544 10.5294C5.79683 11.428 5.29199 12.6468 5.29199 13.9176V17.2718H7.68783L8.16699 20.626H12.0003Z" fill="#F9D835"/>
<path d="M10.0837 9.12598C8.81283 9.12598 7.59405 9.63081 6.69544 10.5294C5.79683 11.428 5.29199 12.6468 5.29199 13.9176V15.4797C5.29199 14.2089 5.79683 12.9901 6.69544 12.0915C7.59405 11.1929 8.81283 10.6881 10.0837 10.6881C11.3545 10.6881 12.5733 11.1929 13.4719 12.0915C14.3705 12.9901 14.8753 14.2089 14.8753 15.4797V13.9176C14.8753 12.6468 14.3705 11.428 13.4719 10.5294C12.5733 9.63081 11.3545 9.12598 10.0837 9.12598Z" fill="#ECF2FB"/>
<path d="M20.1458 23.0218L20.625 17.2718H23.0208V13.9176C23.0208 12.6468 22.516 11.428 21.6174 10.5294C20.7188 9.63081 19.5 9.12598 18.2292 9.12598C16.9583 9.12598 15.7396 9.63081 14.8409 10.5294C13.9423 11.428 13.4375 12.6468 13.4375 13.9176V17.2718H15.8333L16.3125 23.0218H20.1458Z" fill="#ECF2FB"/>
<path d="M18.2292 9.12598C16.9583 9.12598 15.7396 9.63081 14.8409 10.5294C13.9423 11.428 13.4375 12.6468 13.4375 13.9176V15.4797C13.4375 14.2089 13.9423 12.9901 14.8409 12.0915C15.7396 11.1929 16.9583 10.6881 18.2292 10.6881C19.5 10.6881 20.7188 11.1929 21.6174 12.0915C22.516 12.9901 23.0208 14.2089 23.0208 15.4797V13.9176C23.0208 12.6468 22.516 11.428 21.6174 10.5294C20.7188 9.63081 19.5 9.12598 18.2292 9.12598Z" fill="white"/>
<path d="M7.20801 4.8125C7.20801 5.575 7.51091 6.30626 8.05008 6.84543C8.58924 7.3846 9.32051 7.6875 10.083 7.6875C10.8455 7.6875 11.5768 7.3846 12.1159 6.84543C12.6551 6.30626 12.958 5.575 12.958 4.8125C12.958 4.05 12.6551 3.31874 12.1159 2.77957C11.5768 2.2404 10.8455 1.9375 10.083 1.9375C9.32051 1.9375 8.58924 2.2404 8.05008 2.77957C7.51091 3.31874 7.20801 4.05 7.20801 4.8125Z" fill="#F9D835"/>
<path d="M10.083 3.49958C10.7075 3.50107 11.3144 3.70639 11.8115 4.08434C12.3087 4.46229 12.6688 4.9922 12.8373 5.59354C12.9137 5.34009 12.9543 5.0772 12.958 4.8125C12.958 4.05 12.6551 3.31874 12.1159 2.77957C11.5768 2.2404 10.8455 1.9375 10.083 1.9375C9.32051 1.9375 8.58924 2.2404 8.05008 2.77957C7.51091 3.31874 7.20801 4.05 7.20801 4.8125C7.21169 5.0772 7.25233 5.34009 7.32876 5.59354C7.49719 4.9922 7.85734 4.46229 8.35447 4.08434C8.8516 3.70639 9.45852 3.50107 10.083 3.49958Z" fill="#ECF2FB"/>
<path d="M0.978516 15.3545V23.0212" stroke="black" stroke-linecap="round" stroke-linejoin="round"/>
<path d="M15.3535 22.0625C15.3535 21.3 15.0506 20.5687 14.5114 20.0296C13.9723 19.4904 13.241 19.1875 12.4785 19.1875H8.88477C8.88477 18.425 8.58186 17.6937 8.0427 17.1546C7.50353 16.6154 6.77226 16.3125 6.00977 16.3125H0.978516V22.0625H15.3535Z" fill="#ECF2FB" stroke="black" stroke-linecap="round" stroke-linejoin="round"/>
<path d="M6.01074 19.1875H9.60449" stroke="black" stroke-linecap="round" stroke-linejoin="round"/>
<path d="M15.8333 17.2718H13.4375V13.9176C13.4375 12.6468 13.9423 11.428 14.8409 10.5294C15.7396 9.63081 16.9583 9.12598 18.2292 9.12598C19.5 9.12598 20.7188 9.63081 21.6174 10.5294C22.516 11.428 23.0208 12.6468 23.0208 13.9176V17.2718H20.625L20.1458 23.0218H17.2708" stroke="black" stroke-linecap="round" stroke-linejoin="round"/>
<path d="M14.875 4.33268C14.875 4.77316 14.9618 5.20932 15.1303 5.61627C15.2989 6.02321 15.546 6.39297 15.8574 6.70444C16.1689 7.0159 16.5386 7.26297 16.9456 7.43153C17.3525 7.60009 17.7887 7.68685 18.2292 7.68685C18.6696 7.68685 19.1058 7.60009 19.5128 7.43153C19.9197 7.26297 20.2895 7.0159 20.6009 6.70444C20.9124 6.39297 21.1595 6.02321 21.328 5.61627C21.4966 5.20932 21.5833 4.77316 21.5833 4.33268C21.5833 3.4431 21.2299 2.58996 20.6009 1.96093C19.9719 1.3319 19.1187 0.978516 18.2292 0.978516C17.3396 0.978516 16.4864 1.3319 15.8574 1.96093C15.2284 2.58996 14.875 3.4431 14.875 4.33268Z" stroke="black" stroke-linecap="round" stroke-linejoin="round"/>
<path d="M7.20801 4.8125C7.20801 5.575 7.51091 6.30627 8.05008 6.84543C8.58924 7.3846 9.32051 7.6875 10.083 7.6875C10.8455 7.6875 11.5768 7.3846 12.1159 6.84543C12.6551 6.30627 12.958 5.575 12.958 4.8125C12.958 4.05 12.6551 3.31874 12.1159 2.77957C11.5768 2.2404 10.8455 1.9375 10.083 1.9375C9.32051 1.9375 8.58924 2.2404 8.05008 2.77957C7.51091 3.31874 7.20801 4.05 7.20801 4.8125Z" stroke="black" stroke-linecap="round" stroke-linejoin="round"/>
<path d="M5.29199 14.3954V13.9163C5.29173 13.1097 5.4951 12.316 5.88325 11.6089C6.2714 10.9018 6.83177 10.3042 7.51242 9.87135C8.19307 9.43852 8.97197 9.18451 9.77693 9.13288C10.5819 9.08124 11.3869 9.23365 12.1172 9.57598" stroke="black" stroke-linecap="round" stroke-linejoin="round"/>
</g>
<defs>
<clipPath id="clip0_49_5770">
<rect width="24" height="24" fill="white"/>
</clipPath>
</defs>
</svg>
