<svg width="30" height="30" viewBox="0 0 30 30" fill="none" xmlns="http://www.w3.org/2000/svg">
<g clip-path="url(#clip0_7443_5301)">
<path d="M7.21322 11.6641C7.48101 11.6619 7.74421 11.7336 7.97389 11.8713L10.0223 13.0848C10.1609 13.1675 10.3207 13.2078 10.4819 13.2005C10.6431 13.1933 10.7986 13.1389 10.9292 13.0441C11.0619 12.9469 11.1647 12.8144 11.2259 12.6618C11.2871 12.5091 11.3042 12.3423 11.2754 12.1804L10.8321 9.61802C10.7886 9.37157 10.8048 9.11828 10.8794 8.87941C10.9541 8.64054 11.0849 8.42305 11.261 8.2452L12.9476 6.55495C13.061 6.44017 13.1408 6.29655 13.1784 6.13966C13.216 5.98277 13.2099 5.81858 13.1609 5.66489C13.1137 5.51384 13.0254 5.3789 12.9059 5.27522C12.7863 5.17155 12.6403 5.10322 12.484 5.07791L10.1481 4.72812C9.90421 4.69236 9.67285 4.59718 9.4744 4.45095C9.27595 4.30472 9.1165 4.11194 9.01009 3.88958L7.9703 1.70458C7.90217 1.56151 7.79489 1.44067 7.6609 1.35607C7.52691 1.27147 7.37168 1.22656 7.21322 1.22656C7.05475 1.22656 6.89953 1.27147 6.76554 1.35607C6.63154 1.44067 6.52427 1.56151 6.45613 1.70458L5.41634 3.88599C5.31083 4.10714 5.15286 4.29914 4.95618 4.44529C4.75951 4.59144 4.53009 4.6873 4.2879 4.72453L1.94238 5.07672C1.78473 5.10109 1.63714 5.16943 1.51657 5.27389C1.396 5.37836 1.30734 5.51471 1.26077 5.66729C1.21158 5.82097 1.20545 5.98519 1.24304 6.1421C1.28064 6.29902 1.36051 6.44263 1.474 6.55734L3.16546 8.2476C3.34128 8.42561 3.47195 8.64312 3.54656 8.88194C3.62116 9.12076 3.63754 9.37397 3.59431 9.62041L3.15108 12.1828C3.12237 12.3447 3.13958 12.5114 3.20077 12.6641C3.26195 12.8167 3.36467 12.9492 3.49728 13.0465C3.62785 13.1413 3.78338 13.1957 3.94458 13.2029C4.10578 13.2102 4.26556 13.1699 4.4041 13.0872L6.45014 11.8713C6.68063 11.7334 6.94465 11.6617 7.21322 11.6641Z" fill="#ECF2FB"/>
<path d="M1.98616 7.06885L4.28855 6.72265C4.53074 6.68543 4.76016 6.58956 4.95683 6.44342C5.1535 6.29727 5.31148 6.10526 5.41699 5.88411L6.45678 3.70151C6.52491 3.55844 6.63219 3.4376 6.76618 3.35299C6.90018 3.26839 7.0554 3.22349 7.21387 3.22349C7.37233 3.22349 7.52756 3.26839 7.66155 3.35299C7.79554 3.4376 7.90282 3.55844 7.97095 3.70151L9.01074 5.88411C9.11749 6.10622 9.27704 6.29879 9.47542 6.44497C9.67381 6.59115 9.905 6.68649 10.1488 6.72265L12.4356 7.06286L12.9483 6.54896C13.0617 6.43418 13.1415 6.29056 13.1791 6.13367C13.2166 5.97678 13.2106 5.8126 13.1615 5.6589C13.1144 5.50785 13.0261 5.37291 12.9065 5.26924C12.787 5.16556 12.6409 5.09723 12.4847 5.07192L10.1488 4.72812C9.90486 4.69236 9.6735 4.59718 9.47505 4.45095C9.2766 4.30472 9.11715 4.11194 9.01074 3.88958L7.97095 1.70458C7.90282 1.56151 7.79554 1.44067 7.66155 1.35607C7.52756 1.27147 7.37233 1.22656 7.21387 1.22656C7.0554 1.22656 6.90018 1.27147 6.76618 1.35607C6.63219 1.44067 6.52491 1.56151 6.45678 1.70458L5.41699 3.88599C5.31148 4.10714 5.1535 4.29914 4.95683 4.44529C4.76016 4.59144 4.53074 4.6873 4.28855 4.72453L1.94303 5.07672C1.78538 5.10109 1.63779 5.16943 1.51722 5.27389C1.39665 5.37836 1.30799 5.51471 1.26142 5.66729C1.2125 5.821 1.20651 5.98515 1.24409 6.14201C1.28167 6.29887 1.36139 6.44249 1.47465 6.55734L1.98616 7.06885Z" fill="#F9D835"/>
<path d="M7.21322 11.6641C7.48101 11.6619 7.74421 11.7336 7.97389 11.8713L10.0223 13.0848C10.1609 13.1675 10.3207 13.2078 10.4819 13.2005C10.6431 13.1933 10.7986 13.1389 10.9292 13.0441C11.0619 12.9469 11.1647 12.8144 11.2259 12.6618C11.2871 12.5091 11.3042 12.3423 11.2754 12.1804L10.8321 9.61802C10.7886 9.37157 10.8048 9.11828 10.8794 8.87941C10.9541 8.64054 11.0849 8.42305 11.261 8.24521L12.9476 6.55495C13.061 6.44016 13.1408 6.29655 13.1784 6.13966C13.216 5.98277 13.2099 5.81859 13.1609 5.66489C13.1137 5.51384 13.0254 5.3789 12.9059 5.27522C12.7863 5.17155 12.6403 5.10322 12.4841 5.07791L10.1481 4.72812C9.90421 4.69236 9.67285 4.59718 9.4744 4.45095C9.27595 4.30472 9.1165 4.11194 9.01009 3.88958L7.9703 1.70458C7.90217 1.56151 7.79489 1.44067 7.6609 1.35607C7.52691 1.27147 7.37168 1.22656 7.21322 1.22656C7.05475 1.22656 6.89953 1.27147 6.76554 1.35607C6.63154 1.44067 6.52427 1.56151 6.45613 1.70458L5.41634 3.88599C5.31083 4.10714 5.15286 4.29914 4.95618 4.44529C4.75951 4.59144 4.53009 4.6873 4.2879 4.72453L1.94238 5.07672C1.78473 5.10109 1.63714 5.16943 1.51657 5.27389C1.396 5.37836 1.30734 5.51471 1.26077 5.66729C1.21158 5.82097 1.20545 5.98519 1.24304 6.1421C1.28064 6.29902 1.36051 6.44263 1.474 6.55734L3.16546 8.2476C3.34128 8.42562 3.47195 8.64312 3.54656 8.88194C3.62116 9.12076 3.63754 9.37397 3.59431 9.62041L3.15108 12.1828C3.12237 12.3447 3.13958 12.5114 3.20077 12.6641C3.26195 12.8167 3.36467 12.9492 3.49728 13.0465C3.62785 13.1413 3.78338 13.1957 3.94458 13.2029C4.10578 13.2102 4.26556 13.1699 4.4041 13.0872L6.45014 11.8713C6.68063 11.7334 6.94465 11.6617 7.21322 11.6641Z" stroke="black" stroke-width="1.25" stroke-linecap="round" stroke-linejoin="round"/>
<path d="M25.7813 16.7656C24.987 16.7656 24.2252 17.0811 23.6636 17.6428C23.102 18.2044 22.7865 18.9661 22.7865 19.7604C22.7865 19.3671 22.709 18.9777 22.5585 18.6144C22.408 18.251 22.1874 17.9209 21.9093 17.6428C21.6312 17.3647 21.3011 17.1441 20.9377 16.9936C20.5744 16.8431 20.1849 16.7656 19.7917 16.7656C19.3984 16.7656 19.009 16.8431 18.6456 16.9936C18.2823 17.1441 17.9521 17.3647 17.674 17.6428C17.3959 17.9209 17.1753 18.251 17.0248 18.6144C16.8743 18.9777 16.7969 19.3671 16.7969 19.7604C16.7969 23.474 20.8914 27.3971 22.3073 28.5723C22.4416 28.6848 22.6112 28.7464 22.7865 28.7464C22.9617 28.7464 23.1313 28.6848 23.2656 28.5723C24.6852 27.3959 28.776 23.474 28.776 19.7604C28.776 18.9661 28.4605 18.2044 27.8989 17.6428C27.3373 17.0811 26.5755 16.7656 25.7813 16.7656Z" fill="#ECF2FB"/>
<path d="M19.7917 20.0698C20.5859 20.0698 21.3477 20.3853 21.9093 20.9469C22.4709 21.5086 22.7865 22.2703 22.7865 23.0646C22.7772 22.3891 22.9981 21.7305 23.4127 21.1971C23.8273 20.6637 24.411 20.2871 25.0679 20.1294C25.7248 19.9716 26.4159 20.042 27.0275 20.329C27.6391 20.616 28.1349 21.1025 28.4334 21.7085C28.65 21.0827 28.7656 20.4265 28.776 19.7643C28.776 18.9701 28.4605 18.2083 27.8989 17.6467C27.3373 17.0851 26.5755 16.7695 25.7813 16.7695C24.987 16.7695 24.2252 17.0851 23.6636 17.6467C23.102 18.2083 22.7865 18.9701 22.7865 19.7643C22.7865 19.371 22.709 18.9816 22.5585 18.6183C22.408 18.2549 22.1874 17.9248 21.9093 17.6467C21.6312 17.3686 21.3011 17.148 20.9377 16.9975C20.5744 16.847 20.1849 16.7695 19.7917 16.7695C19.3984 16.7695 19.009 16.847 18.6456 16.9975C18.2823 17.148 17.9521 17.3686 17.674 17.6467C17.3959 17.9248 17.1753 18.2549 17.0248 18.6183C16.8743 18.9816 16.7969 19.371 16.7969 19.7643C16.8066 20.4257 16.9223 21.0813 17.1395 21.7061C17.3877 21.2154 17.7668 20.8028 18.2349 20.5141C18.7029 20.2253 19.2417 20.0715 19.7917 20.0698Z" fill="#F9D835"/>
<path d="M25.7813 16.7969C24.987 16.7969 24.2252 17.1124 23.6636 17.674C23.102 18.2357 22.7865 18.9974 22.7865 19.7917C22.7865 18.9974 22.4709 18.2357 21.9093 17.674C21.3477 17.1124 20.5859 16.7969 19.7917 16.7969C18.9974 16.7969 18.2357 17.1124 17.674 17.674C17.1124 18.2357 16.7969 18.9974 16.7969 19.7917C16.7969 23.5052 20.8914 27.4284 22.3073 28.6035C22.4416 28.716 22.6112 28.7777 22.7865 28.7777C22.9617 28.7777 23.1313 28.716 23.2656 28.6035C24.6852 27.4272 28.776 23.5052 28.776 19.7917C28.776 18.9974 28.4605 18.2357 27.8989 17.674C27.3373 17.1124 26.5755 16.7969 25.7813 16.7969Z" stroke="black" stroke-width="1.25" stroke-linecap="round" stroke-linejoin="round"/>
<path d="M22.7865 13.2018C23.9711 13.2018 25.1291 12.8505 26.1141 12.1924C27.0991 11.5343 27.8668 10.5988 28.3201 9.50436C28.7735 8.4099 28.8921 7.2056 28.661 6.04373C28.4298 4.88187 27.8594 3.81463 27.0217 2.97697C26.1841 2.13931 25.1168 1.56886 23.955 1.33775C22.7931 1.10664 21.5888 1.22525 20.4943 1.67859C19.3999 2.13193 18.4644 2.89963 17.8063 3.88461C17.1482 4.86959 16.7969 6.02761 16.7969 7.21224C16.7969 8.80078 17.4279 10.3243 18.5512 11.4475C19.6744 12.5708 21.1979 13.2018 22.7865 13.2018Z" fill="#ECF2FB"/>
<path d="M22.7865 4.10604C24.1221 4.1084 25.4186 4.55795 26.469 5.38299C27.5194 6.20802 28.2633 7.36103 28.582 8.65812C28.7055 8.1859 28.7707 7.70032 28.776 7.21224C28.776 5.6237 28.145 4.10023 27.0217 2.97696C25.8985 1.8537 24.375 1.22266 22.7865 1.22266C21.1979 1.22266 19.6744 1.8537 18.5512 2.97696C17.4279 4.10023 16.7969 5.6237 16.7969 7.21224C16.8029 7.69751 16.8681 8.18023 16.9909 8.64974C17.3113 7.3542 18.0558 6.20309 19.1061 5.37968C20.1564 4.55628 21.4519 4.10794 22.7865 4.10604Z" fill="#F9D835"/>
<path d="M22.7865 13.2018C23.9711 13.2018 25.1291 12.8505 26.1141 12.1924C27.0991 11.5343 27.8668 10.5988 28.3201 9.50436C28.7735 8.4099 28.8921 7.2056 28.661 6.04373C28.4298 4.88187 27.8594 3.81463 27.0217 2.97697C26.1841 2.13931 25.1168 1.56886 23.955 1.33775C22.7931 1.10664 21.5888 1.22525 20.4943 1.67859C19.3999 2.13193 18.4644 2.89963 17.8063 3.88461C17.1482 4.86959 16.7969 6.02761 16.7969 7.21224C16.7969 8.80078 17.4279 10.3243 18.5512 11.4475C19.6744 12.5708 21.1979 13.2018 22.7865 13.2018Z" stroke="black" stroke-width="1.25" stroke-linecap="round" stroke-linejoin="round"/>
<path d="M11.5696 23.0835C11.8902 22.7812 12.1468 22.4177 12.3243 22.0144C12.5018 21.6112 12.5966 21.1764 12.6031 20.7359C12.6096 20.2954 12.5276 19.858 12.3619 19.4497C12.1963 19.0415 11.9505 18.6706 11.6389 18.3591C11.3274 18.0475 10.9565 17.8017 10.5482 17.636C10.14 17.4704 9.70261 17.3884 9.26207 17.3949C8.82154 17.4013 8.38678 17.4961 7.98354 17.6737C7.5803 17.8512 7.21678 18.1078 6.91452 18.4284C6.61225 18.1078 6.24874 17.8512 5.8455 17.6737C5.44226 17.4961 5.0075 17.4013 4.56696 17.3949C4.12643 17.3884 3.68907 17.4704 3.2808 17.636C2.87253 17.8017 2.50164 18.0475 2.1901 18.3591C1.87857 18.6706 1.63271 19.0415 1.46709 19.4497C1.30148 19.858 1.21948 20.2954 1.22594 20.7359C1.2324 21.1764 1.3272 21.6112 1.50472 22.0144C1.68224 22.4177 1.93887 22.7812 2.25941 23.0835C1.93887 23.3857 1.68224 23.7492 1.50472 24.1525C1.3272 24.5557 1.2324 24.9905 1.22594 25.431C1.21948 25.8716 1.30148 26.3089 1.46709 26.7172C1.63271 27.1254 1.87857 27.4963 2.1901 27.8079C2.50164 28.1194 2.87253 28.3653 3.2808 28.5309C3.68907 28.6965 4.12643 28.7785 4.56696 28.772C5.0075 28.7656 5.44226 28.6708 5.8455 28.4933C6.24874 28.3157 6.61225 28.0591 6.91452 27.7386C7.21678 28.0591 7.5803 28.3157 7.98354 28.4933C8.38678 28.6708 8.82154 28.7656 9.26207 28.772C9.70261 28.7785 10.14 28.6965 10.5482 28.5309C10.9565 28.3653 11.3274 28.1194 11.6389 27.8079C11.9505 27.4963 12.1963 27.1254 12.3619 26.7172C12.5276 26.3089 12.6096 25.8716 12.6031 25.431C12.5966 24.9905 12.5018 24.5557 12.3243 24.1525C12.1468 23.7492 11.8902 23.3857 11.5696 23.0835Z" fill="#ECF2FB"/>
<path d="M3.6975 20.704C4.26776 20.5572 4.86695 20.5661 5.43265 20.7295C5.99835 20.893 6.50986 21.2052 6.9139 21.6336C7.26772 21.2575 7.70517 20.9701 8.19079 20.7946C8.67641 20.6191 9.19655 20.5604 9.70906 20.6234C10.2216 20.6864 10.712 20.8693 11.1407 21.1572C11.5693 21.4451 11.9241 21.8299 12.1764 22.2805C12.5675 21.5805 12.6891 20.7615 12.5181 19.9781C12.3472 19.1946 11.8956 18.5008 11.2484 18.0273C10.6013 17.5538 9.80324 17.3334 9.0048 17.4077C8.20637 17.4819 7.46267 17.8457 6.9139 18.4304C6.36593 17.843 5.62166 17.4769 4.82193 17.4013C4.02221 17.3257 3.22252 17.5459 2.57421 18.0202C1.9259 18.4945 1.47396 19.1901 1.30391 19.9751C1.13386 20.7602 1.25751 21.5804 1.65145 22.2805C1.86843 21.8932 2.16157 21.5539 2.51321 21.2829C2.86485 21.012 3.2677 20.8151 3.6975 20.704Z" fill="#F9D835"/>
<path d="M11.5696 23.0835C11.8902 22.7812 12.1468 22.4177 12.3243 22.0144C12.5018 21.6112 12.5966 21.1764 12.6031 20.7359C12.6096 20.2954 12.5276 19.858 12.3619 19.4497C12.1963 19.0415 11.9505 18.6706 11.6389 18.3591C11.3274 18.0475 10.9565 17.8017 10.5482 17.636C10.14 17.4704 9.70261 17.3884 9.26207 17.3949C8.82154 17.4013 8.38678 17.4961 7.98354 17.6737C7.5803 17.8512 7.21678 18.1078 6.91452 18.4284C6.61225 18.1078 6.24874 17.8512 5.8455 17.6737C5.44226 17.4961 5.0075 17.4013 4.56696 17.3949C4.12643 17.3884 3.68907 17.4704 3.2808 17.636C2.87253 17.8017 2.50164 18.0475 2.1901 18.3591C1.87857 18.6706 1.63271 19.0415 1.46709 19.4497C1.30148 19.858 1.21948 20.2954 1.22594 20.7359C1.2324 21.1764 1.3272 21.6112 1.50472 22.0144C1.68224 22.4177 1.93887 22.7812 2.25941 23.0835C1.93887 23.3857 1.68224 23.7492 1.50472 24.1525C1.3272 24.5557 1.2324 24.9905 1.22594 25.431C1.21948 25.8716 1.30148 26.3089 1.46709 26.7172C1.63271 27.1254 1.87857 27.4963 2.1901 27.8079C2.50164 28.1194 2.87253 28.3653 3.2808 28.5309C3.68907 28.6965 4.12643 28.7785 4.56696 28.772C5.0075 28.7656 5.44226 28.6708 5.8455 28.4933C6.24874 28.3157 6.61225 28.0591 6.91452 27.7386C7.21678 28.0591 7.5803 28.3157 7.98354 28.4933C8.38678 28.6708 8.82154 28.7656 9.26207 28.772C9.70261 28.7785 10.14 28.6965 10.5482 28.5309C10.9565 28.3653 11.3274 28.1194 11.6389 27.8079C11.9505 27.4963 12.1963 27.1254 12.3619 26.7172C12.5276 26.3089 12.6096 25.8716 12.6031 25.431C12.5966 24.9905 12.5018 24.5557 12.3243 24.1525C12.1468 23.7492 11.8902 23.3857 11.5696 23.0835Z" stroke="black" stroke-width="1.25" stroke-linecap="round" stroke-linejoin="round"/>
</g>
<defs>
<clipPath id="clip0_7443_5301">
<rect width="30" height="30" fill="white"/>
</clipPath>
</defs>
</svg>
