<svg width="30" height="30" viewBox="0 0 30 30" fill="none" xmlns="http://www.w3.org/2000/svg">
<g clip-path="url(#clip0_7443_5234)">
<path d="M18.5938 5.41536C18.5937 5.96596 18.7022 6.51116 18.9129 7.01984C19.1236 7.52853 19.4324 7.99073 19.8218 8.38006C20.2111 8.76939 20.6733 9.07822 21.182 9.28892C21.6907 9.49963 22.2359 9.60807 22.7865 9.60807C23.3371 9.60807 23.8823 9.49963 24.3909 9.28892C24.8996 9.07822 25.3618 8.76939 25.7512 8.38006C26.1405 7.99073 26.4493 7.52853 26.66 7.01984C26.8707 6.51116 26.9792 5.96596 26.9792 5.41536C26.9792 4.30339 26.5374 3.23696 25.7512 2.45067C24.9649 1.66439 23.8984 1.22266 22.7865 1.22266C21.6745 1.22266 20.6081 1.66439 19.8218 2.45067C19.0355 3.23696 18.5938 4.30339 18.5938 5.41536Z" fill="#ECF2FB"/>
<path d="M22.7863 3.17526C23.7277 3.17628 24.6414 3.4941 25.3802 4.07755C26.1191 4.661 26.64 5.47612 26.8592 6.39166C27.0142 5.77342 27.0261 5.12799 26.8942 4.50443C26.7623 3.88088 26.4899 3.29561 26.0978 2.79312C25.7057 2.29063 25.2042 1.88415 24.6314 1.60458C24.0587 1.325 23.4297 1.17969 22.7923 1.17969C22.155 1.17969 21.526 1.325 20.9532 1.60458C20.3804 1.88415 19.8789 2.29063 19.4868 2.79312C19.0948 3.29561 18.8224 3.88088 18.6904 4.50443C18.5585 5.12799 18.5704 5.77342 18.7254 6.39166C18.9441 5.47811 19.4633 4.66448 20.1997 4.08125C20.9361 3.49801 21.847 3.17896 22.7863 3.17526Z" fill="white"/>
<path d="M14.9997 25.7812L15.5986 21.5885H18.5934V17.3958C18.5934 15.8073 17.9624 14.2838 16.8391 13.1606C15.7159 12.0373 14.1924 11.4062 12.6038 11.4062C11.0153 11.4062 9.49183 12.0373 8.36857 13.1606C7.2453 14.2838 6.61426 15.8073 6.61426 17.3958V21.5885H9.60905L10.208 25.7812H14.9997Z" fill="#F9D835"/>
<path d="M12.6038 11.4062C11.0153 11.4062 9.49183 12.0373 8.36857 13.1606C7.2453 14.2838 6.61426 15.8073 6.61426 17.3958V19.3484C6.61426 17.7599 7.2453 16.2364 8.36857 15.1132C9.49183 13.9899 11.0153 13.3589 12.6038 13.3589C14.1924 13.3589 15.7159 13.9899 16.8391 15.1132C17.9624 16.2364 18.5934 17.7599 18.5934 19.3484V17.3958C18.5934 15.8073 17.9624 14.2838 16.8391 13.1606C15.7159 12.0373 14.1924 11.4063 12.6038 11.4062Z" fill="#ECF2FB"/>
<path d="M25.1833 28.776L25.7822 21.5885H28.777V17.3958C28.777 15.8073 28.146 14.2838 27.0227 13.1606C25.8994 12.0373 24.376 11.4063 22.7874 11.4062C21.1989 11.4063 19.6754 12.0373 18.5522 13.1606C17.4289 14.2838 16.7979 15.8073 16.7979 17.3958V21.5885H19.7926L20.3916 28.776H25.1833Z" fill="#ECF2FB"/>
<path d="M22.7874 11.4062C21.1989 11.4062 19.6754 12.0373 18.5522 13.1606C17.4289 14.2838 16.7979 15.8073 16.7979 17.3958V19.3484C16.7979 17.7599 17.4289 16.2364 18.5522 15.1132C19.6754 13.9899 21.1989 13.3589 22.7874 13.3589C24.376 13.3589 25.8994 13.9899 27.0227 15.1132C28.146 16.2364 28.777 17.7599 28.777 19.3484V17.3958C28.777 15.8073 28.146 14.2838 27.0227 13.1606C25.8994 12.0373 24.376 11.4063 22.7874 11.4062Z" fill="white"/>
<path d="M9.01074 6.01562C9.01074 6.96875 9.38937 7.88283 10.0633 8.55679C10.7373 9.23075 11.6514 9.60938 12.6045 9.60938C13.5576 9.60938 14.4717 9.23075 15.1457 8.55679C15.8196 7.88283 16.1982 6.96875 16.1982 6.01562C16.1982 5.0625 15.8196 4.14842 15.1457 3.47446C14.4717 2.8005 13.5576 2.42188 12.6045 2.42188C11.6514 2.42188 10.7373 2.8005 10.0633 3.47446C9.38937 4.14842 9.01074 5.0625 9.01074 6.01562Z" fill="#F9D835"/>
<path d="M12.6045 4.37448C13.3851 4.37634 14.1438 4.63298 14.7652 5.10542C15.3866 5.57786 15.8368 6.24025 16.0473 6.99193C16.1428 6.67511 16.1936 6.3465 16.1982 6.01562C16.1982 5.0625 15.8196 4.14842 15.1457 3.47446C14.4717 2.8005 13.5576 2.42188 12.6045 2.42188C11.6514 2.42188 10.7373 2.8005 10.0633 3.47446C9.38937 4.14842 9.01074 5.0625 9.01074 6.01562C9.01535 6.3465 9.06615 6.67511 9.16168 6.99193C9.37222 6.24025 9.82241 5.57786 10.4438 5.10542C11.0652 4.63298 11.8239 4.37634 12.6045 4.37448Z" fill="#ECF2FB"/>
<path d="M1.22363 19.1914V28.7747" stroke="black" stroke-width="1.25" stroke-linecap="round" stroke-linejoin="round"/>
<path d="M19.1924 27.5781C19.1924 26.625 18.8138 25.7109 18.1398 25.037C17.4658 24.363 16.5518 23.9844 15.5986 23.9844H11.1064C11.1064 23.0313 10.7278 22.1172 10.0539 21.4432C9.3799 20.7693 8.46582 20.3906 7.5127 20.3906H1.22363V27.5781H19.1924Z" fill="#ECF2FB" stroke="black" stroke-width="1.25" stroke-linecap="round" stroke-linejoin="round"/>
<path d="M7.51367 23.9844H12.0059" stroke="black" stroke-width="1.25" stroke-linecap="round" stroke-linejoin="round"/>
<path d="M19.7926 21.5885H16.7979V17.3958C16.7979 15.8073 17.4289 14.2838 18.5522 13.1606C19.6754 12.0373 21.1989 11.4062 22.7874 11.4062C24.376 11.4062 25.8994 12.0373 27.0227 13.1606C28.146 14.2838 28.777 15.8073 28.777 17.3958V21.5885H25.7822L25.1833 28.776H21.5895" stroke="black" stroke-width="1.25" stroke-linecap="round" stroke-linejoin="round"/>
<path d="M18.5938 5.41536C18.5937 5.96596 18.7022 6.51116 18.9129 7.01984C19.1236 7.52853 19.4324 7.99073 19.8218 8.38006C20.2111 8.76939 20.6733 9.07822 21.182 9.28892C21.6907 9.49963 22.2359 9.60807 22.7865 9.60807C23.3371 9.60807 23.8823 9.49963 24.3909 9.28892C24.8996 9.07822 25.3618 8.76939 25.7512 8.38006C26.1405 7.99073 26.4493 7.52853 26.66 7.01984C26.8707 6.51116 26.9792 5.96596 26.9792 5.41536C26.9792 4.30339 26.5374 3.23696 25.7512 2.45067C24.9649 1.66439 23.8984 1.22266 22.7865 1.22266C21.6745 1.22266 20.6081 1.66439 19.8218 2.45067C19.0355 3.23696 18.5938 4.30339 18.5938 5.41536Z" stroke="black" stroke-width="1.25" stroke-linecap="round" stroke-linejoin="round"/>
<path d="M9.01074 6.01563C9.01074 6.96875 9.38937 7.88283 10.0633 8.55679C10.7373 9.23075 11.6514 9.60938 12.6045 9.60938C13.5576 9.60938 14.4717 9.23075 15.1457 8.55679C15.8196 7.88283 16.1982 6.96875 16.1982 6.01563C16.1982 5.0625 15.8196 4.14842 15.1457 3.47446C14.4717 2.8005 13.5576 2.42188 12.6045 2.42188C11.6514 2.42188 10.7373 2.8005 10.0633 3.47446C9.38937 4.14842 9.01074 5.0625 9.01074 6.01563Z" stroke="black" stroke-width="1.25" stroke-linecap="round" stroke-linejoin="round"/>
<path d="M6.61426 17.9928V17.3939C6.61393 16.3856 6.86814 15.3936 7.35333 14.5097C7.83851 13.6258 8.53897 12.8788 9.38979 12.3377C10.2406 11.7967 11.2142 11.4792 12.2204 11.4146C13.2266 11.3501 14.2329 11.5406 15.1458 11.9685" stroke="black" stroke-width="1.25" stroke-linecap="round" stroke-linejoin="round"/>
</g>
<defs>
<clipPath id="clip0_7443_5234">
<rect width="30" height="30" fill="white"/>
</clipPath>
</defs>
</svg>
