<svg width="30" height="30" viewBox="0 0 30 30" fill="none" xmlns="http://www.w3.org/2000/svg">
<g clip-path="url(#clip0_7443_5285)">
<path d="M15 28.7766C14.8764 28.7764 14.756 28.737 14.6562 28.664C13.2954 27.6877 8.24858 23.907 5.95937 19.9419C3.26046 14.2973 5.68624 10.821 9.6789 10.3047C10.8439 10.2265 12.0014 10.5414 12.9661 11.199C13.9309 11.8567 14.6471 12.819 15 13.932C15.353 12.819 16.0692 11.8567 17.034 11.199C17.9987 10.5414 19.1562 10.2265 20.3212 10.3047C24.3138 10.821 26.7396 14.2973 24.0407 19.9419C21.7515 23.907 16.7047 27.6877 15.3438 28.664C15.2441 28.737 15.1237 28.7764 15 28.7766Z" fill="#F9D835"/>
<path d="M20.321 10.3047C19.1561 10.2265 17.9985 10.5414 17.0338 11.199C16.069 11.8567 15.3528 12.819 14.9999 13.932C14.6469 12.819 13.9307 11.8567 12.966 11.199C12.0012 10.5414 10.8437 10.2265 9.67873 10.3047C6.1281 10.7647 3.82571 13.569 5.25722 18.1534C8.11851 20.1329 11.5207 21.1816 14.9999 21.1566C18.479 21.1816 21.8812 20.1329 24.7425 18.1534C26.174 13.569 23.8716 10.7647 20.321 10.3047Z" fill="#ECF2FB"/>
<path d="M20.321 10.3047C19.156 10.2265 17.9985 10.5414 17.0338 11.199C16.069 11.8567 15.3528 12.819 14.9999 13.932C14.6469 12.819 13.9307 11.8567 12.9659 11.199C12.0012 10.5414 10.8437 10.2265 9.67871 10.3047" stroke="black" stroke-width="1.25" stroke-linecap="round" stroke-linejoin="round"/>
<path d="M4.21908 1.22266H10.2087C10.2087 1.22266 10.8076 1.22266 10.8076 1.82161V3.01953C10.8076 3.01953 10.8076 3.61849 10.2087 3.61849H4.21908C4.21908 3.61849 3.62012 3.61849 3.62012 3.01953V1.82161C3.62012 1.82161 3.62012 1.22266 4.21908 1.22266Z" fill="#F9D835" stroke="black" stroke-width="1.25" stroke-linecap="round" stroke-linejoin="round"/>
<path d="M25.7809 3.61849H19.7913C19.7913 3.61849 19.1924 3.61849 19.1924 3.01953V1.82161C19.1924 1.82161 19.1924 1.22266 19.7913 1.22266H25.7809C25.7809 1.22266 26.3799 1.22266 26.3799 1.82161V3.01953C26.3799 3.01953 26.3799 3.61849 25.7809 3.61849Z" fill="#F9D835" stroke="black" stroke-width="1.25" stroke-linecap="round" stroke-linejoin="round"/>
<path d="M6.61523 8.71224L4.99565 11.4076C4.81288 11.7732 4.76996 12.1931 4.87496 12.5881C4.97997 12.9832 5.22566 13.3263 5.56586 13.553C5.75468 13.6787 5.96703 13.7647 6.19007 13.806C6.4131 13.8472 6.64219 13.8428 6.86346 13.793C7.08473 13.7431 7.2936 13.6489 7.47742 13.5161C7.66125 13.3832 7.81621 13.2144 7.93294 13.0199L9.30216 10.9691C9.89389 10.0834 10.2095 9.04194 10.209 7.97672V3.62109H5.29753L2.40576 7.23521C1.64091 8.19133 1.22434 9.37935 1.22461 10.6038V16.7982C1.22461 17.2747 1.41392 17.7318 1.7509 18.0688C2.08788 18.4057 2.54492 18.5951 3.02148 18.5951C3.49805 18.5951 3.95509 18.4057 4.29207 18.0688C4.62905 17.7318 4.81836 17.2747 4.81836 16.7982V12.1563" fill="#ECF2FB"/>
<path d="M6.61523 8.71224L4.99565 11.4076C4.81288 11.7732 4.76996 12.1931 4.87496 12.5881C4.97997 12.9832 5.22566 13.3263 5.56586 13.553C5.75468 13.6787 5.96703 13.7647 6.19007 13.806C6.4131 13.8472 6.64219 13.8428 6.86346 13.793C7.08473 13.7431 7.2936 13.6489 7.47742 13.5161C7.66125 13.3832 7.81621 13.2144 7.93294 13.0199L9.30216 10.9691C9.89389 10.0834 10.2095 9.04194 10.209 7.97672V3.62109H5.29753L2.40576 7.23521C1.64091 8.19133 1.22434 9.37935 1.22461 10.6038V16.7982C1.22461 17.2747 1.41392 17.7318 1.7509 18.0688C2.08788 18.4057 2.54492 18.5951 3.02148 18.5951C3.49805 18.5951 3.95509 18.4057 4.29207 18.0688C4.62905 17.7318 4.81836 17.2747 4.81836 16.7982V12.1563" stroke="black" stroke-width="1.25" stroke-linecap="round" stroke-linejoin="round"/>
<path d="M23.3857 8.71224L25.0053 11.4076C25.1881 11.7732 25.231 12.1931 25.126 12.5881C25.021 12.9832 24.7753 13.3263 24.4351 13.553C24.2463 13.6789 24.0338 13.7651 23.8106 13.8064C23.5875 13.8478 23.3583 13.8434 23.1368 13.7936C22.9154 13.7437 22.7064 13.6495 22.5225 13.5165C22.3386 13.3835 22.1836 13.2146 22.0668 13.0199L20.6988 10.9691C20.1071 10.0834 19.7915 9.04194 19.792 7.97672V3.62109H24.7035L27.5952 7.23521C28.3601 8.19133 28.7766 9.37935 28.7764 10.6038V16.7982C28.7764 17.2747 28.5871 17.7318 28.2501 18.0688C27.9131 18.4057 27.4561 18.5951 26.9795 18.5951C26.5029 18.5951 26.0459 18.4057 25.7089 18.0688C25.3719 17.7318 25.1826 17.2747 25.1826 16.7982V12.1563" fill="#ECF2FB"/>
<path d="M23.3857 8.71224L25.0053 11.4076C25.1881 11.7732 25.231 12.1931 25.126 12.5881C25.021 12.9832 24.7753 13.3263 24.4351 13.553C24.2463 13.6789 24.0338 13.7651 23.8106 13.8064C23.5875 13.8478 23.3583 13.8434 23.1368 13.7936C22.9154 13.7437 22.7064 13.6495 22.5225 13.5165C22.3386 13.3835 22.1836 13.2146 22.0668 13.0199L20.6988 10.9691C20.1071 10.0834 19.7915 9.04194 19.792 7.97672V3.62109H24.7035L27.5952 7.23521C28.3601 8.19133 28.7766 9.37935 28.7764 10.6038V16.7982C28.7764 17.2747 28.5871 17.7318 28.2501 18.0688C27.9131 18.4057 27.4561 18.5951 26.9795 18.5951C26.5029 18.5951 26.0459 18.4057 25.7089 18.0688C25.3719 17.7318 25.1826 17.2747 25.1826 16.7982V12.1563" stroke="black" stroke-width="1.25" stroke-linecap="round" stroke-linejoin="round"/>
<path d="M24.0403 19.9414C21.7511 23.9065 16.7043 27.6871 15.3435 28.6634C15.2438 28.7366 15.1233 28.7761 14.9997 28.7761C14.876 28.7761 14.7556 28.7366 14.6559 28.6634C13.295 27.6871 8.2482 23.9065 5.95898 19.9414" stroke="black" stroke-width="1.25" stroke-linecap="round" stroke-linejoin="round"/>
</g>
<defs>
<clipPath id="clip0_7443_5285">
<rect width="30" height="30" fill="white"/>
</clipPath>
</defs>
</svg>
