<svg width="30" height="30" viewBox="0 0 30 30" fill="none" xmlns="http://www.w3.org/2000/svg">
<path d="M9.20215 15.5977H20.6303V19.0237H9.20215V15.5977Z" fill="#F9D835"/>
<path d="M20.6303 19.0273V20.381C20.6269 21.093 20.4971 21.7987 20.2469 22.4654H9.60944C9.34013 21.8035 9.20181 21.0956 9.20215 20.381V19.0273H20.6303Z" fill="#F9D835"/>
<path d="M20.2359 22.4648C19.8213 23.5371 19.0919 24.4588 18.1437 25.1088C17.1955 25.7588 16.0727 26.1067 14.9231 26.1067C13.7735 26.1067 12.6508 25.7588 11.7025 25.1088C10.7543 24.4588 10.025 23.5371 9.61035 22.4648H20.2359Z" fill="#F9D835"/>
<path d="M20.6303 8.18127V9.88231C18.9702 11.0115 17.0077 11.6127 15.0001 11.6073C12.9402 11.6128 10.924 11.013 9.20215 9.88231V8.337L11.1308 6.56408C12.1856 5.59344 13.5666 5.05469 15.0001 5.05469C16.4335 5.05469 17.8146 5.59344 18.8693 6.56408L20.6303 8.18127Z" fill="#F9D835"/>
<path d="M9.20242 8.33984V19.0971L8.0644 20.2112C7.32993 20.9346 6.34483 21.3471 5.31402 21.3627C4.28321 21.3783 3.28607 20.9959 2.53002 20.2951C2.13954 19.9255 1.82625 19.4822 1.60829 18.9908C1.39032 18.4993 1.27202 17.9695 1.26023 17.432C1.25202 16.8938 1.35286 16.3595 1.55667 15.8612C1.76049 15.363 2.06307 14.9112 2.44617 14.5331L9.20242 8.33984Z" fill="#ECF2FB" stroke="black" stroke-width="1.25" stroke-linecap="round" stroke-linejoin="round"/>
<path d="M28.7398 17.4315C28.728 17.969 28.6097 18.4988 28.3917 18.9902C28.1738 19.4817 27.8605 19.925 27.47 20.2945C26.7139 20.9954 25.7168 21.3778 24.686 21.3622C23.6552 21.3466 22.6701 20.9341 21.9356 20.2107L20.6299 18.9289V8.18359L27.5538 14.5326C27.9369 14.9107 28.2395 15.3625 28.4433 15.8607C28.6472 16.3589 28.748 16.8933 28.7398 17.4315Z" fill="#ECF2FB" stroke="black" stroke-width="1.25" stroke-linecap="round" stroke-linejoin="round"/>
<path d="M20.6303 9.88672V15.6008H9.20215V9.88672C10.924 11.0174 12.9402 11.6172 15.0001 11.6117C17.0077 11.6171 18.9702 11.0159 20.6303 9.88672Z" fill="#F9D835"/>
<path d="M15.001 22.4648H9.61035C10.0225 23.5376 10.7504 24.46 11.6979 25.1102C12.6455 25.7604 13.768 26.1078 14.9171 26.1065C14.9471 26.1065 14.977 26.1065 15.007 26.0993L15.001 22.4648Z" fill="#ECF2FB"/>
<path d="M15.0001 19.0273H9.20215V20.381C9.20181 21.0956 9.34013 21.8035 9.60944 22.4654H15.0001V19.0273Z" fill="#F9D835"/>
<path d="M9.20215 15.5977H15.0001V19.0237H9.20215V15.5977Z" fill="#F9D835"/>
<path d="M15.0001 11.6117C12.9402 11.6172 10.924 11.0174 9.20215 9.88672V15.6008H15.0001V11.6117Z" fill="#ECF2FB"/>
<path d="M15.0001 5.05469C13.5665 5.0541 12.1853 5.59292 11.1308 6.56406L9.20215 8.33698V9.88229C10.924 11.013 12.9402 11.6128 15.0001 11.6073V5.05469Z" fill="#ECF2FB"/>
<path d="M9.20215 15.5977H20.6303V19.0237H9.20215V15.5977Z" stroke="black" stroke-width="1.25" stroke-linecap="round" stroke-linejoin="round"/>
<path d="M20.6303 19.0273V20.381C20.6269 21.093 20.4971 21.7987 20.2469 22.4654H9.60944C9.34013 21.8035 9.20181 21.0956 9.20215 20.381V19.0273H20.6303Z" stroke="black" stroke-width="1.25" stroke-linecap="round" stroke-linejoin="round"/>
<path d="M20.2359 22.4648C19.8213 23.5371 19.0919 24.4588 18.1437 25.1088C17.1955 25.7588 16.0727 26.1067 14.9231 26.1067C13.7735 26.1067 12.6508 25.7588 11.7025 25.1088C10.7543 24.4588 10.025 23.5371 9.61035 22.4648H20.2359Z" stroke="black" stroke-width="1.25" stroke-linecap="round" stroke-linejoin="round"/>
<path d="M20.6303 8.18127V9.88231C18.9702 11.0115 17.0077 11.6127 15.0001 11.6073C12.9402 11.6128 10.924 11.013 9.20215 9.88231V8.337L11.1308 6.56408C12.1856 5.59344 13.5666 5.05469 15.0001 5.05469C16.4335 5.05469 17.8146 5.59344 18.8693 6.56408L20.6303 8.18127Z" stroke="black" stroke-width="1.25" stroke-linecap="round" stroke-linejoin="round"/>
<path d="M20.6303 9.88672V15.6008H9.20215V9.88672C10.924 11.0174 12.9402 11.6172 15.0001 11.6117C17.0077 11.6171 18.9702 11.0159 20.6303 9.88672Z" stroke="black" stroke-width="1.25" stroke-linecap="round" stroke-linejoin="round"/>
<path d="M15 26.1016V28.1776" stroke="black" stroke-width="1.25" stroke-linecap="round" stroke-linejoin="round"/>
<path d="M18.2432 6.06583L21.2895 3.01953" stroke="black" stroke-width="1.25" stroke-linecap="round" stroke-linejoin="round"/>
<path d="M11.7572 6.06583L8.71094 3.01953" stroke="black" stroke-width="1.25" stroke-linecap="round" stroke-linejoin="round"/>
</svg>
