<svg width="30" height="30" viewBox="0 0 30 30" fill="none" xmlns="http://www.w3.org/2000/svg">
<g clip-path="url(#clip0_7443_5322)">
<path d="M8.41211 28.7747V2.42057C8.41211 2.10287 8.53832 1.79817 8.76297 1.57352C8.98762 1.34887 9.29232 1.22266 9.61003 1.22266H21.5892L28.7767 8.41016V27.5768C28.7767 27.7341 28.7457 27.8899 28.6855 28.0352C28.6253 28.1806 28.5371 28.3126 28.4258 28.4239C28.3146 28.5351 28.1825 28.6234 28.0372 28.6836C27.8919 28.7438 27.7361 28.7747 27.5788 28.7747H8.41211Z" fill="#ECF2FB"/>
<path d="M25.244 4.8775L21.5892 1.22266H9.61003C9.29232 1.22266 8.98762 1.34886 8.76297 1.57352C8.53832 1.79817 8.41211 2.10287 8.41211 2.42057V21.707L25.244 4.8775Z" fill="white"/>
<path d="M8.41211 8.41016V2.42057C8.41211 2.10287 8.53832 1.79817 8.76297 1.57352C8.98762 1.34887 9.29232 1.22266 9.61003 1.22266H21.5892L28.7767 8.41016V27.5768C28.7767 27.7341 28.7457 27.8899 28.6855 28.0352C28.6253 28.1806 28.5371 28.3126 28.4258 28.4239C28.3146 28.5351 28.1825 28.6234 28.0372 28.6836C27.8919 28.7438 27.7361 28.7747 27.5788 28.7747H19.1934" stroke="black" stroke-width="1.25" stroke-linecap="round" stroke-linejoin="round"/>
<path d="M21.5889 1.22266V7.21224C21.5889 7.52995 21.7151 7.83464 21.9397 8.05929C22.1644 8.28395 22.4691 8.41016 22.7868 8.41016H28.7764L21.5889 1.22266Z" fill="#ECF2FB" stroke="black" stroke-width="1.25" stroke-linecap="round" stroke-linejoin="round"/>
<path d="M2.42188 25.1836H16.7969V27.5794C16.7969 27.7367 16.7659 27.8925 16.7057 28.0378C16.6455 28.1832 16.5573 28.3152 16.446 28.4265C16.3348 28.5377 16.2027 28.626 16.0574 28.6862C15.912 28.7464 15.7563 28.7773 15.599 28.7773H3.61979C3.46248 28.7773 3.30671 28.7464 3.16137 28.6862C3.01603 28.626 2.88397 28.5377 2.77274 28.4265C2.6615 28.3152 2.57326 28.1832 2.51306 28.0378C2.45286 27.8925 2.42187 27.7367 2.42188 27.5794V25.1836Z" fill="#F9D835" stroke="black" stroke-width="1.25" stroke-linecap="round" stroke-linejoin="round"/>
<path d="M13.2028 21.5898C12.579 21.5901 11.9798 21.3471 11.5324 20.9124C11.085 20.4778 10.8247 19.8858 10.807 19.2623C10.7961 18.8789 10.8775 18.4985 11.0443 18.1531C11.2111 17.8077 11.4583 17.5073 11.7653 17.2773C12.3687 16.8248 12.8144 16.1938 13.0393 15.4739C13.2642 14.7539 13.2569 13.9815 13.0184 13.2659C12.7799 12.5503 12.3222 11.928 11.7104 11.4869C11.0985 11.0459 10.3633 10.8086 9.60905 10.8086C8.85478 10.8086 8.11964 11.0459 7.50775 11.4869C6.89586 11.928 6.43824 12.5503 6.19972 13.2659C5.9612 13.9815 5.95387 14.7539 6.17877 15.4739C6.40366 16.1938 6.84939 16.8248 7.4528 17.2773C7.75871 17.508 8.00522 17.8083 8.17189 18.1533C8.33855 18.4983 8.42057 18.8781 8.41113 19.2611C8.39366 19.8848 8.13355 20.4771 7.68613 20.912C7.2387 21.3469 6.63926 21.5901 6.0153 21.5898H3.61947C2.98405 21.5898 2.37466 21.8423 1.92536 22.2916C1.47605 22.7409 1.22363 23.3503 1.22363 23.9857C1.22363 24.3034 1.34984 24.6081 1.57449 24.8327C1.79915 25.0574 2.10384 25.1836 2.42155 25.1836H16.7965C17.1143 25.1836 17.419 25.0574 17.6436 24.8327C17.8683 24.6081 17.9945 24.3034 17.9945 23.9857C17.9945 23.3503 17.7421 22.7409 17.2927 22.2916C16.8434 21.8423 16.234 21.5898 15.5986 21.5898H13.2028Z" fill="#F9D835" stroke="black" stroke-width="1.25" stroke-linecap="round" stroke-linejoin="round"/>
<path d="M25.7816 13.2031H16.1982" stroke="black" stroke-width="1.25" stroke-linecap="round" stroke-linejoin="round"/>
<path d="M25.7809 22.7891H20.9893" stroke="black" stroke-width="1.25" stroke-linecap="round" stroke-linejoin="round"/>
<path d="M25.7816 17.9961H17.9951" stroke="black" stroke-width="1.25" stroke-linecap="round" stroke-linejoin="round"/>
</g>
<defs>
<clipPath id="clip0_7443_5322">
<rect width="30" height="30" fill="white"/>
</clipPath>
</defs>
</svg>
