<svg width="31" height="31" viewBox="0 0 31 31" fill="none" xmlns="http://www.w3.org/2000/svg">
<path d="M14.9404 3.00727C14.9833 2.89323 15.0599 2.79499 15.1601 2.72564C15.2603 2.65629 15.3792 2.61914 15.501 2.61914C15.6229 2.61914 15.7418 2.65629 15.842 2.72564C15.9421 2.79499 16.0188 2.89323 16.0616 3.00727L19.0936 11.6035H27.6563C27.7787 11.6035 27.8982 11.641 27.9987 11.711C28.0992 11.781 28.1758 11.8801 28.2182 11.995C28.2606 12.1098 28.2668 12.2349 28.236 12.3534C28.2051 12.4719 28.1387 12.5781 28.0456 12.6577L20.8904 18.5898L23.8852 27.5861C23.9253 27.7067 23.926 27.8368 23.8872 27.9578C23.8484 28.0788 23.7722 28.1843 23.6695 28.2591C23.5669 28.3339 23.4431 28.3741 23.316 28.374C23.189 28.3738 23.0653 28.3332 22.9628 28.2582L15.4998 22.7825L8.03321 28.2582C7.93067 28.3318 7.80749 28.3711 7.68126 28.3705C7.55504 28.37 7.43221 28.3295 7.33033 28.255C7.22845 28.1805 7.15271 28.0757 7.11393 27.9556C7.07516 27.8354 7.07532 27.7061 7.11441 27.5861L10.1092 18.5898L2.95285 12.6577C2.85979 12.5781 2.79336 12.4719 2.7625 12.3534C2.73164 12.2349 2.73784 12.1098 2.78026 11.995C2.82268 11.8801 2.89928 11.781 2.99975 11.711C3.10022 11.641 3.21972 11.6035 3.34217 11.6035H11.9061L14.9404 3.00727Z" fill="#F9D835"/>
<path d="M15.4998 22.7825L8.03321 28.2582C7.93067 28.3318 7.80749 28.3711 7.68126 28.3705C7.55504 28.37 7.43221 28.3295 7.33033 28.255C7.22845 28.1805 7.15271 28.0757 7.11393 27.9556C7.07516 27.8354 7.07532 27.7061 7.11441 27.5861L10.1092 18.5898L2.95285 12.6577C2.85979 12.5781 2.79336 12.4719 2.7625 12.3534C2.73164 12.2349 2.73784 12.1098 2.78026 11.995C2.82268 11.8801 2.89928 11.781 2.99975 11.711C3.10022 11.641 3.21972 11.6035 3.34217 11.6035H11.9061L14.9392 3.00727C14.9821 2.89323 15.0587 2.79499 15.1589 2.72564C15.2591 2.65629 15.378 2.61914 15.4998 2.61914V22.7825Z" fill="#ECF2FB"/>
<path d="M14.9404 3.00727C14.9833 2.89323 15.0599 2.79499 15.1601 2.72564C15.2603 2.65629 15.3792 2.61914 15.501 2.61914C15.6229 2.61914 15.7418 2.65629 15.842 2.72564C15.9421 2.79499 16.0188 2.89323 16.0616 3.00727L19.0936 11.6035H27.6563C27.7787 11.6035 27.8982 11.641 27.9987 11.711C28.0992 11.781 28.1758 11.8801 28.2182 11.995C28.2606 12.1098 28.2668 12.2349 28.236 12.3534C28.2051 12.4719 28.1387 12.5781 28.0456 12.6577L20.8904 18.5898L23.8852 27.5861C23.9253 27.7067 23.926 27.8368 23.8872 27.9578C23.8484 28.0788 23.7722 28.1843 23.6695 28.2591C23.5669 28.3339 23.4431 28.3741 23.316 28.374C23.189 28.3738 23.0653 28.3332 22.9628 28.2582L15.4998 22.7825L8.03321 28.2582C7.93067 28.3318 7.80749 28.3711 7.68126 28.3705C7.55504 28.37 7.43221 28.3295 7.33033 28.255C7.22845 28.1805 7.15271 28.0757 7.11393 27.9556C7.07516 27.8354 7.07532 27.7061 7.11441 27.5861L10.1092 18.5898L2.95285 12.6577C2.85979 12.5781 2.79336 12.4719 2.7625 12.3534C2.73164 12.2349 2.73784 12.1098 2.78026 11.995C2.82268 11.8801 2.89928 11.781 2.99975 11.711C3.10022 11.641 3.21972 11.6035 3.34217 11.6035H11.9061L14.9404 3.00727Z" stroke="black" stroke-width="1.25" stroke-linecap="round" stroke-linejoin="round"/>
</svg>
