<svg width="31" height="30" viewBox="0 0 31 30" fill="none" xmlns="http://www.w3.org/2000/svg">
<path d="M2.92155 4.81934H26.8799C26.8799 4.81934 28.0778 4.81934 28.0778 6.01725V27.5798C28.0778 27.5798 28.0778 28.7777 26.8799 28.7777H2.92155C2.92155 28.7777 1.72363 28.7777 1.72363 27.5798V6.01725C1.72363 6.01725 1.72363 4.81934 2.92155 4.81934Z" fill="#ECF2FB"/>
<path d="M28.0778 9.60905H1.72363V6.0153C1.72363 5.69759 1.84984 5.3929 2.07449 5.16824C2.29915 4.94359 2.60384 4.81738 2.92155 4.81738H26.8799C27.1976 4.81738 27.5023 4.94359 27.7269 5.16824C27.9516 5.3929 28.0778 5.69759 28.0778 6.0153V9.60905Z" fill="white"/>
<path d="M2.92155 4.81934H26.8799C26.8799 4.81934 28.0778 4.81934 28.0778 6.01725V27.5798C28.0778 27.5798 28.0778 28.7777 26.8799 28.7777H2.92155C2.92155 28.7777 1.72363 28.7777 1.72363 27.5798V6.01725C1.72363 6.01725 1.72363 4.81934 2.92155 4.81934Z" stroke="black" stroke-width="1.25" stroke-linecap="round" stroke-linejoin="round"/>
<path d="M5.31738 2.42285V6.0166" stroke="black" stroke-width="1.25" stroke-linecap="round" stroke-linejoin="round"/>
<path d="M10.1094 2.42285V6.0166" stroke="black" stroke-width="1.25" stroke-linecap="round" stroke-linejoin="round"/>
<path d="M14.9014 2.42285V6.0166" stroke="black" stroke-width="1.25" stroke-linecap="round" stroke-linejoin="round"/>
<path d="M19.6924 2.42285V6.0166" stroke="black" stroke-width="1.25" stroke-linecap="round" stroke-linejoin="round"/>
<path d="M24.4844 2.42285V6.0166" stroke="black" stroke-width="1.25" stroke-linecap="round" stroke-linejoin="round"/>
<path d="M16.0993 10.8076H19.693V15.5993H14.9014V12.0055C14.9014 11.6878 15.0276 11.3831 15.2522 11.1585C15.4769 10.9338 15.7816 10.8076 16.0993 10.8076Z" fill="#F9D835" stroke="black" stroke-width="1.25" stroke-linecap="round" stroke-linejoin="round"/>
<path d="M19.6924 10.8076H23.2861C23.6038 10.8076 23.9085 10.9338 24.1332 11.1585C24.3578 11.3831 24.484 11.6878 24.484 12.0055V15.5993H19.6924V10.8076Z" fill="#F9D835" stroke="black" stroke-width="1.25" stroke-linecap="round" stroke-linejoin="round"/>
<path d="M14.9014 15.6006H19.693V20.3923H14.9014V15.6006Z" fill="#F9D835" stroke="black" stroke-width="1.25" stroke-linecap="round" stroke-linejoin="round"/>
<path d="M19.6924 15.6006H24.484V20.3923H19.6924V15.6006Z" fill="#F9D835" stroke="black" stroke-width="1.25" stroke-linecap="round" stroke-linejoin="round"/>
<path d="M14.9014 20.3916H19.693V25.1833H14.9014V20.3916Z" fill="#F9D835" stroke="black" stroke-width="1.25" stroke-linecap="round" stroke-linejoin="round"/>
<path d="M19.6924 20.3906H24.484V23.9844C24.484 24.3021 24.3578 24.6068 24.1332 24.8314C23.9085 25.0561 23.6038 25.1823 23.2861 25.1823H19.6924V20.3906Z" fill="#F9D835" stroke="black" stroke-width="1.25" stroke-linecap="round" stroke-linejoin="round"/>
<path d="M6.5153 15.5986H10.109V20.3903H5.31738V16.7965C5.31738 16.4788 5.44359 16.1741 5.66824 15.9495C5.8929 15.7248 6.19759 15.5986 6.5153 15.5986Z" fill="#F9D835" stroke="black" stroke-width="1.25" stroke-linecap="round" stroke-linejoin="round"/>
<path d="M10.1094 15.6006H14.901V20.3923H10.1094V15.6006Z" fill="#F9D835" stroke="black" stroke-width="1.25" stroke-linecap="round" stroke-linejoin="round"/>
<path d="M5.31738 20.3906H10.109V25.1823H6.5153C6.19759 25.1823 5.8929 25.0561 5.66824 24.8314C5.44359 24.6068 5.31738 24.3021 5.31738 23.9844V20.3906Z" fill="#F9D835" stroke="black" stroke-width="1.25" stroke-linecap="round" stroke-linejoin="round"/>
<path d="M10.1094 20.3916H14.901V25.1833H10.1094V20.3916Z" fill="#F9D835" stroke="black" stroke-width="1.25" stroke-linecap="round" stroke-linejoin="round"/>
</svg>
