<svg width="31" height="30" viewBox="0 0 31 30" fill="none" xmlns="http://www.w3.org/2000/svg">
<path d="M29.2762 15.0001C29.2743 14.0397 28.9839 13.1021 28.4426 12.3087C27.9014 11.5154 27.1342 10.903 26.2406 10.5511C26.6257 9.67073 26.7364 8.69474 26.5582 7.75054C26.38 6.80635 25.9213 5.93782 25.2418 5.25838C24.5624 4.57895 23.6939 4.12019 22.7497 3.94201C21.8055 3.76383 20.8295 3.87451 19.9492 4.25959C19.5986 3.36509 18.9866 2.59702 18.1929 2.05561C17.3993 1.51421 16.4609 1.22461 15.5001 1.22461C14.5394 1.22461 13.6009 1.51421 12.8073 2.05561C12.0136 2.59702 11.4016 3.36509 11.0511 4.25959C10.1707 3.87451 9.19474 3.76383 8.25054 3.94201C7.30635 4.12019 6.43782 4.57895 5.75838 5.25838C5.07895 5.93782 4.62019 6.80635 4.44201 7.75054C4.26383 8.69474 4.37451 9.67073 4.75959 10.5511C3.86509 10.9016 3.09702 11.5136 2.55561 12.3073C2.01421 13.1009 1.72461 14.0394 1.72461 15.0001C1.72461 15.9609 2.01421 16.8993 2.55561 17.6929C3.09702 18.4866 3.86509 19.0986 4.75959 19.4492C4.37451 20.3295 4.26383 21.3055 4.44201 22.2497C4.62019 23.1939 5.07895 24.0624 5.75838 24.7418C6.43782 25.4213 7.30635 25.88 8.25054 26.0582C9.19474 26.2364 10.1707 26.1257 11.0511 25.7406C11.4016 26.6351 12.0136 27.4032 12.8073 27.9446C13.6009 28.486 14.5394 28.7756 15.5001 28.7756C16.4609 28.7756 17.3993 28.486 18.1929 27.9446C18.9866 27.4032 19.5986 26.6351 19.9492 25.7406C20.8295 26.1257 21.8055 26.2364 22.7497 26.0582C23.6939 25.88 24.5624 25.4213 25.2418 24.7418C25.9213 24.0624 26.38 23.1939 26.5582 22.2497C26.7364 21.3055 26.6257 20.3295 26.2406 19.4492C27.1342 19.0972 27.9014 18.4848 28.4426 17.6915C28.9839 16.8982 29.2743 15.9605 29.2762 15.0001Z" fill="#F9D835"/>
<path d="M26.2408 10.5513C26.6256 9.67091 26.7361 8.695 26.5578 7.7509C26.3795 6.8068 25.9208 5.93836 25.2415 5.25892C24.5622 4.57948 23.6939 4.1206 22.7498 3.94215C21.8057 3.76371 20.8298 3.874 19.9494 4.25862C19.5988 3.36411 18.9868 2.59604 18.1931 2.05464C17.3995 1.51323 16.461 1.22363 15.5003 1.22363C14.5396 1.22363 13.6011 1.51323 12.8075 2.05464C12.0138 2.59604 11.4018 3.36411 11.0512 4.25862C10.1708 3.874 9.19486 3.76371 8.25079 3.94215C7.30673 4.1206 6.43838 4.57948 5.75907 5.25892C5.07976 5.93836 4.62104 6.8068 4.44277 7.7509C4.26451 8.695 4.37498 9.67091 4.75977 10.5513C4.01597 10.8407 3.35683 11.3124 2.84295 11.923C2.32907 12.5337 1.97693 13.2638 1.81889 14.0461C1.66086 14.8284 1.70199 15.6379 1.93852 16.4001C2.17506 17.1624 2.59939 17.853 3.17253 18.4084C3.25024 15.1904 4.58316 12.1304 6.8866 9.88189C9.19003 7.63341 12.2814 6.37474 15.5003 6.37474C18.7192 6.37474 21.8105 7.63341 24.114 9.88189C26.4174 12.1304 27.7503 15.1904 27.8281 18.4084C28.4012 17.853 28.8255 17.1624 29.0621 16.4001C29.2986 15.6379 29.3397 14.8284 29.1817 14.0461C29.0236 13.2638 28.6715 12.5337 28.1576 11.923C27.6437 11.3124 26.9846 10.8407 26.2408 10.5513Z" fill="#ECF2FB"/>
<path d="M29.2762 15.0001C29.2743 14.0397 28.9839 13.1021 28.4426 12.3087C27.9014 11.5154 27.1342 10.903 26.2406 10.5511C26.6257 9.67073 26.7364 8.69474 26.5582 7.75054C26.38 6.80635 25.9213 5.93782 25.2418 5.25838C24.5624 4.57895 23.6939 4.12019 22.7497 3.94201C21.8055 3.76383 20.8295 3.87451 19.9492 4.25959C19.5986 3.36509 18.9866 2.59702 18.1929 2.05561C17.3993 1.51421 16.4609 1.22461 15.5001 1.22461C14.5394 1.22461 13.6009 1.51421 12.8073 2.05561C12.0136 2.59702 11.4016 3.36509 11.0511 4.25959C10.1707 3.87451 9.19474 3.76383 8.25054 3.94201C7.30635 4.12019 6.43782 4.57895 5.75838 5.25838C5.07895 5.93782 4.62019 6.80635 4.44201 7.75054C4.26383 8.69474 4.37451 9.67073 4.75959 10.5511C3.86509 10.9016 3.09702 11.5136 2.55561 12.3073C2.01421 13.1009 1.72461 14.0394 1.72461 15.0001C1.72461 15.9609 2.01421 16.8993 2.55561 17.6929C3.09702 18.4866 3.86509 19.0986 4.75959 19.4492C4.37451 20.3295 4.26383 21.3055 4.44201 22.2497C4.62019 23.1939 5.07895 24.0624 5.75838 24.7418C6.43782 25.4213 7.30635 25.88 8.25054 26.0582C9.19474 26.2364 10.1707 26.1257 11.0511 25.7406C11.4016 26.6351 12.0136 27.4032 12.8073 27.9446C13.6009 28.486 14.5394 28.7756 15.5001 28.7756C16.4609 28.7756 17.3993 28.486 18.1929 27.9446C18.9866 27.4032 19.5986 26.6351 19.9492 25.7406C20.8295 26.1257 21.8055 26.2364 22.7497 26.0582C23.6939 25.88 24.5624 25.4213 25.2418 24.7418C25.9213 24.0624 26.38 23.1939 26.5582 22.2497C26.7364 21.3055 26.6257 20.3295 26.2406 19.4492C27.1342 19.0972 27.9014 18.4848 28.4426 17.6915C28.9839 16.8982 29.2743 15.9605 29.2762 15.0001Z" stroke="black" stroke-width="1.25" stroke-linecap="round" stroke-linejoin="round"/>
<path d="M11.3008 14.4014H17.2904" stroke="black" stroke-width="1.25" stroke-linecap="round" stroke-linejoin="round"/>
<path d="M18.4951 10.807C18.4951 10.1716 18.2427 9.56216 17.7934 9.11286C17.3441 8.66355 16.7347 8.41113 16.0993 8.41113C15.4639 8.41113 14.8545 8.66355 14.4052 9.11286C13.9559 9.56216 13.7035 10.1716 13.7035 10.807V16.1976C13.7035 18.1825 13.2926 20.3903 11.3076 20.3903H18.4951" stroke="black" stroke-width="1.25" stroke-linecap="round" stroke-linejoin="round"/>
</svg>
