<svg width="30" height="30" viewBox="0 0 30 30" fill="none" xmlns="http://www.w3.org/2000/svg">
<path d="M1.22363 7.81217C1.22363 7.49447 1.34984 7.18977 1.57449 6.96512C1.79915 6.74047 2.10384 6.61426 2.42155 6.61426H27.5778C27.7351 6.61426 27.8909 6.64524 28.0362 6.70544C28.1816 6.76564 28.3136 6.85388 28.4249 6.96512C28.5361 7.07636 28.6243 7.20841 28.6845 7.35375C28.7447 7.49909 28.7757 7.65486 28.7757 7.81217V22.1872C28.7757 22.3445 28.7447 22.5003 28.6845 22.6456C28.6243 22.7909 28.5361 22.923 28.4249 23.0342C28.3136 23.1455 28.1816 23.2337 28.0362 23.2939C27.8909 23.3541 27.7351 23.3851 27.5778 23.3851H2.42155C2.10384 23.3851 1.79915 23.2589 1.57449 23.0342C1.34984 22.8096 1.22363 22.5049 1.22363 22.1872V7.81217Z" fill="#F9D835"/>
<path d="M2.42155 6.61426C2.10385 6.61426 1.79915 6.74047 1.5745 6.96512C1.34984 7.18977 1.22364 7.49447 1.22364 7.81217V22.1872C1.22291 22.5009 1.34603 22.8023 1.56624 23.0257L17.9741 6.61426H2.42155Z" fill="#ECF2FB"/>
<path d="M1.22363 7.81217C1.22363 7.49447 1.34984 7.18977 1.57449 6.96512C1.79915 6.74047 2.10384 6.61426 2.42155 6.61426H27.5778C27.7351 6.61426 27.8909 6.64524 28.0362 6.70544C28.1816 6.76564 28.3136 6.85388 28.4249 6.96512C28.5361 7.07636 28.6243 7.20841 28.6845 7.35375C28.7447 7.49909 28.7757 7.65486 28.7757 7.81217V22.1872C28.7757 22.3445 28.7447 22.5003 28.6845 22.6456C28.6243 22.7909 28.5361 22.923 28.4249 23.0342C28.3136 23.1455 28.1816 23.2337 28.0362 23.2939C27.8909 23.3541 27.7351 23.3851 27.5778 23.3851H2.42155C2.10384 23.3851 1.79915 23.2589 1.57449 23.0342C1.34984 22.8096 1.22363 22.5049 1.22363 22.1872V7.81217Z" stroke="black" stroke-width="1.25" stroke-linecap="round" stroke-linejoin="round"/>
<path d="M7.21387 11.4062C8.16699 11.4062 9.08107 11.7849 9.75503 12.4588C10.429 13.1328 10.8076 14.0469 10.8076 15C10.8076 15.9531 10.429 16.8672 9.75503 17.5412C9.08107 18.2151 8.16699 18.5937 7.21387 18.5937V11.4062Z" stroke="black" stroke-width="1.25" stroke-linecap="round" stroke-linejoin="round"/>
<path d="M16.7969 16.7969C16.7969 17.2734 16.6076 17.7305 16.2706 18.0675C15.9336 18.4044 15.4766 18.5937 15 18.5937C14.5234 18.5937 14.0664 18.4044 13.7294 18.0675C13.3924 17.7305 13.2031 17.2734 13.2031 16.7969V13.2031C13.2031 12.7266 13.3924 12.2695 13.7294 11.9325C14.0664 11.5956 14.5234 11.4063 15 11.4062C15.4766 11.4062 15.9336 11.5956 16.2706 11.9325C16.6076 12.2695 16.7969 12.7266 16.7969 13.2031V16.7969Z" stroke="black" stroke-width="1.25" stroke-linecap="round" stroke-linejoin="round"/>
<path d="M22.7861 18.5937C21.833 18.5937 20.9189 18.2151 20.245 17.5412C19.571 16.8672 19.1924 15.9531 19.1924 15C19.1924 14.0469 19.571 13.1328 20.245 12.4588C20.9189 11.7849 21.833 11.4062 22.7861 11.4062" stroke="black" stroke-width="1.25" stroke-linecap="round" stroke-linejoin="round"/>
</svg>
