<svg width="30" height="30" viewBox="0 0 30 30" fill="none" xmlns="http://www.w3.org/2000/svg">
<g clip-path="url(#clip0_67_991)">
<path d="M1.22363 8.41113V4.81738C1.22363 3.86426 1.60226 2.95018 2.27622 2.27622C2.95018 1.60226 3.86426 1.22363 4.81738 1.22363H8.41113" stroke="black" stroke-width="1.25" stroke-linecap="round" stroke-linejoin="round"/>
<path d="M28.7764 8.41113V4.81738C28.7764 3.86426 28.3977 2.95018 27.7238 2.27622C27.0498 1.60226 26.1357 1.22363 25.1826 1.22363H21.5889" stroke="black" stroke-width="1.25" stroke-linecap="round" stroke-linejoin="round"/>
<path d="M1.22363 21.5889V25.1826C1.22363 26.1357 1.60226 27.0498 2.27622 27.7238C2.95018 28.3977 3.86426 28.7764 4.81738 28.7764H8.41113" stroke="black" stroke-width="1.25" stroke-linecap="round" stroke-linejoin="round"/>
<path d="M28.7764 21.5889V25.1826C28.7764 26.1357 28.3977 27.0498 27.7238 27.7238C27.0498 28.3977 26.1357 28.7764 25.1826 28.7764H21.5889" stroke="black" stroke-width="1.25" stroke-linecap="round" stroke-linejoin="round"/>
<path d="M5.36719 23.4898C7.41273 22.3037 9.58864 21.3582 11.8515 20.6723C12.8542 20.3009 12.9632 18.0021 12.2444 17.2103C11.207 16.0699 10.3278 14.7318 10.3278 11.5022C10.2673 10.8588 10.3442 10.2099 10.5532 9.59839C10.7622 8.98687 11.0986 8.42669 11.5402 7.95485C11.9818 7.48302 12.5185 7.1103 13.1149 6.86131C13.7112 6.61233 14.3536 6.49276 14.9996 6.51051C15.6456 6.49276 16.288 6.61233 16.8844 6.86131C17.4808 7.1103 18.0175 7.48302 18.4591 7.95485C18.9007 8.42669 19.2371 8.98687 19.4461 9.59839C19.6551 10.2099 19.7319 10.8588 19.6715 11.5022C19.6715 14.7366 18.7922 16.0699 17.7548 17.2103C17.0361 18.0021 17.1451 20.3009 18.1478 20.6723C20.4106 21.3582 22.5865 22.3037 24.6321 23.4898C18.2932 24.9476 11.7061 24.9476 5.36719 23.4898Z" fill="#F9D835"/>
<path d="M15.0547 6.51149H14.9996C14.3537 6.49375 13.7114 6.6133 13.1152 6.86221C12.5189 7.11112 11.9823 7.48373 11.5407 7.95543C11.0991 8.42713 10.7627 8.98717 10.5536 9.59854C10.3445 10.2099 10.2675 10.8587 10.3278 11.502C10.3278 14.7364 11.207 16.0697 12.2444 17.2113C12.9632 18.0007 12.8542 20.3007 11.8527 20.6721C9.58919 21.3573 7.4128 22.3028 5.36719 23.4896C8.54506 24.2167 11.7947 24.5836 15.0547 24.5833V6.51149Z" fill="#F9D835"/>
<path d="M5.36719 23.4898C7.41273 22.3037 9.58864 21.3582 11.8515 20.6723C12.8542 20.3009 12.9632 18.0021 12.2444 17.2103C11.207 16.0699 10.3278 14.7318 10.3278 11.5022C10.2673 10.8588 10.3442 10.2099 10.5532 9.59839C10.7622 8.98687 11.0986 8.42669 11.5402 7.95485C11.9818 7.48302 12.5185 7.1103 13.1149 6.86131C13.7112 6.61233 14.3536 6.49276 14.9996 6.51051C15.6456 6.49276 16.2881 6.61233 16.8844 6.86131C17.4808 7.1103 18.0175 7.48302 18.4591 7.95485C18.9007 8.42669 19.2371 8.98687 19.4461 9.59839C19.6551 10.2099 19.7319 10.8588 19.6715 11.5022C19.6715 14.7366 18.7922 16.0699 17.7548 17.2103C17.0361 18.0021 17.1451 20.3009 18.1478 20.6723C20.4106 21.3582 22.5865 22.3037 24.6321 23.4898" stroke="black" stroke-width="1.25" stroke-linecap="round" stroke-linejoin="round"/>
</g>
<defs>
<clipPath id="clip0_67_991">
<rect width="30" height="30" fill="white"/>
</clipPath>
</defs>
</svg>
