<svg width="31" height="30" viewBox="0 0 31 30" fill="none" xmlns="http://www.w3.org/2000/svg">
<path d="M4.11947 7.21387H26.8799C26.8799 7.21387 29.2757 7.21387 29.2757 9.6097V23.9847C29.2757 23.9847 29.2757 26.3805 26.8799 26.3805H4.11947C4.11947 26.3805 1.72363 26.3805 1.72363 23.9847V9.6097C1.72363 9.6097 1.72363 7.21387 4.11947 7.21387Z" fill="#F9D835"/>
<path d="M26.8799 7.21387H4.11947C3.48454 7.21545 2.87607 7.46837 2.4271 7.91734C1.97814 8.3663 1.72521 8.97477 1.72363 9.6097V13.2035C1.72521 12.5685 1.97814 11.9601 2.4271 11.5111C2.87607 11.0621 3.48454 10.8092 4.11947 10.8076H26.8799C27.5153 10.8076 28.1247 11.06 28.574 11.5093C29.0233 11.9586 29.2757 12.568 29.2757 13.2035V9.6097C29.2757 8.97429 29.0233 8.3649 28.574 7.91559C28.1247 7.46628 27.5153 7.21387 26.8799 7.21387Z" fill="#ECF2FB"/>
<path d="M4.11947 7.21387H26.8799C26.8799 7.21387 29.2757 7.21387 29.2757 9.6097V23.9847C29.2757 23.9847 29.2757 26.3805 26.8799 26.3805H4.11947C4.11947 26.3805 1.72363 26.3805 1.72363 23.9847V9.6097C1.72363 9.6097 1.72363 7.21387 4.11947 7.21387Z" stroke="black" stroke-width="1.25" stroke-linecap="round" stroke-linejoin="round"/>
<path d="M20.8906 16.1976C20.8906 16.1189 20.8751 16.041 20.845 15.9684C20.8149 15.8957 20.7708 15.8297 20.7152 15.7741C20.6596 15.7184 20.5935 15.6743 20.5209 15.6442C20.4482 15.6141 20.3703 15.5986 20.2917 15.5986H17.2969V12.6038C17.2969 12.5252 17.2814 12.4473 17.2513 12.3746C17.2212 12.302 17.1771 12.2359 17.1214 12.1803C17.0658 12.1247 16.9998 12.0806 16.9271 12.0505C16.8545 12.0204 16.7766 12.0049 16.6979 12.0049H14.3021C14.1432 12.0049 13.9909 12.068 13.8786 12.1803C13.7662 12.2926 13.7031 12.445 13.7031 12.6038V15.5986H10.7083C10.5495 15.5986 10.3971 15.6617 10.2848 15.7741C10.1725 15.8864 10.1094 16.0387 10.1094 16.1976V18.5934C10.1094 18.7523 10.1725 18.9046 10.2848 19.017C10.3971 19.1293 10.5495 19.1924 10.7083 19.1924H13.7031V22.1872C13.7031 22.346 13.7662 22.4984 13.8786 22.6107C13.9909 22.723 14.1432 22.7861 14.3021 22.7861H16.6979C16.8568 22.7861 17.0091 22.723 17.1214 22.6107C17.2338 22.4984 17.2969 22.346 17.2969 22.1872V19.1924H20.2917C20.3703 19.1924 20.4482 19.1769 20.5209 19.1468C20.5935 19.1167 20.6596 19.0726 20.7152 19.017C20.7708 18.9613 20.8149 18.8953 20.845 18.8226C20.8751 18.75 20.8906 18.6721 20.8906 18.5934V16.1976Z" fill="white" stroke="black" stroke-width="1.25" stroke-linecap="round" stroke-linejoin="round"/>
<path d="M11.3076 7.21387V5.41699C11.3076 4.94043 11.4969 4.48339 11.8339 4.14641C12.1709 3.80943 12.6279 3.62012 13.1045 3.62012H17.8962C18.3727 3.62012 18.8298 3.80943 19.1667 4.14641C19.5037 4.48339 19.693 4.94043 19.693 5.41699V7.21387" stroke="black" stroke-width="1.25" stroke-linecap="round" stroke-linejoin="round"/>
</svg>
