<svg width="30" height="30" viewBox="0 0 30 30" fill="none" xmlns="http://www.w3.org/2000/svg">
<g clip-path="url(#clip0_7443_5339)">
<path d="M11.3579 4.85184C10.4906 5.22186 9.55766 5.41334 8.61471 5.41486C7.68039 5.41628 6.75539 5.22923 5.89502 4.86491C5.03466 4.5006 4.25661 3.96649 3.60742 3.29455V3.28257C4.04912 2.53278 4.71366 1.9394 5.50849 1.58508C6.30332 1.23077 7.18886 1.13316 8.04178 1.30585C8.8947 1.47855 9.67253 1.91294 10.2669 2.54854C10.8613 3.18413 11.2427 3.98928 11.3579 4.85184Z" fill="#F9D835"/>
<path d="M11.406 5.41719C11.406 6.52916 10.9643 7.59559 10.178 8.38188C9.3917 9.16816 8.32527 9.6099 7.21329 9.6099C6.10132 9.6099 5.03489 9.16816 4.2486 8.38188C3.46232 7.59559 3.02059 6.52916 3.02059 5.41719C3.01592 4.66967 3.21914 3.93557 3.60757 3.29688C4.25676 3.96882 5.0348 4.50292 5.89517 4.86724C6.75553 5.23155 7.68054 5.4186 8.61486 5.41719C9.5578 5.41566 10.4908 5.22418 11.3581 4.85417C11.3924 5.03983 11.4084 5.2284 11.406 5.41719Z" fill="#ECF2FB"/>
<path d="M9.60905 28.776L10.208 21.5885H13.2028V17.3958C13.2028 15.8073 12.5718 14.2838 11.4485 13.1606C10.3252 12.0373 8.80175 11.4063 7.21322 11.4062C5.62468 11.4063 4.10121 12.0373 2.97794 13.1606C1.85468 14.2838 1.22363 15.8073 1.22363 17.3958V21.5885H4.21842L4.81738 28.776H9.60905Z" fill="#ECF2FB"/>
<path d="M11.3579 4.85184C11.1783 4.92372 10.9866 4.99559 10.8069 5.05549C10.4346 4.4347 9.90798 3.92086 9.27821 3.56399C8.64844 3.20712 7.93701 3.01938 7.21315 3.01903C6.20727 3.01623 5.23536 3.38282 4.4819 4.04924C4.16849 3.82426 3.87583 3.57169 3.60742 3.29455V3.28257C4.04912 2.53278 4.71366 1.9394 5.50849 1.58508C6.30332 1.23077 7.18886 1.13316 8.04178 1.30585C8.8947 1.47855 9.67253 1.91294 10.2669 2.54854C10.8613 3.18413 11.2427 3.98928 11.3579 4.85184Z" fill="#F9D835"/>
<path d="M13.2028 17.3958V19.1927C13.2028 17.6042 12.5718 16.0807 11.4485 14.9574C10.3252 13.8342 8.80175 13.2031 7.21322 13.2031C5.62468 13.2031 4.10121 13.8342 2.97794 14.9574C1.85468 16.0807 1.22363 17.6042 1.22363 19.1927V17.3958C1.22363 15.8073 1.85468 14.2838 2.97794 13.1606C4.10121 12.0373 5.62468 11.4062 7.21322 11.4062C8.80175 11.4062 10.3252 12.0373 11.4485 13.1606C12.5718 14.2838 13.2028 15.8073 13.2028 17.3958Z" fill="white"/>
<path d="M3.60059 3.28906C4.24986 3.96246 5.02825 4.49804 5.88921 4.86379C6.75017 5.22954 7.67604 5.41795 8.61147 5.41776C9.55883 5.41798 10.4963 5.22518 11.3667 4.85115" stroke="black" stroke-width="1.25" stroke-linecap="round" stroke-linejoin="round"/>
<path d="M3.02051 5.41536C3.02051 6.52734 3.46224 7.59377 4.24852 8.38006C5.03481 9.16634 6.10124 9.60807 7.21322 9.60807C8.32519 9.60807 9.39162 9.16634 10.1779 8.38006C10.9642 7.59377 11.4059 6.52734 11.4059 5.41536C11.4059 4.30339 10.9642 3.23696 10.1779 2.45067C9.39162 1.66439 8.32519 1.22266 7.21322 1.22266C6.10124 1.22266 5.03481 1.66439 4.24852 2.45067C3.46224 3.23696 3.02051 4.30339 3.02051 5.41536Z" stroke="black" stroke-width="1.25" stroke-linecap="round" stroke-linejoin="round"/>
<path d="M12.6194 14.8135C12.0343 13.5868 11.0495 12.5955 9.82656 12.0025C8.60365 11.4095 7.21543 11.2501 5.88991 11.5504C4.5644 11.8506 3.38041 12.5928 2.53244 13.6549C1.68447 14.717 1.22293 16.0359 1.22363 17.395V21.5878H4.21843L4.81738 28.7753H9.60905L10.208 21.5878H11.9833" stroke="black" stroke-width="1.25" stroke-linecap="round" stroke-linejoin="round"/>
<path d="M21.5889 28.7773C23.0104 28.7773 24.4001 28.3558 25.582 27.566C26.764 26.7763 27.6852 25.6537 28.2292 24.3404C28.7733 23.027 28.9156 21.5819 28.6383 20.1876C28.3609 18.7934 27.6764 17.5127 26.6712 16.5075C25.666 15.5023 24.3853 14.8178 22.9911 14.5405C21.5968 14.2631 20.1517 14.4055 18.8383 14.9495C17.525 15.4935 16.4025 16.4147 15.6127 17.5967C14.8229 18.7787 14.4014 20.1683 14.4014 21.5898C14.4014 23.4961 15.1586 25.3243 16.5065 26.6722C17.8545 28.0201 19.6826 28.7773 21.5889 28.7773Z" fill="#F9D835"/>
<path d="M21.5886 14.4023C20.1257 14.4012 18.6974 14.8468 17.4946 15.6796C16.2919 16.5124 15.3722 17.6926 14.8586 19.0623C14.345 20.4321 14.2619 21.926 14.6205 23.3443C14.9791 24.7625 15.7623 26.0374 16.8652 26.9984L26.9972 16.8665C26.3246 16.0925 25.4937 15.472 24.5606 15.0469C23.6275 14.6218 22.614 14.402 21.5886 14.4023Z" fill="#ECF2FB"/>
<path d="M21.5889 28.7773C23.0104 28.7773 24.4 28.3558 25.582 27.566C26.764 26.7763 27.6852 25.6537 28.2293 24.3404C28.7733 23.027 28.9156 21.5819 28.6383 20.1876C28.3609 18.7934 27.6764 17.5127 26.6712 16.5075C25.666 15.5023 24.3853 14.8178 22.9911 14.5405C21.5968 14.2631 20.1517 14.4055 18.8383 14.9495C17.525 15.4935 16.4025 16.4147 15.6127 17.5967C14.8229 18.7787 14.4014 20.1683 14.4014 21.5898C14.4014 23.4961 15.1586 25.3243 16.5065 26.6722C17.8545 28.0201 19.6826 28.7773 21.5889 28.7773Z" stroke="black" stroke-width="1.25" stroke-linecap="round" stroke-linejoin="round"/>
<path d="M24.1294 19.0352L19.0479 24.1167" stroke="black" stroke-width="1.25" stroke-linecap="round" stroke-linejoin="round"/>
<path d="M24.1294 24.1167L19.0479 19.0352" stroke="black" stroke-width="1.25" stroke-linecap="round" stroke-linejoin="round"/>
</g>
<defs>
<clipPath id="clip0_7443_5339">
<rect width="30" height="30" fill="white"/>
</clipPath>
</defs>
</svg>
