<svg width="30" height="30" viewBox="0 0 30 30" fill="none" xmlns="http://www.w3.org/2000/svg">
<g clip-path="url(#clip0_0_367)">
<path d="M4.81738 6.01562H2.42155C2.10384 6.01563 1.79915 6.14183 1.57449 6.36649C1.34984 6.59114 1.22363 6.89583 1.22363 7.21354V27.5781C1.22363 27.7354 1.25462 27.8912 1.31482 28.0365C1.37502 28.1819 1.46326 28.3139 1.57449 28.4252C1.68573 28.5364 1.81779 28.6247 1.96313 28.6849C2.10846 28.7451 2.26424 28.776 2.42155 28.776H22.7861C22.9434 28.776 23.0992 28.7451 23.2446 28.6849C23.3899 28.6247 23.522 28.5364 23.6332 28.4252C23.7444 28.3139 23.8327 28.1819 23.8929 28.0365C23.9531 27.8912 23.9841 27.7354 23.9841 27.5781V25.1823" fill="#F9D835"/>
<path d="M4.81738 6.01562H2.42155C2.10384 6.01563 1.79915 6.14183 1.57449 6.36649C1.34984 6.59114 1.22363 6.89583 1.22363 7.21354V27.5781C1.22363 27.7354 1.25462 27.8912 1.31482 28.0365C1.37502 28.1819 1.46326 28.3139 1.57449 28.4252C1.68573 28.5364 1.81779 28.6247 1.96313 28.6849C2.10846 28.7451 2.26424 28.776 2.42155 28.776H22.7861C22.9434 28.776 23.0992 28.7451 23.2446 28.6849C23.3899 28.6247 23.522 28.5364 23.6332 28.4252C23.7444 28.3139 23.8327 28.1819 23.8929 28.0365C23.9531 27.8912 23.9841 27.7354 23.9841 27.5781V25.1823" stroke="black" stroke-width="1.25" stroke-linecap="round" stroke-linejoin="round"/>
<path d="M28.7757 2.42155C28.7757 2.26424 28.7447 2.10846 28.6845 1.96313C28.6243 1.81779 28.5361 1.68573 28.4249 1.57449C28.3136 1.46326 28.1816 1.37502 28.0362 1.31482C27.8909 1.25462 27.7351 1.22363 27.5778 1.22363H6.0153C5.69759 1.22363 5.3929 1.34984 5.16824 1.57449C4.94359 1.79915 4.81738 2.10384 4.81738 2.42155V23.9841C4.81738 24.3018 4.94359 24.6065 5.16824 24.8311C5.3929 25.0558 5.69759 25.182 6.0153 25.182H27.5778C27.7351 25.182 27.8909 25.151 28.0362 25.0908C28.1816 25.0306 28.3136 24.9423 28.4249 24.8311C28.5361 24.7199 28.6243 24.5878 28.6845 24.4425C28.7447 24.2971 28.7757 24.1414 28.7757 23.9841V2.42155Z" fill="#ECF2FB"/>
<path d="M5.17676 24.8226L28.4259 1.57343C28.3145 1.46226 28.1822 1.37414 28.0367 1.31412C27.8911 1.2541 27.7352 1.22335 27.5778 1.22363H6.0153C5.69759 1.22363 5.3929 1.34984 5.16824 1.5745C4.94359 1.79915 4.81738 2.10384 4.81738 2.42155V23.9841C4.82188 24.3 4.95105 24.6014 5.17676 24.8226Z" fill="white"/>
<path d="M28.7757 2.42155C28.7757 2.26424 28.7447 2.10846 28.6845 1.96313C28.6243 1.81779 28.5361 1.68573 28.4249 1.57449C28.3136 1.46326 28.1816 1.37502 28.0362 1.31482C27.8909 1.25462 27.7351 1.22363 27.5778 1.22363H6.0153C5.69759 1.22363 5.3929 1.34984 5.16824 1.57449C4.94359 1.79915 4.81738 2.10384 4.81738 2.42155V23.9841C4.81738 24.3018 4.94359 24.6065 5.16824 24.8311C5.3929 25.0558 5.69759 25.182 6.0153 25.182H27.5778C27.7351 25.182 27.8909 25.151 28.0362 25.0908C28.1816 25.0306 28.3136 24.9423 28.4249 24.8311C28.5361 24.7199 28.6243 24.5878 28.6845 24.4425C28.7447 24.2971 28.7757 24.1414 28.7757 23.9841V2.42155Z" stroke="black" stroke-width="1.25" stroke-linecap="round" stroke-linejoin="round"/>
<path d="M9.60449 6.01172H23.9795" stroke="black" stroke-width="1.25" stroke-linecap="round" stroke-linejoin="round"/>
<path d="M9.60449 10.8037H23.9795" stroke="black" stroke-width="1.25" stroke-linecap="round" stroke-linejoin="round"/>
<path d="M9.60449 15.5957H23.9795" stroke="black" stroke-width="1.25" stroke-linecap="round" stroke-linejoin="round"/>
<path d="M9.60449 20.3867H16.1978" stroke="black" stroke-width="1.25" stroke-linecap="round" stroke-linejoin="round"/>
</g>
<defs>
<clipPath id="clip0_0_367">
<rect width="30" height="30" fill="white"/>
</clipPath>
</defs>
</svg>
