<svg width="31" height="31" viewBox="0 0 31 31" fill="none" xmlns="http://www.w3.org/2000/svg">
<path d="M1.72363 20.2913V5.31738C1.72363 4.84082 1.91295 4.38378 2.24993 4.0468C2.5869 3.70982 3.04395 3.52051 3.52051 3.52051H27.4788C27.9554 3.52051 28.4124 3.70982 28.7494 4.0468C29.0864 4.38378 29.2757 4.84082 29.2757 5.31738V20.2913H1.72363Z" fill="#F9D835"/>
<path d="M23.8851 3.52051H3.52051C3.04395 3.52051 2.5869 3.70982 2.24993 4.0468C1.91295 4.38378 1.72363 4.84082 1.72363 5.31738V20.2913H7.11426L23.8851 3.52051Z" fill="#ECF2FB"/>
<path d="M1.72363 20.292H29.2757V23.2868C29.2757 23.7633 29.0864 24.2204 28.7494 24.5574C28.4124 24.8943 27.9554 25.0837 27.4788 25.0837H3.52051C3.04395 25.0837 2.5869 24.8943 2.24993 24.5574C1.91295 24.2204 1.72363 23.7633 1.72363 23.2868V20.292Z" fill="white"/>
<path d="M7.11426 27.4844H23.8851" stroke="black" stroke-width="1.25" stroke-linecap="round" stroke-linejoin="round"/>
<path d="M14.9014 25.0879V27.4837" stroke="black" stroke-width="1.25" stroke-linecap="round" stroke-linejoin="round"/>
<path d="M1.72363 20.2969H29.2757" stroke="black" stroke-width="1.25" stroke-linecap="round" stroke-linejoin="round"/>
<path d="M12.8047 9.21582C12.8047 9.93066 13.0887 10.6162 13.5941 11.1217C14.0996 11.6272 14.7852 11.9111 15.5 11.9111C16.2148 11.9111 16.9004 11.6272 17.4059 11.1217C17.9113 10.6162 18.1953 9.93066 18.1953 9.21582C18.1953 8.50098 17.9113 7.81542 17.4059 7.30995C16.9004 6.80448 16.2148 6.52051 15.5 6.52051C14.7852 6.52051 14.0996 6.80448 13.5941 7.30995C13.0887 7.81542 12.8047 8.50098 12.8047 9.21582Z" fill="#ECF2FB" stroke="black" stroke-width="1.25" stroke-linecap="round" stroke-linejoin="round"/>
<path d="M20.8906 17.2969C20.5852 16.0991 19.8895 15.0371 18.9133 14.2786C17.9372 13.5201 16.7362 13.1084 15.5 13.1084C14.2638 13.1084 13.0628 13.5201 12.0867 14.2786C11.1105 15.0371 10.4148 16.0991 10.1094 17.2969H20.8906Z" fill="#ECF2FB" stroke="black" stroke-width="1.25" stroke-linecap="round" stroke-linejoin="round"/>
<path d="M3.52051 3.52539H27.4788C27.4788 3.52539 29.2757 3.52539 29.2757 5.32227V23.291C29.2757 23.291 29.2757 25.0879 27.4788 25.0879H3.52051C3.52051 25.0879 1.72363 25.0879 1.72363 23.291V5.32227C1.72363 5.32227 1.72363 3.52539 3.52051 3.52539Z" stroke="black" stroke-width="1.25" stroke-linecap="round" stroke-linejoin="round"/>
</svg>
