<svg width="30" height="30" viewBox="0 0 30 30" fill="none" xmlns="http://www.w3.org/2000/svg">
<g clip-path="url(#clip0_0_329)">
<path d="M1.22363 20.3903C1.2397 19.0217 1.52462 17.6696 2.06217 16.4108C2.64915 15.2357 5.10368 14.4211 8.18473 13.2807C9.01728 12.9716 8.88072 10.7962 8.51176 10.3901C7.92313 9.75401 7.47578 9.00055 7.19912 8.17924C6.92246 7.35793 6.82275 6.48737 6.90655 5.62478C6.85374 5.07559 6.91461 4.52142 7.08536 3.99679C7.2561 3.47216 7.53307 2.98831 7.899 2.57541C8.26492 2.16251 8.71197 1.82939 9.21227 1.59682C9.71257 1.36426 10.2554 1.23722 10.807 1.22363C11.3585 1.23722 11.9014 1.36426 12.4017 1.59682C12.902 1.82939 13.349 2.16251 13.7149 2.57541C14.0809 2.98831 14.3578 3.47216 14.5286 3.99679C14.6993 4.52142 14.7602 5.07559 14.7074 5.62478C14.7918 6.48703 14.6929 7.35738 14.417 8.17867C14.1412 8.99996 13.6947 9.7536 13.107 10.3901C12.738 10.7962 12.6014 12.9716 13.434 13.2807C16.515 14.4211 18.9696 15.2357 19.5565 16.4108C20.0941 17.6696 20.379 19.0217 20.3951 20.3903H1.22363Z" fill="#ECF2FB"/>
<path d="M12.9758 12.7373C12.7206 13.4417 12.7122 15.1092 13.4346 15.3727C16.5168 16.5143 18.9702 17.3289 19.5571 18.5041C19.8411 19.1036 20.0449 19.738 20.1633 20.3908H20.3909C20.3748 19.0222 20.0899 17.6701 19.5524 16.4113C18.9654 15.2362 16.512 14.4216 13.4298 13.28C13.3197 13.2273 13.2221 13.1516 13.1438 13.058C13.0654 12.9644 13.0082 12.855 12.9758 12.7373Z" fill="white"/>
<path d="M2.06217 18.507C2.64915 17.3318 5.10368 16.5173 8.18473 15.3757C8.90348 15.1085 8.90348 13.441 8.64353 12.7402C8.61063 12.8584 8.55261 12.968 8.47342 13.0617C8.39424 13.1554 8.29576 13.2308 8.18473 13.2829C5.09889 14.4209 2.64436 15.2391 2.06217 16.4107C1.52462 17.6694 1.2397 19.0215 1.22363 20.3901H1.45124C1.57142 19.7383 1.77683 19.1052 2.06217 18.507Z" fill="white"/>
<path d="M10.8077 3.31999C11.7747 3.32908 12.7036 3.69868 13.4126 4.35647C14.1216 5.01426 14.5596 5.91291 14.641 6.8766C14.6879 6.46097 14.7115 6.04305 14.7117 5.62478C14.7647 5.07526 14.7038 4.52072 14.5329 3.99578C14.362 3.47083 14.0848 2.98675 13.7184 2.57375C13.3521 2.16075 12.9045 1.82771 12.4037 1.59542C11.9029 1.36312 11.3596 1.23656 10.8077 1.22363C10.256 1.23705 9.71312 1.36396 9.21273 1.59647C8.71234 1.82898 8.26522 2.1621 7.89926 2.57504C7.5333 2.98798 7.25635 3.4719 7.08567 3.9966C6.91499 4.52131 6.85425 5.07556 6.90724 5.62478C6.9062 6.04298 6.9286 6.46091 6.97432 6.8766C7.05571 5.91291 7.49375 5.01426 8.20272 4.35647C8.91168 3.69868 9.84057 3.32908 10.8077 3.31999Z" fill="white"/>
<path d="M11.4059 20.3903H1.22363C1.2397 19.0217 1.52462 17.6696 2.06217 16.4108C2.64915 15.2357 5.10368 14.4211 8.18473 13.2807C9.01728 12.9716 8.88072 10.7962 8.51176 10.3901C7.92313 9.75401 7.47578 9.00055 7.19912 8.17924C6.92246 7.35793 6.82275 6.48737 6.90655 5.62478C6.85374 5.07559 6.91461 4.52142 7.08536 3.99679C7.2561 3.47216 7.53307 2.98831 7.89899 2.57541C8.26492 2.16251 8.71197 1.82939 9.21227 1.59682C9.71257 1.36426 10.2554 1.23722 10.807 1.22363C11.3585 1.23722 11.9014 1.36426 12.4017 1.59682C12.902 1.82939 13.349 2.16251 13.7149 2.57541C14.0809 2.98831 14.3578 3.47216 14.5286 3.99679C14.6993 4.52142 14.7602 5.07559 14.7074 5.62478C14.7918 6.48703 14.6929 7.35738 14.417 8.17867C14.1412 8.99996 13.6947 9.7536 13.107 10.3901C12.738 10.7962 12.6014 12.9716 13.434 13.2807L14.9997 13.8569" stroke="black" stroke-width="1.25" stroke-linecap="round" stroke-linejoin="round"/>
<path d="M21.543 28.7764C22.9645 28.7764 24.3542 28.3548 25.5361 27.5651C26.7181 26.7753 27.6393 25.6528 28.1834 24.3394C28.7274 23.0261 28.8697 21.5809 28.5924 20.1867C28.315 18.7924 27.6305 17.5117 26.6253 16.5065C25.6201 15.5014 24.3394 14.8168 22.9452 14.5395C21.5509 14.2621 20.1058 14.4045 18.7924 14.9485C17.4791 15.4925 16.3566 16.4137 15.5668 17.5957C14.777 18.7777 14.3555 20.1673 14.3555 21.5889C14.3555 23.4951 15.1127 25.3233 16.4606 26.6712C17.8086 28.0191 19.6367 28.7764 21.543 28.7764Z" fill="#F9D835"/>
<path d="M21.5427 14.4014C20.0804 14.401 18.6529 14.847 17.451 15.6798C16.249 16.5125 15.3299 17.6923 14.8166 19.0615C14.3032 20.4306 14.22 21.9239 14.5781 23.3416C14.9362 24.7593 15.7185 26.0339 16.8205 26.9951L26.9524 16.8631C26.2794 16.0895 25.4482 15.4694 24.5149 15.0447C23.5816 14.62 22.568 14.4006 21.5427 14.4014Z" fill="#ECF2FB"/>
<path d="M21.543 28.7764C22.9645 28.7764 24.3542 28.3548 25.5361 27.5651C26.7181 26.7753 27.6393 25.6528 28.1834 24.3394C28.7274 23.0261 28.8697 21.5809 28.5924 20.1867C28.315 18.7924 27.6305 17.5117 26.6253 16.5065C25.6201 15.5014 24.3394 14.8168 22.9452 14.5395C21.5509 14.2621 20.1058 14.4045 18.7924 14.9485C17.4791 15.4925 16.3566 16.4137 15.5668 17.5957C14.777 18.7777 14.3555 20.1673 14.3555 21.5889C14.3555 23.4951 15.1127 25.3233 16.4606 26.6712C17.8086 28.0191 19.6367 28.7764 21.543 28.7764Z" stroke="black" stroke-width="1.25" stroke-linecap="round" stroke-linejoin="round"/>
<path d="M24.7465 19.502L21.2726 24.1427C21.1952 24.2454 21.0967 24.3303 20.9837 24.3918C20.8707 24.4532 20.7459 24.4897 20.6176 24.4987C20.4893 24.5078 20.3606 24.4893 20.24 24.4444C20.1195 24.3995 20.01 24.3293 19.9189 24.2385L18.1221 22.4416" stroke="black" stroke-width="1.25" stroke-linecap="round" stroke-linejoin="round"/>
</g>
<defs>
<clipPath id="clip0_0_329">
<rect width="30" height="30" fill="white"/>
</clipPath>
</defs>
</svg>
