<svg width="30" height="30" viewBox="0 0 30 30" fill="none" xmlns="http://www.w3.org/2000/svg">
<path d="M25.182 17.959V20.3548C25.182 21.9434 24.5509 23.4668 23.4277 24.5901C22.3044 25.7134 20.7809 26.3444 19.1924 26.3444H18.7851C17.6767 27.1239 16.3547 27.5423 14.9997 27.5423C13.6446 27.5423 12.3226 27.1239 11.2143 26.3444H10.807C9.21843 26.3444 7.69496 25.7134 6.57169 24.5901C5.44843 23.4668 4.81738 21.9434 4.81738 20.3548V17.959C4.81738 17.0059 5.19601 16.0918 5.86997 15.4178C6.54393 14.7439 7.45801 14.3652 8.41113 14.3652H9.01009C9.28846 14.7378 9.65007 15.0401 10.066 15.2481C10.482 15.4561 10.9409 15.564 11.4059 15.5632C11.7535 15.566 12.0986 15.5051 12.4242 15.3835L14.9997 17.959L17.5752 15.3835C17.9008 15.5051 18.2459 15.566 18.5934 15.5632C19.0585 15.564 19.5173 15.4561 19.9333 15.2481C20.3493 15.0401 20.7109 14.7378 20.9893 14.3652H21.5882C22.5413 14.3652 23.4554 14.7439 24.1294 15.4178C24.8033 16.0918 25.182 17.0059 25.182 17.959Z" fill="#ECF2FB"/>
<path d="M19.1924 23.1074H18.7851C17.6767 23.8869 16.3547 24.3053 14.9997 24.3053C13.6446 24.3053 12.3226 23.8869 11.2143 23.1074H10.807C9.29472 23.1039 7.84005 22.5272 6.73629 21.4934C5.63252 20.4597 4.96178 19.0459 4.85931 17.5371C4.8374 17.6768 4.8234 17.8175 4.81738 17.9588V20.3546C4.81738 21.1412 4.97231 21.92 5.27331 22.6467C5.57432 23.3734 6.01551 24.0337 6.57169 24.5899C7.69496 25.7131 9.21843 26.3442 10.807 26.3442H11.2143C12.3226 27.1237 13.6446 27.5421 14.9997 27.5421C16.3547 27.5421 17.6767 27.1237 18.7851 26.3442H19.1924C20.7809 26.3442 22.3044 25.7131 23.4277 24.5899C24.5509 23.4666 25.182 21.9431 25.182 20.3546V17.9588C25.1759 17.8175 25.1619 17.6768 25.14 17.5371C25.0376 19.0459 24.3668 20.4597 23.2631 21.4934C22.1593 22.5272 20.7046 23.1039 19.1924 23.1074Z" fill="#F9D835"/>
<path d="M25.182 17.959V20.3548C25.182 21.9434 24.5509 23.4668 23.4277 24.5901C22.3044 25.7134 20.7809 26.3444 19.1924 26.3444H18.7851C17.6767 27.1239 16.3547 27.5423 14.9997 27.5423C13.6446 27.5423 12.3226 27.1239 11.2143 26.3444H10.807C9.21843 26.3444 7.69496 25.7134 6.57169 24.5901C5.44843 23.4668 4.81738 21.9434 4.81738 20.3548V17.959C4.81738 17.0059 5.19601 16.0918 5.86997 15.4178C6.54393 14.7439 7.45801 14.3652 8.41113 14.3652H9.01009C9.28846 14.7378 9.65007 15.0401 10.066 15.2481C10.482 15.4561 10.9409 15.564 11.4059 15.5632C11.7535 15.566 12.0986 15.5051 12.4242 15.3835L14.9997 17.959L17.5752 15.3835C17.9008 15.5051 18.2459 15.566 18.5934 15.5632C19.0585 15.564 19.5173 15.4561 19.9333 15.2481C20.3493 15.0401 20.7109 14.7378 20.9893 14.3652H21.5882C22.5413 14.3652 23.4554 14.7439 24.1294 15.4178C24.8033 16.0918 25.182 17.0059 25.182 17.959Z" stroke="black" stroke-width="1.25" stroke-linecap="round" stroke-linejoin="round"/>
<path d="M22.0551 5.65636L20.39 6.29125V6.30323L15.4306 8.20792C15.1532 8.3157 14.8455 8.3157 14.5681 8.20792L9.60872 6.30323L7.21289 5.38084L14.5681 2.54178C14.8455 2.43399 15.1532 2.43399 15.4306 2.54178L22.0551 5.09334C22.1129 5.11432 22.1628 5.1526 22.1981 5.20296C22.2334 5.25333 22.2524 5.31334 22.2524 5.37485C22.2524 5.43635 22.2334 5.49637 22.1981 5.54673C22.1628 5.5971 22.1129 5.63537 22.0551 5.65636Z" fill="#F9D835" stroke="black" stroke-width="1.25" stroke-linecap="round" stroke-linejoin="round"/>
<path d="M20.3906 6.30273V10.172C20.0462 9.91293 19.6499 9.73126 19.2288 9.6394C18.8077 9.54754 18.3717 9.54766 17.9506 9.63974C17.5296 9.73183 17.1334 9.91371 16.7891 10.173C16.4448 10.4322 16.1605 10.7627 15.9556 11.1419C15.7507 11.5212 15.6302 11.9401 15.6021 12.3702C15.574 12.8003 15.639 13.2314 15.7928 13.634C15.9466 14.0366 16.1855 14.4013 16.4932 14.7032C16.8008 15.005 17.17 15.2369 17.5755 15.3829L15 17.9585L12.4245 15.3829C12.83 15.2369 13.1992 15.005 13.5068 14.7032C13.8145 14.4013 14.0534 14.0366 14.2072 13.634C14.361 13.2314 14.426 12.8003 14.3979 12.3702C14.3698 11.9401 14.2493 11.5212 14.0444 11.1419C13.8395 10.7627 13.5552 10.4322 13.2109 10.173C12.8666 9.91371 12.4704 9.73183 12.0494 9.63974C11.6283 9.54766 11.1923 9.54754 10.7712 9.6394C10.3501 9.73126 9.95382 9.91293 9.60938 10.172V6.30273L14.5687 8.20742C14.8461 8.31521 15.1539 8.31521 15.4313 8.20742L20.3906 6.30273Z" fill="#F9D835" stroke="black" stroke-width="1.25" stroke-linecap="round" stroke-linejoin="round"/>
<path d="M9.60938 6.303V6.29102" stroke="black" stroke-width="1.25" stroke-linecap="round" stroke-linejoin="round"/>
<path d="M7.21289 5.37598V9.56869" stroke="black" stroke-width="1.25" stroke-linecap="round" stroke-linejoin="round"/>
<path d="M21.5892 12.5683C21.587 13.216 21.377 13.8458 20.9902 14.3652C20.7119 14.7378 20.3503 15.0401 19.9343 15.2481C19.5183 15.4561 19.0595 15.564 18.5944 15.5631C18.2469 15.566 17.9018 15.505 17.5762 15.3834C17.0606 15.197 16.6061 14.8727 16.2622 14.4458C15.9183 14.0189 15.6982 13.5058 15.6258 12.9624C15.5535 12.419 15.6316 11.8662 15.8518 11.3642C16.072 10.8621 16.4258 10.4302 16.8745 10.1153C17.3233 9.80053 17.8499 9.61493 18.3969 9.57878C18.9439 9.54264 19.4904 9.65732 19.9767 9.91034C20.463 10.1634 20.8705 10.545 21.1548 11.0137C21.4392 11.4824 21.5894 12.0201 21.5892 12.5683Z" fill="white" stroke="black" stroke-width="1.25" stroke-linecap="round" stroke-linejoin="round"/>
<path d="M14.4017 12.568C14.4004 13.1833 14.2101 13.7832 13.8566 14.2867C13.5031 14.7903 13.0034 15.173 12.4251 15.3831C12.0996 15.5047 11.7544 15.5657 11.4069 15.5628C10.9418 15.5637 10.483 15.4558 10.067 15.2478C9.65104 15.0398 9.28944 14.7375 9.01107 14.3649C8.62427 13.8455 8.41433 13.2157 8.41211 12.568C8.41211 12.1748 8.48957 11.7853 8.64007 11.422C8.79058 11.0586 9.01117 10.7285 9.28926 10.4504C9.56736 10.1723 9.8975 9.95171 10.2608 9.80121C10.6242 9.6507 11.0136 9.57324 11.4069 9.57324C11.8002 9.57324 12.1896 9.6507 12.553 9.80121C12.9163 9.95171 13.2464 10.1723 13.5245 10.4504C13.8026 10.7285 14.0232 11.0586 14.1737 11.422C14.3242 11.7853 14.4017 12.1748 14.4017 12.568Z" fill="white" stroke="black" stroke-width="1.25" stroke-linecap="round" stroke-linejoin="round"/>
<path d="M11.4066 11.9648C11.2477 11.9648 11.0954 12.0279 10.983 12.1403C10.8707 12.2526 10.8076 12.4049 10.8076 12.5638" stroke="black" stroke-width="1.25" stroke-linecap="round" stroke-linejoin="round"/>
<path d="M12.0052 12.5638C12.0052 12.4049 11.9421 12.2526 11.8298 12.1403C11.7175 12.0279 11.5651 11.9648 11.4062 11.9648" stroke="black" stroke-width="1.25" stroke-linecap="round" stroke-linejoin="round"/>
<path d="M11.4062 13.1624C11.5651 13.1624 11.7175 13.0993 11.8298 12.987C11.9421 12.8747 12.0052 12.7223 12.0052 12.5635" stroke="black" stroke-width="1.25" stroke-linecap="round" stroke-linejoin="round"/>
<path d="M10.8076 12.5635C10.8076 12.7223 10.8707 12.8747 10.983 12.987C11.0954 13.0993 11.2477 13.1624 11.4066 13.1624" stroke="black" stroke-width="1.25" stroke-linecap="round" stroke-linejoin="round"/>
<path d="M18.5941 11.9648C18.4352 11.9648 18.2829 12.0279 18.1705 12.1403C18.0582 12.2526 17.9951 12.4049 17.9951 12.5638" stroke="black" stroke-width="1.25" stroke-linecap="round" stroke-linejoin="round"/>
<path d="M19.1927 12.5638C19.1927 12.4049 19.1296 12.2526 19.0173 12.1403C18.905 12.0279 18.7526 11.9648 18.5938 11.9648" stroke="black" stroke-width="1.25" stroke-linecap="round" stroke-linejoin="round"/>
<path d="M18.5938 13.1624C18.7526 13.1624 18.905 13.0993 19.0173 12.987C19.1296 12.8747 19.1927 12.7223 19.1927 12.5635" stroke="black" stroke-width="1.25" stroke-linecap="round" stroke-linejoin="round"/>
<path d="M17.9951 12.5635C17.9951 12.7223 18.0582 12.8747 18.1705 12.987C18.2829 13.0993 18.4352 13.1624 18.5941 13.1624" stroke="black" stroke-width="1.25" stroke-linecap="round" stroke-linejoin="round"/>
<path d="M8.41211 17.0605V20.9538C8.41102 22.0116 8.66528 23.054 9.15329 23.9925C9.64131 24.931 10.3487 25.7378 11.2152 26.3444" stroke="black" stroke-width="1.25" stroke-linecap="round" stroke-linejoin="round"/>
<path d="M21.5883 17.0605V20.9538C21.5894 22.0116 21.3351 23.054 20.8471 23.9925C20.3591 24.931 19.6517 25.7378 18.7852 26.3444" stroke="black" stroke-width="1.25" stroke-linecap="round" stroke-linejoin="round"/>
</svg>
