<svg width="30" height="30" viewBox="0 0 30 30" fill="none" xmlns="http://www.w3.org/2000/svg">
<g clip-path="url(#clip0_7449_5880)">
<path d="M24.583 10.806C24.5842 11.827 24.9574 12.8126 25.6327 13.5784C26.3081 14.3442 27.2394 14.8376 28.2522 14.9664C28.3977 14.9848 28.5313 15.056 28.6278 15.1664C28.7243 15.2768 28.7769 15.4187 28.7757 15.5653V19.1914C28.7757 19.3487 28.7448 19.5045 28.6845 19.6498C28.6243 19.7952 28.5361 19.9272 28.4249 20.0385C28.3136 20.1497 28.1816 20.2379 28.0362 20.2981C27.8909 20.3583 27.7351 20.3893 27.5778 20.3893H2.42157C2.10386 20.3893 1.79917 20.2631 1.57451 20.0385C1.34986 19.8138 1.22365 19.5091 1.22365 19.1914V15.5605C1.22248 15.4139 1.27513 15.272 1.37161 15.1616C1.46809 15.0512 1.6017 14.98 1.74714 14.9616C2.76121 14.8349 3.6941 14.3422 4.37046 13.576C5.04681 12.8099 5.42007 11.8232 5.42007 10.8012C5.42007 9.77924 5.04681 8.79247 4.37046 8.02635C3.6941 7.26024 2.76121 6.76753 1.74714 6.64083C1.6017 6.62237 1.46809 6.5512 1.37161 6.44081C1.27513 6.33042 1.22248 6.18848 1.22365 6.04187V2.42057C1.22365 2.10287 1.34986 1.79817 1.57451 1.57352C1.79917 1.34887 2.10386 1.22266 2.42157 1.22266H27.5778C27.7351 1.22266 27.8909 1.25364 28.0362 1.31384C28.1816 1.37404 28.3136 1.46228 28.4249 1.57352C28.5361 1.68475 28.6243 1.81681 28.6845 1.96215C28.7448 2.10749 28.7757 2.26326 28.7757 2.42057V6.05146C28.7769 6.19806 28.7243 6.34 28.6278 6.45039C28.5313 6.56078 28.3977 6.63195 28.2522 6.65042C27.2402 6.77907 26.3096 7.27181 25.6343 8.03657C24.9591 8.80133 24.5854 9.78578 24.583 10.806Z" fill="#F9D835"/>
<path d="M5.41636 10.806C5.41519 9.78496 5.042 8.79934 4.36664 8.03358C3.69128 7.26781 2.76002 6.77438 1.74714 6.64562C1.6017 6.62716 1.46809 6.55599 1.37161 6.4456C1.27513 6.33521 1.22248 6.19327 1.22365 6.04667V2.42057C1.22365 2.10287 1.34986 1.79817 1.57451 1.57352C1.79917 1.34887 2.10386 1.22266 2.42157 1.22266H27.5778C27.7351 1.22266 27.8909 1.25364 28.0362 1.31384C28.1816 1.37404 28.3136 1.46228 28.4249 1.57352C28.5361 1.68475 28.6243 1.81681 28.6845 1.96215C28.7448 2.10749 28.7757 2.26326 28.7757 2.42057V6.05146C28.7769 6.19806 28.7243 6.34 28.6278 6.45039C28.5313 6.56078 28.3977 6.63195 28.2522 6.65042C27.2402 6.77907 26.3096 7.27181 25.6343 8.03657C24.9591 8.80133 24.5854 9.78578 24.583 10.806H5.41636Z" fill="#ECF2FB"/>
<path d="M11.4059 20.3893H2.42157C2.10386 20.3893 1.79917 20.2631 1.57451 20.0385C1.34986 19.8138 1.22365 19.5091 1.22365 19.1914V15.5605C1.22248 15.4139 1.27513 15.272 1.37161 15.1616C1.46809 15.0512 1.6017 14.98 1.74714 14.9616C2.76121 14.8349 3.6941 14.3422 4.37046 13.576C5.04682 12.8099 5.42007 11.8232 5.42007 10.8012C5.42007 9.77924 5.04682 8.79247 4.37046 8.02635C3.6941 7.26024 2.76121 6.76753 1.74714 6.64083C1.6017 6.62237 1.46809 6.5512 1.37161 6.44081C1.27513 6.33042 1.22248 6.18848 1.22365 6.04187V2.42057C1.22365 2.10287 1.34986 1.79817 1.57451 1.57352C1.79917 1.34887 2.10386 1.22266 2.42157 1.22266H27.5778C27.7351 1.22266 27.8909 1.25364 28.0362 1.31384C28.1816 1.37404 28.3136 1.46228 28.4249 1.57352C28.5361 1.68475 28.6243 1.81681 28.6846 1.96215C28.7448 2.10749 28.7757 2.26326 28.7757 2.42057V6.05146C28.7769 6.19806 28.7243 6.34 28.6278 6.45039C28.5313 6.56078 28.3977 6.63195 28.2522 6.65042C27.6977 6.72011 27.1626 6.89998 26.6786 7.17945C26.1946 7.45893 25.7713 7.83236 25.4337 8.2778C25.096 8.72324 24.8509 9.23168 24.7126 9.77324C24.5744 10.3148 24.5458 10.8785 24.6285 11.4313" stroke="black" stroke-width="1.25" stroke-linecap="round" stroke-linejoin="round"/>
<path d="M20.0911 4.21745C20.0911 4.27668 20.0736 4.33458 20.0407 4.38383C20.0078 4.43308 19.961 4.47146 19.9063 4.49413C19.8515 4.5168 19.7913 4.52273 19.7332 4.51117C19.6751 4.49962 19.6218 4.47109 19.5799 4.42921C19.538 4.38733 19.5095 4.33397 19.4979 4.27587C19.4864 4.21778 19.4923 4.15756 19.515 4.10284C19.5377 4.04812 19.576 4.00135 19.6253 3.96844C19.6745 3.93553 19.7324 3.91797 19.7917 3.91797C19.831 3.91797 19.8699 3.92572 19.9063 3.94077C19.9426 3.95582 19.9756 3.97787 20.0034 4.00568C20.0312 4.03349 20.0533 4.06651 20.0683 4.10284C20.0834 4.13918 20.0911 4.17812 20.0911 4.21745Z" stroke="black" stroke-width="1.25" stroke-linecap="round" stroke-linejoin="round"/>
<path d="M20.0911 7.8112C20.0911 7.87043 20.0736 7.92833 20.0407 7.97758C20.0078 8.02683 19.961 8.06521 19.9063 8.08788C19.8515 8.11055 19.7913 8.11648 19.7332 8.10492C19.6751 8.09337 19.6218 8.06484 19.5799 8.02296C19.538 7.98108 19.5095 7.92772 19.4979 7.86962C19.4864 7.81153 19.4923 7.75131 19.515 7.69659C19.5377 7.64187 19.576 7.5951 19.6253 7.56219C19.6745 7.52928 19.7324 7.51172 19.7917 7.51172C19.831 7.51172 19.8699 7.51946 19.9063 7.53452C19.9426 7.54957 19.9756 7.57162 20.0034 7.59943C20.0312 7.62724 20.0533 7.66026 20.0683 7.69659C20.0834 7.73293 20.0911 7.77187 20.0911 7.8112Z" stroke="black" stroke-width="1.25" stroke-linecap="round" stroke-linejoin="round"/>
<path d="M20.0911 11.4049C20.0911 11.4642 20.0736 11.5221 20.0407 11.5713C20.0078 11.6206 19.961 11.659 19.9063 11.6816C19.8515 11.7043 19.7913 11.7102 19.7332 11.6987C19.6751 11.6871 19.6218 11.6586 19.5799 11.6167C19.538 11.5748 19.5095 11.5215 19.4979 11.4634C19.4864 11.4053 19.4923 11.3451 19.515 11.2903C19.5377 11.2356 19.576 11.1888 19.6253 11.1559C19.6745 11.123 19.7324 11.1055 19.7917 11.1055C19.831 11.1055 19.8699 11.1132 19.9063 11.1283C19.9426 11.1433 19.9756 11.1654 20.0034 11.1932C20.0312 11.221 20.0533 11.254 20.0683 11.2903C20.0834 11.3267 20.0911 11.3656 20.0911 11.4049Z" stroke="black" stroke-width="1.25" stroke-linecap="round" stroke-linejoin="round"/>
<path d="M14.4014 21.5898C14.4014 23.4961 15.1586 25.3243 16.5065 26.6722C17.8545 28.0201 19.6826 28.7773 21.5889 28.7773C23.4951 28.7773 25.3233 28.0201 26.6712 26.6722C28.0191 25.3243 28.7764 23.4961 28.7764 21.5898C28.7764 19.6836 28.0191 17.8554 26.6712 16.5075C25.3233 15.1596 23.4951 14.4023 21.5889 14.4023C19.6826 14.4023 17.8545 15.1596 16.5065 16.5075C15.1586 17.8554 14.4014 19.6836 14.4014 21.5898Z" fill="#F9D835"/>
<path d="M16.5057 26.6732C15.1577 25.3252 14.4004 23.4969 14.4004 21.5905C14.4004 19.684 15.1577 17.8557 16.5057 16.5077C17.8538 15.1597 19.6821 14.4023 21.5885 14.4023C23.4949 14.4023 25.3232 15.1597 26.6713 16.5077L16.5057 26.6732Z" fill="#F9D835"/>
<path d="M14.4014 21.5898C14.4014 23.4961 15.1586 25.3243 16.5065 26.6722C17.8545 28.0201 19.6826 28.7773 21.5889 28.7773C23.4951 28.7773 25.3233 28.0201 26.6712 26.6722C28.0191 25.3243 28.7764 23.4961 28.7764 21.5898C28.7764 19.6836 28.0191 17.8554 26.6712 16.5075C25.3233 15.1596 23.4951 14.4023 21.5889 14.4023C19.6826 14.4023 17.8545 15.1596 16.5065 16.5075C15.1586 17.8554 14.4014 19.6836 14.4014 21.5898Z" stroke="black" stroke-width="1.25" stroke-linecap="round" stroke-linejoin="round"/>
<path d="M24.7918 19.5L21.3119 24.1395C21.2345 24.2424 21.1359 24.3274 21.0229 24.3889C20.9098 24.4505 20.7849 24.4871 20.6565 24.4963C20.5281 24.5055 20.3993 24.487 20.2786 24.4422C20.158 24.3974 20.0483 24.3273 19.957 24.2366L18.1602 22.4397" stroke="black" stroke-width="1.25" stroke-linecap="round" stroke-linejoin="round"/>
</g>
<defs>
<clipPath id="clip0_7449_5880">
<rect width="30" height="30" fill="white"/>
</clipPath>
</defs>
</svg>
