<svg width="31" height="31" viewBox="0 0 31 31" fill="none" xmlns="http://www.w3.org/2000/svg">
<path d="M29.2757 22.0885C29.2757 22.2459 29.2447 22.4016 29.1845 22.547C29.1243 22.6923 29.0361 22.8244 28.9249 22.9356C28.8136 23.0468 28.6816 23.1351 28.5362 23.1953C28.3909 23.2555 28.2351 23.2865 28.0778 23.2865H14.9007L10.109 28.0781V23.2865H2.92155C2.60384 23.2865 2.29915 23.1602 2.07449 22.9356C1.84984 22.7109 1.72363 22.4062 1.72363 22.0885V4.11979C1.72363 3.80208 1.84984 3.49739 2.07449 3.27274C2.29915 3.04808 2.60384 2.92188 2.92155 2.92188H28.0778C28.2351 2.92187 28.3909 2.95286 28.5362 3.01306C28.6816 3.07326 28.8136 3.1615 28.9249 3.27274C29.0361 3.38397 29.1243 3.51603 29.1845 3.66137C29.2447 3.80671 29.2757 3.96248 29.2757 4.11979V22.0885Z" fill="#F9D835"/>
<path d="M27.1051 2.92188H2.92155C2.60384 2.92188 2.29915 3.04808 2.07449 3.27274C1.84984 3.49739 1.72363 3.80208 1.72363 4.11979V22.0885C1.72363 22.4062 1.84984 22.7109 2.07449 22.9356C2.29915 23.1602 2.60384 23.2865 2.92155 23.2865H6.74051L27.1051 2.92188Z" fill="#ECF2FB"/>
<path d="M29.2757 22.0885C29.2757 22.2459 29.2447 22.4016 29.1845 22.547C29.1243 22.6923 29.0361 22.8244 28.9249 22.9356C28.8136 23.0468 28.6816 23.1351 28.5362 23.1953C28.3909 23.2555 28.2351 23.2865 28.0778 23.2865H14.9007L10.109 28.0781V23.2865H2.92155C2.60384 23.2865 2.29915 23.1602 2.07449 22.9356C1.84984 22.7109 1.72363 22.4062 1.72363 22.0885V4.11979C1.72363 3.80208 1.84984 3.49739 2.07449 3.27274C2.29915 3.04808 2.60384 2.92188 2.92155 2.92188H28.0778C28.2351 2.92187 28.3909 2.95286 28.5362 3.01306C28.6816 3.07326 28.8136 3.1615 28.9249 3.27274C29.0361 3.38397 29.1243 3.51603 29.1845 3.66137C29.2447 3.80671 29.2757 3.96248 29.2757 4.11979V22.0885Z" stroke="black" stroke-width="1.25" stroke-linecap="round" stroke-linejoin="round"/>
<path d="M12.5049 10.1098C12.505 9.46191 12.6802 8.8261 13.0121 8.26964C13.3439 7.71319 13.82 7.25679 14.39 6.94876C14.96 6.64072 15.6027 6.49251 16.25 6.51979C16.8973 6.54708 17.5252 6.74885 18.0672 7.10375C18.6093 7.45866 19.0453 7.9535 19.3291 8.53591C19.613 9.11832 19.7341 9.76662 19.6797 10.4122C19.6253 11.0578 19.3973 11.6767 19.02 12.2034C18.6426 12.7301 18.1299 13.1449 17.5361 13.4041C17.1087 13.5906 16.745 13.8979 16.4897 14.2881C16.2343 14.6784 16.0984 15.1347 16.0986 15.6011V16.0994" stroke="black" stroke-width="1.25" stroke-linecap="round" stroke-linejoin="round"/>
<path d="M16.0993 18.7939C16.1585 18.7939 16.2164 18.8115 16.2657 18.8444C16.3149 18.8773 16.3533 18.9241 16.376 18.9788C16.3986 19.0335 16.4046 19.0938 16.393 19.1518C16.3815 19.2099 16.3529 19.2633 16.311 19.3052C16.2692 19.3471 16.2158 19.3756 16.1577 19.3871C16.0996 19.3987 16.0394 19.3928 15.9847 19.3701C15.93 19.3474 15.8832 19.3091 15.8503 19.2598C15.8174 19.2106 15.7998 19.1527 15.7998 19.0934C15.7998 19.014 15.8314 18.9378 15.8875 18.8817C15.9437 18.8255 16.0199 18.7939 16.0993 18.7939Z" stroke="black" stroke-width="1.25" stroke-linecap="round" stroke-linejoin="round"/>
</svg>
