<svg width="30" height="30" viewBox="0 0 30 30" fill="none" xmlns="http://www.w3.org/2000/svg">
<path d="M3.01465 13.8034C3.01465 16.9805 4.27674 20.0274 6.52327 22.2739C8.76979 24.5205 11.8167 25.7826 14.9938 25.7826C18.1709 25.7826 21.2178 24.5205 23.4644 22.2739C25.7109 20.0274 26.973 16.9805 26.973 13.8034C26.973 10.6263 25.7109 7.57937 23.4644 5.33284C21.2178 3.08631 18.1709 1.82422 14.9938 1.82422C11.8167 1.82422 8.76979 3.08631 6.52327 5.33284C4.27674 7.57937 3.01465 10.6263 3.01465 13.8034Z" fill="#ECF2FB"/>
<path d="M25.1818 11.2448V17.7531C25.1817 18.0342 25.0835 18.3065 24.9042 18.523C24.7249 18.7394 24.4757 18.8866 24.1995 18.939L21.588 19.4182H17.1438L17.4552 17.5494L19.5037 17.202L19.863 15.1536L16.7485 12.039L13.0589 13.2489C12.8555 13.3167 12.6347 13.3106 12.4353 13.2318C12.2359 13.1529 12.0707 13.0063 11.9688 12.8177C11.8657 12.6287 11.8309 12.41 11.8702 12.1984C11.9095 11.9868 12.0204 11.7951 12.1844 11.6557L14.4844 9.77496L16.5807 8.04996C16.8266 7.84472 17.1234 7.70966 17.4396 7.65906C17.7559 7.60846 18.08 7.64418 18.3776 7.76246L24.4151 10.1343C24.6403 10.2201 24.8341 10.3722 24.9709 10.5705C25.1078 10.7688 25.1813 11.0039 25.1818 11.2448Z" fill="#ECF2FB"/>
<path d="M19.8656 15.1524L19.5062 17.2008L17.4578 17.5482L17.1463 19.417H17.1344L17.1104 19.5967L15.062 19.9441L14.8583 21.1659C14.8129 21.4085 14.6945 21.6314 14.519 21.8048C14.3434 21.9782 14.1191 22.0938 13.876 22.1363L13.2771 22.2441C13.0874 22.2748 12.8931 22.2605 12.7099 22.2022C12.5268 22.1439 12.36 22.0434 12.2229 21.9086L7.93197 17.6201L4.81738 17.0211V9.83365L7.81217 9.23469L11.4059 7.73729C11.6254 7.64801 11.8663 7.62539 12.0985 7.67226C12.3307 7.71913 12.544 7.83342 12.7117 8.00083L14.4846 9.77375L12.1846 11.6545C12.0206 11.7939 11.9097 11.9856 11.8704 12.1972C11.8311 12.4088 11.8659 12.6275 11.9689 12.8165C12.0709 13.0051 12.2361 13.1517 12.4355 13.2305C12.6349 13.3094 12.8556 13.3155 13.059 13.2477L16.7486 12.0378L19.8656 15.1524Z" fill="#ECF2FB"/>
<path d="M19.8346 15.3335L19.5064 17.2022L17.4579 17.5484L17.1465 19.4172H21.5884L24.1998 18.938C24.4758 18.8856 24.7249 18.7387 24.9042 18.5224C25.0835 18.3062 25.1817 18.0342 25.1821 17.7533V13.6133C23.4845 14.4231 21.686 15.0016 19.8346 15.3335Z" fill="#ECF2FB"/>
<path d="M15.4405 15.7432C11.7392 15.7884 8.08593 14.9015 4.81738 13.1641V17.0214L7.93197 17.6203L12.2205 21.9089C12.3573 22.044 12.5241 22.145 12.7073 22.2035C12.8904 22.262 13.0849 22.2764 13.2747 22.2455L13.8736 22.1365C14.1168 22.0942 14.3412 21.9786 14.5168 21.8052C14.6924 21.6317 14.8107 21.4088 14.8559 21.1661L15.0596 19.9443L17.108 19.5981L17.132 19.4172H17.1439L17.4554 17.5484L19.5038 17.2022L19.8321 15.3335C18.3837 15.6034 16.9138 15.7405 15.4405 15.7432Z" fill="#ECF2FB"/>
<path d="M17.9968 11.6328L16.751 12.0401" stroke="black" stroke-width="1.25" stroke-linecap="round" stroke-linejoin="round"/>
<path d="M25.1818 11.2448V17.7531C25.1817 18.0342 25.0835 18.3065 24.9042 18.523C24.7249 18.7394 24.4757 18.8866 24.1995 18.939L21.588 19.4182H17.1438L17.4552 17.5494L19.5037 17.202L19.863 15.1536L16.7485 12.039L13.0589 13.2489C12.8555 13.3167 12.6347 13.3106 12.4353 13.2318C12.2359 13.1529 12.0707 13.0063 11.9688 12.8177C11.8657 12.6287 11.8309 12.41 11.8702 12.1984C11.9095 11.9868 12.0204 11.7951 12.1844 11.6557L14.4844 9.77496L16.5807 8.04996C16.8266 7.84472 17.1234 7.70966 17.4396 7.65906C17.7559 7.60846 18.08 7.64418 18.3776 7.76246L24.4151 10.1343C24.6403 10.2201 24.8341 10.3722 24.9709 10.5705C25.1078 10.7688 25.1813 11.0039 25.1818 11.2448Z" stroke="black" stroke-width="1.25" stroke-linecap="round" stroke-linejoin="round"/>
<path d="M19.8656 15.1524L19.5062 17.2008L17.4578 17.5482L17.1463 19.417H17.1344L17.1104 19.5967L15.062 19.9441L14.8583 21.1659C14.8129 21.4085 14.6945 21.6314 14.519 21.8048C14.3434 21.9782 14.1191 22.0938 13.876 22.1363L13.2771 22.2441C13.0874 22.2748 12.8931 22.2605 12.7099 22.2022C12.5268 22.1439 12.36 22.0434 12.2229 21.9086L7.93197 17.6201L4.81738 17.0211V9.83365L7.81217 9.23469L11.4059 7.73729C11.6254 7.64801 11.8663 7.62539 12.0985 7.67226C12.3307 7.71913 12.544 7.83342 12.7117 8.00083L14.4846 9.77375L12.1846 11.6545C12.0206 11.7939 11.9097 11.9856 11.8704 12.1972C11.8311 12.4088 11.8659 12.6275 11.9689 12.8165C12.0709 13.0051 12.2361 13.1517 12.4355 13.2305C12.6349 13.3094 12.8556 13.3155 13.059 13.2477L16.7486 12.0378L19.8656 15.1524Z" stroke="black" stroke-width="1.25" stroke-linecap="round" stroke-linejoin="round"/>
<path d="M1.22363 8.03125H3.61947C3.93717 8.03125 4.24187 8.15746 4.46652 8.38211C4.69117 8.60676 4.81738 8.91146 4.81738 9.22917V17.6146C4.81738 17.9323 4.69117 18.237 4.46652 18.4616C4.24187 18.6863 3.93717 18.8125 3.61947 18.8125H1.22363V8.03125Z" fill="#F9D835" stroke="black" stroke-width="1.25" stroke-linecap="round" stroke-linejoin="round"/>
<path d="M26.3805 9.22656H28.7764V20.0078H26.3805C26.0628 20.0078 25.7581 19.8816 25.5335 19.6569C25.3088 19.4323 25.1826 19.1276 25.1826 18.8099V10.4245C25.1826 10.1068 25.3088 9.80208 25.5335 9.57742C25.7581 9.35277 26.0628 9.22656 26.3805 9.22656Z" fill="#F9D835" stroke="black" stroke-width="1.25" stroke-linecap="round" stroke-linejoin="round"/>
</svg>
