<svg width="31" height="30" viewBox="0 0 31 30" fill="none" xmlns="http://www.w3.org/2000/svg">
<path d="M22.0889 16.3409C23.9301 16.5335 25.7854 16.1447 27.3945 15.2293C27.4698 15.1842 27.5343 15.1231 27.5835 15.0503C27.6326 14.9775 27.6651 14.8948 27.6787 14.808C27.6923 14.7213 27.6866 14.6326 27.6622 14.5483C27.6377 14.4639 27.595 14.386 27.537 14.32C26.9297 13.6276 26.5092 12.7424 26.3259 10.0399C25.9869 5.02061 22.6016 3.25488 19.6931 3.25488C16.7845 3.25488 13.3992 5.02061 13.0602 10.0399C12.8769 12.7424 12.4612 13.6276 11.8491 14.32C11.7912 14.386 11.7484 14.4639 11.7239 14.5483C11.6995 14.6326 11.6938 14.7213 11.7074 14.808C11.721 14.8948 11.7535 14.9775 11.8027 15.0503C11.8518 15.1231 11.9163 15.1842 11.9916 15.2293C13.6007 16.1447 15.456 16.5335 17.2972 16.3409" fill="#F9D835"/>
<path d="M11.9924 15.2293C12.1901 15.349 12.3889 15.4545 12.5914 15.5527C12.8684 14.5893 13.0265 13.5956 13.0622 12.5938C13.4012 7.57457 16.7865 5.80884 19.695 5.80884C22.6036 5.80884 25.9865 7.57337 26.3255 12.5938C26.3612 13.5956 26.5193 14.5893 26.7963 15.5527C26.9963 15.4545 27.1952 15.3479 27.3952 15.2293C27.4706 15.1842 27.5351 15.1231 27.5842 15.0503C27.6334 14.9775 27.6659 14.8948 27.6795 14.808C27.6931 14.7213 27.6874 14.6326 27.663 14.5483C27.6385 14.4639 27.5957 14.386 27.5378 14.32C26.9305 13.6276 26.51 12.7424 26.3267 10.0399C25.9877 5.02061 22.6024 3.25488 19.6938 3.25488C16.7853 3.25488 13.3988 5.02061 13.0598 10.0399C12.8765 12.7424 12.4608 13.6276 11.8487 14.32C11.7908 14.3861 11.7481 14.4641 11.7238 14.5485C11.6994 14.6329 11.6938 14.7216 11.7075 14.8083C11.7213 14.8951 11.7539 14.9778 11.8031 15.0505C11.8524 15.1233 11.917 15.1843 11.9924 15.2293Z" fill="#ECF2FB"/>
<path d="M22.9099 18.2423C22.6965 18.1763 22.5061 18.0513 22.3607 17.8817C22.2153 17.7121 22.1208 17.5049 22.0881 17.284V15.4212C22.0881 15.1349 22.3636 14.8618 22.5757 14.6689C22.9754 14.3308 23.2989 13.9116 23.5246 13.4391C23.7503 12.9666 23.8732 12.4516 23.885 11.9281V9.37772C22.2567 9.13324 20.7696 8.31447 19.6923 7.06934C18.6149 8.31447 17.1278 9.13324 15.4996 9.37772V11.9281C15.5113 12.4517 15.6342 12.9669 15.8602 13.4394C16.0861 13.9119 16.4099 14.331 16.8101 14.6689C17.0209 14.8618 17.2964 15.1349 17.2964 15.4212V17.2852C17.2637 17.5061 17.1692 17.7133 17.0238 17.8829C16.8784 18.0525 16.688 18.1775 16.4747 18.2435C14.9301 18.8304 13.4507 19.5763 12.0603 20.4692C11.4096 20.9249 10.8878 21.5412 10.5458 22.2583C10.2039 22.9754 10.0534 23.7688 10.1089 24.5613V26.9787H29.2756V24.5613C29.3321 23.7685 29.182 22.9746 28.84 22.2572C28.4979 21.5398 27.9757 20.9233 27.3242 20.468C25.9339 19.5751 24.4545 18.8292 22.9099 18.2423Z" fill="#F9D835"/>
<path d="M22.0882 23.5217C22.088 22.8005 21.8708 22.0961 21.4648 21.5001C21.0589 20.904 20.4831 20.4439 19.8122 20.1795L14.3018 17.9945V14.9997C14.3018 14.9997 16.0986 14.4007 16.0986 11.4059C17.0881 11.4059 17.0881 9.01009 16.0986 9.01009C16.0986 8.7166 17.1133 6.48009 16.6976 4.81738C16.0986 2.42155 9.51009 2.42155 8.91113 4.81738C5.91634 4.21842 7.71322 8.60879 7.71322 9.01009C6.72374 9.01009 6.72374 11.4059 7.71322 11.4059C7.71322 14.4007 9.51009 14.9997 9.51009 14.9997V17.9945L3.98889 20.1926C3.32057 20.4585 2.7474 20.9189 2.34355 21.5141C1.9397 22.1093 1.72375 22.812 1.72363 23.5312V26.9788H22.0882V23.5217Z" fill="#ECF2FB"/>
<path d="M8.91173 7.12936C9.4999 4.77665 15.8477 4.73952 16.6455 7.00957C16.823 6.29147 16.841 5.54319 16.6982 4.81738C16.0992 2.42155 9.51068 2.42155 8.91173 4.81738C6.89803 4.41488 7.05136 6.26566 7.36761 7.64447C7.59402 7.20483 8.04923 6.95686 8.91173 7.12936Z" fill="white"/>
<path d="M3.98889 22.5053L8.00072 20.9085C8.44631 20.731 8.82838 20.4239 9.09748 20.0268C9.36658 19.6298 9.51032 19.1612 9.51009 18.6815V17.9951L3.98889 20.1933C3.32057 20.4592 2.7474 20.9195 2.34355 21.5147C1.9397 22.1099 1.72375 22.8126 1.72363 23.5319V25.8439C1.72375 25.1246 1.9397 24.4219 2.34355 23.8267C2.7474 23.2315 3.32057 22.7712 3.98889 22.5053Z" fill="white"/>
<path d="M19.8122 20.1801L14.3018 17.9951V18.6791C14.3018 19.1592 14.4461 19.6281 14.7159 20.0252C14.9856 20.4223 15.3685 20.7292 15.8147 20.9061L19.8122 22.4921C20.4831 22.7565 21.0589 23.2167 21.4648 23.8127C21.8708 24.4088 22.088 25.1131 22.0882 25.8343V23.5223C22.088 22.8012 21.8708 22.0968 21.4648 21.5007C21.0589 20.9047 20.4831 20.4445 19.8122 20.1801Z" fill="white"/>
<path d="M22.0882 23.5217C22.088 22.8005 21.8708 22.0961 21.4648 21.5001C21.0589 20.904 20.4831 20.4439 19.8122 20.1795L14.3018 17.9945V14.9997C14.3018 14.9997 16.0986 14.4007 16.0986 11.4059C17.0881 11.4059 17.0881 9.01009 16.0986 9.01009C16.0986 8.7166 17.1133 6.48009 16.6976 4.81738C16.0986 2.42155 9.51009 2.42155 8.91113 4.81738C5.91634 4.21842 7.71322 8.60879 7.71322 9.01009C6.72374 9.01009 6.72374 11.4059 7.71322 11.4059C7.71322 14.4007 9.51009 14.9997 9.51009 14.9997V17.9945L3.98889 20.1926C3.32057 20.4585 2.7474 20.9189 2.34355 21.5141C1.9397 22.1093 1.72375 22.812 1.72363 23.5312V26.9788H22.0882V23.5217Z" stroke="black" stroke-width="1.25" stroke-linecap="round" stroke-linejoin="round"/>
<path d="M22.0882 16.3409C23.9295 16.5331 25.7848 16.1439 27.3937 15.2281C27.4691 15.183 27.5336 15.1219 27.5827 15.0491C27.6319 14.9763 27.6644 14.8936 27.678 14.8068C27.6916 14.7201 27.6859 14.6314 27.6615 14.5471C27.637 14.4627 27.5942 14.3848 27.5363 14.3188C26.929 13.6264 26.5085 12.7412 26.3252 10.0399C25.9862 5.02061 22.6009 3.25488 19.6923 3.25488C19.3956 3.25491 19.0992 3.27331 18.8047 3.30999" stroke="black" stroke-width="1.25" stroke-linecap="round" stroke-linejoin="round"/>
<path d="M25.083 26.9787H29.2757V24.5613C29.3323 23.7683 29.1823 22.9743 28.8402 22.2566C28.4982 21.539 27.9759 20.9223 27.3243 20.4668C25.9339 19.5744 24.4545 18.8288 22.91 18.2423C22.6966 18.1763 22.5062 18.0513 22.3608 17.8817C22.2154 17.7121 22.1209 17.5049 22.0882 17.284V15.4212C22.0882 15.1349 22.3637 14.8618 22.5758 14.6677C22.9756 14.3298 23.2991 13.9109 23.5248 13.4386C23.7505 12.9663 23.8733 12.4514 23.8851 11.9281V9.37652C22.2568 9.13297 20.7695 8.31453 19.6924 7.06934" stroke="black" stroke-width="1.25" stroke-linecap="round" stroke-linejoin="round"/>
</svg>
