<svg width="31" height="31" viewBox="0 0 31 31" fill="none" xmlns="http://www.w3.org/2000/svg">
<path d="M10.109 29.276L10.708 22.0885H13.7028V17.8958C13.7028 16.3073 13.0718 14.7838 11.9485 13.6606C10.8252 12.5373 9.30175 11.9063 7.71322 11.9062C6.12468 11.9063 4.60121 12.5373 3.47794 13.6606C2.35468 14.7838 1.72363 16.3073 1.72363 17.8958V22.0885H4.71842L5.31738 29.276H10.109Z" fill="#ECF2FB"/>
<path d="M3.52051 5.91634C3.52051 7.02832 3.96224 8.09475 4.74852 8.88103C5.53481 9.66732 6.60124 10.109 7.71322 10.109C8.82519 10.109 9.89162 9.66732 10.6779 8.88103C11.4642 8.09475 11.9059 7.02832 11.9059 5.91634C11.9059 4.80437 11.4642 3.73793 10.6779 2.95165C9.89162 2.16536 8.82519 1.72363 7.71322 1.72363C6.60124 1.72363 5.53481 2.16536 4.74852 2.95165C3.96224 3.73793 3.52051 4.80437 3.52051 5.91634Z" fill="#ECF2FB"/>
<path d="M13.7028 17.8958V20.2917C13.7028 18.7031 13.0718 17.1797 11.9485 16.0564C10.8252 14.9331 9.30175 14.3021 7.71322 14.3021C6.12468 14.3021 4.60121 14.9331 3.47794 16.0564C2.35468 17.1797 1.72363 18.7031 1.72363 20.2917V17.8958C1.72363 16.3073 2.35468 14.7838 3.47794 13.6606C4.60121 12.5373 6.12468 11.9062 7.71322 11.9062C9.30175 11.9062 10.8252 12.5373 11.9485 13.6606C13.0718 14.7838 13.7028 16.3073 13.7028 17.8958Z" fill="white"/>
<path d="M11.906 5.91634C11.9076 6.32248 11.847 6.72648 11.7263 7.11426C11.4698 6.24891 10.9406 5.48964 10.2174 4.94967C9.49416 4.4097 8.61579 4.11796 7.71325 4.11796C6.81071 4.11796 5.93234 4.4097 5.20915 4.94967C4.48595 5.48964 3.95667 6.24891 3.70023 7.11426C3.57946 6.72648 3.51886 6.32248 3.52054 5.91634C3.52054 4.80437 3.96227 3.73793 4.74856 2.95165C5.53484 2.16536 6.60127 1.72363 7.71325 1.72363C8.82523 1.72363 9.89166 2.16536 10.6779 2.95165C11.4642 3.73793 11.906 4.80437 11.906 5.91634Z" fill="white"/>
<path d="M13.3818 15.9573C12.9235 14.6145 12.0034 13.478 10.7854 12.7502C9.56735 12.0225 8.13055 11.7508 6.7309 11.9835C5.33125 12.2162 4.05966 12.9382 3.14265 14.0209C2.22564 15.1036 1.72278 16.4767 1.72363 17.8956V22.0883H4.71843L5.31738 29.2758H10.109L10.708 22.0883H11.9059" stroke="black" stroke-width="1.25" stroke-linecap="round" stroke-linejoin="round"/>
<path d="M3.52051 5.91634C3.52051 7.02832 3.96224 8.09475 4.74852 8.88103C5.53481 9.66732 6.60124 10.109 7.71322 10.109C8.82519 10.109 9.89162 9.66732 10.6779 8.88103C11.4642 8.09475 11.9059 7.02832 11.9059 5.91634C11.9059 4.80437 11.4642 3.73793 10.6779 2.95165C9.89162 2.16536 8.82519 1.72363 7.71322 1.72363C6.60124 1.72363 5.53481 2.16536 4.74852 2.95165C3.96224 3.73793 3.52051 4.80437 3.52051 5.91634Z" stroke="black" stroke-width="1.25" stroke-linecap="round" stroke-linejoin="round"/>
<path d="M22.0889 29.2764C23.5104 29.2764 24.9 28.8548 26.082 28.0651C27.264 27.2753 28.1852 26.1528 28.7292 24.8394C29.2733 23.5261 29.4156 22.0809 29.1383 20.6867C28.8609 19.2924 28.1764 18.0117 27.1712 17.0065C26.166 16.0014 24.8853 15.3168 23.4911 15.0395C22.0968 14.7621 20.6517 14.9045 19.3383 15.4485C18.025 15.9925 16.9025 16.9137 16.1127 18.0957C15.3229 19.2777 14.9014 20.6673 14.9014 22.0889C14.9014 23.9951 15.6586 25.8233 17.0065 27.1712C18.3545 28.5191 20.1826 29.2764 22.0889 29.2764Z" fill="#F9D835"/>
<path d="M22.0886 14.9014C20.6257 14.9002 19.1974 15.3458 17.9946 16.1786C16.7919 17.0114 15.8722 18.1916 15.3586 19.5613C14.845 20.9311 14.7619 22.425 15.1205 23.8433C15.4791 25.2615 16.2623 26.5365 17.3652 27.4975L27.4972 17.3655C26.8246 16.5915 25.9937 15.971 25.0606 15.5459C24.1275 15.1208 23.114 14.901 22.0886 14.9014Z" fill="#ECF2FB"/>
<path d="M22.0889 29.2764C23.5104 29.2764 24.9 28.8548 26.082 28.0651C27.264 27.2753 28.1852 26.1528 28.7292 24.8394C29.2733 23.5261 29.4156 22.0809 29.1383 20.6867C28.8609 19.2924 28.1764 18.0117 27.1712 17.0065C26.166 16.0014 24.8853 15.3168 23.4911 15.0395C22.0968 14.7621 20.6517 14.9045 19.3383 15.4485C18.025 15.9925 16.9025 16.9137 16.1127 18.0957C15.3229 19.2777 14.9014 20.6673 14.9014 22.0889C14.9014 23.9951 15.6586 25.8233 17.0065 27.1712C18.3545 28.5191 20.1826 29.2764 22.0889 29.2764Z" stroke="black" stroke-width="1.25" stroke-linecap="round" stroke-linejoin="round"/>
<path d="M25.2915 20.0039L21.8175 24.6446C21.7402 24.7475 21.6418 24.8326 21.5288 24.8941C21.4158 24.9557 21.2909 24.9922 21.1625 25.0013C21.0342 25.0104 20.9054 24.9918 20.7849 24.9468C20.6643 24.9018 20.5549 24.8314 20.4639 24.7405L18.667 22.9436" stroke="black" stroke-width="1.25" stroke-linecap="round" stroke-linejoin="round"/>
</svg>
