<svg width="30" height="30" viewBox="0 0 30 30" fill="none" xmlns="http://www.w3.org/2000/svg">
<path d="M27.6426 27.6746C27.7231 27.7841 27.7692 27.915 27.7748 28.0508C27.7805 28.1866 27.7455 28.3209 27.6744 28.4367C27.6032 28.5525 27.4992 28.6444 27.3755 28.7007C27.2518 28.757 27.1142 28.7751 26.9802 28.7527H3.02182C2.88779 28.7751 2.75014 28.757 2.62647 28.7007C2.5028 28.6444 2.39874 28.5525 2.32761 28.4367C2.25647 28.3209 2.2215 28.1866 2.22715 28.0508C2.23281 27.915 2.27885 27.7841 2.35937 27.6746L14.4655 3.46352C14.7602 2.87414 15.2418 2.87414 15.5365 3.46352L27.6426 27.6746Z" fill="#F9D835"/>
<path d="M3.02079 28.7467H4.81767L14.4645 9.4531C14.7592 8.86372 15.2407 8.86372 15.5354 9.4531L25.1822 28.7467H26.9791C27.1131 28.7691 27.2508 28.751 27.3745 28.6947C27.4981 28.6384 27.6022 28.5465 27.6733 28.4307C27.7445 28.3149 27.7794 28.1806 27.7738 28.0448C27.7681 27.9091 27.7221 27.7781 27.6416 27.6686L15.5354 3.46352C15.2407 2.87414 14.7592 2.87414 14.4645 3.46352L2.35834 27.6746C2.27984 27.7841 2.23549 27.9144 2.23087 28.0491C2.22625 28.1837 2.26158 28.3167 2.33241 28.4314C2.40323 28.546 2.50638 28.6371 2.62888 28.6932C2.75137 28.7493 2.88773 28.768 3.02079 28.7467Z" fill="#ECF2FB"/>
<path d="M27.6426 27.6746C27.7231 27.7841 27.7692 27.915 27.7748 28.0508C27.7805 28.1866 27.7455 28.3209 27.6744 28.4367C27.6032 28.5525 27.4992 28.6444 27.3755 28.7007C27.2518 28.757 27.1142 28.7751 26.9802 28.7527H3.02182C2.88779 28.7751 2.75014 28.757 2.62647 28.7007C2.5028 28.6444 2.39874 28.5525 2.32761 28.4367C2.25647 28.3209 2.2215 28.1866 2.22715 28.0508C2.23281 27.915 2.27885 27.7841 2.35937 27.6746L14.4655 3.46352C14.7602 2.87414 15.2418 2.87414 15.5365 3.46352L27.6426 27.6746Z" stroke="black" stroke-width="1.25" stroke-linecap="round" stroke-linejoin="round"/>
<path d="M15 20.9635V12.5781" stroke="black" stroke-width="1.25" stroke-linecap="round" stroke-linejoin="round"/>
<path d="M14.9881 23.3594C14.9491 23.36 14.9105 23.3684 14.8747 23.3841C14.839 23.3998 14.8067 23.4225 14.7798 23.4508C14.7529 23.4792 14.732 23.5126 14.7181 23.5491C14.7043 23.5857 14.698 23.6246 14.6994 23.6636C14.7025 23.7424 14.7359 23.8168 14.7926 23.8715C14.8493 23.9262 14.9249 23.9569 15.0037 23.9571H15.0097C15.0488 23.9565 15.0875 23.9481 15.1233 23.9323C15.1592 23.9165 15.1915 23.8937 15.2184 23.8653C15.2453 23.8368 15.2663 23.8032 15.28 23.7666C15.2937 23.7299 15.3 23.6908 15.2984 23.6517C15.2953 23.5739 15.2626 23.5002 15.2069 23.4459C15.1512 23.3915 15.0767 23.3605 14.9989 23.3594H14.9929" stroke="black" stroke-width="1.25" stroke-linecap="round" stroke-linejoin="round"/>
</svg>
