<svg width="30" height="30" viewBox="0 0 30 30" fill="none" xmlns="http://www.w3.org/2000/svg">
<g clip-path="url(#clip0_188_806)">
<path d="M28.7762 15.0001C28.7743 14.0397 28.4839 13.1021 27.9426 12.3087C27.4014 11.5154 26.6342 10.903 25.7406 10.5511C26.1257 9.67073 26.2364 8.69474 26.0582 7.75054C25.88 6.80635 25.4213 5.93782 24.7418 5.25838C24.0624 4.57895 23.1939 4.12019 22.2497 3.94201C21.3055 3.76383 20.3295 3.87451 19.4492 4.25959C19.0986 3.36509 18.4866 2.59702 17.6929 2.05561C16.8993 1.51421 15.9609 1.22461 15.0001 1.22461C14.0394 1.22461 13.1009 1.51421 12.3073 2.05561C11.5136 2.59702 10.9016 3.36509 10.5511 4.25959C9.67073 3.87451 8.69474 3.76383 7.75054 3.94201C6.80635 4.12019 5.93782 4.57895 5.25838 5.25838C4.57895 5.93782 4.12019 6.80635 3.94201 7.75054C3.76383 8.69474 3.87451 9.67073 4.25959 10.5511C3.36509 10.9016 2.59702 11.5136 2.05561 12.3073C1.51421 13.1009 1.22461 14.0394 1.22461 15.0001C1.22461 15.9609 1.51421 16.8993 2.05561 17.6929C2.59702 18.4866 3.36509 19.0986 4.25959 19.4492C3.87451 20.3295 3.76383 21.3055 3.94201 22.2497C4.12019 23.1939 4.57895 24.0624 5.25838 24.7418C5.93782 25.4213 6.80635 25.88 7.75054 26.0582C8.69474 26.2364 9.67073 26.1257 10.5511 25.7406C10.9016 26.6351 11.5136 27.4032 12.3073 27.9446C13.1009 28.486 14.0394 28.7756 15.0001 28.7756C15.9609 28.7756 16.8993 28.486 17.6929 27.9446C18.4866 27.4032 19.0986 26.6351 19.4492 25.7406C20.3295 26.1257 21.3055 26.2364 22.2497 26.0582C23.1939 25.88 24.0624 25.4213 24.7418 24.7418C25.4213 24.0624 25.88 23.1939 26.0582 22.2497C26.2364 21.3055 26.1257 20.3295 25.7406 19.4492C26.6342 19.0972 27.4014 18.4848 27.9426 17.6915C28.4839 16.8982 28.7743 15.9605 28.7762 15.0001Z" fill="#F9D835"/>
<path d="M25.7408 10.5513C26.1256 9.67091 26.2361 8.695 26.0578 7.7509C25.8795 6.8068 25.4208 5.93836 24.7415 5.25892C24.0622 4.57948 23.1939 4.1206 22.2498 3.94215C21.3057 3.76371 20.3298 3.874 19.4494 4.25862C19.0988 3.36411 18.4868 2.59604 17.6931 2.05464C16.8995 1.51323 15.961 1.22363 15.0003 1.22363C14.0396 1.22363 13.1011 1.51323 12.3075 2.05464C11.5138 2.59604 10.9018 3.36411 10.5512 4.25862C9.67079 3.874 8.69486 3.76371 7.75079 3.94215C6.80673 4.1206 5.93838 4.57948 5.25907 5.25892C4.57976 5.93836 4.12104 6.8068 3.94277 7.7509C3.76451 8.695 3.87498 9.67091 4.25977 10.5513C3.51597 10.8407 2.85683 11.3124 2.34295 11.923C1.82907 12.5337 1.47693 13.2638 1.31889 14.0461C1.16086 14.8284 1.20199 15.6379 1.43852 16.4001C1.67506 17.1624 2.09939 17.853 2.67253 18.4084C2.75024 15.1904 4.08316 12.1304 6.3866 9.88189C8.69003 7.63341 11.7814 6.37474 15.0003 6.37474C18.2192 6.37474 21.3105 7.63341 23.614 9.88189C25.9174 12.1304 27.2503 15.1904 27.3281 18.4084C27.9012 17.853 28.3255 17.1624 28.5621 16.4001C28.7986 15.6379 28.8397 14.8284 28.6817 14.0461C28.5236 13.2638 28.1715 12.5337 27.6576 11.923C27.1437 11.3124 26.4846 10.8407 25.7408 10.5513Z" fill="#ECF2FB"/>
<path d="M28.7762 15.0001C28.7743 14.0397 28.4839 13.1021 27.9426 12.3087C27.4014 11.5154 26.6342 10.903 25.7406 10.5511C26.1257 9.67073 26.2364 8.69474 26.0582 7.75054C25.88 6.80635 25.4213 5.93782 24.7418 5.25838C24.0624 4.57895 23.1939 4.12019 22.2497 3.94201C21.3055 3.76383 20.3295 3.87451 19.4492 4.25959C19.0986 3.36509 18.4866 2.59702 17.6929 2.05561C16.8993 1.51421 15.9609 1.22461 15.0001 1.22461C14.0394 1.22461 13.1009 1.51421 12.3073 2.05561C11.5136 2.59702 10.9016 3.36509 10.5511 4.25959C9.67073 3.87451 8.69474 3.76383 7.75054 3.94201C6.80635 4.12019 5.93782 4.57895 5.25838 5.25838C4.57895 5.93782 4.12019 6.80635 3.94201 7.75054C3.76383 8.69474 3.87451 9.67073 4.25959 10.5511C3.36509 10.9016 2.59702 11.5136 2.05561 12.3073C1.51421 13.1009 1.22461 14.0394 1.22461 15.0001C1.22461 15.9609 1.51421 16.8993 2.05561 17.6929C2.59702 18.4866 3.36509 19.0986 4.25959 19.4492C3.87451 20.3295 3.76383 21.3055 3.94201 22.2497C4.12019 23.1939 4.57895 24.0624 5.25838 24.7418C5.93782 25.4213 6.80635 25.88 7.75054 26.0582C8.69474 26.2364 9.67073 26.1257 10.5511 25.7406C10.9016 26.6351 11.5136 27.4032 12.3073 27.9446C13.1009 28.486 14.0394 28.7756 15.0001 28.7756C15.9609 28.7756 16.8993 28.486 17.6929 27.9446C18.4866 27.4032 19.0986 26.6351 19.4492 25.7406C20.3295 26.1257 21.3055 26.2364 22.2497 26.0582C23.1939 25.88 24.0624 25.4213 24.7418 24.7418C25.4213 24.0624 25.88 23.1939 26.0582 22.2497C26.2364 21.3055 26.1257 20.3295 25.7406 19.4492C26.6342 19.0972 27.4014 18.4848 27.9426 17.6915C28.4839 16.8982 28.7743 15.9605 28.7762 15.0001Z" stroke="black" stroke-width="1.25" stroke-linecap="round" stroke-linejoin="round"/>
<path d="M10.8008 14.4014H16.7904" stroke="black" stroke-width="1.25" stroke-linecap="round" stroke-linejoin="round"/>
<path d="M17.9951 10.807C17.9951 10.1716 17.7427 9.56216 17.2934 9.11286C16.8441 8.66355 16.2347 8.41113 15.5993 8.41113C14.9639 8.41113 14.3545 8.66355 13.9052 9.11286C13.4559 9.56216 13.2035 10.1716 13.2035 10.807V16.1976C13.2035 18.1825 12.7926 20.3903 10.8076 20.3903H17.9951" stroke="black" stroke-width="1.25" stroke-linecap="round" stroke-linejoin="round"/>
</g>
<defs>
<clipPath id="clip0_188_806">
<rect width="30" height="30" fill="white"/>
</clipPath>
</defs>
</svg>
