<svg width="30" height="30" viewBox="0 0 30 30" fill="none" xmlns="http://www.w3.org/2000/svg">
<g clip-path="url(#clip0_188_837)">
<path d="M14.4005 28.776L11.6369 25.7285C11.3322 25.3621 11.1856 24.8896 11.2293 24.415C11.2729 23.9404 11.5034 23.5026 11.8699 23.1979C12.2363 22.8933 12.7088 22.7466 13.1834 22.7903C13.658 22.834 14.0958 23.0645 14.4005 23.4309L16.7963 26.1694V16.7969C16.7963 16.3203 16.9856 15.8633 17.3226 15.5263C17.6596 15.1893 18.1166 15 18.5932 15C19.0697 15 19.5268 15.1893 19.8637 15.5263C20.2007 15.8633 20.39 16.3203 20.39 16.7969V22.1875H23.9838C25.2546 22.1875 26.4734 22.6923 27.372 23.5909C28.2706 24.4896 28.7755 25.7083 28.7755 26.9792V28.776" fill="#ECF2FB"/>
<path d="M14.4005 28.776L11.6369 25.7285C11.3322 25.3621 11.1856 24.8896 11.2293 24.415C11.2729 23.9404 11.5034 23.5026 11.8699 23.1979C12.2363 22.8933 12.7088 22.7466 13.1834 22.7903C13.658 22.834 14.0958 23.0645 14.4005 23.4309L16.7963 26.1694V16.7969C16.7963 16.3203 16.9856 15.8633 17.3226 15.5263C17.6596 15.1893 18.1166 15 18.5932 15C19.0697 15 19.5268 15.1893 19.8637 15.5263C20.2007 15.8633 20.39 16.3203 20.39 16.7969V22.1875H23.9838C25.2546 22.1875 26.4734 22.6923 27.372 23.5909C28.2706 24.4896 28.7755 25.7083 28.7755 26.9792V28.776" stroke="black" stroke-width="1.25" stroke-linecap="round" stroke-linejoin="round"/>
<path d="M19.1924 7.8125C19.7255 7.8125 20.2466 7.65442 20.6898 7.35826C21.1331 7.06209 21.4785 6.64114 21.6825 6.14864C21.8865 5.65614 21.9399 5.1142 21.8359 4.59136C21.7319 4.06852 21.4752 3.58826 21.0983 3.21132C20.7213 2.83437 20.2411 2.57767 19.7182 2.47367C19.1954 2.36967 18.6534 2.42304 18.1609 2.62704C17.6684 2.83105 17.2475 3.17651 16.9513 3.61975C16.6551 4.063 16.4971 4.58411 16.4971 5.11719C16.4971 5.47114 16.5668 5.82163 16.7022 6.14864C16.8377 6.47565 17.0362 6.77278 17.2865 7.02306C17.5368 7.27335 17.8339 7.47188 18.1609 7.60733C18.4879 7.74278 18.8384 7.8125 19.1924 7.8125Z" fill="#ECF2FB" stroke="black" stroke-width="1.25" stroke-linecap="round" stroke-linejoin="round"/>
<path d="M24.584 13.2022C24.2785 12.0043 23.5828 10.9424 22.6067 10.1839C21.6305 9.42541 20.4295 9.01367 19.1934 9.01367C17.9572 9.01367 16.7562 9.42541 15.7801 10.1839C14.8039 10.9424 14.1082 12.0043 13.8027 13.2022H24.584Z" fill="#F9D835" stroke="black" stroke-width="1.25" stroke-linecap="round" stroke-linejoin="round"/>
<path d="M6.61523 12.6045C7.14832 12.6045 7.66943 12.4464 8.11267 12.1503C8.55591 11.8541 8.90138 11.4331 9.10538 10.9406C9.30938 10.4481 9.36276 9.90619 9.25876 9.38335C9.15476 8.86051 8.89805 8.38025 8.52111 8.00331C8.14416 7.62636 7.6639 7.36966 7.14106 7.26566C6.61822 7.16166 6.07629 7.21503 5.58378 7.41904C5.09128 7.62304 4.67033 7.9685 4.37416 8.41175C4.078 8.85499 3.91992 9.3761 3.91992 9.90918C3.91992 10.624 4.20389 11.3096 4.70936 11.8151C5.21483 12.3205 5.90039 12.6045 6.61523 12.6045Z" fill="#ECF2FB" stroke="black" stroke-width="1.25" stroke-linecap="round" stroke-linejoin="round"/>
<path d="M12.0049 17.9942C11.6994 16.7963 11.0037 15.7343 10.0276 14.9759C9.05141 14.2174 7.85044 13.8057 6.61426 13.8057C5.37807 13.8057 4.1771 14.2174 3.20095 14.9759C2.2248 15.7343 1.52908 16.7963 1.22363 17.9942H12.0049Z" fill="#ECF2FB" stroke="black" stroke-width="1.25" stroke-linecap="round" stroke-linejoin="round"/>
<path d="M25.7809 1.22363L24.583 2.42155" stroke="black" stroke-width="1.25" stroke-linecap="round" stroke-linejoin="round"/>
<path d="M12.6045 1.22363L13.8024 2.42155" stroke="black" stroke-width="1.25" stroke-linecap="round" stroke-linejoin="round"/>
<path d="M26.2769 6.01562H24.583" stroke="black" stroke-width="1.25" stroke-linecap="round" stroke-linejoin="round"/>
<path d="M12.1084 6.01562H13.8023" stroke="black" stroke-width="1.25" stroke-linecap="round" stroke-linejoin="round"/>
</g>
<defs>
<clipPath id="clip0_188_837">
<rect width="30" height="30" fill="white"/>
</clipPath>
</defs>
</svg>
