<svg width="30" height="30" viewBox="0 0 30 30" fill="none" xmlns="http://www.w3.org/2000/svg">
<path d="M21.5889 16.3409C23.4301 16.5335 25.2854 16.1447 26.8945 15.2293C26.9698 15.1842 27.0343 15.1231 27.0835 15.0503C27.1326 14.9775 27.1651 14.8948 27.1787 14.808C27.1923 14.7213 27.1866 14.6326 27.1622 14.5483C27.1377 14.4639 27.095 14.386 27.037 14.32C26.4297 13.6276 26.0092 12.7424 25.8259 10.0399C25.4869 5.02061 22.1016 3.25488 19.1931 3.25488C16.2845 3.25488 12.8992 5.02061 12.5602 10.0399C12.3769 12.7424 11.9612 13.6276 11.3491 14.32C11.2912 14.386 11.2484 14.4639 11.2239 14.5483C11.1995 14.6326 11.1938 14.7213 11.2074 14.808C11.221 14.8948 11.2535 14.9775 11.3027 15.0503C11.3518 15.1231 11.4163 15.1842 11.4916 15.2293C13.1007 16.1447 14.956 16.5335 16.7972 16.3409" fill="#F9D835"/>
<path d="M11.4924 15.2293C11.6901 15.349 11.8889 15.4545 12.0914 15.5527C12.3684 14.5893 12.5265 13.5956 12.5622 12.5938C12.9012 7.57457 16.2865 5.80884 19.195 5.80884C22.1036 5.80884 25.4865 7.57337 25.8255 12.5938C25.8612 13.5956 26.0193 14.5893 26.2963 15.5527C26.4963 15.4545 26.6952 15.3479 26.8952 15.2293C26.9706 15.1842 27.0351 15.1231 27.0842 15.0503C27.1334 14.9775 27.1659 14.8948 27.1795 14.808C27.1931 14.7213 27.1874 14.6326 27.163 14.5483C27.1385 14.4639 27.0957 14.386 27.0378 14.32C26.4305 13.6276 26.01 12.7424 25.8267 10.0399C25.4877 5.02061 22.1024 3.25488 19.1938 3.25488C16.2853 3.25488 12.8988 5.02061 12.5598 10.0399C12.3765 12.7424 11.9608 13.6276 11.3487 14.32C11.2908 14.3861 11.2481 14.4641 11.2238 14.5485C11.1994 14.6329 11.1938 14.7216 11.2075 14.8083C11.2213 14.8951 11.2539 14.9778 11.3031 15.0505C11.3524 15.1233 11.417 15.1843 11.4924 15.2293Z" fill="#ECF2FB"/>
<path d="M22.4099 18.2423C22.1965 18.1763 22.0061 18.0513 21.8607 17.8817C21.7153 17.7121 21.6208 17.5049 21.5881 17.284V15.4212C21.5881 15.1349 21.8636 14.8618 22.0757 14.6689C22.4754 14.3308 22.7989 13.9116 23.0246 13.4391C23.2503 12.9666 23.3732 12.4516 23.385 11.9281V9.37772C21.7567 9.13324 20.2696 8.31447 19.1923 7.06934C18.1149 8.31447 16.6278 9.13324 14.9996 9.37772V11.9281C15.0113 12.4517 15.1342 12.9669 15.3602 13.4394C15.5861 13.9119 15.9099 14.331 16.3101 14.6689C16.5209 14.8618 16.7964 15.1349 16.7964 15.4212V17.2852C16.7637 17.5061 16.6692 17.7133 16.5238 17.8829C16.3784 18.0525 16.188 18.1775 15.9747 18.2435C14.4301 18.8304 12.9507 19.5763 11.5603 20.4692C10.9096 20.9249 10.3878 21.5412 10.0458 22.2583C9.70387 22.9754 9.55336 23.7688 9.60893 24.5613V26.9787H28.7756V24.5613C28.8321 23.7685 28.682 22.9746 28.34 22.2572C27.9979 21.5398 27.4757 20.9233 26.8242 20.468C25.4339 19.5751 23.9545 18.8292 22.4099 18.2423Z" fill="#F9D835"/>
<path d="M21.5882 23.5217C21.588 22.8005 21.3708 22.0961 20.9648 21.5001C20.5589 20.904 19.9831 20.4439 19.3122 20.1795L13.8018 17.9945V14.9997C13.8018 14.9997 15.5986 14.4007 15.5986 11.4059C16.5881 11.4059 16.5881 9.01009 15.5986 9.01009C15.5986 8.7166 16.6133 6.48009 16.1976 4.81738C15.5986 2.42155 9.01009 2.42155 8.41113 4.81738C5.41634 4.21842 7.21322 8.60879 7.21322 9.01009C6.22374 9.01009 6.22374 11.4059 7.21322 11.4059C7.21322 14.4007 9.01009 14.9997 9.01009 14.9997V17.9945L3.48889 20.1926C2.82057 20.4585 2.2474 20.9189 1.84355 21.5141C1.4397 22.1093 1.22375 22.812 1.22363 23.5312V26.9788H21.5882V23.5217Z" fill="#ECF2FB"/>
<path d="M8.41173 7.12936C8.9999 4.77665 15.3477 4.73952 16.1455 7.00957C16.323 6.29147 16.341 5.54319 16.1982 4.81738C15.5992 2.42155 9.01068 2.42155 8.41173 4.81738C6.39803 4.41488 6.55136 6.26566 6.86761 7.64447C7.09402 7.20483 7.54923 6.95686 8.41173 7.12936Z" fill="white"/>
<path d="M3.48889 22.5053L7.50072 20.9085C7.94631 20.731 8.32838 20.4239 8.59748 20.0268C8.86658 19.6298 9.01032 19.1612 9.01009 18.6815V17.9951L3.48889 20.1933C2.82057 20.4592 2.2474 20.9195 1.84355 21.5147C1.4397 22.1099 1.22375 22.8126 1.22363 23.5319V25.8439C1.22375 25.1246 1.4397 24.4219 1.84355 23.8267C2.2474 23.2315 2.82057 22.7712 3.48889 22.5053Z" fill="white"/>
<path d="M19.3122 20.1801L13.8018 17.9951V18.6791C13.8018 19.1592 13.9461 19.6281 14.2159 20.0252C14.4856 20.4223 14.8685 20.7292 15.3147 20.9061L19.3122 22.4921C19.9831 22.7565 20.5589 23.2167 20.9648 23.8127C21.3708 24.4088 21.588 25.1131 21.5882 25.8343V23.5223C21.588 22.8012 21.3708 22.0968 20.9648 21.5007C20.5589 20.9047 19.9831 20.4445 19.3122 20.1801Z" fill="white"/>
<path d="M21.5882 23.5217C21.588 22.8005 21.3708 22.0961 20.9648 21.5001C20.5589 20.904 19.9831 20.4439 19.3122 20.1795L13.8018 17.9945V14.9997C13.8018 14.9997 15.5986 14.4007 15.5986 11.4059C16.5881 11.4059 16.5881 9.01009 15.5986 9.01009C15.5986 8.7166 16.6133 6.48009 16.1976 4.81738C15.5986 2.42155 9.01009 2.42155 8.41113 4.81738C5.41634 4.21842 7.21322 8.60879 7.21322 9.01009C6.22374 9.01009 6.22374 11.4059 7.21322 11.4059C7.21322 14.4007 9.01009 14.9997 9.01009 14.9997V17.9945L3.48889 20.1926C2.82057 20.4585 2.2474 20.9189 1.84355 21.5141C1.4397 22.1093 1.22375 22.812 1.22363 23.5312V26.9788H21.5882V23.5217Z" stroke="black" stroke-width="1.25" stroke-linecap="round" stroke-linejoin="round"/>
<path d="M21.5882 16.3409C23.4295 16.5331 25.2848 16.1439 26.8937 15.2281C26.9691 15.183 27.0336 15.1219 27.0827 15.0491C27.1319 14.9763 27.1644 14.8936 27.178 14.8068C27.1916 14.7201 27.1859 14.6314 27.1615 14.5471C27.137 14.4627 27.0942 14.3848 27.0363 14.3188C26.429 13.6264 26.0085 12.7412 25.8252 10.0399C25.4862 5.02061 22.1009 3.25488 19.1923 3.25488C18.8956 3.25491 18.5992 3.27331 18.3047 3.30999" stroke="black" stroke-width="1.25" stroke-linecap="round" stroke-linejoin="round"/>
<path d="M24.583 26.9787H28.7757V24.5613C28.8323 23.7683 28.6823 22.9743 28.3402 22.2566C27.9982 21.539 27.4759 20.9223 26.8243 20.4668C25.4339 19.5744 23.9545 18.8288 22.41 18.2423C22.1966 18.1763 22.0062 18.0513 21.8608 17.8817C21.7154 17.7121 21.6209 17.5049 21.5882 17.284V15.4212C21.5882 15.1349 21.8637 14.8618 22.0758 14.6677C22.4756 14.3298 22.7991 13.9109 23.0248 13.4386C23.2505 12.9663 23.3733 12.4514 23.3851 11.9281V9.37652C21.7568 9.13297 20.2695 8.31453 19.1924 7.06934" stroke="black" stroke-width="1.25" stroke-linecap="round" stroke-linejoin="round"/>
</svg>
