<svg width="30" height="30" viewBox="0 0 30 30" fill="none" xmlns="http://www.w3.org/2000/svg">
<g clip-path="url(#clip0_188_813)">
<path d="M12.436 12.0186C7.88514 6.31049 13.7717 0.614396 18.5873 3.02101C19.0974 2.44659 19.7252 1.98878 20.428 1.67871C21.1308 1.36865 21.8921 1.2136 22.6602 1.22414C30.4144 1.22414 31.1655 13.2033 22.78 13.2033C22.4588 13.7186 22.0198 14.1502 21.4992 14.4626C20.9785 14.775 20.3911 14.9593 19.7852 15.0002C19.1678 15.0115 18.5597 14.849 18.0301 14.5313C17.5006 14.2136 17.071 13.7534 16.7905 13.2033C16.0243 13.4014 15.2197 13.3963 14.4561 13.1885C13.6925 12.9807 12.9962 12.5775 12.436 12.0186Z" fill="#F9D835"/>
<path d="M19.7912 4.81791C23.6652 4.81791 27.035 6.09129 28.7552 7.96483C28.8525 7.11057 28.7669 6.24537 28.5039 5.42678C28.2409 4.6082 27.8066 3.85501 27.2298 3.21733C26.6531 2.57964 25.9472 2.07208 25.1591 1.72841C24.371 1.38474 23.5187 1.21284 22.659 1.22416C21.8909 1.21363 21.1295 1.36867 20.4267 1.67873C19.7239 1.9888 19.0961 2.44662 18.5861 3.02103C17.7531 2.61458 16.8296 2.42901 15.9043 2.48213C14.979 2.53525 14.0828 2.82527 13.3018 3.32437C12.5208 3.82347 11.8812 4.5149 11.4443 5.33232C11.0074 6.14974 10.7878 7.06572 10.8068 7.99239C12.515 6.10327 15.8979 4.81791 19.7912 4.81791Z" fill="#ECF2FB"/>
<path d="M19.1924 28.776V25.7813C19.1924 25.1823 15.5986 23.3854 12.6038 22.1875V19.7917C12.6038 19.7917 13.8018 19.3724 13.8018 16.7969C14.6403 16.7969 14.9997 14.401 13.8401 14.401C14.3226 13.4814 14.5179 12.4381 14.4007 11.4062C13.8018 9.01042 7.81217 9.01042 7.21322 11.4062C4.6904 10.8911 6.61426 14.0548 6.61426 14.401C5.41634 14.401 5.77572 16.7969 6.61426 16.7969C6.61426 19.3724 7.81217 19.7917 7.81217 19.7917V22.1875C4.81738 23.3854 1.22363 25.1823 1.22363 25.7813V28.776H19.1924Z" fill="#ECF2FB"/>
<path d="M10.208 9.63672C8.77889 9.7649 7.47676 10.3555 7.21322 11.4072C4.6904 10.8921 6.61426 14.0558 6.61426 14.402C5.41634 14.402 5.77572 16.7979 6.61426 16.7979C6.61426 19.3734 7.81217 19.7927 7.81217 19.7927V22.1885C4.81738 23.3864 1.22363 25.1833 1.22363 25.7822V28.777H10.208V9.63672Z" fill="white"/>
<path d="M16.7905 13.2033C17.0711 13.7534 17.5006 14.2136 18.0302 14.5313C18.5597 14.849 19.1678 15.0115 19.7853 15.0002C20.3911 14.9593 20.9785 14.775 21.4992 14.4626C22.0199 14.1502 22.4589 13.7186 22.7801 13.2033C31.1655 13.2033 30.4144 1.22414 22.6603 1.22414C21.8922 1.2136 21.1308 1.36865 20.428 1.67871C19.7252 1.98878 19.0974 2.44659 18.5874 3.02101C17.8621 2.66723 17.067 2.4797 16.26 2.47209C15.4531 2.46449 14.6546 2.63699 13.9228 2.97703C13.1909 3.31707 12.5442 3.81609 12.0296 4.43772C11.515 5.05936 11.1456 5.78796 10.9482 6.57044" stroke="black" stroke-width="1.25" stroke-linecap="round" stroke-linejoin="round"/>
<path d="M19.1924 28.776V25.7813C19.1924 25.1823 15.5986 23.3854 12.6038 22.1875V19.7917C12.6038 19.7917 13.8018 19.3724 13.8018 16.7969C14.6403 16.7969 14.9997 14.401 13.8401 14.401C14.3226 13.4814 14.5179 12.4381 14.4007 11.4063C13.8018 9.01042 7.81217 9.01042 7.21322 11.4063C4.6904 10.8911 6.61426 14.0548 6.61426 14.401C5.41634 14.401 5.77572 16.7969 6.61426 16.7969C6.61426 19.3724 7.81217 19.7917 7.81217 19.7917V22.1875C4.81738 23.3854 1.22363 25.1823 1.22363 25.7813V28.776" stroke="black" stroke-width="1.25" stroke-linecap="round" stroke-linejoin="round"/>
<path d="M19.792 18.5934C19.792 18.9111 19.9182 19.2158 20.1429 19.4405C20.3675 19.6651 20.6722 19.7913 20.9899 19.7913C21.3076 19.7913 21.6123 19.6651 21.837 19.4405C22.0616 19.2158 22.1878 18.9111 22.1878 18.5934C22.1878 18.2757 22.0616 17.971 21.837 17.7464C21.6123 17.5217 21.3076 17.3955 20.9899 17.3955C20.6722 17.3955 20.3675 17.5217 20.1429 17.7464C19.9182 17.971 19.792 18.2757 19.792 18.5934Z" fill="#F9D835" stroke="black" stroke-width="1.25" stroke-linecap="round" stroke-linejoin="round"/>
<path d="M16.7969 7.5127C16.8763 7.5127 16.9525 7.54425 17.0086 7.60041C17.0648 7.65657 17.0964 7.73275 17.0964 7.81217" stroke="black" stroke-width="1.25" stroke-linecap="round" stroke-linejoin="round"/>
<path d="M16.4971 7.81217C16.4971 7.73275 16.5286 7.65657 16.5848 7.60041C16.641 7.54425 16.7171 7.5127 16.7965 7.5127" stroke="black" stroke-width="1.25" stroke-linecap="round" stroke-linejoin="round"/>
<path d="M16.7965 8.11198C16.7171 8.11198 16.641 8.08043 16.5848 8.02426C16.5286 7.9681 16.4971 7.89193 16.4971 7.8125" stroke="black" stroke-width="1.25" stroke-linecap="round" stroke-linejoin="round"/>
<path d="M17.0964 7.8125C17.0964 7.89193 17.0648 7.9681 17.0086 8.02426C16.9525 8.08043 16.8763 8.11198 16.7969 8.11198" stroke="black" stroke-width="1.25" stroke-linecap="round" stroke-linejoin="round"/>
<path d="M20.3906 7.5127C20.4701 7.5127 20.5462 7.54425 20.6024 7.60041C20.6586 7.65657 20.6901 7.73275 20.6901 7.81217" stroke="black" stroke-width="1.25" stroke-linecap="round" stroke-linejoin="round"/>
<path d="M20.0918 7.81217C20.0918 7.73275 20.1233 7.65657 20.1795 7.60041C20.2357 7.54425 20.3118 7.5127 20.3913 7.5127" stroke="black" stroke-width="1.25" stroke-linecap="round" stroke-linejoin="round"/>
<path d="M20.3913 8.11198C20.3118 8.11198 20.2357 8.08043 20.1795 8.02426C20.1233 7.9681 20.0918 7.89193 20.0918 7.8125" stroke="black" stroke-width="1.25" stroke-linecap="round" stroke-linejoin="round"/>
<path d="M20.6901 7.8125C20.6901 7.89193 20.6586 7.9681 20.6024 8.02426C20.5462 8.08043 20.4701 8.11198 20.3906 8.11198" stroke="black" stroke-width="1.25" stroke-linecap="round" stroke-linejoin="round"/>
<path d="M23.9844 7.5127C24.0638 7.5127 24.14 7.54425 24.1961 7.60041C24.2523 7.65657 24.2839 7.73275 24.2839 7.81217" stroke="black" stroke-width="1.25" stroke-linecap="round" stroke-linejoin="round"/>
<path d="M23.6846 7.81218C23.6844 7.7728 23.6921 7.73379 23.707 7.69738C23.722 7.66098 23.7441 7.6279 23.7719 7.60006C23.7998 7.57222 23.8329 7.55016 23.8693 7.53517C23.9057 7.52018 23.9447 7.51254 23.9841 7.5127" stroke="black" stroke-width="1.25" stroke-linecap="round" stroke-linejoin="round"/>
<path d="M23.9841 8.11198C23.9447 8.11214 23.9057 8.1045 23.8693 8.08951C23.8329 8.07451 23.7998 8.05246 23.7719 8.02462C23.7441 7.99678 23.722 7.9637 23.707 7.92729C23.6921 7.89089 23.6844 7.85187 23.6846 7.8125" stroke="black" stroke-width="1.25" stroke-linecap="round" stroke-linejoin="round"/>
<path d="M24.2839 7.8125C24.2839 7.89193 24.2523 7.9681 24.1961 8.02426C24.14 8.08043 24.0638 8.11198 23.9844 8.11198" stroke="black" stroke-width="1.25" stroke-linecap="round" stroke-linejoin="round"/>
<path d="M16.7969 20.0918C16.8763 20.0918 16.9525 20.1233 17.0086 20.1795C17.0648 20.2357 17.0964 20.3118 17.0964 20.3913" stroke="black" stroke-width="1.25" stroke-linecap="round" stroke-linejoin="round"/>
<path d="M16.4971 20.3913C16.4971 20.3118 16.5286 20.2357 16.5848 20.1795C16.641 20.1233 16.7171 20.0918 16.7965 20.0918" stroke="black" stroke-width="1.25" stroke-linecap="round" stroke-linejoin="round"/>
<path d="M16.7965 20.6901C16.7171 20.6901 16.641 20.6586 16.5848 20.6024C16.5286 20.5462 16.4971 20.4701 16.4971 20.3906" stroke="black" stroke-width="1.25" stroke-linecap="round" stroke-linejoin="round"/>
<path d="M17.0964 20.3906C17.0964 20.4701 17.0648 20.5462 17.0086 20.6024C16.9525 20.6586 16.8763 20.6901 16.7969 20.6901" stroke="black" stroke-width="1.25" stroke-linecap="round" stroke-linejoin="round"/>
</g>
<defs>
<clipPath id="clip0_188_813">
<rect width="30" height="30" fill="white"/>
</clipPath>
</defs>
</svg>
