<svg width="30" height="30" viewBox="0 0 30 30" fill="none" xmlns="http://www.w3.org/2000/svg">
<path d="M14.9993 14.9996C14.9993 13.9526 16.2727 13.1033 17.8443 13.1033C19.416 13.1033 20.6894 13.9526 20.6894 14.9996C20.7591 14.4368 21.0461 13.9235 21.489 13.5692C21.9318 13.2149 22.4956 13.0477 23.0601 13.1033C23.6245 13.0477 24.1883 13.2149 24.6311 13.5692C25.074 13.9235 25.361 14.4368 25.4307 14.9996V14.5204C25.483 13.1143 25.2525 11.712 24.7527 10.3966C24.2529 9.08122 23.4941 7.87959 22.5213 6.86296C21.5485 5.84632 20.3814 5.03538 19.0893 4.47821C17.7972 3.92104 16.4064 3.629 14.9993 3.61938C13.5922 3.629 12.2014 3.92104 10.9093 4.47821C9.61716 5.03538 8.45009 5.84632 7.47725 6.86296C6.50441 7.87959 5.7456 9.08122 5.24583 10.3966C4.74606 11.712 4.5155 13.1143 4.56781 14.5204V14.9996C4.63758 14.4368 4.92451 13.9235 5.3674 13.5692C5.81029 13.2149 6.37407 13.0477 6.93849 13.1033C7.50291 13.0477 8.06669 13.2149 8.50958 13.5692C8.95247 13.9235 9.2394 14.4368 9.30917 14.9996C9.30917 13.9526 10.5826 13.1033 12.1542 13.1033C13.7259 13.1033 14.9993 13.9526 14.9993 14.9996Z" fill="#F9D835"/>
<path d="M14.9993 3.61938C13.5922 3.629 12.2014 3.92104 10.9093 4.47821C9.61716 5.03538 8.45009 5.84632 7.47725 6.86296C6.50441 7.87959 5.7456 9.08122 5.24583 10.3966C4.74606 11.712 4.5155 13.1143 4.56781 14.5204V14.9996C4.63758 14.4368 4.92451 13.9235 5.3674 13.5692C5.81029 13.2149 6.37407 13.0477 6.93849 13.1033C7.50291 13.0477 8.06669 13.2149 8.50958 13.5692C8.95247 13.9235 9.2394 14.4368 9.30917 14.9996C9.30917 13.9526 10.5826 13.1033 12.1542 13.1033C13.7259 13.1033 14.9993 13.9526 14.9993 14.9996V3.61938Z" fill="#ECF2FB"/>
<path d="M14.9993 14.9996C14.9993 13.9526 16.2727 13.1033 17.8443 13.1033C19.416 13.1033 20.6894 13.9526 20.6894 14.9996C20.7591 14.4368 21.0461 13.9235 21.489 13.5692C21.9318 13.2149 22.4956 13.0477 23.0601 13.1033C23.6245 13.0477 24.1883 13.2149 24.6311 13.5692C25.074 13.9235 25.361 14.4368 25.4307 14.9996V14.5204C25.483 13.1143 25.2525 11.712 24.7527 10.3966C24.2529 9.08122 23.4941 7.87959 22.5213 6.86296C21.5485 5.84632 20.3814 5.03538 19.0893 4.47821C17.7972 3.92104 16.4064 3.629 14.9993 3.61938C13.5922 3.629 12.2014 3.92104 10.9093 4.47821C9.61716 5.03538 8.45009 5.84632 7.47725 6.86296C6.50441 7.87959 5.7456 9.08122 5.24583 10.3966C4.74606 11.712 4.5155 13.1143 4.56781 14.5204V14.9996C4.63758 14.4368 4.92451 13.9235 5.3674 13.5692C5.81029 13.2149 6.37407 13.0477 6.93849 13.1033C7.50291 13.0477 8.06669 13.2149 8.50958 13.5692C8.95247 13.9235 9.2394 14.4368 9.30917 14.9996C9.30917 13.9526 10.5826 13.1033 12.1542 13.1033C13.7259 13.1033 14.9993 13.9526 14.9993 14.9996Z" stroke="black" stroke-width="1.25" stroke-linecap="round" stroke-linejoin="round"/>
<path d="M15 3.61947V1.22363" stroke="black" stroke-width="1.25" stroke-linecap="round" stroke-linejoin="round"/>
<path d="M6.61426 28.7756C6.61426 27.8225 6.99288 26.9084 7.66684 26.2345C8.3408 25.5605 9.25489 25.1819 10.208 25.1819C11.1611 25.1819 12.0752 25.5605 12.7492 26.2345C13.4231 26.9084 13.8018 27.8225 13.8018 28.7756H6.61426Z" fill="#F9D835" stroke="black" stroke-width="1.25" stroke-linecap="round" stroke-linejoin="round"/>
<path d="M7.8125 20.9903C7.8125 21.3049 7.87447 21.6165 7.99487 21.9072C8.11527 22.1978 8.29175 22.462 8.51422 22.6844C8.7367 22.9069 9.00081 23.0834 9.29149 23.2038C9.58216 23.3242 9.89371 23.3861 10.2083 23.3861C10.523 23.3861 10.8345 23.3242 11.1252 23.2038C11.4159 23.0834 11.68 22.9069 11.9024 22.6844C12.1249 22.462 12.3014 22.1978 12.4218 21.9072C12.5422 21.6165 12.6042 21.3049 12.6042 20.9903C12.6042 20.6757 12.5422 20.3641 12.4218 20.0735C12.3014 19.7828 12.1249 19.5187 11.9024 19.2962C11.68 19.0737 11.4159 18.8973 11.1252 18.7769C10.8345 18.6565 10.523 18.5945 10.2083 18.5945C9.89371 18.5945 9.58216 18.6565 9.29149 18.7769C9.00081 18.8973 8.7367 19.0737 8.51422 19.2962C8.29175 19.5187 8.11527 19.7828 7.99487 20.0735C7.87447 20.3641 7.8125 20.6757 7.8125 20.9903Z" fill="#F9D835" stroke="black" stroke-width="1.25" stroke-linecap="round" stroke-linejoin="round"/>
<path d="M16.7969 28.7756C16.7969 27.8225 17.1755 26.9084 17.8495 26.2345C18.5234 25.5605 19.4375 25.1819 20.3906 25.1819C21.3437 25.1819 22.2578 25.5605 22.9318 26.2345C23.6057 26.9084 23.9844 27.8225 23.9844 28.7756H16.7969Z" fill="#F9D835" stroke="black" stroke-width="1.25" stroke-linecap="round" stroke-linejoin="round"/>
<path d="M17.9941 20.9903C17.9941 21.3049 18.0561 21.6165 18.1765 21.9072C18.2969 22.1978 18.4734 22.462 18.6959 22.6844C18.9183 22.9069 19.1825 23.0834 19.4731 23.2038C19.7638 23.3242 20.0753 23.3861 20.39 23.3861C20.7046 23.3861 21.0161 23.3242 21.3068 23.2038C21.5975 23.0834 21.8616 22.9069 22.0841 22.6844C22.3066 22.462 22.483 22.1978 22.6034 21.9072C22.7238 21.6165 22.7858 21.3049 22.7858 20.9903C22.7858 20.6757 22.7238 20.3641 22.6034 20.0735C22.483 19.7828 22.3066 19.5187 22.0841 19.2962C21.8616 19.0737 21.5975 18.8973 21.3068 18.7769C21.0161 18.6565 20.7046 18.5945 20.39 18.5945C20.0753 18.5945 19.7638 18.6565 19.4731 18.7769C19.1825 18.8973 18.9183 19.0737 18.6959 19.2962C18.4734 19.5187 18.2969 19.7828 18.1765 20.0735C18.0561 20.3641 17.9941 20.6757 17.9941 20.9903Z" fill="#F9D835" stroke="black" stroke-width="1.25" stroke-linecap="round" stroke-linejoin="round"/>
<path d="M15 15V21.2651" stroke="black" stroke-width="1.25" stroke-linecap="round" stroke-linejoin="round"/>
</svg>
