<svg width="30" height="30" viewBox="0 0 30 30" fill="none" xmlns="http://www.w3.org/2000/svg">
<g clip-path="url(#clip0_5587_2400)">
<path d="M6.01367 15.0051C6.01367 16.1851 6.24609 17.3536 6.69766 18.4437C7.14923 19.5339 7.8111 20.5245 8.64549 21.3589C9.47987 22.1933 10.4704 22.8551 11.5606 23.3067C12.6508 23.7583 13.8192 23.9907 14.9992 23.9907C16.1792 23.9907 17.3477 23.7583 18.4379 23.3067C19.5281 22.8551 20.5186 22.1933 21.353 21.3589C22.1874 20.5245 22.8493 19.5339 23.3008 18.4437C23.7524 17.3536 23.9848 16.1851 23.9848 15.0051C23.9848 12.622 23.0381 10.3365 21.353 8.65134C19.6679 6.96622 17.3824 6.01953 14.9992 6.01953C12.6161 6.01953 10.3306 6.96622 8.64549 8.65134C6.96036 10.3365 6.01367 12.622 6.01367 15.0051Z" fill="#ECF2FB"/>
<path d="M11.4072 15.6016C11.4072 16.5547 11.7859 17.4688 12.4598 18.1427C13.1338 18.8167 14.0479 19.1953 15.001 19.1953C15.9541 19.1953 16.8682 18.8167 17.5421 18.1427C18.2161 17.4688 18.5947 16.5547 18.5947 15.6016C18.5947 14.6484 18.2161 13.7344 17.5421 13.0604C16.8682 12.3864 15.9541 12.0078 15.001 12.0078C14.0479 12.0078 13.1338 12.3864 12.4598 13.0604C11.7859 13.7344 11.4072 14.6484 11.4072 15.6016Z" fill="#F9D835" stroke="black" stroke-width="1.25" stroke-linecap="round" stroke-linejoin="round"/>
<path d="M20.3906 28.7773C20.0169 24.714 17.7157 21.5898 15 21.5898C12.2843 21.5898 9.98313 24.714 9.60938 28.7773H20.3906Z" fill="#F9D835" stroke="black" stroke-width="1.25" stroke-linecap="round" stroke-linejoin="round"/>
<path d="M21.349 21.3491C22.6066 20.093 23.4634 18.4922 23.8109 16.7491C24.1585 15.006 23.9812 13.1989 23.3016 11.5566C22.6219 9.91427 21.4703 8.51044 19.9926 7.52273C18.5149 6.53502 16.7774 6.00781 15 6.00781C13.2226 6.00781 11.4851 6.53502 10.0074 7.52273C8.52968 8.51044 7.37813 9.91427 6.69845 11.5566C6.01878 13.1989 5.84151 15.006 6.18908 16.7491C6.53665 18.4922 7.39344 20.093 8.65105 21.3491" stroke="black" stroke-width="1.25" stroke-linecap="round" stroke-linejoin="round"/>
<path d="M24.7411 24.7395C26.6677 22.8129 27.9796 20.3582 28.5111 17.6859C29.0426 15.0137 28.7697 12.2438 27.727 9.72662C26.6843 7.20943 24.9186 5.05796 22.6531 3.54427C20.3877 2.03058 17.7243 1.22266 14.9997 1.22266C12.2751 1.22266 9.61166 2.03058 7.34622 3.54427C5.08078 5.05796 3.31507 7.20943 2.27237 9.72662C1.22966 12.2438 0.956797 15.0137 1.48827 17.6859C2.01975 20.3582 3.3317 22.8129 5.25822 24.7395" stroke="black" stroke-width="1.25" stroke-linecap="round" stroke-linejoin="round"/>
</g>
<defs>
<clipPath id="clip0_5587_2400">
<rect width="30" height="30" fill="white"/>
</clipPath>
</defs>
</svg>
