<svg width="30" height="30" viewBox="0 0 30 30" fill="none" xmlns="http://www.w3.org/2000/svg">
<path d="M8.41141 12.0056L6.12219 26.8885C6.10907 26.9739 6.11455 27.061 6.13826 27.144C6.16196 27.2271 6.20334 27.304 6.25954 27.3695C6.31575 27.435 6.38545 27.4876 6.46389 27.5237C6.54232 27.5598 6.62763 27.5785 6.71396 27.5785H12.0052V23.3858C12.0052 22.5916 12.3207 21.8298 12.8823 21.2682C13.4439 20.7066 14.2057 20.391 15 20.391C15.7942 20.391 16.556 20.7066 17.1176 21.2682C17.6792 21.8298 17.9947 22.5916 17.9947 23.3858V27.5785H23.2835C23.3699 27.5785 23.4552 27.5598 23.5336 27.5237C23.6121 27.4876 23.6818 27.435 23.738 27.3695C23.7942 27.304 23.8356 27.2271 23.8593 27.144C23.883 27.061 23.8884 26.9739 23.8753 26.8885L21.5885 12.0056" fill="#F9D835"/>
<path d="M5.41732 2.42236C5.25846 2.42236 5.10612 2.48547 4.99379 2.59779C4.88146 2.71012 4.81836 2.86247 4.81836 3.02132V10.2088C4.81836 10.6854 5.00767 11.1424 5.34465 11.4794C5.68163 11.8164 6.13867 12.0057 6.61523 12.0057H23.3861C23.8626 12.0057 24.3197 11.8164 24.6567 11.4794C24.9936 11.1424 25.1829 10.6854 25.1829 10.2088V3.02132C25.1829 2.94267 25.1675 2.86478 25.1374 2.79211C25.1073 2.71944 25.0631 2.65341 25.0075 2.59779C24.9519 2.54218 24.8859 2.49806 24.8132 2.46796C24.7405 2.43786 24.6626 2.42236 24.584 2.42236H22.1882C22.0293 2.42236 21.8769 2.48547 21.7646 2.59779C21.6523 2.71012 21.5892 2.86247 21.5892 3.02132V4.21924C21.5892 4.6958 21.3999 5.15284 21.0629 5.48982C20.7259 5.8268 20.2689 6.01611 19.7923 6.01611C19.3158 6.01611 18.8587 5.8268 18.5217 5.48982C18.1848 5.15284 17.9954 4.6958 17.9954 4.21924V3.02132C17.9954 2.86247 17.9323 2.71012 17.82 2.59779C17.7077 2.48547 17.5553 2.42236 17.3965 2.42236H12.6048C12.446 2.42236 12.2936 2.48547 12.1813 2.59779C12.069 2.71012 12.0059 2.86247 12.0059 3.02132V4.21924C12.0059 4.6958 11.8165 5.15284 11.4796 5.48982C11.1426 5.8268 10.6855 6.01611 10.209 6.01611C9.73242 6.01611 9.27538 5.8268 8.9384 5.48982C8.60142 5.15284 8.41211 4.6958 8.41211 4.21924V3.02132C8.41211 2.86247 8.34901 2.71012 8.23668 2.59779C8.12435 2.48547 7.972 2.42236 7.81315 2.42236H5.41732Z" fill="#F9D835"/>
<path d="M15 12.0056H8.41141L6.12219 26.8885C6.10907 26.9739 6.11455 27.061 6.13826 27.144C6.16196 27.2271 6.20334 27.304 6.25954 27.3695C6.31575 27.435 6.38545 27.4876 6.46389 27.5237C6.54232 27.5598 6.62763 27.5785 6.71396 27.5785H12.0052V23.3858C12.0052 22.5916 12.3207 21.8298 12.8823 21.2682C13.4439 20.7066 14.2057 20.391 15 20.391V12.0056Z" fill="#ECF2FB"/>
<path d="M15.0007 2.42236H12.6048C12.446 2.42236 12.2936 2.48547 12.1813 2.59779C12.069 2.71012 12.0059 2.86247 12.0059 3.02132V4.21924C12.0059 4.6958 11.8165 5.15284 11.4796 5.48982C11.1426 5.8268 10.6855 6.01611 10.209 6.01611C9.73242 6.01611 9.27538 5.8268 8.9384 5.48982C8.60142 5.15284 8.41211 4.6958 8.41211 4.21924V3.02132C8.41211 2.86247 8.34901 2.71012 8.23668 2.59779C8.12435 2.48547 7.972 2.42236 7.81315 2.42236H5.41732C5.25846 2.42236 5.10612 2.48547 4.99379 2.59779C4.88146 2.71012 4.81836 2.86247 4.81836 3.02132V10.2088C4.81836 10.6854 5.00767 11.1424 5.34465 11.4794C5.68163 11.8164 6.13867 12.0057 6.61523 12.0057H15.0007V2.42236Z" fill="#ECF2FB"/>
<path d="M8.41141 12.0056L6.12219 26.8885C6.10907 26.9739 6.11455 27.061 6.13826 27.144C6.16196 27.2271 6.20334 27.304 6.25954 27.3695C6.31575 27.435 6.38545 27.4876 6.46389 27.5237C6.54232 27.5598 6.62763 27.5785 6.71396 27.5785H12.0052V23.3858C12.0052 22.5916 12.3207 21.8298 12.8823 21.2682C13.4439 20.7066 14.2057 20.391 15 20.391C15.7942 20.391 16.556 20.7066 17.1176 21.2682C17.6792 21.8298 17.9947 22.5916 17.9947 23.3858V27.5785H23.2835C23.3699 27.5785 23.4552 27.5598 23.5336 27.5237C23.6121 27.4876 23.6818 27.435 23.738 27.3695C23.7942 27.304 23.8355 27.2271 23.8593 27.144C23.883 27.061 23.8884 26.9739 23.8753 26.8885L21.5885 12.0056" stroke="black" stroke-width="1.25" stroke-linecap="round" stroke-linejoin="round"/>
<path d="M5.41732 2.42236C5.25846 2.42236 5.10612 2.48547 4.99379 2.59779C4.88146 2.71012 4.81836 2.86247 4.81836 3.02132V10.2088C4.81836 10.6854 5.00767 11.1424 5.34465 11.4794C5.68163 11.8164 6.13867 12.0057 6.61523 12.0057H23.3861C23.8626 12.0057 24.3197 11.8164 24.6566 11.4794C24.9936 11.1424 25.1829 10.6854 25.1829 10.2088V3.02132C25.1829 2.94267 25.1675 2.86478 25.1374 2.79211C25.1072 2.71944 25.0631 2.65341 25.0075 2.59779C24.9519 2.54218 24.8859 2.49806 24.8132 2.46796C24.7405 2.43786 24.6626 2.42236 24.584 2.42236H22.1882C22.0293 2.42236 21.877 2.48547 21.7646 2.59779C21.6523 2.71012 21.5892 2.86247 21.5892 3.02132V4.21924C21.5892 4.6958 21.3999 5.15284 21.0629 5.48982C20.7259 5.8268 20.2689 6.01611 19.7923 6.01611C19.3158 6.01611 18.8587 5.8268 18.5217 5.48982C18.1848 5.15284 17.9954 4.6958 17.9954 4.21924V3.02132C17.9954 2.86247 17.9323 2.71012 17.82 2.59779C17.7077 2.48547 17.5553 2.42236 17.3965 2.42236H12.6048C12.446 2.42236 12.2936 2.48547 12.1813 2.59779C12.069 2.71012 12.0059 2.86247 12.0059 3.02132V4.21924C12.0059 4.6958 11.8165 5.15284 11.4796 5.48982C11.1426 5.8268 10.6855 6.01611 10.209 6.01611C9.73242 6.01611 9.27538 5.8268 8.9384 5.48982C8.60142 5.15284 8.41211 4.6958 8.41211 4.21924V3.02132C8.41211 2.86247 8.34901 2.71012 8.23668 2.59779C8.12435 2.48547 7.972 2.42236 7.81315 2.42236H5.41732Z" stroke="black" stroke-width="1.25" stroke-linecap="round" stroke-linejoin="round"/>
</svg>
