<svg width="30" height="30" viewBox="0 0 30 30" fill="none" xmlns="http://www.w3.org/2000/svg">
<g clip-path="url(#clip0_5575_2372)">
<path d="M13.4439 1.96758C13.6308 1.73407 13.8678 1.54557 14.1373 1.41603C14.4069 1.2865 14.7021 1.21924 15.0012 1.21924C15.3003 1.21924 15.5955 1.2865 15.8651 1.41603C16.1347 1.54557 16.3716 1.73407 16.5585 1.96758L18.4093 4.27117C18.6192 4.53237 18.8916 4.73646 19.2013 4.8646C19.5109 4.99273 19.8479 5.04078 20.181 5.00429L23.1183 4.68445C23.4149 4.65284 23.7147 4.68806 23.9959 4.78753C24.2771 4.88699 24.5324 5.04818 24.7431 5.25924C24.9539 5.47031 25.1146 5.7259 25.2136 6.00723C25.3126 6.28857 25.3474 6.58851 25.3153 6.88502L24.9954 9.82112C24.9592 10.1543 25.0075 10.4913 25.1358 10.801C25.2642 11.1106 25.4684 11.3829 25.7298 11.5928L28.0321 13.4424C28.2655 13.6294 28.4538 13.8664 28.5832 14.136C28.7126 14.4055 28.7798 14.7007 28.7798 14.9997C28.7798 15.2987 28.7126 15.5939 28.5832 15.8634C28.4538 16.133 28.2655 16.37 28.0321 16.557L25.7298 18.4078C25.4684 18.6174 25.2642 18.8895 25.1358 19.199C25.0075 19.5084 24.9592 19.8453 24.9954 20.1783L25.3153 23.1156C25.3477 23.4123 25.3131 23.7126 25.214 23.9942C25.115 24.2757 24.954 24.5315 24.7429 24.7426C24.5318 24.9537 24.2761 25.1147 23.9945 25.2137C23.7129 25.3128 23.4126 25.3474 23.1159 25.315L20.1786 24.9951C19.8454 24.9591 19.5085 25.0075 19.1989 25.1358C18.8893 25.2641 18.6169 25.4683 18.4069 25.7295L16.5585 28.0294C16.3716 28.263 16.1347 28.4515 15.8651 28.581C15.5955 28.7105 15.3003 28.7778 15.0012 28.7778C14.7021 28.7778 14.4069 28.7105 14.1373 28.581C13.8678 28.4515 13.6308 28.263 13.4439 28.0294L11.5955 25.7271C11.3855 25.4659 11.1131 25.2618 10.8035 25.1334C10.4939 25.0051 10.157 24.9567 9.82382 24.9927L6.88653 25.3126C6.58979 25.345 6.28955 25.3104 6.00796 25.2113C5.72637 25.1123 5.47061 24.9513 5.25953 24.7402C5.04846 24.5291 4.88745 24.2734 4.78839 23.9918C4.68932 23.7102 4.65473 23.4099 4.68715 23.1132L5.00699 20.1759C5.04324 19.8429 4.99496 19.506 4.86661 19.1966C4.73827 18.8871 4.53399 18.615 4.27267 18.4054L1.97028 16.557C1.73696 16.37 1.54865 16.133 1.41924 15.8634C1.28984 15.5939 1.22266 15.2987 1.22266 14.9997C1.22266 14.7007 1.28984 14.4055 1.41924 14.136C1.54865 13.8664 1.73696 13.6294 1.97028 13.4424L4.27267 11.5928C4.53401 11.3829 4.73827 11.1106 4.8666 10.801C4.99494 10.4913 5.04322 10.1543 5.00699 9.82112L4.68715 6.88502C4.65499 6.58829 4.68976 6.28811 4.7889 6.00658C4.88804 5.72505 5.04903 5.46933 5.26003 5.25821C5.47103 5.0471 5.72666 4.88597 6.00814 4.78668C6.28962 4.68739 6.58977 4.65245 6.88653 4.68445L9.82382 5.00429C10.1569 5.04078 10.4939 4.99273 10.8036 4.8646C11.1132 4.73646 11.3856 4.53237 11.5955 4.27117L13.4439 1.96758Z" fill="#F9D835"/>
<path d="M5.25976 24.74C5.04881 24.5288 4.88788 24.2731 4.78878 23.9916C4.68969 23.7101 4.65496 23.4099 4.68715 23.1132L5.00699 20.1759C5.04324 19.8429 4.99496 19.506 4.86661 19.1966C4.73827 18.8871 4.53399 18.615 4.27267 18.4054L1.97028 16.557C1.73696 16.37 1.54865 16.133 1.41924 15.8634C1.28984 15.5939 1.22266 15.2987 1.22266 14.9997C1.22266 14.7007 1.28984 14.4055 1.41924 14.136C1.54865 13.8664 1.73696 13.6294 1.97028 13.4424L4.27267 11.5928C4.53401 11.3829 4.73827 11.1106 4.8666 10.801C4.99494 10.4913 5.04322 10.1543 5.00699 9.82112L4.68715 6.88502C4.65499 6.58829 4.68976 6.28811 4.7889 6.00658C4.88804 5.72505 5.04903 5.46933 5.26003 5.25821C5.47103 5.0471 5.72666 4.88597 6.00814 4.78668C6.28962 4.68739 6.58977 4.65245 6.88653 4.68445L9.82382 5.0043C10.1569 5.04078 10.4939 4.99273 10.8036 4.8646C11.1132 4.73646 11.3856 4.53237 11.5955 4.27117L13.4439 1.96758C13.6308 1.73407 13.8678 1.54557 14.1373 1.41603C14.4069 1.2865 14.7021 1.21924 15.0012 1.21924C15.3003 1.21924 15.5955 1.2865 15.8651 1.41603C16.1347 1.54557 16.3716 1.73407 16.5585 1.96758L18.4093 4.27117C18.6192 4.53237 18.8916 4.73646 19.2013 4.8646C19.5109 4.99273 19.8479 5.04078 20.181 5.0043L23.1183 4.68445C23.4151 4.65259 23.7153 4.68759 23.9967 4.78688C24.2782 4.88617 24.5339 5.04724 24.7451 5.25825L5.25976 24.74Z" fill="#ECF2FB"/>
<path d="M13.4439 1.96758C13.6308 1.73407 13.8678 1.54557 14.1373 1.41603C14.4069 1.2865 14.7021 1.21924 15.0012 1.21924C15.3003 1.21924 15.5955 1.2865 15.8651 1.41603C16.1347 1.54557 16.3716 1.73407 16.5585 1.96758L18.4093 4.27117C18.6192 4.53237 18.8916 4.73646 19.2013 4.8646C19.5109 4.99273 19.8479 5.04078 20.181 5.00429L23.1183 4.68445C23.4149 4.65284 23.7147 4.68806 23.9959 4.78753C24.2771 4.88699 24.5324 5.04818 24.7431 5.25924C24.9539 5.47031 25.1146 5.7259 25.2136 6.00723C25.3126 6.28857 25.3474 6.58851 25.3153 6.88502L24.9954 9.82112C24.9592 10.1543 25.0075 10.4913 25.1358 10.801C25.2642 11.1106 25.4684 11.3829 25.7298 11.5928L28.0321 13.4424C28.2655 13.6294 28.4538 13.8664 28.5832 14.136C28.7126 14.4055 28.7798 14.7007 28.7798 14.9997C28.7798 15.2987 28.7126 15.5939 28.5832 15.8634C28.4538 16.133 28.2655 16.37 28.0321 16.557L25.7298 18.4078C25.4684 18.6174 25.2642 18.8895 25.1358 19.199C25.0075 19.5084 24.9592 19.8453 24.9954 20.1783L25.3153 23.1156C25.3477 23.4123 25.3131 23.7126 25.214 23.9942C25.115 24.2757 24.954 24.5315 24.7429 24.7426C24.5318 24.9537 24.2761 25.1147 23.9945 25.2137C23.7129 25.3128 23.4126 25.3474 23.1159 25.315L20.1786 24.9951C19.8454 24.9591 19.5085 25.0075 19.1989 25.1358C18.8893 25.2641 18.6169 25.4683 18.4069 25.7295L16.5585 28.0294C16.3716 28.263 16.1347 28.4515 15.8651 28.581C15.5955 28.7105 15.3003 28.7778 15.0012 28.7778C14.7021 28.7778 14.4069 28.7105 14.1373 28.581C13.8678 28.4515 13.6308 28.263 13.4439 28.0294L11.5955 25.7271C11.3855 25.4659 11.1131 25.2618 10.8035 25.1334C10.4939 25.0051 10.157 24.9567 9.82382 24.9927L6.88653 25.3126C6.58979 25.345 6.28955 25.3104 6.00796 25.2113C5.72637 25.1123 5.47061 24.9513 5.25953 24.7402C5.04846 24.5291 4.88745 24.2734 4.78839 23.9918C4.68932 23.7102 4.65473 23.4099 4.68715 23.1132L5.00699 20.1759C5.04324 19.8429 4.99496 19.506 4.86661 19.1966C4.73827 18.8871 4.53399 18.615 4.27267 18.4054L1.97028 16.557C1.73696 16.37 1.54865 16.133 1.41924 15.8634C1.28984 15.5939 1.22266 15.2987 1.22266 14.9997C1.22266 14.7007 1.28984 14.4055 1.41924 14.136C1.54865 13.8664 1.73696 13.6294 1.97028 13.4424L4.27267 11.5928C4.53401 11.3829 4.73827 11.1106 4.8666 10.801C4.99494 10.4913 5.04322 10.1543 5.00699 9.82112L4.68715 6.88502C4.65499 6.58829 4.68976 6.28811 4.7889 6.00658C4.88804 5.72505 5.04903 5.46933 5.26003 5.25821C5.47103 5.0471 5.72666 4.88597 6.00814 4.78668C6.28962 4.68739 6.58977 4.65245 6.88653 4.68445L9.82382 5.00429C10.1569 5.04078 10.4939 4.99273 10.8036 4.8646C11.1132 4.73646 11.3856 4.53237 11.5955 4.27117L13.4439 1.96758Z" stroke="black" stroke-width="1.25" stroke-linecap="round" stroke-linejoin="round"/>
<path d="M19.7909 12.0056L14.9154 18.5055C14.8364 18.6107 14.7359 18.6977 14.6204 18.7607C14.505 18.8237 14.3774 18.8612 14.2462 18.8706C14.1151 18.88 13.9834 18.8612 13.8601 18.8154C13.7369 18.7695 13.6249 18.6978 13.5318 18.6049L10.6064 15.6784" stroke="black" stroke-width="1.25" stroke-linecap="round" stroke-linejoin="round"/>
</g>
<defs>
<clipPath id="clip0_5575_2372">
<rect width="30" height="30" fill="white"/>
</clipPath>
</defs>
</svg>
