<svg width="30" height="30" viewBox="0 0 30 30" fill="none" xmlns="http://www.w3.org/2000/svg">
<path d="M25.5396 9.96745V10.818C25.3354 10.818 25.1314 10.806 24.9287 10.782C23.1717 10.6237 21.5444 9.79078 20.3886 8.45807C19.2319 9.79035 17.6044 10.6232 15.8473 10.782C15.6445 10.806 15.4405 10.818 15.2363 10.818V9.96745C15.2363 8.60131 15.779 7.29112 16.745 6.32511C17.711 5.3591 19.0212 4.81641 20.3874 4.81641C21.7535 4.81641 23.0637 5.3591 24.0297 6.32511C24.9957 7.29112 25.5396 8.60131 25.5396 9.96745Z" fill="#F9D835"/>
<path d="M20.3874 4.81641C19.0212 4.81641 17.711 5.3591 16.745 6.32511C15.779 7.29112 15.2363 8.60131 15.2363 9.96745V10.818H15.3286C15.5402 9.63003 16.1631 8.55444 17.0881 7.77964C18.0132 7.00484 19.1813 6.58025 20.388 6.58025C21.5946 6.58025 22.7628 7.00484 23.6878 7.77964C24.6128 8.55444 25.2357 9.63003 25.4474 10.818H25.5396V9.96745C25.5396 9.2909 25.4063 8.62098 25.1474 7.99595C24.8885 7.37092 24.5089 6.80302 24.0305 6.32469C23.552 5.84635 22.984 5.46696 22.359 5.20816C21.7339 4.94937 21.0639 4.81625 20.3874 4.81641Z" fill="white"/>
<path d="M12.0068 25.1706C12.0068 22.9466 12.8903 20.8138 14.4629 19.2412C16.0354 17.6686 18.1683 16.7852 20.3923 16.7852C22.6162 16.7852 24.7491 17.6686 26.3216 19.2412C27.8942 20.8138 28.7777 22.9466 28.7777 25.1706H12.0068Z" fill="#ECF2FB"/>
<path d="M20.3923 18.8947C22.2475 18.8965 24.0498 19.5136 25.5169 20.6492C26.984 21.7848 28.033 23.375 28.4998 25.1706H28.7777C28.7777 22.9466 27.8942 20.8138 26.3216 19.2412C24.7491 17.6686 22.6162 16.7852 20.3923 16.7852C18.1683 16.7852 16.0354 17.6686 14.4629 19.2412C12.8903 20.8138 12.0068 22.9466 12.0068 25.1706H12.2848C12.7515 23.375 13.8005 21.7848 15.2676 20.6492C16.7347 19.5136 18.537 18.8965 20.3923 18.8947Z" fill="white"/>
<path d="M24.93 10.7693C24.8732 11.9353 24.37 13.0347 23.5247 13.8398C22.6794 14.645 21.5567 15.094 20.3893 15.094C19.222 15.094 18.0993 14.645 17.254 13.8398C16.4087 13.0347 15.9055 11.9353 15.8486 10.7693C17.6056 10.611 19.2329 9.77801 20.3887 8.44531C21.5454 9.77759 23.1729 10.6104 24.93 10.7693Z" fill="#ECF2FB"/>
<path d="M1.22363 25.1823C1.22363 22.9583 2.10709 20.8255 3.67966 19.2529C5.25224 17.6803 7.3851 16.7969 9.60905 16.7969C11.833 16.7969 13.9659 17.6803 15.5384 19.2529C17.111 20.8255 17.9945 22.9583 17.9945 25.1823H1.22363Z" fill="#F9D835"/>
<path d="M9.60905 19.7162C11.3194 19.7169 12.9885 20.241 14.3922 21.2182C15.7959 22.1953 16.8669 23.5786 17.4614 25.1823H17.9945C17.9945 22.9583 17.111 20.8255 15.5384 19.2529C13.9659 17.6803 11.833 16.7969 9.60905 16.7969C7.3851 16.7969 5.25224 17.6803 3.67966 19.2529C2.10709 20.8255 1.22363 22.9583 1.22363 25.1823H1.75671C2.35118 23.5786 3.42221 22.1953 4.82591 21.2182C6.22962 20.241 7.89874 19.7169 9.60905 19.7162Z" fill="#ECF2FB"/>
<path d="M14.6512 9.22419C13.5937 9.67184 12.4574 9.90398 11.309 9.907C10.1727 9.90774 9.04799 9.67892 8.00228 9.23429C6.95657 8.78966 6.01145 8.13837 5.22363 7.3195C5.76126 6.40847 6.56937 5.68757 7.53563 5.25704C8.5019 4.82651 9.57829 4.70773 10.6152 4.91721C11.6521 5.1267 12.5979 5.65404 13.3213 6.42593C14.0446 7.19782 14.5095 8.17589 14.6512 9.22419Z" fill="#F9D835"/>
<path d="M9.60801 6.88226C10.5056 6.88166 11.3873 7.11946 12.1629 7.57135C12.9385 8.02323 13.5802 8.67299 14.0223 9.45419C14.2344 9.38231 14.4464 9.31044 14.6512 9.22419C14.5095 8.17589 14.0446 7.19782 13.3213 6.42593C12.5979 5.65404 11.6521 5.1267 10.6152 4.91721C9.57829 4.70773 8.5019 4.82651 7.53563 5.25704C6.56937 5.68757 5.76126 6.40847 5.22363 7.3195C5.53295 7.63346 5.86574 7.92339 6.2191 8.18679C7.14854 7.34782 8.35592 6.88305 9.60801 6.88226Z" fill="#F9D835"/>
<path d="M14.7009 9.90781C14.7009 11.2581 14.1645 12.553 13.2098 13.5078C12.255 14.4626 10.96 14.999 9.60978 14.999C8.25952 14.999 6.96457 14.4626 6.00979 13.5078C5.05502 12.553 4.51863 11.2581 4.51863 9.90781C4.51356 8.99696 4.75798 8.1021 5.2254 7.32031C6.01322 8.13918 6.95834 8.79047 8.00405 9.2351C9.04976 9.67973 10.1745 9.90855 11.3108 9.90781C12.4592 9.90479 13.5955 9.67265 14.653 9.225C14.6868 9.451 14.7029 9.6793 14.7009 9.90781Z" fill="#ECF2FB"/>
<path d="M26.5005 15.122C25.8314 14.022 25.4983 12.7504 25.5421 11.4636V9.97099C25.5405 8.95715 25.2398 7.96633 24.6776 7.12266C24.1153 6.27899 23.3166 5.62 22.3816 5.22823C21.4465 4.83647 20.4166 4.72936 19.4209 4.92033C18.4252 5.1113 17.508 5.59185 16.7842 6.30177" stroke="black" stroke-width="1.25" stroke-linecap="round" stroke-linejoin="round"/>
<path d="M17.9961 10.2323C18.9139 9.82117 19.7314 9.21542 20.3919 8.45703C21.0309 9.19692 21.8216 9.79055 22.7105 10.1976C23.5993 10.6046 24.5654 10.8154 25.543 10.8157" stroke="black" stroke-width="1.25" stroke-linecap="round" stroke-linejoin="round"/>
<path d="M24.9285 10.7891C24.8921 11.5641 24.6578 12.317 24.2478 12.9757C23.8378 13.6345 23.2659 14.1772 22.5865 14.5521C21.9072 14.927 21.1432 15.1217 20.3672 15.1174C19.5913 15.1131 18.8295 14.9101 18.1543 14.5278" stroke="black" stroke-width="1.25" stroke-linecap="round" stroke-linejoin="round"/>
<path d="M1.22363 25.1823C1.22363 22.9583 2.10709 20.8255 3.67966 19.2529C5.25224 17.6803 7.3851 16.7969 9.60905 16.7969C11.833 16.7969 13.9659 17.6803 15.5384 19.2529C17.111 20.8255 17.9945 22.9583 17.9945 25.1823H1.22363Z" stroke="black" stroke-width="1.25" stroke-linecap="round" stroke-linejoin="round"/>
<path d="M14.6512 9.22419C13.5937 9.67184 12.4574 9.90398 11.309 9.907C10.1727 9.90774 9.04799 9.67892 8.00228 9.23429C6.95657 8.78966 6.01145 8.13837 5.22363 7.3195C5.76126 6.40847 6.56937 5.68757 7.53563 5.25704C8.5019 4.82651 9.57829 4.70773 10.6152 4.91721C11.6521 5.1267 12.5979 5.65404 13.3213 6.42593C14.0446 7.19782 14.5095 8.17589 14.6512 9.22419Z" stroke="black" stroke-width="1.25" stroke-linecap="round" stroke-linejoin="round"/>
<path d="M14.7009 9.90781C14.7009 11.2581 14.1645 12.553 13.2098 13.5078C12.255 14.4626 10.96 14.999 9.60978 14.999C8.25952 14.999 6.96457 14.4626 6.00979 13.5078C5.05502 12.553 4.51863 11.2581 4.51863 9.90781C4.51356 8.99696 4.75798 8.1021 5.2254 7.32031C6.01322 8.13918 6.95834 8.79047 8.00405 9.2351C9.04976 9.67973 10.1745 9.90855 11.3108 9.90781C12.4592 9.90479 13.5955 9.67265 14.653 9.225C14.6868 9.451 14.7029 9.6793 14.7009 9.90781Z" stroke="black" stroke-width="1.25" stroke-linecap="round" stroke-linejoin="round"/>
<path d="M17.9961 17.1444C19.2478 16.7725 20.569 16.6979 21.8546 16.9264C23.1402 17.1549 24.3548 17.6804 25.4016 18.4608C26.4485 19.2413 27.2987 20.2553 27.8848 21.4222C28.4708 22.5891 28.7764 23.8766 28.7773 25.1824H20.9909" stroke="black" stroke-width="1.25" stroke-linecap="round" stroke-linejoin="round"/>
</svg>
