<svg width="30" height="30" viewBox="0 0 30 30" fill="none" xmlns="http://www.w3.org/2000/svg">
<path d="M2.42155 19.1927L3.30681 24.9427C3.39277 25.5093 3.67896 26.0263 4.11348 26.3999C4.54799 26.7736 5.10203 26.9791 5.67509 26.9792H24.3243C24.8973 26.9791 25.4514 26.7736 25.8859 26.3999C26.3204 26.0263 26.6066 25.5093 26.6925 24.9427L27.5778 19.1927C27.8955 19.1927 28.2002 19.0665 28.4249 18.8418C28.6495 18.6172 28.7757 18.3125 28.7757 17.9948V10.2083C28.7757 9.57292 28.5233 8.96353 28.074 8.51422C27.6247 8.06492 27.0153 7.8125 26.3799 7.8125H3.61947C2.98405 7.8125 2.37466 8.06492 1.92536 8.51422C1.47605 8.96353 1.22363 9.57292 1.22363 10.2083V17.9948C1.22363 18.3125 1.34984 18.6172 1.57449 18.8418C1.79915 19.0665 2.10384 19.1927 2.42155 19.1927Z" fill="#F9D835"/>
<path d="M26.3799 7.8125H3.61947C2.98405 7.8125 2.37466 8.06492 1.92536 8.51422C1.47605 8.96353 1.22363 9.57292 1.22363 10.2083V14.401C1.22363 13.7656 1.47605 13.1562 1.92536 12.7069C2.37466 12.2576 2.98405 12.0052 3.61947 12.0052H26.3799C27.0153 12.0052 27.6247 12.2576 28.074 12.7069C28.5233 13.1562 28.7757 13.7656 28.7757 14.401V10.2083C28.7757 9.57292 28.5233 8.96353 28.074 8.51422C27.6247 8.06492 27.0153 7.8125 26.3799 7.8125Z" fill="#ECF2FB"/>
<path d="M2.42155 19.1927L3.30681 24.9427C3.39277 25.5093 3.67896 26.0263 4.11348 26.3999C4.54799 26.7735 5.10203 26.9791 5.67509 26.9792H24.3243C24.8973 26.9791 25.4514 26.7735 25.8859 26.3999C26.3204 26.0263 26.6066 25.5093 26.6925 24.9427L27.5778 19.1927C27.8955 19.1927 28.2002 19.0665 28.4249 18.8418C28.6495 18.6172 28.7757 18.3125 28.7757 17.9948V10.2083C28.7757 9.57292 28.5233 8.96353 28.074 8.51422C27.6247 8.06492 27.0153 7.8125 26.3799 7.8125H3.61947C2.98405 7.8125 2.37466 8.06492 1.92536 8.51422C1.47605 8.96353 1.22363 9.57292 1.22363 10.2083V17.9948C1.22363 18.3125 1.34984 18.6172 1.57449 18.8418C1.79915 19.0665 2.10384 19.1927 2.42155 19.1927Z" stroke="black" stroke-width="1.25" stroke-linecap="round" stroke-linejoin="round"/>
<path d="M20.3906 7.8112H9.60938V6.61328C9.60938 5.66016 9.988 4.74608 10.662 4.07212C11.3359 3.39816 12.25 3.01953 13.2031 3.01953H16.7969C17.75 3.01953 18.6641 3.39816 19.338 4.07212C20.012 4.74608 20.3906 5.66016 20.3906 6.61328V7.8112Z" stroke="black" stroke-width="1.25" stroke-linecap="round" stroke-linejoin="round"/>
<path d="M2.42188 19.1914H12.6042" stroke="black" stroke-width="1.25" stroke-linecap="round" stroke-linejoin="round"/>
<path d="M17.3955 19.1914H27.5778" stroke="black" stroke-width="1.25" stroke-linecap="round" stroke-linejoin="round"/>
<path d="M12.6045 19.194C12.6045 19.9883 12.8569 20.75 13.3062 21.3116C13.7555 21.8733 14.3649 22.1888 15.0003 22.1888C15.6357 22.1888 16.2451 21.8733 16.6944 21.3116C17.1437 20.75 17.3962 19.9883 17.3962 19.194C17.3962 18.3997 17.1437 17.638 16.6944 17.0764C16.2451 16.5147 15.6357 16.1992 15.0003 16.1992C14.3649 16.1992 13.7555 16.5147 13.3062 17.0764C12.8569 17.638 12.6045 18.3997 12.6045 19.194Z" fill="#ECF2FB"/>
<path d="M15 19.7069C14.5011 19.6735 14.0246 19.4872 13.6354 19.1734C13.2461 18.8597 12.963 18.4336 12.8245 17.9531C12.6791 18.3503 12.6045 18.77 12.6041 19.193C12.5337 19.9061 12.7448 20.6185 13.1925 21.178C13.6401 21.7376 14.2888 22.0999 15 22.1878C15.7111 22.0999 16.3598 21.7376 16.8074 21.178C17.2551 20.6185 17.4662 19.9061 17.3958 19.193C17.3954 18.77 17.3208 18.3503 17.1754 17.9531C17.0369 18.4336 16.7538 18.8597 16.3645 19.1734C15.9753 19.4872 15.4988 19.6735 15 19.7069Z" fill="#F9D835"/>
<path d="M12.6045 19.194C12.6045 19.9883 12.8569 20.75 13.3062 21.3116C13.7555 21.8733 14.3649 22.1888 15.0003 22.1888C15.6357 22.1888 16.2451 21.8733 16.6944 21.3116C17.1437 20.75 17.3962 19.9883 17.3962 19.194C17.3962 18.3997 17.1437 17.638 16.6944 17.0764C16.2451 16.5147 15.6357 16.1992 15.0003 16.1992C14.3649 16.1992 13.7555 16.5147 13.3062 17.0764C12.8569 17.638 12.6045 18.3997 12.6045 19.194Z" stroke="black" stroke-width="1.25" stroke-linecap="round" stroke-linejoin="round"/>
</svg>
