<svg width="16" height="16" viewBox="0 0 16 16" fill="none" xmlns="http://www.w3.org/2000/svg">
<g clip-path="url(#clip0_4857_3468)">
<path d="M15.4664 1.36927C15.4709 1.30099 15.4613 1.23253 15.4383 1.1681C15.4153 1.10367 15.3793 1.04464 15.3326 0.994664C15.2858 0.944685 15.2293 0.904815 15.1666 0.877515C15.1039 0.850216 15.0362 0.836065 14.9678 0.835938H0.999779C0.931329 0.835968 0.863614 0.850053 0.800829 0.877319C0.738043 0.904586 0.681526 0.944454 0.634776 0.994453C0.588027 1.04445 0.552042 1.10352 0.52905 1.16799C0.506058 1.23247 0.496549 1.30097 0.501112 1.36927C0.618366 3.00194 1.26635 4.55147 2.34625 5.78159C3.42615 7.0117 4.87871 7.8549 6.48245 8.1826V14.7659C6.48248 14.8609 6.50958 14.954 6.56058 15.0341C6.61158 15.1143 6.68436 15.1783 6.7704 15.2186C6.85644 15.2589 6.95218 15.2738 7.0464 15.2616C7.14063 15.2495 7.22944 15.2107 7.30245 15.1499L9.30245 13.4833C9.35883 13.4364 9.40419 13.3777 9.4353 13.3114C9.46641 13.245 9.48251 13.1726 9.48245 13.0993V8.1826C11.0867 7.85551 12.5399 7.01257 13.6204 5.78239C14.7008 4.55221 15.3492 3.00235 15.4664 1.36927Z" stroke="black" stroke-linecap="round" stroke-linejoin="round"/>
</g>
<defs>
<clipPath id="clip0_4857_3468">
<rect width="16" height="16" fill="white"/>
</clipPath>
</defs>
</svg>
