<svg width="24" height="24" viewBox="0 0 24 24" fill="none" xmlns="http://www.w3.org/2000/svg">
<g clip-path="url(#clip0_0_154)">
<path d="M17.2712 5.77051V3.37467C17.2712 3.31175 17.2588 3.24944 17.2347 3.19131C17.2106 3.13317 17.1753 3.08035 17.1308 3.03585C17.0863 2.99136 17.0335 2.95606 16.9754 2.93198C16.9172 2.9079 16.8549 2.89551 16.792 2.89551H9.60449V21.1038H16.792C16.8549 21.1038 16.9172 21.0914 16.9754 21.0674C17.0335 21.0433 17.0863 21.008 17.1308 20.9635C17.1753 20.919 17.2106 20.8662 17.2347 20.808C17.2588 20.7499 17.2712 20.6876 17.2712 20.6247V18.2288" fill="#ECF2FB"/>
<path d="M17.2712 5.77051V3.37467C17.2712 3.31175 17.2588 3.24944 17.2347 3.19131C17.2106 3.13317 17.1753 3.08035 17.1308 3.03585C17.0863 2.99136 17.0335 2.95606 16.9754 2.93198C16.9172 2.9079 16.8549 2.89551 16.792 2.89551H9.60449V21.1038H16.792C16.8549 21.1038 16.9172 21.0914 16.9754 21.0674C17.0335 21.0433 17.0863 21.008 17.1308 20.9635C17.1753 20.919 17.2106 20.8662 17.2347 20.808C17.2588 20.7499 17.2712 20.6876 17.2712 20.6247V18.2288" stroke="black" stroke-linecap="round" stroke-linejoin="round"/>
<path d="M23.0205 12H11.5205" stroke="black" stroke-linecap="round" stroke-linejoin="round"/>
<path d="M19.1875 15.8337L23.0208 12.0003L19.1875 8.16699" stroke="black" stroke-linecap="round" stroke-linejoin="round"/>
<path d="M0.979492 20.8379C0.979535 20.947 1.01679 21.0527 1.08509 21.1378C1.1534 21.2228 1.24867 21.282 1.35516 21.3056L9.02183 23.0095C9.09183 23.025 9.16442 23.0245 9.23424 23.0082C9.30407 22.9919 9.36934 22.9602 9.42526 22.9153C9.48117 22.8704 9.52631 22.8136 9.55733 22.7489C9.58835 22.6843 9.60446 22.6135 9.60449 22.5418V1.45847C9.60446 1.38677 9.58835 1.31599 9.55733 1.25135C9.52631 1.18671 9.48117 1.12985 9.42526 1.08497C9.36934 1.04009 9.30407 1.00833 9.23424 0.992036C9.16442 0.975738 9.09183 0.975317 9.02183 0.990804L1.35516 2.69472C1.24867 2.71828 1.1534 2.77746 1.08509 2.8625C1.01679 2.94753 0.979535 3.05332 0.979492 3.16239V20.8379Z" fill="#F9D835"/>
<path d="M4.81283 1.92578L1.35516 2.69245C1.24835 2.71608 1.15283 2.77555 1.08449 2.86097C1.01615 2.9464 0.979101 3.05263 0.979495 3.16203V20.8375C0.979538 20.9466 1.01679 21.0524 1.08509 21.1374C1.1534 21.2225 1.24867 21.2816 1.35516 21.3052L4.81283 22.0719V1.92578Z" fill="#F9D835"/>
<path d="M0.979492 20.8379C0.979535 20.947 1.01679 21.0527 1.08509 21.1378C1.1534 21.2228 1.24867 21.282 1.35516 21.3056L9.02183 23.0095C9.09183 23.025 9.16442 23.0245 9.23424 23.0082C9.30407 22.9919 9.36934 22.9602 9.42526 22.9153C9.48117 22.8704 9.52631 22.8136 9.55733 22.7489C9.58835 22.6843 9.60446 22.6135 9.60449 22.5418V1.45847C9.60446 1.38677 9.58835 1.31599 9.55733 1.25135C9.52631 1.18671 9.48117 1.12985 9.42526 1.08497C9.36934 1.04009 9.30407 1.00833 9.23424 0.992036C9.16442 0.975738 9.09183 0.975317 9.02183 0.990804L1.35516 2.69472C1.24867 2.71828 1.1534 2.77746 1.08509 2.8625C1.01679 2.94753 0.979535 3.05332 0.979492 3.16239V20.8379Z" stroke="black" stroke-linecap="round" stroke-linejoin="round"/>
<path d="M4.8125 12C4.8125 12.3812 4.96395 12.7469 5.23353 13.0165C5.50312 13.286 5.86875 13.4375 6.25 13.4375C6.63125 13.4375 6.99688 13.286 7.26647 13.0165C7.53605 12.7469 7.6875 12.3812 7.6875 12C7.6875 11.6188 7.53605 11.2531 7.26647 10.9835C6.99688 10.7139 6.63125 10.5625 6.25 10.5625C5.86875 10.5625 5.50312 10.7139 5.23353 10.9835C4.96395 11.2531 4.8125 11.6188 4.8125 12Z" fill="#F9D835" stroke="black" stroke-linecap="round" stroke-linejoin="round"/>
</g>
<defs>
<clipPath id="clip0_0_154">
<rect width="24" height="24" fill="white"/>
</clipPath>
</defs>
</svg>
