<svg width="19" height="19" viewBox="0 0 19 19" fill="none" xmlns="http://www.w3.org/2000/svg">
<g clip-path="url(#clip0_368_508)">
<path d="M1.84091 13.9759C2.05004 15.7721 3.56662 17.1982 5.44197 17.2851C6.7382 17.3453 8.06233 17.3765 9.49944 17.3765C10.9366 17.3765 12.2607 17.3453 13.5569 17.2851C15.4323 17.1982 16.9489 15.7721 17.1579 13.9759C17.4484 11.4812 17.4484 9.35671 17.1579 6.86197C16.9489 5.0658 15.4323 3.63967 13.5569 3.55272C12.2607 3.49262 10.9366 3.46138 9.49944 3.46138C8.06233 3.46138 6.7382 3.49262 5.44197 3.55272C3.56662 3.63967 2.05004 5.0658 1.84091 6.86197C1.55043 9.35671 1.55043 11.4812 1.84091 13.9759Z" stroke="white" stroke-width="1.3566" stroke-linecap="round" stroke-linejoin="round"/>
<path d="M6.03613 1.62347V5.08914" stroke="white" stroke-width="1.3566" stroke-linecap="round" stroke-linejoin="round"/>
<path d="M12.9629 1.62347V5.08914" stroke="white" stroke-width="1.3566" stroke-linecap="round" stroke-linejoin="round"/>
<path d="M6.03772 9.54278C5.83608 9.54278 5.72266 9.42936 5.72266 9.22772C5.72266 9.02608 5.83608 8.91266 6.03772 8.91266" stroke="white" stroke-width="1.3566" stroke-linecap="round" stroke-linejoin="round"/>
<path d="M6.04004 9.54278C6.24168 9.54278 6.3551 9.42936 6.3551 9.22772C6.3551 9.02608 6.24168 8.91266 6.04004 8.91266" stroke="white" stroke-width="1.3566" stroke-linecap="round" stroke-linejoin="round"/>
<path d="M6.03772 13.3235C5.83608 13.3235 5.72266 13.2101 5.72266 13.0084C5.72266 12.8068 5.83608 12.6934 6.03772 12.6934" stroke="white" stroke-width="1.3566" stroke-linecap="round" stroke-linejoin="round"/>
<path d="M6.04004 13.3235C6.24168 13.3235 6.3551 13.2101 6.3551 13.0084C6.3551 12.8068 6.24168 12.6934 6.04004 12.6934" stroke="white" stroke-width="1.3566" stroke-linecap="round" stroke-linejoin="round"/>
<path d="M9.4967 9.54278C9.29506 9.54278 9.18164 9.42936 9.18164 9.22772C9.18164 9.02608 9.29506 8.91266 9.4967 8.91266" stroke="white" stroke-width="1.3566" stroke-linecap="round" stroke-linejoin="round"/>
<path d="M9.5 9.54278C9.70164 9.54278 9.81506 9.42936 9.81506 9.22772C9.81506 9.02608 9.70164 8.91266 9.5 8.91266" stroke="white" stroke-width="1.3566" stroke-linecap="round" stroke-linejoin="round"/>
<path d="M9.4967 13.3235C9.29506 13.3235 9.18164 13.2101 9.18164 13.0084C9.18164 12.8068 9.29506 12.6934 9.4967 12.6934" stroke="white" stroke-width="1.3566" stroke-linecap="round" stroke-linejoin="round"/>
<path d="M9.5 13.3235C9.70164 13.3235 9.81506 13.2101 9.81506 13.0084C9.81506 12.8068 9.70164 12.6934 9.5 12.6934" stroke="white" stroke-width="1.3566" stroke-linecap="round" stroke-linejoin="round"/>
<path d="M12.9586 9.54278C12.757 9.54278 12.6436 9.42936 12.6436 9.22772C12.6436 9.02608 12.757 8.91266 12.9586 8.91266" stroke="white" stroke-width="1.3566" stroke-linecap="round" stroke-linejoin="round"/>
<path d="M12.9619 9.54278C13.1636 9.54278 13.277 9.42936 13.277 9.22772C13.277 9.02608 13.1636 8.91266 12.9619 8.91266" stroke="white" stroke-width="1.3566" stroke-linecap="round" stroke-linejoin="round"/>
</g>
<defs>
<clipPath id="clip0_368_508">
<rect width="19" height="19" fill="white"/>
</clipPath>
</defs>
</svg>
