<svg width="19" height="19" viewBox="0 0 19 19" fill="none" xmlns="http://www.w3.org/2000/svg">
<path d="M9.5 13.6561V17.3765" stroke="white" stroke-width="1.3566" stroke-linecap="round" stroke-linejoin="round"/>
<path d="M7.6822 13.6561C6.28392 14.7339 5.09176 15.9402 4.04688 17.3765" stroke="white" stroke-width="1.3566" stroke-linecap="round" stroke-linejoin="round"/>
<path d="M11.3174 13.6561C12.7157 14.7339 13.9078 15.9402 14.9527 17.3765" stroke="white" stroke-width="1.3566" stroke-linecap="round" stroke-linejoin="round"/>
<path d="M17.2658 5.35574C12.0735 5.01402 6.92278 5.01402 1.73047 5.35575" stroke="white" stroke-width="1.3566" stroke-linecap="round" stroke-linejoin="round"/>
<path d="M9.49762 13.6562C7.31552 13.6562 5.1773 13.5705 3.17016 13.3315C2.60821 13.2646 2.17313 12.8165 2.07993 12.2583C1.87261 11.0168 1.62109 9.82914 1.62109 7.63986C1.62109 5.45057 1.87261 4.26292 2.07993 3.02134C2.17313 2.46314 2.60821 2.01509 3.17016 1.94818C5.1773 1.7092 7.31552 1.62348 9.49762 1.62348C11.6797 1.62348 13.8179 1.7092 15.8251 1.94818C16.387 2.01509 16.8221 2.46314 16.9153 3.02134C17.1227 4.26292 17.3741 5.45057 17.3741 7.63986C17.3741 9.82914 17.1227 11.0168 16.9153 12.2583C16.8221 12.8165 16.387 13.2646 15.8251 13.3315C13.8179 13.5705 11.6797 13.6562 9.49762 13.6562Z" stroke="white" stroke-width="1.3566" stroke-linecap="round" stroke-linejoin="round"/>
</svg>
