<svg width="76" height="76" viewBox="0 0 76 76" fill="none" xmlns="http://www.w3.org/2000/svg">
<rect width="76" height="76" rx="38" fill="#F9D835"/>
<path d="M18 49.4288V26.5703H27.4699C32.009 26.5703 35.0459 29.5746 35.0459 33.5258C35.0459 36.8893 32.858 39.5343 29.4292 40.2854L35.6337 49.4288H31.2906L25.2494 40.4813H21.6247V49.4288H18ZM21.6247 37.2485H27.4699C29.7558 37.2485 31.3232 35.6157 31.3232 33.5258C31.3232 31.4032 29.7558 29.8032 27.4699 29.8032H21.6247V37.2485Z" fill="black"/>
<path d="M38.505 49.4288V26.5703H42.1297V36.3995H54.408V26.5703H58V49.4288H54.408V39.5996H42.1297V49.4288H38.505Z" fill="black"/>
</svg>
