<svg width="50" height="51" viewBox="0 0 50 51" fill="none" xmlns="http://www.w3.org/2000/svg">
<path d="M4.98047 8.17383H45.0195C45.0195 8.17383 46.9727 8.17383 46.9727 10.127V41.377C46.9727 41.377 46.9727 43.3301 45.0195 43.3301H4.98047C4.98047 43.3301 3.02734 43.3301 3.02734 41.377V10.127C3.02734 10.127 3.02734 8.17383 4.98047 8.17383Z" stroke="black" stroke-width="3.125" stroke-linecap="round" stroke-linejoin="round"/>
<path d="M17.6758 18.2969V22.334" stroke="black" stroke-width="3.125" stroke-linecap="round" stroke-linejoin="round"/>
<path d="M32.3242 18.2969V22.334" stroke="black" stroke-width="3.125" stroke-linecap="round" stroke-linejoin="round"/>
<path d="M13.2812 33.9218C14.4638 32.018 16.1407 30.4708 18.1332 29.4448C20.1257 28.4188 22.3591 27.9525 24.5957 28.0956C26.9307 28.0546 29.243 28.56 31.3479 29.5716C33.4528 30.5832 35.292 32.0729 36.7188 33.9218" stroke="black" stroke-width="3.125" stroke-linecap="round" stroke-linejoin="round"/>
</svg>
