<svg width="24" height="24" viewBox="0 0 24 24" fill="none" xmlns="http://www.w3.org/2000/svg">
<g clip-path="url(#clip0_49_16862)">
<path d="M16.257 8.24278C15.325 8.1802 14.399 8.43213 13.6272 8.95825C12.8554 9.48437 12.2825 10.2542 12.0001 11.1446C11.7177 10.2542 11.1448 9.48437 10.373 8.95825C9.60115 8.43213 8.67513 8.1802 7.74316 8.24278" stroke="black" stroke-linecap="round" stroke-linejoin="round"/>
<path d="M3.37467 0.979492H8.16634C8.16634 0.979492 8.64551 0.979492 8.64551 1.45866V2.41699C8.64551 2.41699 8.64551 2.89616 8.16634 2.89616H3.37467C3.37467 2.89616 2.89551 2.89616 2.89551 2.41699V1.45866C2.89551 1.45866 2.89551 0.979492 3.37467 0.979492Z" stroke="black" stroke-linecap="round" stroke-linejoin="round"/>
<path d="M20.6253 2.89616H15.8337C15.8337 2.89616 15.3545 2.89616 15.3545 2.41699V1.45866C15.3545 1.45866 15.3545 0.979492 15.8337 0.979492H20.6253C20.6253 0.979492 21.1045 0.979492 21.1045 1.45866V2.41699C21.1045 2.41699 21.1045 2.89616 20.6253 2.89616Z" stroke="black" stroke-linecap="round" stroke-linejoin="round"/>
<path d="M5.29199 6.96842L3.99633 9.12467C3.85011 9.41721 3.81577 9.75307 3.89978 10.0691C3.98378 10.3852 4.18033 10.6597 4.45249 10.8411C4.60355 10.9416 4.77343 11.0104 4.95186 11.0434C5.13029 11.0764 5.31355 11.0729 5.49057 11.033C5.66759 10.9931 5.83468 10.9178 5.98174 10.8115C6.1288 10.7052 6.25278 10.5702 6.34616 10.4146L7.44153 8.77392C7.91492 8.06532 8.1674 7.23219 8.16699 6.38001V2.89551H4.23783L1.92441 5.7868C1.31253 6.5517 0.979278 7.50211 0.979492 8.48163V13.4372C0.979492 13.8184 1.13094 14.1841 1.40053 14.4536C1.67011 14.7232 2.03574 14.8747 2.41699 14.8747C2.79824 14.8747 3.16387 14.7232 3.43346 14.4536C3.70304 14.1841 3.85449 13.8184 3.85449 13.4372V9.72363" stroke="black" stroke-linecap="round" stroke-linejoin="round"/>
<path d="M18.708 6.96842L20.0037 9.12467C20.1499 9.41721 20.1842 9.75307 20.1002 10.0691C20.0162 10.3852 19.8197 10.6597 19.5475 10.8411C19.3964 10.9417 19.2265 11.0107 19.0479 11.0438C18.8694 11.0769 18.686 11.0734 18.5089 11.0335C18.3318 10.9936 18.1646 10.9182 18.0174 10.8118C17.8703 10.7054 17.7463 10.5703 17.6529 10.4146L16.5585 8.77392C16.0851 8.06532 15.8326 7.23219 15.833 6.38001V2.89551H19.7622L22.0756 5.7868C22.6875 6.5517 23.0207 7.50211 23.0205 8.48163V13.4372C23.0205 13.8184 22.8691 14.1841 22.5995 14.4536C22.3299 14.7232 21.9643 14.8747 21.583 14.8747C21.2018 14.8747 20.8361 14.7232 20.5665 14.4536C20.297 14.1841 20.1455 13.8184 20.1455 13.4372V9.72363" stroke="black" stroke-linecap="round" stroke-linejoin="round"/>
<path d="M19.2327 15.9531C17.4013 19.1252 13.3638 22.1497 12.2752 22.9308C12.1954 22.9893 12.0991 23.0209 12.0001 23.0209C11.9012 23.0209 11.8048 22.9893 11.7251 22.9308C10.6364 22.1497 6.59895 19.1252 4.76758 15.9531" stroke="black" stroke-linecap="round" stroke-linejoin="round"/>
</g>
<defs>
<clipPath id="clip0_49_16862">
<rect width="24" height="24" fill="white"/>
</clipPath>
</defs>
</svg>
