<svg width="24" height="24" viewBox="0 0 24 24" fill="none" xmlns="http://www.w3.org/2000/svg">
<g clip-path="url(#clip0_6_2223)">
<path d="M1.93783 16.3125H9.60449C9.60449 16.3125 10.5628 16.3125 10.5628 17.2708V22.0625C10.5628 22.0625 10.5628 23.0208 9.60449 23.0208H1.93783C1.93783 23.0208 0.979492 23.0208 0.979492 22.0625V17.2708C0.979492 17.2708 0.979492 16.3125 1.93783 16.3125Z" stroke="black" stroke-linecap="round" stroke-linejoin="round"/>
<path d="M22.0625 23.0208H14.3958C14.3958 23.0208 13.4375 23.0208 13.4375 22.0625V11.5208C13.4375 11.5208 13.4375 10.5625 14.3958 10.5625H22.0625C22.0625 10.5625 23.0208 10.5625 23.0208 11.5208V22.0625C23.0208 22.0625 23.0208 23.0208 22.0625 23.0208Z" stroke="black" stroke-linecap="round" stroke-linejoin="round"/>
<path d="M22.0625 7.68783H14.3958C14.3958 7.68783 13.4375 7.68783 13.4375 6.72949V1.93783C13.4375 1.93783 13.4375 0.979492 14.3958 0.979492H22.0625C22.0625 0.979492 23.0208 0.979492 23.0208 1.93783V6.72949C23.0208 6.72949 23.0208 7.68783 22.0625 7.68783Z" stroke="black" stroke-linecap="round" stroke-linejoin="round"/>
<path d="M1.93783 0.979492H9.60449C9.60449 0.979492 10.5628 0.979492 10.5628 1.93783V12.4795C10.5628 12.4795 10.5628 13.4378 9.60449 13.4378H1.93783C1.93783 13.4378 0.979492 13.4378 0.979492 12.4795V1.93783C0.979492 1.93783 0.979492 0.979492 1.93783 0.979492Z" stroke="black" stroke-linecap="round" stroke-linejoin="round"/>
</g>
<defs>
<clipPath id="clip0_6_2223">
<rect width="24" height="24" fill="white"/>
</clipPath>
</defs>
</svg>
