<svg width="24" height="24" viewBox="0 0 24 24" fill="none" xmlns="http://www.w3.org/2000/svg">
<g clip-path="url(#clip0_0_113)">
<path d="M14.875 20.1455C14.875 20.908 14.5721 21.6393 14.0329 22.1784C13.4938 22.7176 12.7625 23.0205 12 23.0205C11.2375 23.0205 10.5062 22.7176 9.96707 22.1784C9.4279 21.6393 9.125 20.908 9.125 20.1455H14.875Z" stroke="black" stroke-linecap="round" stroke-linejoin="round"/>
<path d="M20.1462 17.2704V11.0413C20.1443 9.38015 19.6347 7.75928 18.6856 6.39599C17.7365 5.03271 16.3933 3.99217 14.836 3.41391C14.7264 2.74038 14.3807 2.12782 13.8608 1.68576C13.341 1.24371 12.6808 1.00098 11.9984 1.00098C11.316 1.00098 10.6559 1.24371 10.136 1.68576C9.61613 2.12782 9.27046 2.74038 9.16078 3.41391C7.60373 3.99198 6.2608 5.03258 5.31229 6.396C4.36377 7.75941 3.85507 9.38038 3.85449 11.0413V17.2704C3.85449 18.0329 3.55159 18.7642 3.01242 19.3034C2.47326 19.8425 1.74199 20.1454 0.979492 20.1454H23.0212C22.2587 20.1454 21.5274 19.8425 20.9882 19.3034C20.4491 18.7642 20.1462 18.0329 20.1462 17.2704Z" stroke="black" stroke-linecap="round" stroke-linejoin="round"/>
</g>
<defs>
<clipPath id="clip0_0_113">
<rect width="24" height="24" fill="white"/>
</clipPath>
</defs>
</svg>
