<svg width="24" height="24" viewBox="0 0 24 24" fill="none" xmlns="http://www.w3.org/2000/svg">
<g clip-path="url(#clip0_49_18100)">
<path d="M5.77116 9.32949C5.98539 9.32776 6.19595 9.38513 6.3797 9.49528L8.01845 10.4661C8.12928 10.5323 8.25711 10.5644 8.38607 10.5587C8.51503 10.5529 8.63945 10.5093 8.74391 10.4335C8.85008 10.3558 8.93232 10.2498 8.98128 10.1276C9.03024 10.0055 9.04395 9.87208 9.02087 9.74253L8.66628 7.69266C8.63146 7.4955 8.64444 7.29287 8.70414 7.10177C8.76384 6.91067 8.86851 6.73668 9.00937 6.59441L10.3587 5.2422C10.4494 5.15037 10.5132 5.03548 10.5433 4.90997C10.5734 4.78446 10.5685 4.65311 10.5293 4.53016C10.4916 4.40931 10.4209 4.30136 10.3253 4.21842C10.2296 4.13548 10.1128 4.08082 9.98783 4.06057L8.11908 3.78074C7.92396 3.75213 7.73887 3.67598 7.5801 3.559C7.42134 3.44202 7.29378 3.28779 7.20866 3.10991L6.37683 1.36191C6.32232 1.24745 6.2365 1.15078 6.1293 1.0831C6.02211 1.01541 5.89793 0.979492 5.77116 0.979492C5.64439 0.979492 5.52021 1.01541 5.41301 1.0831C5.30582 1.15078 5.22 1.24745 5.16549 1.36191L4.33366 3.10703C4.24925 3.28395 4.12287 3.43756 3.96553 3.55447C3.80819 3.67139 3.62466 3.74808 3.43091 3.77787L1.55449 4.05962C1.42837 4.07911 1.3103 4.13379 1.21384 4.21736C1.11739 4.30093 1.04646 4.41001 1.0092 4.53207C0.969852 4.65502 0.964947 4.78639 0.995022 4.91192C1.0251 5.03746 1.089 5.15235 1.17978 5.24412L2.53295 6.59632C2.67361 6.73873 2.77815 6.91274 2.83783 7.10379C2.89752 7.29485 2.91062 7.49742 2.87603 7.69457L2.52145 9.74445C2.49848 9.87399 2.51225 10.0074 2.5612 10.1295C2.61015 10.2516 2.69232 10.3576 2.79841 10.4354C2.90286 10.5113 3.02729 10.5548 3.15625 10.5606C3.28521 10.5664 3.41303 10.5342 3.52387 10.468L5.1607 9.49528C5.34509 9.38497 5.55631 9.32761 5.77116 9.32949Z" stroke="black" stroke-linecap="round" stroke-linejoin="round"/>
<path d="M20.625 13.4375C19.9896 13.4375 19.3802 13.6899 18.9309 14.1392C18.4816 14.5885 18.2292 15.1979 18.2292 15.8333C18.2292 15.1979 17.9767 14.5885 17.5274 14.1392C17.0781 13.6899 16.4687 13.4375 15.8333 13.4375C15.1979 13.4375 14.5885 13.6899 14.1392 14.1392C13.6899 14.5885 13.4375 15.1979 13.4375 15.8333C13.4375 18.8042 16.7131 21.9427 17.8458 22.8828C17.9533 22.9728 18.089 23.0221 18.2292 23.0221C18.3693 23.0221 18.505 22.9728 18.6125 22.8828C19.7481 21.9417 23.0208 18.8042 23.0208 15.8333C23.0208 15.1979 22.7684 14.5885 22.3191 14.1392C21.8698 13.6899 21.2604 13.4375 20.625 13.4375Z" stroke="black" stroke-linecap="round" stroke-linejoin="round"/>
<path d="M18.2292 10.5619C19.1769 10.5619 20.1033 10.2808 20.8913 9.75431C21.6793 9.2278 22.2934 8.47944 22.6561 7.60388C23.0188 6.72831 23.1137 5.76487 22.9288 4.83538C22.7439 3.90588 22.2875 3.05209 21.6174 2.38196C20.9473 1.71184 20.0935 1.25548 19.164 1.07059C18.2345 0.885701 17.271 0.980592 16.3955 1.34326C15.5199 1.70593 14.7716 2.32009 14.245 3.10808C13.7185 3.89606 13.4375 4.82248 13.4375 5.77018C13.4375 7.04101 13.9423 8.25979 14.8409 9.1584C15.7396 10.057 16.9583 10.5619 18.2292 10.5619Z" stroke="black" stroke-linecap="round" stroke-linejoin="round"/>
<path d="M9.2557 18.4672C9.51213 18.2253 9.71744 17.9345 9.85945 17.6119C10.0015 17.2894 10.0773 16.9415 10.0825 16.5891C10.0876 16.2367 10.022 15.8868 9.88955 15.5602C9.75706 15.2336 9.56038 14.9369 9.31115 14.6876C9.06191 14.4384 8.7652 14.2417 8.43859 14.1092C8.11197 13.9767 7.76209 13.9111 7.40966 13.9163C7.05723 13.9215 6.70942 13.9973 6.38683 14.1393C6.06424 14.2813 5.77343 14.4866 5.53161 14.7431C5.2898 14.4866 4.99899 14.2813 4.6764 14.1393C4.35381 13.9973 4.006 13.9215 3.65357 13.9163C3.30114 13.9111 2.95126 13.9767 2.62464 14.1092C2.29803 14.2417 2.00132 14.4384 1.75208 14.6876C1.50285 14.9369 1.30617 15.2336 1.17368 15.5602C1.04118 15.8868 0.975582 16.2367 0.980752 16.5891C0.985923 16.9415 1.06176 17.2894 1.20378 17.6119C1.34579 17.9345 1.5511 18.2253 1.80753 18.4672C1.5511 18.709 1.34579 18.9998 1.20378 19.3224C1.06176 19.645 0.985923 19.9928 0.980752 20.3452C0.975582 20.6976 1.04118 21.0475 1.17368 21.3741C1.30617 21.7007 1.50285 21.9975 1.75208 22.2467C2.00132 22.4959 2.29803 22.6926 2.62464 22.8251C2.95126 22.9576 3.30114 23.0232 3.65357 23.018C4.006 23.0129 4.35381 22.937 4.6764 22.795C4.99899 22.653 5.2898 22.4477 5.53161 22.1912C5.77343 22.4477 6.06424 22.653 6.38683 22.795C6.70942 22.937 7.05723 23.0129 7.40966 23.018C7.76209 23.0232 8.11197 22.9576 8.43859 22.8251C8.7652 22.6926 9.06191 22.4959 9.31115 22.2467C9.56038 21.9975 9.75706 21.7007 9.88955 21.3741C10.022 21.0475 10.0876 20.6976 10.0825 20.3452C10.0773 19.9928 10.0015 19.645 9.85945 19.3224C9.71744 18.9998 9.51213 18.709 9.2557 18.4672Z" stroke="black" stroke-linecap="round" stroke-linejoin="round"/>
</g>
<defs>
<clipPath id="clip0_49_18100">
<rect width="24" height="24" fill="white"/>
</clipPath>
</defs>
</svg>
