<svg width="24" height="24" viewBox="0 0 24 24" fill="none" xmlns="http://www.w3.org/2000/svg">
<g clip-path="url(#clip0_0_89)">
<path d="M4.8125 19.3605C4.81125 19.2988 4.79787 19.238 4.77311 19.1815C4.74836 19.125 4.71271 19.0739 4.66821 19.0312C4.62372 18.9885 4.57124 18.955 4.51378 18.9325C4.45632 18.9101 4.395 18.8992 4.33333 18.9005H2.41667C2.355 18.8992 2.29368 18.9101 2.23622 18.9325C2.17876 18.955 2.12628 18.9885 2.08179 19.0312C2.03729 19.0739 2.00164 19.125 1.97689 19.1815C1.95213 19.238 1.93875 19.2988 1.9375 19.3605V22.5805H4.8125V19.3605Z" stroke="black" stroke-linecap="round" stroke-linejoin="round"/>
<path d="M10.5625 14.7599C10.5613 14.6982 10.5479 14.6374 10.5231 14.5809C10.4984 14.5244 10.4627 14.4734 10.4182 14.4306C10.3737 14.3879 10.3212 14.3544 10.2638 14.332C10.2063 14.3095 10.145 14.2986 10.0833 14.2999H8.16667C8.105 14.2986 8.04368 14.3095 7.98622 14.332C7.92876 14.3544 7.87628 14.3879 7.83179 14.4306C7.78729 14.4734 7.75164 14.5244 7.72689 14.5809C7.70213 14.6374 7.68875 14.6982 7.6875 14.7599V22.5799H10.5625V14.7599Z" stroke="black" stroke-linecap="round" stroke-linejoin="round"/>
<path d="M16.3125 17.5197C16.3113 17.458 16.2979 17.3972 16.2731 17.3407C16.2484 17.2842 16.2127 17.2331 16.1682 17.1904C16.1237 17.1477 16.0712 17.1142 16.0138 17.0917C15.9563 17.0693 15.895 17.0584 15.8333 17.0597H13.9167C13.855 17.0584 13.7937 17.0693 13.7362 17.0917C13.6788 17.1142 13.6263 17.1477 13.5818 17.1904C13.5373 17.2331 13.5016 17.2842 13.4769 17.3407C13.4521 17.3972 13.4387 17.458 13.4375 17.5197V22.5797H16.3125V17.5197Z" stroke="black" stroke-linecap="round" stroke-linejoin="round"/>
<path d="M22.0625 10.1603C22.0613 10.0986 22.0479 10.0378 22.0231 9.98131C21.9984 9.92481 21.9627 9.87374 21.9182 9.83103C21.8737 9.78831 21.8212 9.75478 21.7638 9.73235C21.7063 9.70991 21.645 9.69902 21.5833 9.7003H19.6667C19.605 9.69902 19.5437 9.70991 19.4862 9.73235C19.4288 9.75478 19.3763 9.78831 19.3318 9.83103C19.2873 9.87374 19.2516 9.92481 19.2269 9.98131C19.2021 10.0378 19.1887 10.0986 19.1875 10.1603V22.5803H22.0625V10.1603Z" stroke="black" stroke-linecap="round" stroke-linejoin="round"/>
<path d="M0.979492 22.5801H23.0212" stroke="black" stroke-linecap="round" stroke-linejoin="round"/>
<path d="M4.25098 8.86145L6.81164 6.40332" stroke="black" stroke-linecap="round" stroke-linejoin="round"/>
<path d="M9.82227 6.0293L12.2603 7.39971" stroke="black" stroke-linecap="round" stroke-linejoin="round"/>
<path d="M15.4238 7.18627L19.1172 4.40039" stroke="black" stroke-linecap="round" stroke-linejoin="round"/>
<path d="M20.6247 5.10042C21.1228 5.11043 21.6045 4.92224 21.9639 4.5772C22.3233 4.23217 22.531 3.75853 22.5413 3.26042C22.5413 2.75209 22.3394 2.26457 21.98 1.90513C21.6205 1.54568 21.133 1.34375 20.6247 1.34375C20.1163 1.34375 19.6288 1.54568 19.2694 1.90513C18.9099 2.26457 18.708 2.75209 18.708 3.26042C18.7183 3.75853 18.926 4.23217 19.2854 4.5772C19.6448 4.92224 20.1266 5.11043 20.6247 5.10042Z" stroke="black" stroke-linecap="round" stroke-linejoin="round"/>
<path d="M13.9167 10.16C14.4148 10.17 14.8965 9.98181 15.2559 9.63677C15.6153 9.29174 15.823 8.8181 15.8333 8.31999C15.8333 7.81166 15.6314 7.32414 15.272 6.9647C14.9125 6.60525 14.425 6.40332 13.9167 6.40332C13.4083 6.40332 12.9208 6.60525 12.5614 6.9647C12.2019 7.32414 12 7.81166 12 8.31999C12.0103 8.8181 12.218 9.29174 12.5774 9.63677C12.9368 9.98181 13.4185 10.17 13.9167 10.16Z" stroke="black" stroke-linecap="round" stroke-linejoin="round"/>
<path d="M8.16667 6.94026C8.66479 6.95028 9.1465 6.76208 9.50591 6.41705C9.86532 6.07201 10.073 5.59838 10.0833 5.10026C10.0833 4.59193 9.8814 4.10442 9.52195 3.74497C9.16251 3.38553 8.675 3.18359 8.16667 3.18359C7.65833 3.18359 7.17082 3.38553 6.81138 3.74497C6.45193 4.10442 6.25 4.59193 6.25 5.10026C6.26032 5.59838 6.46801 6.07201 6.82742 6.41705C7.18683 6.76208 7.66854 6.95028 8.16667 6.94026Z" stroke="black" stroke-linecap="round" stroke-linejoin="round"/>
<path d="M2.89565 12.0003C3.14435 12.0116 3.39277 11.9725 3.6259 11.8851C3.85903 11.7978 4.07203 11.6641 4.25204 11.4921C4.43205 11.3201 4.57533 11.1134 4.67321 10.8845C4.7711 10.6556 4.82157 10.4092 4.82157 10.1603C4.82157 9.91132 4.7711 9.66495 4.67321 9.43604C4.57533 9.20714 4.43205 9.00045 4.25204 8.82847C4.07203 8.6565 3.85903 8.5228 3.6259 8.43545C3.39277 8.3481 3.14435 8.30892 2.89565 8.32028C2.64695 8.30892 2.39853 8.3481 2.1654 8.43545C1.93227 8.5228 1.71927 8.6565 1.53926 8.82847C1.35925 9.00045 1.21597 9.20714 1.11808 9.43604C1.0202 9.66495 0.969727 9.91132 0.969727 10.1603C0.969727 10.4092 1.0202 10.6556 1.11808 10.8845C1.21597 11.1134 1.35925 11.3201 1.53926 11.4921C1.71927 11.6641 1.93227 11.7978 2.1654 11.8851C2.39853 11.9725 2.64695 12.0116 2.89565 12.0003Z" stroke="black" stroke-linecap="round" stroke-linejoin="round"/>
</g>
<defs>
<clipPath id="clip0_0_89">
<rect width="24" height="24" fill="white"/>
</clipPath>
</defs>
</svg>
