<svg width="24" height="24" viewBox="0 0 24 24" fill="none" xmlns="http://www.w3.org/2000/svg">
<g clip-path="url(#clip0_0_80)">
<path d="M22.0628 10.5628H19.9095C19.7141 9.59146 19.3919 8.64998 18.9511 7.76258L20.4739 6.24074C20.6536 6.06103 20.7545 5.81732 20.7545 5.5632C20.7545 5.30908 20.6536 5.06537 20.4739 4.88566L19.115 3.53058C18.9353 3.35092 18.6916 3.24999 18.4375 3.24999C18.1833 3.24999 17.9396 3.35092 17.7599 3.53058L16.2362 5.05337C15.3495 4.61246 14.4086 4.29025 13.4378 4.09503V1.93783C13.4378 1.68366 13.3369 1.4399 13.1571 1.26018C12.9774 1.08046 12.7337 0.979492 12.4795 0.979492H11.5212C11.267 0.979492 11.0232 1.08046 10.8435 1.26018C10.6638 1.4399 10.5628 1.68366 10.5628 1.93783V4.09312C9.59172 4.28834 8.65053 4.61055 7.76353 5.05145L6.23978 3.53058C6.06007 3.35092 5.81636 3.24999 5.56224 3.24999C5.30813 3.24999 5.06441 3.35092 4.8847 3.53058L3.52866 4.88662C3.349 5.06633 3.24807 5.31004 3.24807 5.56416C3.24807 5.81827 3.349 6.06199 3.52866 6.2417L5.05241 7.76449C4.61196 8.65168 4.28977 9.5928 4.09408 10.5638H1.93783C1.68366 10.5638 1.4399 10.6648 1.26018 10.8445C1.08046 11.0242 0.979492 11.268 0.979492 11.5221V12.4805C0.979492 12.7346 1.08046 12.9784 1.26018 13.1581C1.4399 13.3378 1.68366 13.4388 1.93783 13.4388H4.09024C4.28593 14.4098 4.60813 15.3509 5.04858 16.2381L3.52483 17.7618C3.34517 17.9415 3.24424 18.1853 3.24424 18.4394C3.24424 18.6935 3.34517 18.9372 3.52483 19.1169L4.8847 20.472C5.06441 20.6517 5.30813 20.7526 5.56224 20.7526C5.81636 20.7526 6.06007 20.6517 6.23978 20.472L7.76258 18.9482C8.64998 19.389 9.59146 19.7112 10.5628 19.9066V22.0628C10.5628 22.317 10.6638 22.5607 10.8435 22.7405C11.0232 22.9202 11.267 23.0212 11.5212 23.0212H12.4795C12.7337 23.0212 12.9774 22.9202 13.1571 22.7405C13.3369 22.5607 13.4378 22.317 13.4378 22.0628V19.9114C14.4085 19.7158 15.3494 19.3936 16.2362 18.953L17.7609 20.4758C17.9406 20.6555 18.1843 20.7564 18.4384 20.7564C18.6925 20.7564 18.9362 20.6555 19.116 20.4758L20.471 19.1207C20.6507 18.941 20.7516 18.6973 20.7516 18.4432C20.7516 18.1891 20.6507 17.9454 20.471 17.7657L18.9482 16.2419C19.3887 15.3547 19.7109 14.4136 19.9066 13.4426H22.0628C22.317 13.4426 22.5607 13.3417 22.7405 13.1619C22.9202 12.9822 23.0212 12.7385 23.0212 12.4843V11.526C23.0218 11.3997 22.9975 11.2746 22.9496 11.1577C22.9017 11.0409 22.8312 10.9347 22.7422 10.8452C22.6531 10.7557 22.5473 10.6847 22.4307 10.6362C22.3141 10.5878 22.1891 10.5628 22.0628 10.5628ZM12.0003 16.3128C11.1474 16.3128 10.3136 16.0599 9.60443 15.586C8.89524 15.1122 8.3425 14.4387 8.0161 13.6506C7.68969 12.8626 7.60429 11.9955 7.77069 11.159C7.93709 10.3225 8.34781 9.55404 8.95093 8.95093C9.55404 8.34781 10.3225 7.93709 11.159 7.77069C11.9955 7.60429 12.8626 7.68969 13.6506 8.0161C14.4387 8.3425 15.1122 8.89524 15.586 9.60443C16.0599 10.3136 16.3128 11.1474 16.3128 12.0003C16.3128 13.1441 15.8585 14.241 15.0497 15.0497C14.241 15.8585 13.1441 16.3128 12.0003 16.3128Z" stroke="black" stroke-linecap="round" stroke-linejoin="round"/>
</g>
<defs>
<clipPath id="clip0_0_80">
<rect width="24" height="24" fill="white"/>
</clipPath>
</defs>
</svg>
