<svg width="24" height="24" viewBox="0 0 24 24" fill="none" xmlns="http://www.w3.org/2000/svg">
<path d="M14.1827 8.88477C15.1467 9.21784 15.9615 9.88183 16.4823 10.7588C17.0032 11.6358 17.1963 12.6689 17.0274 13.6748C16.8585 14.6807 16.3386 15.5942 15.56 16.253C14.7813 16.9118 13.7944 17.2733 12.7744 17.2733C11.7545 17.2733 10.7675 16.9118 9.98887 16.253C9.21023 15.5942 8.69031 14.6807 8.52144 13.6748C8.35257 12.6689 8.54569 11.6358 9.06651 10.7588C9.58732 9.88183 10.4021 9.21784 11.3662 8.88477" stroke="black" stroke-linecap="round" stroke-linejoin="round"/>
<path d="M14.2119 2.01465C18.8742 2.59923 22.8369 6.52648 22.8369 11.2836C22.8367 12.7526 22.4894 14.2007 21.8232 15.5098C21.157 16.819 20.1909 17.9522 19.0036 18.8171V23.0213" stroke="black" stroke-linecap="round" stroke-linejoin="round"/>
<path d="M4.62883 15.8336V15.3544H2.417C2.34156 15.3541 2.26725 15.3361 2.20011 15.3017C2.13298 15.2673 2.07491 15.2175 2.03064 15.1564C1.98637 15.0954 1.95715 15.0247 1.94535 14.9502C1.93355 14.8757 1.93951 14.7994 1.96275 14.7277C3.79029 9.05815 5.10704 2.96315 11.3372 2.05273" stroke="black" stroke-linecap="round" stroke-linejoin="round"/>
<path d="M9.42059 23.0206V21.1039H7.50392C7.20811 21.1036 6.91406 21.0583 6.63184 20.9697" stroke="black" stroke-linecap="round" stroke-linejoin="round"/>
<path d="M11.3369 1.93783C11.3369 1.68366 11.4379 1.4399 11.6176 1.26018C11.7973 1.08046 12.0411 0.979492 12.2952 0.979492H13.2536C13.5077 0.979492 13.7515 1.08046 13.9312 1.26018C14.1109 1.4399 14.2119 1.68366 14.2119 1.93783V8.64616C14.2119 8.77201 14.1871 8.89663 14.139 9.0129C14.0908 9.12917 14.0202 9.23481 13.9312 9.3238C13.8422 9.41279 13.7366 9.48338 13.6203 9.53154C13.504 9.5797 13.3794 9.60449 13.2536 9.60449H12.2952C12.1694 9.60449 12.0448 9.5797 11.9285 9.53154C11.8122 9.48338 11.7066 9.41279 11.6176 9.3238C11.5286 9.23481 11.458 9.12917 11.4099 9.0129C11.3617 8.89663 11.3369 8.77201 11.3369 8.64616V1.93783Z" stroke="black" stroke-linecap="round" stroke-linejoin="round"/>
<path d="M12.7744 14.3955C13.0587 14.3955 13.3367 14.3112 13.573 14.1532C13.8094 13.9953 13.9937 13.7708 14.1025 13.5081C14.2113 13.2454 14.2398 12.9564 14.1843 12.6776C14.1288 12.3987 13.9919 12.1426 13.7909 11.9415C13.5898 11.7405 13.3337 11.6036 13.0549 11.5481C12.776 11.4927 12.487 11.5211 12.2243 11.6299C11.9616 11.7387 11.7371 11.923 11.5792 12.1594C11.4212 12.3958 11.3369 12.6737 11.3369 12.958C11.3369 13.3393 11.4884 13.7049 11.7579 13.9745C12.0275 14.2441 12.3932 14.3955 12.7744 14.3955Z" stroke="black" stroke-linecap="round" stroke-linejoin="round"/>
<path d="M2.71191 18.947C2.71217 18.6294 2.83849 18.325 3.06311 18.1005C3.28774 17.8761 3.59229 17.75 3.90983 17.75H4.389C4.54631 17.75 4.70208 17.781 4.84742 17.8412C4.99276 17.9014 5.12482 17.9896 5.23605 18.1009C5.34729 18.2121 5.43553 18.3442 5.49573 18.4895C5.55593 18.6348 5.58691 18.7906 5.58691 18.9479C5.58691 19.2656 5.46071 19.5703 5.23605 19.795C5.0114 20.0196 4.7067 20.1458 4.389 20.1458H3.90983C3.59212 20.1458 3.28743 20.0196 3.06278 19.795C2.83812 19.5703 2.71191 19.2647 2.71191 18.947Z" stroke="black" stroke-linecap="round" stroke-linejoin="round"/>
<path d="M12.3384 14.3281C10.6872 16.9693 7.90416 18.9482 5.58691 18.9482" stroke="black" stroke-linecap="round" stroke-linejoin="round"/>
</svg>
