<svg width="24" height="24" viewBox="0 0 24 24" fill="none" xmlns="http://www.w3.org/2000/svg">
<g clip-path="url(#clip0_49_6502)">
<path d="M0.979492 15.3545V23.0212" stroke="black" stroke-linecap="round" stroke-linejoin="round"/>
<path d="M15.3545 22.0625C15.3545 21.3 15.0516 20.5687 14.5124 20.0296C13.9733 19.4904 13.242 19.1875 12.4795 19.1875H8.88574C8.88574 18.425 8.58284 17.6937 8.04367 17.1546C7.50451 16.6154 6.77324 16.3125 6.01074 16.3125H0.979492V22.0625H15.3545Z" stroke="black" stroke-linecap="round" stroke-linejoin="round"/>
<path d="M6.01074 19.1875H9.60449" stroke="black" stroke-linecap="round" stroke-linejoin="round"/>
<path d="M15.8333 17.2708H13.4375V13.9167C13.4375 12.6458 13.9423 11.4271 14.8409 10.5284C15.7396 9.62983 16.9583 9.125 18.2292 9.125C19.5 9.125 20.7188 9.62983 21.6174 10.5284C22.516 11.4271 23.0208 12.6458 23.0208 13.9167V17.2708H20.625L20.1458 23.0208H17.2708" stroke="black" stroke-linecap="round" stroke-linejoin="round"/>
<path d="M14.875 4.33366C14.875 4.77413 14.9618 5.2103 15.1303 5.61724C15.2989 6.02419 15.546 6.39395 15.8574 6.70541C16.1689 7.01688 16.5386 7.26394 16.9456 7.4325C17.3525 7.60107 17.7887 7.68783 18.2292 7.68783C18.6696 7.68783 19.1058 7.60107 19.5128 7.4325C19.9197 7.26394 20.2895 7.01688 20.6009 6.70541C20.9124 6.39395 21.1595 6.02419 21.328 5.61724C21.4966 5.2103 21.5833 4.77413 21.5833 4.33366C21.5833 3.44408 21.2299 2.59093 20.6009 1.9619C19.9719 1.33288 19.1187 0.979492 18.2292 0.979492C17.3396 0.979492 16.4864 1.33288 15.8574 1.9619C15.2284 2.59093 14.875 3.44408 14.875 4.33366Z" stroke="black" stroke-linecap="round" stroke-linejoin="round"/>
<path d="M7.20801 4.8125C7.20801 5.575 7.51091 6.30627 8.05008 6.84543C8.58924 7.3846 9.32051 7.6875 10.083 7.6875C10.8455 7.6875 11.5768 7.3846 12.1159 6.84543C12.6551 6.30627 12.958 5.575 12.958 4.8125C12.958 4.05 12.6551 3.31874 12.1159 2.77957C11.5768 2.2404 10.8455 1.9375 10.083 1.9375C9.32051 1.9375 8.58924 2.2404 8.05008 2.77957C7.51091 3.31874 7.20801 4.05 7.20801 4.8125Z" stroke="black" stroke-linecap="round" stroke-linejoin="round"/>
<path d="M5.29199 14.3954V13.9163C5.29173 13.1097 5.4951 12.316 5.88325 11.6089C6.2714 10.9018 6.83177 10.3042 7.51242 9.87135C8.19307 9.43852 8.97197 9.18451 9.77693 9.13288C10.5819 9.08124 11.3869 9.23365 12.1172 9.57598" stroke="black" stroke-linecap="round" stroke-linejoin="round"/>
</g>
<defs>
<clipPath id="clip0_49_6502">
<rect width="24" height="24" fill="white"/>
</clipPath>
</defs>
</svg>
