<svg width="30" height="30" viewBox="0 0 30 30" fill="none" xmlns="http://www.w3.org/2000/svg">
<g clip-path="url(#clip0_188_1160)">
<path d="M1.22363 14.9987C1.22363 18.6523 2.67503 22.1563 5.25854 24.7398C7.84205 27.3233 11.346 28.7747 14.9997 28.7747C18.6533 28.7747 22.1573 27.3233 24.7408 24.7398C27.3243 22.1563 28.7757 18.6523 28.7757 14.9987C28.7757 11.3451 27.3243 7.84107 24.7408 5.25757C22.1573 2.67406 18.6533 1.22266 14.9997 1.22266C11.346 1.22266 7.84205 2.67406 5.25854 5.25757C2.67503 7.84107 1.22363 11.3451 1.22363 14.9987Z" fill="#F9D835"/>
<path d="M14.9997 28.7757C11.346 28.7757 7.84205 27.3243 5.25854 24.7408C2.67503 22.1573 1.22363 18.6533 1.22363 14.9997C1.22363 11.346 2.67503 7.84205 5.25854 5.25854C7.84205 2.67503 11.346 1.22363 14.9997 1.22363V28.7757Z" fill="#ECF2FB"/>
<path d="M1.22363 14.9987C1.22363 18.6523 2.67503 22.1563 5.25854 24.7398C7.84205 27.3233 11.346 28.7747 14.9997 28.7747C18.6533 28.7747 22.1573 27.3233 24.7408 24.7398C27.3243 22.1563 28.7757 18.6523 28.7757 14.9987C28.7757 11.3451 27.3243 7.84107 24.7408 5.25757C22.1573 2.67406 18.6533 1.22266 14.9997 1.22266C11.346 1.22266 7.84205 2.67406 5.25854 5.25757C2.67503 7.84107 1.22363 11.3451 1.22363 14.9987Z" stroke="black" stroke-width="1.25" stroke-linecap="round" stroke-linejoin="round"/>
<path d="M22.1875 9.00879L13.8021 20.389L7.8125 15.5973" stroke="black" stroke-width="1.25" stroke-linecap="round" stroke-linejoin="round"/>
</g>
<defs>
<clipPath id="clip0_188_1160">
<rect width="30" height="30" fill="white"/>
</clipPath>
</defs>
</svg>
