<svg width="37" height="38" viewBox="0 0 37 38" fill="none" xmlns="http://www.w3.org/2000/svg">
<path d="M35.4907 3.5536V24.2376H25.1487C24.7568 24.2376 24.381 24.3933 24.104 24.6704C23.8269 24.9474 23.6712 25.3232 23.6712 25.7151V36.0571H2.9872C2.79318 36.0571 2.60106 36.0189 2.42181 35.9446C2.24256 35.8704 2.07969 35.7615 1.9425 35.6243C1.8053 35.4872 1.69648 35.3243 1.62223 35.145C1.54798 34.9658 1.50977 34.7737 1.50977 34.5796V3.5536C1.50977 3.16176 1.66542 2.78597 1.9425 2.5089C2.21957 2.23183 2.59536 2.07617 2.9872 2.07617H34.0132C34.2073 2.07617 34.3994 2.11439 34.5786 2.18863C34.7579 2.26288 34.9207 2.37171 35.0579 2.5089C35.1951 2.64609 35.304 2.80896 35.3782 2.98821C35.4524 3.16746 35.4907 3.35958 35.4907 3.5536Z" fill="#F9D835"/>
<path d="M35.4913 24.2363L23.6719 36.0558V25.7138C23.6719 25.3219 23.8275 24.9461 24.1046 24.6691C24.3817 24.392 24.7575 24.2363 25.1493 24.2363H35.4913Z" fill="#F9D835"/>
<path d="M35.4907 3.5536V24.2376H25.1487C24.7568 24.2376 24.381 24.3933 24.104 24.6704C23.8269 24.9474 23.6712 25.3232 23.6712 25.7151V36.0571H2.9872C2.79318 36.0571 2.60106 36.0189 2.42181 35.9446C2.24256 35.8704 2.07969 35.7615 1.9425 35.6243C1.8053 35.4872 1.69648 35.3243 1.62223 35.145C1.54798 34.9658 1.50977 34.7737 1.50977 34.5796V3.5536C1.50977 3.16176 1.66542 2.78597 1.9425 2.5089C2.21957 2.23183 2.59536 2.07617 2.9872 2.07617H34.0132C34.2073 2.07617 34.3994 2.11439 34.5786 2.18863C34.7579 2.26288 34.9207 2.37171 35.0579 2.5089C35.1951 2.64609 35.304 2.80896 35.3782 2.98821C35.4525 3.16746 35.4907 3.35958 35.4907 3.5536Z" stroke="black" stroke-width="1.54167" stroke-linecap="round" stroke-linejoin="round"/>
<path d="M35.4913 24.2363L23.6719 36.0558V25.7138C23.6719 25.3219 23.8275 24.9461 24.1046 24.6691C24.3817 24.392 24.7575 24.2363 25.1493 24.2363H35.4913Z" stroke="black" stroke-width="1.54167" stroke-linecap="round" stroke-linejoin="round"/>
<path d="M8.1582 16.0447L9.63563 14.5673C10.0276 14.1757 10.559 13.9558 11.1131 13.9558C11.6671 13.9558 12.1985 14.1757 12.5905 14.5673C12.9825 14.9588 13.5139 15.1788 14.0679 15.1788C14.622 15.1788 15.1534 14.9588 15.5454 14.5673C15.9373 14.1757 16.4687 13.9558 17.0228 13.9558C17.5768 13.9558 18.1082 14.1757 18.5002 14.5673C18.8922 14.9588 19.4236 15.1788 19.9776 15.1788C20.5317 15.1788 21.0631 14.9588 21.4551 14.5673C21.8471 14.1757 22.3785 13.9558 22.9325 13.9558C23.4866 13.9558 24.0179 14.1757 24.4099 14.5673C24.8019 14.9588 25.3333 15.1788 25.8874 15.1788C26.4414 15.1788 26.9728 14.9588 27.3648 14.5673L28.8422 13.0898" stroke="black" stroke-width="1.54167" stroke-linecap="round" stroke-linejoin="round"/>
<path d="M8.1582 23.4327L9.63563 21.9552C10.0276 21.5637 10.559 21.3438 11.1131 21.3438C11.6671 21.3438 12.1985 21.5637 12.5905 21.9552C12.9825 22.3468 13.5139 22.5667 14.0679 22.5667C14.622 22.5667 15.1534 22.3468 15.5454 21.9552" stroke="black" stroke-width="1.54167" stroke-linecap="round" stroke-linejoin="round"/>
</svg>
