<svg width="30" height="30" viewBox="0 0 30 30" fill="none" xmlns="http://www.w3.org/2000/svg">
<path d="M4.21777 16.1992C4.21777 17.615 4.49664 19.017 5.03845 20.325C5.58026 21.6331 6.3744 22.8216 7.37553 23.8227C8.37666 24.8238 9.56518 25.618 10.8732 26.1598C12.1813 26.7016 13.5832 26.9805 14.999 26.9805C16.4148 26.9805 17.8168 26.7016 19.1248 26.1598C20.4329 25.618 21.6214 24.8238 22.6225 23.8227C23.6237 22.8216 24.4178 21.6331 24.9596 20.325C25.5014 19.017 25.7803 17.615 25.7803 16.1992C25.7803 14.7834 25.5014 13.3815 24.9596 12.0734C24.4178 10.7654 23.6237 9.57686 22.6225 8.57572C21.6214 7.57459 20.4329 6.78045 19.1248 6.23864C17.8168 5.69683 16.4148 5.41797 14.999 5.41797C13.5832 5.41797 12.1813 5.69683 10.8732 6.23864C9.56518 6.78045 8.37666 7.57459 7.37553 8.57572C6.3744 9.57686 5.58026 10.7654 5.03845 12.0734C4.49664 13.3815 4.21777 14.7834 4.21777 16.1992Z" fill="#F9D835"/>
<path d="M7.37555 23.8228C5.35366 21.8009 4.21777 19.0587 4.21777 16.1993C4.21777 13.3399 5.35366 10.5976 7.37555 8.57574C9.39744 6.55385 12.1397 5.41797 14.9991 5.41797C17.8585 5.41797 20.6007 6.55385 22.6226 8.57574L7.37555 23.8228Z" fill="#ECF2FB"/>
<path d="M4.21777 16.1992C4.21777 17.615 4.49664 19.017 5.03845 20.325C5.58026 21.6331 6.3744 22.8216 7.37553 23.8227C8.37666 24.8238 9.56518 25.618 10.8732 26.1598C12.1813 26.7016 13.5832 26.9805 14.999 26.9805C16.4148 26.9805 17.8168 26.7016 19.1248 26.1598C20.4329 25.618 21.6214 24.8238 22.6225 23.8227C23.6237 22.8216 24.4178 21.6331 24.9596 20.325C25.5014 19.017 25.7803 17.615 25.7803 16.1992C25.7803 14.7834 25.5014 13.3815 24.9596 12.0734C24.4178 10.7654 23.6237 9.57686 22.6225 8.57572C21.6214 7.57459 20.4329 6.78045 19.1248 6.23864C17.8168 5.69683 16.4148 5.41797 14.999 5.41797C13.5832 5.41797 12.1813 5.69683 10.8732 6.23864C9.56518 6.78045 8.37666 7.57459 7.37553 8.57572C6.3744 9.57686 5.58026 10.7654 5.03845 12.0734C4.49664 13.3815 4.21777 14.7834 4.21777 16.1992Z" stroke="black" stroke-width="1.25" stroke-linecap="round" stroke-linejoin="round"/>
<path d="M9.38656 25.4053L6.01562 28.7774" stroke="black" stroke-width="1.25" stroke-linecap="round" stroke-linejoin="round"/>
<path d="M20.6133 25.4053L23.9842 28.7774" stroke="black" stroke-width="1.25" stroke-linecap="round" stroke-linejoin="round"/>
<path d="M15 8.41211V16.1986H19.1927" stroke="black" stroke-width="1.25" stroke-linecap="round" stroke-linejoin="round"/>
<path d="M2.95459 10.8719C4.28329 7.87632 6.67807 5.48153 9.6737 4.15283C9.25017 3.64044 8.72427 3.22218 8.1297 2.92485C7.53512 2.62753 6.88499 2.4577 6.22097 2.42624C5.55694 2.39479 4.89367 2.50241 4.27365 2.7422C3.65364 2.98199 3.09055 3.34867 2.62049 3.81873C2.15043 4.2888 1.78375 4.85188 1.54396 5.47189C1.30417 6.09191 1.19655 6.75518 1.228 7.41921C1.25946 8.08324 1.42929 8.73337 1.72661 9.32794C2.02394 9.92251 2.44219 10.4484 2.95459 10.8719Z" fill="#F9D835" stroke="black" stroke-width="1.25" stroke-linecap="round" stroke-linejoin="round"/>
<path d="M27.0463 10.8719C25.7176 7.87632 23.3228 5.48153 20.3271 4.15283C20.7507 3.64044 21.2766 3.22218 21.8711 2.92485C22.4657 2.62753 23.1159 2.4577 23.7799 2.42624C24.4439 2.39479 25.1072 2.50241 25.7272 2.7422C26.3472 2.98199 26.9103 3.34867 27.3804 3.81873C27.8504 4.2888 28.2171 4.85188 28.4569 5.47189C28.6967 6.09191 28.8043 6.75518 28.7728 7.41921C28.7414 8.08324 28.5716 8.73337 28.2742 9.32794C27.9769 9.92251 27.5587 10.4484 27.0463 10.8719Z" fill="#F9D835" stroke="black" stroke-width="1.25" stroke-linecap="round" stroke-linejoin="round"/>
</svg>
