<svg width="30" height="30" viewBox="0 0 30 30" fill="none" xmlns="http://www.w3.org/2000/svg">
<path d="M4.81836 1.22559H25.1829" stroke="black" stroke-width="1.25" stroke-linecap="round" stroke-linejoin="round"/>
<path d="M4.81836 28.7773H25.1829" stroke="black" stroke-width="1.25" stroke-linecap="round" stroke-linejoin="round"/>
<path d="M15.0003 20.3906L18.5941 23.9844H22.7868V22.7865C22.7868 20.7214 21.9664 18.7408 20.5062 17.2806C19.0459 15.8204 17.0654 15 15.0003 15C12.9352 15 10.9547 15.8204 9.49447 17.2806C8.03422 18.7408 7.21387 20.7214 7.21387 22.7865V23.9844H11.4066L15.0003 20.3906Z" fill="#F9D835"/>
<path d="M15.0003 15C12.9352 15 10.9547 15.8204 9.49447 17.2806C8.03422 18.7408 7.21387 20.7214 7.21387 22.7865V23.9844H11.4066L15.0003 20.3906V15Z" fill="#ECF2FB"/>
<path d="M18.5941 23.9854L15.0003 20.3916L11.4066 23.9854H7.21387V28.777H22.7868V23.9854H18.5941Z" fill="#F9D835"/>
<path d="M15.0003 20.3916L11.4066 23.9854H7.21387V28.777H15.0003V20.3916Z" fill="#ECF2FB"/>
<path d="M18.5941 23.9854L15.0003 20.3916L11.4066 23.9854H7.21387V28.777H22.7868V23.9854H18.5941Z" stroke="black" stroke-width="1.25" stroke-linecap="round" stroke-linejoin="round"/>
<path d="M22.7868 7.21322V1.22363H7.21387V7.21322C7.21294 8.95107 7.79645 10.6387 8.87059 12.0049H21.1289C22.2034 10.6389 22.7873 8.95119 22.7868 7.21322Z" fill="#F9D835"/>
<path d="M15.0003 1.22363H7.21387V7.21322C7.21294 8.95107 7.79645 10.6387 8.87059 12.0049H15.0003V1.22363Z" fill="#ECF2FB"/>
<path d="M22.7868 7.21322V1.22363H7.21387V7.21322C7.21294 8.95106 7.79645 10.6387 8.87059 12.0049H21.1289C22.2034 10.6389 22.7873 8.95119 22.7868 7.21322Z" stroke="black" stroke-width="1.25" stroke-linecap="round" stroke-linejoin="round"/>
<path d="M8.87012 12.0059C9.59663 12.9384 10.5263 13.6928 11.5885 14.2118C12.6506 14.7307 13.8171 15.0004 14.9993 15.0004C16.1814 15.0004 17.3479 14.7307 18.41 14.2118C19.4722 13.6928 20.4019 12.9384 21.1284 12.0059H8.87012Z" fill="#F9D835"/>
<path d="M14.9999 12.0059H8.87012C9.59636 12.9388 10.5261 13.6936 11.5884 14.2126C12.6507 14.7316 13.8175 15.0012 14.9999 15.0007V12.0059Z" fill="#ECF2FB"/>
<path d="M8.87012 12.0059C9.59663 12.9384 10.5263 13.6928 11.5885 14.2118C12.6506 14.7307 13.8171 15.0004 14.9993 15.0004C16.1814 15.0004 17.3479 14.7307 18.41 14.2118C19.4722 13.6928 20.4019 12.9384 21.1284 12.0059H8.87012Z" stroke="black" stroke-width="1.25" stroke-linecap="round" stroke-linejoin="round"/>
<path d="M15.0003 20.3906L18.5941 23.9844H22.7868V22.7865C22.7868 20.7214 21.9664 18.7408 20.5062 17.2806C19.0459 15.8204 17.0654 15 15.0003 15C12.9352 15 10.9547 15.8204 9.49447 17.2806C8.03422 18.7408 7.21387 20.7214 7.21387 22.7865V23.9844H11.4066L15.0003 20.3906Z" stroke="black" stroke-width="1.25" stroke-linecap="round" stroke-linejoin="round"/>
</svg>
