<svg width="118" height="42" viewBox="0 0 118 42" fill="none" xmlns="http://www.w3.org/2000/svg">
<path d="M8.31 29.34C5.83 29.3 3.93 29.26 2.61 29.22C1.31 29.18 0.58 29.15 0.42 29.13C0.28 29.09 0.19 29.03 0.15 28.95C0.05 28.83 0 28.66 0 28.44C0 28.02 0.15 27.6 0.45 27.18C0.87 26.52 1.36 24.98 1.92 22.56C2.48 20.14 3.14 17.05 3.9 13.29C3.96 13.01 4.2 11.86 4.62 9.84C5.14 7.44 5.75 4.54 6.45 1.14C6.51 0.940002 6.63 0.770001 6.81 0.630001C6.99 0.490001 7.16 0.420002 7.32 0.420002C7.6 0.420002 7.77 0.590001 7.83 0.930001C7.39 2.85 6.76 5.93 5.94 10.17C5.46 12.69 4.78 15.94 3.9 19.92C3.04 23.9 2.45 26.43 2.13 27.51C4.27 27.87 6 28.05 7.32 28.05C8.8 28.01 9.88 27.97 10.56 27.93C11.24 27.89 11.9 27.83 12.54 27.75C12.88 27.75 13.05 27.92 13.05 28.26C13.05 28.42 12.98 28.59 12.84 28.77C12.7 28.95 12.53 29.07 12.33 29.13C10.73 29.27 9.39 29.34 8.31 29.34Z" fill="black"/>
<path d="M24.0326 29.85C23.4326 29.85 23.1326 29.05 23.1326 27.45C23.1326 26.61 23.2026 25.77 23.3426 24.93C23.4826 24.09 23.7026 23 24.0026 21.66L24.2426 20.55C23.9026 21.21 23.5026 22.05 23.0426 23.07C22.2226 24.75 21.3926 26.22 20.5526 27.48C19.7326 28.74 18.9126 29.37 18.0926 29.37C17.0126 29.37 16.4726 28.3 16.4726 26.16C16.4726 23.5 16.9026 20.39 17.7626 16.83L18.2426 15C18.4226 14.34 18.7326 14.01 19.1726 14.01C19.4126 14.01 19.5826 14.18 19.6826 14.52C19.6426 14.88 19.5626 15.31 19.4426 15.81C19.3226 16.31 19.2426 16.67 19.2026 16.89C18.8226 18.35 18.5126 19.81 18.2726 21.27C18.0326 22.71 17.8926 24.47 17.8526 26.55C17.8526 27.35 17.9826 27.75 18.2426 27.75C18.6226 27.75 19.1326 27.31 19.7726 26.43C20.4126 25.53 21.2026 24.17 22.1426 22.35C23.0626 20.37 23.9426 18.59 24.7826 17.01C25.6226 15.41 26.2826 14.61 26.7626 14.61C27.1026 14.61 27.2726 14.8 27.2726 15.18C27.2726 15.46 27.0226 16.25 26.5226 17.55C26.1426 18.53 25.8926 19.24 25.7726 19.68C25.0726 22.08 24.6326 24.7 24.4526 27.54C24.4526 27.8 24.4726 28 24.5126 28.14C24.5726 28.26 24.6626 28.39 24.7826 28.53C24.9226 28.67 24.9926 28.84 24.9926 29.04C24.9926 29.24 24.8826 29.42 24.6626 29.58C24.4426 29.76 24.2326 29.85 24.0326 29.85Z" fill="black"/>
<path d="M32.1797 29.49C31.2197 29.49 30.4597 29.14 29.8997 28.44C29.3597 27.72 29.0897 26.86 29.0897 25.86C29.0897 24.1 29.4097 22.28 30.0497 20.4C30.7097 18.52 31.5697 16.95 32.6297 15.69C33.6697 14.43 34.7897 13.8 35.9897 13.8C36.8497 13.8 37.4097 14.11 37.6697 14.73C37.7297 14.83 37.7797 14.94 37.8197 15.06C37.8597 15.16 37.8997 15.26 37.9397 15.36C38.0397 15.64 38.1397 15.8 38.2397 15.84C38.3197 16.04 38.3597 16.19 38.3597 16.29C38.3597 16.47 38.2697 16.64 38.0897 16.8C37.9297 16.96 37.7497 17.04 37.5497 17.04C37.1297 17.04 36.8597 16.73 36.7397 16.11C36.6197 15.49 36.2897 15.18 35.7497 15.18C35.0297 15.18 34.2697 15.74 33.4697 16.86C32.6697 17.96 31.9797 19.36 31.3997 21.06C30.8397 22.66 30.5597 24.09 30.5597 25.35C30.5597 27.13 31.2097 28.02 32.5097 28.02C33.1697 28.02 33.7797 27.71 34.3397 27.09C34.3997 27.01 34.5097 26.88 34.6697 26.7C34.8297 26.5 34.9797 26.36 35.1197 26.28C35.2597 26.18 35.3897 26.13 35.5097 26.13C35.8897 26.13 36.0797 26.3 36.0797 26.64C36.0797 27.04 35.8897 27.47 35.5097 27.93C35.1297 28.37 34.6397 28.74 34.0397 29.04C33.4397 29.34 32.8197 29.49 32.1797 29.49Z" fill="black"/>
<path d="M40.6385 41.64C39.9985 41.64 39.4285 41.47 38.9285 41.13C38.4485 40.79 38.0785 40.36 37.8185 39.84C37.5585 39.34 37.4285 38.84 37.4285 38.34C37.4285 37.12 37.7585 36.03 38.4185 35.07C38.8985 34.37 39.6985 33.62 40.8185 32.82C41.8385 32.06 42.4385 31.64 42.6185 31.56L45.2285 29.64C45.2885 29.36 45.6585 28.12 46.3385 25.92L46.7285 24.69C46.8685 24.19 47.0085 23.73 47.1485 23.31C47.2885 22.89 47.3885 22.54 47.4485 22.26C46.5885 24.76 45.5585 26.67 44.3585 27.99C43.5585 28.91 42.7785 29.37 42.0185 29.37C41.2585 29.37 40.6385 29.07 40.1585 28.47C39.6985 27.85 39.4685 27.01 39.4685 25.95C39.4685 24.27 39.9485 21.62 40.9085 18C41.3885 16.2 41.6285 15.23 41.6285 15.09C41.6085 15.01 41.5985 14.92 41.5985 14.82C41.5985 14.68 41.6285 14.57 41.6885 14.49C41.9685 14.11 42.2985 13.92 42.6785 13.92C43.0585 13.92 43.2485 14.12 43.2485 14.52C43.2485 14.92 42.8785 16.6 42.1385 19.56C41.3985 22.52 41.0285 24.53 41.0285 25.59C41.0285 26.63 41.1585 27.28 41.4185 27.54C41.6585 27.8 41.9585 27.93 42.3185 27.93C43.0785 27.93 43.8885 27.29 44.7485 26.01C45.4285 25.01 46.0285 23.67 46.5485 21.99C47.0885 20.29 47.5885 18.5 48.0485 16.62L48.1985 16.02C48.4185 15.12 48.6085 14.56 48.7685 14.34C48.9285 14.1 49.1685 13.98 49.4885 13.98C49.8085 13.98 49.9685 14.1 49.9685 14.34C49.9685 14.62 49.5385 16.66 48.6785 20.46C47.8385 24 47.2385 26.64 46.8785 28.38C47.2785 28.04 47.6285 27.72 47.9285 27.42C48.3285 27.02 48.6185 26.74 48.7985 26.58C48.9985 26.42 49.1785 26.34 49.3385 26.34C49.7185 26.34 49.9085 26.51 49.9085 26.85C49.9085 27.03 49.8285 27.23 49.6685 27.45C48.5885 28.41 47.5485 29.27 46.5485 30.03C46.0685 32.67 45.6185 34.76 45.1985 36.3C44.7785 37.86 44.1985 39.14 43.4585 40.14C42.7385 41.14 41.7985 41.64 40.6385 41.64ZM40.6685 40.2C41.8885 40.2 42.9285 38.79 43.7885 35.97L44.4785 33.33L44.8685 31.38C44.0885 31.98 43.3285 32.53 42.5885 33.03C41.8485 33.53 41.2385 33.98 40.7585 34.38C40.2985 34.78 39.8785 35.29 39.4985 35.91C39.1385 36.53 38.9585 37.24 38.9585 38.04C38.9585 38.86 39.2285 39.49 39.7685 39.93C39.9685 40.11 40.2685 40.2 40.6685 40.2Z" fill="black"/>
<path d="M63.0991 29.52C61.0791 29.52 59.5291 28.36 58.4491 26.04C57.8691 24.78 57.5791 24.02 57.5791 23.76C57.5791 23.5 57.6591 23.28 57.8191 23.1C57.9591 22.9 58.1091 22.8 58.2691 22.8C58.6091 22.8 58.8091 22.93 58.8691 23.19C59.2291 24.63 59.8091 25.83 60.6091 26.79C61.4091 27.75 62.4091 28.23 63.6091 28.23C65.5491 28.23 67.0491 27.3 68.1091 25.44C69.1891 23.56 70.0491 21.08 70.6891 18L74.1091 1.77C73.3691 2.17 72.6391 2.37 71.9191 2.37C71.2791 2.37 70.2391 2.19 68.7991 1.83C67.8391 1.57 67.0991 1.42 66.5791 1.38C66.2991 1.26 66.1591 1.1 66.1591 0.900001C66.1591 0.700001 66.2391 0.510001 66.3991 0.330001C66.5791 0.150001 66.7791 0.0400007 66.9991 0C67.3391 0.0400007 67.9891 0.180001 68.9491 0.420002C70.3491 0.780001 71.3491 0.96 71.9491 0.96C72.6291 0.96 73.2891 0.77 73.9291 0.39C74.1091 0.29 74.2991 0.25 74.4991 0.27C74.6991 0.27 74.8691 0.27 75.0091 0.27C75.2891 0.27 75.4791 0.44 75.5791 0.780001C74.6591 4.2 73.4191 10.28 71.8591 19.02C71.1991 22.36 70.1991 24.95 68.8591 26.79C67.5391 28.61 65.6191 29.52 63.0991 29.52Z" fill="black"/>
<path d="M78.8231 29.4C77.7831 29.4 77.0031 28.99 76.4831 28.17C75.9831 27.35 75.7331 26.37 75.7331 25.23C75.7331 23.41 76.0331 21.65 76.6331 19.95C77.2531 18.23 78.0931 16.81 79.1531 15.69C80.1731 14.55 81.3231 13.98 82.6031 13.98C84.4431 13.98 85.3631 15.38 85.3631 18.18C85.3631 19.58 85.1331 21.01 84.6731 22.47C84.2131 23.93 83.6131 25.23 82.8731 26.37C82.1531 27.51 81.4031 28.33 80.6231 28.83C80.0231 29.21 79.4231 29.4 78.8231 29.4ZM79.0631 28.05C79.6831 28.05 80.3731 27.51 81.1331 26.43C81.9131 25.35 82.5631 24.01 83.0831 22.41C83.6231 20.81 83.8931 19.45 83.8931 18.33C83.8931 17.17 83.8231 16.45 83.6831 16.17C83.5631 15.87 83.4131 15.66 83.2331 15.54C83.0531 15.42 82.7731 15.36 82.3931 15.36C81.9731 15.36 81.5331 15.52 81.0731 15.84C80.1531 16.42 79.3531 17.42 78.6731 18.84C77.6131 20.96 77.0831 23.02 77.0831 25.02C77.0831 26.38 77.4731 27.32 78.2531 27.84C78.5331 27.98 78.8031 28.05 79.0631 28.05Z" fill="black"/>
<path d="M95.5889 29.31C95.2689 29.31 95.0389 29.25 94.8989 29.13C94.7589 29.01 94.7089 28.8 94.7489 28.5L96.2189 19.74C96.3989 18.66 96.4889 17.83 96.4889 17.25C96.4889 16.29 96.2189 15.81 95.6789 15.81C95.0189 15.81 94.1089 16.96 92.9489 19.26C91.8089 21.54 90.6289 24.12 89.4089 27L88.9889 27.96C88.6289 28.74 88.2689 29.13 87.9089 29.13C87.7089 29.13 87.5789 29.09 87.5189 29.01C87.4789 28.91 87.4589 28.71 87.4589 28.41C87.4589 28.11 87.8489 25.8 88.6289 21.48C89.4289 17.16 89.8889 14.89 90.0089 14.67C90.1289 14.43 90.2289 14.28 90.3089 14.22C90.4089 14.16 90.5889 14.13 90.8489 14.13C91.0889 14.13 91.2789 14.22 91.4189 14.4C91.5789 14.58 91.6589 14.76 91.6589 14.94C91.6589 15.06 91.5589 15.45 91.3589 16.11C90.7589 18.15 90.2889 20.13 89.9489 22.05L89.6489 23.82C89.9889 23.1 90.2389 22.54 90.3989 22.14C90.9589 20.84 91.4689 19.7 91.9289 18.72C92.4089 17.74 92.9389 16.83 93.5189 15.99C94.3989 14.73 95.2189 14.1 95.9789 14.1C97.3189 14.1 97.9889 15.18 97.9889 17.34C97.9889 17.8 97.9289 18.39 97.8089 19.11C97.6889 19.83 97.5589 20.57 97.4189 21.33C97.1389 22.79 96.9589 23.79 96.8789 24.33L96.6689 25.71C96.4889 26.95 96.3289 27.86 96.1889 28.44C96.0489 29.02 95.8489 29.31 95.5889 29.31Z" fill="black"/>
<path d="M103.638 29.43C102.998 29.43 102.498 29.33 102.138 29.13C101.778 28.91 101.488 28.58 101.268 28.14C100.848 27.36 100.638 26.42 100.638 25.32C100.638 23.4 100.928 21.58 101.508 19.86C102.088 18.12 102.878 16.66 103.878 15.48C104.838 14.36 105.888 13.8 107.028 13.8C107.628 13.8 108.098 14.05 108.438 14.55C108.798 15.03 108.978 15.62 108.978 16.32C108.978 17.54 108.658 18.6 108.018 19.5C107.398 20.4 106.558 21.15 105.498 21.75C104.578 22.29 103.458 22.83 102.138 23.37L102.078 25.53C102.078 27.21 102.588 28.05 103.608 28.05C104.028 28.05 104.428 27.97 104.808 27.81C105.208 27.65 105.638 27.43 106.098 27.15C106.638 26.83 107.018 26.67 107.238 26.67C107.578 26.67 107.748 26.85 107.748 27.21C107.748 27.47 107.498 27.78 106.998 28.14C106.518 28.5 105.948 28.81 105.288 29.07C104.628 29.31 104.078 29.43 103.638 29.43ZM102.378 21.93C103.718 21.39 104.738 20.91 105.438 20.49C106.138 20.07 106.668 19.54 107.028 18.9C107.408 18.26 107.598 17.42 107.598 16.38C107.598 15.6 107.268 15.21 106.608 15.21C106.028 15.21 105.348 15.74 104.568 16.8C103.748 17.86 103.088 19.25 102.588 20.97C102.448 21.45 102.378 21.77 102.378 21.93Z" fill="black"/>
<path d="M110.274 26.91C110.274 26.65 110.344 26.47 110.484 26.37C110.624 26.27 110.804 26.2 111.024 26.16C111.204 26.16 111.344 26.22 111.444 26.34C111.564 26.46 111.704 26.65 111.864 26.91C112.024 27.19 112.154 27.39 112.254 27.51C112.374 27.61 112.574 27.66 112.854 27.66C113.494 27.66 114.014 27.46 114.414 27.06C114.834 26.66 115.044 26.19 115.044 25.65C115.044 25.07 114.924 24.46 114.684 23.82C114.444 23.18 114.074 22.38 113.574 21.42C112.574 19.62 112.074 18.19 112.074 17.13C112.074 16.07 112.334 15.22 112.854 14.58C113.394 13.94 114.124 13.62 115.044 13.62C115.684 13.62 116.294 13.8 116.874 14.16C117.454 14.52 117.744 14.97 117.744 15.51C117.744 16.09 117.504 16.38 117.024 16.38C116.884 16.38 116.764 16.34 116.664 16.26C116.584 16.18 116.504 16.09 116.424 15.99C116.344 15.87 116.284 15.79 116.244 15.75C115.884 15.33 115.484 15.12 115.044 15.12C114.064 15.12 113.574 15.69 113.574 16.83C113.574 17.45 113.694 18.08 113.934 18.72C114.174 19.36 114.534 20.17 115.014 21.15C115.474 22.11 115.824 22.91 116.064 23.55C116.304 24.19 116.424 24.8 116.424 25.38C116.424 26.4 116.114 27.26 115.494 27.96C114.874 28.66 114.004 29.08 112.884 29.22C112.184 29.22 111.574 28.98 111.054 28.5C110.534 28 110.274 27.47 110.274 26.91Z" fill="black"/>
</svg>
