<svg width="30" height="30" viewBox="0 0 30 30" fill="none" xmlns="http://www.w3.org/2000/svg">
<g clip-path="url(#clip0_188_1126)">
<path d="M9.60905 28.776L10.208 21.5885H13.2028V17.3958C13.2028 15.8073 12.5718 14.2838 11.4485 13.1606C10.3252 12.0373 8.80175 11.4063 7.21322 11.4062C5.62468 11.4063 4.10121 12.0373 2.97794 13.1606C1.85468 14.2838 1.22363 15.8073 1.22363 17.3958V21.5885H4.21842L4.81738 28.776H9.60905Z" fill="#ECF2FB"/>
<path d="M3.02051 5.41634C3.02051 6.52832 3.46224 7.59475 4.24852 8.38103C5.03481 9.16732 6.10124 9.60905 7.21322 9.60905C8.32519 9.60905 9.39162 9.16732 10.1779 8.38103C10.9642 7.59475 11.4059 6.52832 11.4059 5.41634C11.4059 4.30437 10.9642 3.23793 10.1779 2.45165C9.39162 1.66536 8.32519 1.22363 7.21322 1.22363C6.10124 1.22363 5.03481 1.66536 4.24852 2.45165C3.46224 3.23793 3.02051 4.30437 3.02051 5.41634Z" fill="#ECF2FB"/>
<path d="M13.2028 17.3958V19.7917C13.2028 18.2031 12.5718 16.6797 11.4485 15.5564C10.3252 14.4331 8.80175 13.8021 7.21322 13.8021C5.62468 13.8021 4.10121 14.4331 2.97794 15.5564C1.85468 16.6797 1.22363 18.2031 1.22363 19.7917V17.3958C1.22363 15.8073 1.85468 14.2838 2.97794 13.1606C4.10121 12.0373 5.62468 11.4062 7.21322 11.4062C8.80175 11.4062 10.3252 12.0373 11.4485 13.1606C12.5718 14.2838 13.2028 15.8073 13.2028 17.3958Z" fill="white"/>
<path d="M11.406 5.41634C11.4076 5.82248 11.347 6.22648 11.2263 6.61426C10.9698 5.74891 10.4406 4.98964 9.71735 4.44967C8.99416 3.9097 8.11579 3.61796 7.21325 3.61796C6.31071 3.61796 5.43234 3.9097 4.70915 4.44967C3.98595 4.98964 3.45667 5.74891 3.20023 6.61426C3.07946 6.22648 3.01886 5.82248 3.02054 5.41634C3.02054 4.30437 3.46227 3.23793 4.24856 2.45165C5.03484 1.66536 6.10127 1.22363 7.21325 1.22363C8.32523 1.22363 9.39166 1.66536 10.1779 2.45165C10.9642 3.23793 11.406 4.30437 11.406 5.41634Z" fill="white"/>
<path d="M12.8818 15.4573C12.4235 14.1145 11.5034 12.978 10.2854 12.2502C9.06735 11.5225 7.63055 11.2508 6.2309 11.4835C4.83125 11.7162 3.55966 12.4382 2.64265 13.5209C1.72564 14.6036 1.22278 15.9767 1.22363 17.3956V21.5883H4.21843L4.81738 28.7758H9.60905L10.208 21.5883H11.4059" stroke="black" stroke-width="1.25" stroke-linecap="round" stroke-linejoin="round"/>
<path d="M3.02051 5.41634C3.02051 6.52832 3.46224 7.59475 4.24852 8.38103C5.03481 9.16732 6.10124 9.60905 7.21322 9.60905C8.32519 9.60905 9.39162 9.16732 10.1779 8.38103C10.9642 7.59475 11.4059 6.52832 11.4059 5.41634C11.4059 4.30437 10.9642 3.23793 10.1779 2.45165C9.39162 1.66536 8.32519 1.22363 7.21322 1.22363C6.10124 1.22363 5.03481 1.66536 4.24852 2.45165C3.46224 3.23793 3.02051 4.30437 3.02051 5.41634Z" stroke="black" stroke-width="1.25" stroke-linecap="round" stroke-linejoin="round"/>
<path d="M21.5889 28.7764C23.0104 28.7764 24.4001 28.3548 25.582 27.5651C26.764 26.7753 27.6852 25.6528 28.2292 24.3394C28.7733 23.0261 28.9156 21.5809 28.6383 20.1867C28.3609 18.7924 27.6764 17.5117 26.6712 16.5065C25.666 15.5014 24.3853 14.8168 22.9911 14.5395C21.5968 14.2621 20.1517 14.4045 18.8383 14.9485C17.525 15.4925 16.4025 16.4137 15.6127 17.5957C14.8229 18.7777 14.4014 20.1673 14.4014 21.5889C14.4014 23.4951 15.1586 25.3233 16.5065 26.6712C17.8545 28.0191 19.6826 28.7764 21.5889 28.7764Z" fill="#F9D835"/>
<path d="M21.5886 14.4014C20.1257 14.4002 18.6974 14.8458 17.4946 15.6786C16.2919 16.5114 15.3722 17.6916 14.8586 19.0613C14.345 20.4311 14.2619 21.925 14.6205 23.3433C14.9791 24.7615 15.7623 26.0365 16.8652 26.9975L26.9972 16.8655C26.3246 16.0915 25.4937 15.471 24.5606 15.0459C23.6275 14.6208 22.614 14.401 21.5886 14.4014Z" fill="#ECF2FB"/>
<path d="M21.5889 28.7764C23.0104 28.7764 24.4 28.3548 25.582 27.5651C26.764 26.7753 27.6852 25.6528 28.2293 24.3394C28.7733 23.0261 28.9156 21.5809 28.6383 20.1867C28.3609 18.7924 27.6764 17.5117 26.6712 16.5065C25.666 15.5014 24.3853 14.8168 22.9911 14.5395C21.5968 14.2621 20.1517 14.4045 18.8383 14.9485C17.525 15.4925 16.4025 16.4137 15.6127 17.5957C14.8229 18.7777 14.4014 20.1673 14.4014 21.5889C14.4014 23.4951 15.1586 25.3233 16.5065 26.6712C17.8545 28.0191 19.6826 28.7764 21.5889 28.7764Z" stroke="black" stroke-width="1.25" stroke-linecap="round" stroke-linejoin="round"/>
<path d="M24.7924 19.5039L21.3185 24.1446C21.2412 24.2475 21.1428 24.3326 21.0298 24.3941C20.9168 24.4557 20.7919 24.4922 20.6635 24.5013C20.5352 24.5104 20.4064 24.4918 20.2858 24.4468C20.1653 24.4018 20.0558 24.3314 19.9648 24.2405L18.168 22.4436" stroke="black" stroke-width="1.25" stroke-linecap="round" stroke-linejoin="round"/>
</g>
<defs>
<clipPath id="clip0_188_1126">
<rect width="30" height="30" fill="white"/>
</clipPath>
</defs>
</svg>
