<svg width="164" height="30" viewBox="0 0 164 30" fill="none" xmlns="http://www.w3.org/2000/svg">
<g clip-path="url(#clip0_16_453)">
<path d="M7.17342 27.2976L9.33268 26.7189C9.61328 26.6434 9.83277 26.4245 9.90823 26.1433L10.7431 23.0291L10.8654 22.572L11.0317 21.9502L11.4436 20.4122C11.519 20.1311 11.738 19.9122 12.0191 19.8367L13.5566 19.4248H13.5571L15.5899 18.8806L17.7491 18.3019C18.0297 18.2264 18.2492 18.0075 18.3247 17.7263L19.1596 14.6121L19.2648 14.2183L19.4482 13.5338L19.86 11.9958C19.9355 11.7146 20.1545 11.4957 20.4356 11.4202L21.9736 11.0084L24.6292 10.2973L26.1661 9.88542C26.4467 9.80996 26.6662 9.591 26.7417 9.30987L27.744 5.57117C27.8195 5.29003 27.7392 4.9903 27.5335 4.78463L24.7961 2.04717C24.5904 1.8415 24.2907 1.76125 24.0101 1.83672L20.2708 2.83849C19.9897 2.91395 19.7702 3.13344 19.6953 3.41404L19.2834 4.95097L19.1165 5.57329L18.786 6.8073L18.5718 7.60659L18.1594 9.14406C18.084 9.42466 17.865 9.64415 17.5839 9.71961L16.0464 10.132L11.8533 11.255C11.5722 11.3304 11.3527 11.5499 11.2778 11.8305L10.8659 13.3674L10.699 13.9898L10.3685 15.2238L10.1543 16.0231L9.74189 17.5605C9.66643 17.8411 9.44747 18.0606 9.16634 18.1361L7.62887 18.5485L7.00708 18.7148L4.97431 19.2595L3.43578 19.6719C3.15465 19.7474 2.93517 19.9669 2.86023 20.2475L2.28202 22.4068L1.85899 23.9862C1.78406 24.2668 1.86431 24.5665 2.06998 24.7722L4.80744 27.5097C5.01311 27.7153 5.31284 27.7956 5.59398 27.7201L7.17289 27.2971L7.17342 27.2976Z" fill="#F9D835"/>
<path d="M5.36438 17.0722L7.52363 16.4934C7.80424 16.418 8.02372 16.199 8.09919 15.9179L8.93408 12.8036L9.03665 12.4204L9.22319 11.7253L9.63506 10.1873C9.71052 9.90618 9.92948 9.68723 10.2106 9.61176L11.7486 9.19989L14.4042 8.48882L15.9412 8.07695C16.2218 8.00149 16.4413 7.78253 16.5167 7.5014L17.519 3.7627C17.5945 3.48156 17.5142 3.18183 17.3086 2.97616L14.5711 0.238695C14.3654 0.0330263 14.0657 -0.0472216 13.7851 0.0282433L10.0459 1.03001C9.76473 1.10548 9.54524 1.32497 9.47031 1.60557L9.05844 3.1425L8.89157 3.76482L8.56101 4.99883L8.34684 5.79812L7.93444 7.33559C7.85897 7.61619 7.64002 7.83568 7.35889 7.91114L5.82142 8.32354L1.62833 9.44648C1.3472 9.52195 1.12771 9.74143 1.05278 10.022L0.640911 11.559L0.474038 12.1813L0.14348 13.4153L0.0207165 13.8745C-0.0356164 14.0849 0.0244366 14.3097 0.178555 14.4638L0.869431 15.1547L0.55216 14.8374L2.99946 17.2847C3.20512 17.4904 3.50486 17.5707 3.78599 17.4952L5.36491 17.0722H5.36438Z" fill="#F9D835"/>
<path d="M15.8211 29.5301L17.4 29.1071L19.5593 28.5283C19.8399 28.4529 20.0594 28.2339 20.1348 27.9528L20.9697 24.8385L21.075 24.4447L21.2583 23.7602L21.6702 22.2222C21.7456 21.9411 21.9646 21.7221 22.2457 21.6467L23.7837 21.2348L26.4393 20.5237L27.9763 20.1119C28.2569 20.0364 28.4764 19.8174 28.5518 19.5363L29.5541 15.7976C29.6296 15.5165 29.5493 15.2167 29.3437 15.0111L26.6062 12.2736C26.4005 12.0679 26.1008 11.9877 25.8202 12.0632L22.081 13.0649C21.7998 13.1404 21.5804 13.3599 21.5054 13.6405L21.0936 15.1774L20.9267 15.7997L20.5961 17.0337L20.3819 17.833L19.9696 19.3705C19.8941 19.6511 19.6751 19.8706 19.394 19.9461L17.8565 20.3585L13.6634 21.4814C13.3823 21.5569 13.1628 21.7763 13.0879 22.0569L12.676 23.5939L12.5091 24.2162L12.1786 25.4502L12.0643 25.8764C12.0027 26.1076 12.0686 26.3542 12.2376 26.5232L13.444 27.7296L13.1267 27.4123L15.0346 29.3202C15.2402 29.5259 15.54 29.6061 15.8211 29.5306V29.5301Z" fill="#F9D835"/>
</g>
<g clip-path="url(#clip1_16_453)">
<path d="M39.5318 19.7554L47.7484 8.25915L48.9784 10.7177H39.5318V8.23938H49.4863V10.3863L41.2682 21.884L40.0381 19.4239H49.4848V21.9023H39.5318V19.7554Z" fill="black"/>
<path d="M50.9397 14.2133C51.4141 13.4196 52.0618 12.7917 52.8814 12.3294C53.7009 11.8672 54.6116 11.6361 55.6136 11.6361C56.6156 11.6361 57.5264 11.8672 58.3459 12.3294C59.1654 12.7917 59.8131 13.4196 60.2875 14.2133C60.7619 15.007 61.0006 15.8919 61.0006 16.868C61.0006 17.8442 60.7634 18.7321 60.2875 19.5319C59.8131 20.3316 59.1654 20.9596 58.3459 21.4157C57.5264 21.8719 56.6156 22.0984 55.6136 22.0984C54.6116 22.0984 53.7009 21.8703 52.8814 21.4157C52.0618 20.9596 51.4141 20.3332 50.9397 19.5319C50.4653 18.7321 50.2266 17.8442 50.2266 16.868C50.2266 15.8919 50.4638 15.007 50.9397 14.2133ZM53.3116 18.2927C53.5458 18.7215 53.8605 19.0605 54.2589 19.3084C54.6557 19.5562 55.1073 19.6794 55.6151 19.6794C56.123 19.6794 56.5578 19.5562 56.9623 19.3084C57.3652 19.062 57.6845 18.723 57.9186 18.2927C58.1528 17.8639 58.2699 17.388 58.2699 16.868C58.2699 16.348 58.1528 15.8721 57.9186 15.4433C57.6845 15.0146 57.3682 14.6755 56.9714 14.4277C56.5746 14.1814 56.123 14.0567 55.6151 14.0567C55.1073 14.0567 54.6709 14.1798 54.268 14.4277C53.8651 14.6755 53.5458 15.0131 53.3116 15.4433C53.0775 15.8721 52.9604 16.348 52.9604 16.868C52.9604 17.388 53.0775 17.8639 53.3116 18.2927Z" fill="black"/>
<path d="M62.7188 11.8324H65.3538V14.3503L64.925 13.8623C65.185 13.3286 65.5332 12.874 65.9696 12.4954C66.4059 12.1183 66.897 11.8644 67.4429 11.7336C67.9887 11.6044 68.5483 11.6226 69.1215 11.7914V14.2895C68.4312 14.0432 67.7972 13.9702 67.2179 14.0751C66.6386 14.18 66.1839 14.4263 65.851 14.8171C65.5195 15.2079 65.3538 15.6883 65.3538 16.2615V21.9025H62.7188V11.8324Z" fill="black"/>
<path d="M70.566 7.45947H73.201V21.9039H70.566V7.45947ZM72.4392 14.1936C72.8163 13.3999 73.347 12.775 74.0297 12.3204C74.7123 11.8658 75.503 11.6377 76.4016 11.6377C77.3002 11.6377 78.1197 11.8658 78.8602 12.3204C79.6022 12.7765 80.1845 13.403 80.6072 14.2042C81.0299 15.004 81.2412 15.892 81.2412 16.8681C81.2412 17.8442 81.0299 18.7322 80.6072 19.5319C80.1845 20.3317 79.6022 20.9597 78.8602 21.4158C78.1182 21.8719 77.2987 22.0985 76.4016 22.0985C75.5045 22.0985 74.7139 21.8704 74.0297 21.4158C73.347 20.9597 72.8163 20.3363 72.4392 19.5426C72.0622 18.7489 71.8736 17.8579 71.8736 16.8681C71.8736 15.8783 72.0622 14.9873 72.4392 14.1936ZM73.5522 18.2928C73.7864 18.7215 74.1011 19.0606 74.4995 19.3084C74.8963 19.5563 75.3479 19.6794 75.8557 19.6794C76.3636 19.6794 76.7984 19.5563 77.2029 19.3084C77.6058 19.0621 77.9251 18.7231 78.1592 18.2928C78.3934 17.864 78.5105 17.3881 78.5105 16.8681C78.5105 16.3481 78.3934 15.8722 78.1592 15.4434C77.9251 15.0147 77.6088 14.6756 77.212 14.4278C76.8151 14.1814 76.3636 14.0568 75.8557 14.0568C75.3479 14.0568 74.9115 14.1799 74.5086 14.4278C74.1057 14.6756 73.7864 15.0131 73.5522 15.4434C73.3181 15.8722 73.201 16.3481 73.201 16.8681C73.201 17.3881 73.3181 17.864 73.5522 18.2928Z" fill="black"/>
<path d="M84.9115 15.7931H91.118L90.5129 16.6324C90.487 16.1124 90.3563 15.6441 90.1221 15.2275C89.888 14.8109 89.5717 14.4855 89.1749 14.2514C88.778 14.0172 88.3265 13.9001 87.8186 13.9001C87.3108 13.9001 86.8486 14.0309 86.4335 14.2909C86.0169 14.5509 85.6915 14.9097 85.4573 15.3643C85.2232 15.8205 85.1061 16.3207 85.1061 16.8666C85.1061 17.4124 85.2262 17.9339 85.468 18.3885C85.7082 18.8447 86.0503 19.1989 86.4928 19.4529C86.9352 19.7068 87.4355 19.833 87.995 19.833C88.5545 19.833 89.0319 19.7098 89.4683 19.462C89.9047 19.2157 90.2453 18.8705 90.4931 18.4281L92.6598 19.4042C92.1915 20.2237 91.5468 20.8775 90.7273 21.3656C89.9077 21.8537 88.9711 22.0969 87.9159 22.0969C86.8607 22.0969 86.0032 21.8689 85.1837 21.4143C84.3641 20.9581 83.7164 20.3317 83.242 19.5304C82.7676 18.7306 82.5289 17.8427 82.5289 16.8666C82.5289 15.8904 82.76 15.0055 83.2223 14.2118C83.6845 13.4181 84.3185 12.7902 85.1259 12.328C85.9317 11.8658 86.8303 11.6346 87.8186 11.6346C88.924 11.6346 89.9077 11.9144 90.7653 12.4739C91.6243 13.0335 92.2584 13.7846 92.6689 14.7288C93.0794 15.673 93.1919 16.6978 93.011 17.8032H84.9115V15.7931Z" fill="black"/>
<path d="M96.7788 15.7931H102.985L102.38 16.6324C102.354 16.1124 102.224 15.6441 101.989 15.2275C101.755 14.8109 101.439 14.4855 101.042 14.2514C100.645 14.0172 100.194 13.9001 99.6859 13.9001C99.1781 13.9001 98.7159 14.0309 98.3008 14.2909C97.8842 14.5509 97.5588 14.9097 97.3247 15.3643C97.0905 15.8205 96.9734 16.3207 96.9734 16.8666C96.9734 17.4124 97.0935 17.9339 97.3353 18.3885C97.5755 18.8447 97.9176 19.1989 98.3601 19.4529C98.8025 19.7068 99.3028 19.833 99.8623 19.833C100.422 19.833 100.899 19.7098 101.336 19.462C101.772 19.2157 102.113 18.8705 102.36 18.4281L104.527 19.4042C104.059 20.2237 103.414 20.8775 102.595 21.3656C101.775 21.8537 100.838 22.0969 99.7832 22.0969C98.728 22.0969 97.8705 21.8689 97.051 21.4143C96.2314 20.9581 95.5837 20.3317 95.1093 19.5304C94.635 18.7306 94.3962 17.8427 94.3962 16.8666C94.3962 15.8904 94.6274 15.0055 95.0896 14.2118C95.5518 13.4181 96.1858 12.7902 96.9932 12.328C97.799 11.8658 98.6976 11.6346 99.6859 11.6346C100.791 11.6346 101.775 11.9144 102.633 12.4739C103.492 13.0335 104.126 13.7846 104.536 14.7288C104.947 15.673 105.059 16.6978 104.878 17.8032H96.7788V15.7931Z" fill="black"/>
<path d="M106.89 8.23938H108.412V14.3881H116.785V8.23938H118.307V21.9023H116.785V15.7535H108.412V21.9023H106.89V8.23938Z" fill="black"/>
<path d="M121.664 16.2036H129.492L129.14 16.6719C129.101 16.0212 128.923 15.4267 128.604 14.8854C128.284 14.3456 127.856 13.9199 127.316 13.6067C126.776 13.295 126.174 13.1384 125.509 13.1384C124.845 13.1384 124.214 13.3041 123.654 13.6355C123.095 13.967 122.656 14.4262 122.336 15.0116C122.017 15.5969 121.859 16.2477 121.859 16.9638C121.859 17.68 122.022 18.3307 122.347 18.9161C122.672 19.5015 123.121 19.9607 123.694 20.2921C124.266 20.6236 124.91 20.7893 125.627 20.7893C126.394 20.7893 127.077 20.6008 127.676 20.2237C128.275 19.8466 128.73 19.3327 129.043 18.682L130.293 19.2096C129.876 20.0823 129.259 20.7802 128.438 21.3078C127.618 21.8354 126.674 22.0984 125.608 22.0984C124.646 22.0984 123.767 21.8734 122.973 21.4249C122.18 20.9763 121.555 20.3606 121.1 19.5806C120.644 18.8006 120.417 17.9278 120.417 16.9654C120.417 16.0029 120.642 15.1302 121.091 14.3502C121.54 13.5702 122.151 12.9544 122.926 12.5058C123.7 12.0573 124.562 11.8323 125.512 11.8323C126.514 11.8323 127.416 12.0755 128.216 12.5636C129.016 13.0517 129.627 13.7222 130.051 14.5737C130.474 15.4267 130.647 16.3724 130.568 17.4139H121.667V16.2036H121.664Z" fill="black"/>
<path d="M133.083 17.3365C133.72 16.8545 134.559 16.5625 135.601 16.4576L137.807 16.2037C138.224 16.1642 138.532 16.0578 138.734 15.8814C138.937 15.705 139.037 15.4359 139.037 15.071C139.037 14.4597 138.826 13.9778 138.403 13.6265C137.98 13.2753 137.41 13.0989 136.695 13.0989C135.981 13.0989 135.388 13.2753 134.88 13.6265C134.372 13.9778 134.027 14.5175 133.846 15.2458L132.421 14.8551C132.578 14.2043 132.861 13.6539 133.27 13.2054C133.68 12.7568 134.178 12.4147 134.763 12.1806C135.348 11.9464 135.999 11.8293 136.715 11.8293C137.834 11.8293 138.745 12.1258 139.447 12.7173C140.15 13.3103 140.501 14.1389 140.501 15.2063V21.9009H139.037V19.754L139.232 19.8118C138.829 20.5538 138.284 21.1194 137.602 21.5101C136.919 21.9009 136.148 22.0955 135.289 22.0955C134.664 22.0955 134.115 21.9876 133.639 21.7732C133.165 21.5588 132.794 21.2425 132.526 20.8259C132.26 20.4093 132.126 19.9273 132.126 19.3815C132.126 18.4966 132.446 17.8139 133.083 17.3319V17.3365ZM134.137 20.4489C134.501 20.7286 134.97 20.8685 135.541 20.8685C136.204 20.8685 136.803 20.7119 137.337 20.4002C137.871 20.0885 138.287 19.6749 138.587 19.161C138.886 18.6471 139.035 18.0967 139.035 17.5113V16.6127L139.23 16.6705C139.139 16.8925 138.976 17.0552 138.742 17.1586C138.508 17.2635 138.163 17.341 137.708 17.3927L135.581 17.6269C134.982 17.7044 134.501 17.8838 134.137 18.1636C133.772 18.4434 133.591 18.8235 133.591 19.3055C133.591 19.7874 133.773 20.1676 134.137 20.4473V20.4489Z" fill="black"/>
<path d="M142.92 7.45947H144.384V21.9039H142.92V7.45947Z" fill="black"/>
<path d="M146.101 12.027H148.326V8.49346L149.79 8.04492V12.027H152.796V13.3544H149.79V18.5468C149.79 19.2751 149.942 19.7966 150.249 20.1083C150.555 20.42 151.072 20.5766 151.801 20.5766H152.797V21.9039H151.801C150.617 21.9039 149.743 21.6242 149.176 21.0646C148.61 20.5051 148.327 19.6461 148.327 18.4875V13.3544H146.103V12.027H146.101Z" fill="black"/>
<path d="M154.904 7.45947H156.369V14.2514L156.154 13.9397C156.492 13.3026 156.98 12.7917 157.619 12.4071C158.256 12.0239 158.972 11.8308 159.765 11.8308C160.559 11.8308 161.298 12.0163 161.941 12.3873C162.584 12.7583 163.089 13.2692 163.454 13.9199C163.817 14.5707 164 15.2929 164 16.0866V21.9024H162.536V16.2614C162.536 15.6897 162.402 15.1652 162.136 14.6908C161.868 14.2164 161.502 13.8454 161.033 13.5778C160.565 13.3117 160.038 13.1779 159.452 13.1779C158.867 13.1779 158.359 13.3117 157.891 13.5778C157.422 13.8454 157.051 14.2149 156.778 14.6908C156.504 15.1652 156.367 15.6897 156.367 16.2614V21.9024H154.903V7.45947H154.904Z" fill="black"/>
</g>
<defs>
<clipPath id="clip0_16_453">
<rect width="29.5817" height="29.5578" fill="white"/>
</clipPath>
<clipPath id="clip1_16_453">
<rect width="124.468" height="14.639" fill="white" transform="translate(39.5319 7.45935)"/>
</clipPath>
</defs>
</svg>
