<?xml version="1.0" encoding="UTF-8"?>
<svg version="1.1" xmlns="http://www.w3.org/2000/svg" width="275" height="274">
<path d="M0 0 C1.77776456 1.54574449 3.43702048 3.16496621 5.09277344 4.8407135 C5.70340134 5.4441861 6.31402924 6.04765869 6.94316101 6.66941833 C8.2275346 7.94602667 9.50557114 9.22903843 10.77758789 10.51795959 C12.72162486 12.48120593 14.69317269 14.41337643 16.66894531 16.34461975 C17.91616188 17.59154591 19.16166428 18.84018949 20.40527344 20.0907135 C21.28799675 20.95051315 21.28799675 20.95051315 22.18855286 21.8276825 C25.91652514 25.66371244 27.3953504 28.30714834 27.41699219 33.864151 C26.94023015 36.61445886 26.39505024 39.13806035 25.65136719 41.8094635 C25.45730286 42.54236603 25.26323853 43.27526855 25.06329346 44.03038025 C24.65256522 45.56994458 24.23536281 47.10779493 23.81201172 48.64393616 C23.1680147 50.98543326 22.54687487 53.3321235 21.92871094 55.68055725 C21.52509891 57.18221903 21.12019442 58.68353414 20.71386719 60.1844635 C20.43709137 61.22837753 20.43709137 61.22837753 20.15472412 62.29338074 C19.06043112 66.22242804 18.02068431 69.69321578 15.41699219 72.864151 C12.37109375 74.25062561 12.37109375 74.25062561 8.55761719 75.32899475 C7.86009338 75.53088913 7.16256958 75.73278351 6.44390869 75.9407959 C4.10779128 76.60708964 1.76456464 77.23946575 -0.58300781 77.864151 C-1.41195557 78.08629272 -2.24090332 78.30843445 -3.0949707 78.53730774 C-10.26579153 80.44894894 -17.44833792 82.31772189 -24.64306641 84.13734436 C-27.36078989 84.82686285 -30.07357869 85.53351597 -32.78613281 86.24305725 C-33.61211975 86.44733841 -34.43810669 86.65161957 -35.28912354 86.86209106 C-36.05802917 87.06587875 -36.82693481 87.26966644 -37.61914062 87.47962952 C-38.62596893 87.73680504 -38.62596893 87.73680504 -39.65313721 87.99917603 C-43.1659406 89.57362719 -45.14319711 91.77408891 -46.57533264 95.3236084 C-46.92149879 96.69997215 -46.92149879 96.69997215 -47.2746582 98.10414124 C-47.6801162 99.67113014 -47.6801162 99.67113014 -48.09376526 101.26977539 C-48.36994186 102.39275528 -48.64611847 103.51573517 -48.93066406 104.67274475 C-49.22863388 105.83161697 -49.5266037 106.9904892 -49.83360291 108.18447876 C-50.78404993 111.88699619 -51.71608285 115.5938054 -52.64550781 119.301651 C-53.58050788 123.00534758 -54.51955163 126.70786699 -55.46812439 130.40811157 C-56.05754878 132.70979957 -56.63888871 135.01357659 -57.2111969 137.31958008 C-57.47835007 138.36739151 -57.74550323 139.41520294 -58.02075195 140.49476624 C-58.2507338 141.41313766 -58.48071564 142.33150909 -58.71766663 143.27770996 C-59.67633109 146.1430874 -60.838055 148.39793677 -62.58300781 150.864151 C-65.62890625 152.25062561 -65.62890625 152.25062561 -69.44238281 153.32899475 C-70.48866852 153.63183632 -70.48866852 153.63183632 -71.55609131 153.9407959 C-73.89220872 154.60708964 -76.23543536 155.23946575 -78.58300781 155.864151 C-79.41195557 156.08629272 -80.24090332 156.30843445 -81.0949707 156.53730774 C-88.26579153 158.44894894 -95.44833792 160.31772189 -102.64306641 162.13734436 C-105.36078989 162.82686285 -108.07357869 163.53351597 -110.78613281 164.24305725 C-112.02511322 164.54947899 -112.02511322 164.54947899 -113.28912354 164.86209106 C-114.44248199 165.1677726 -114.44248199 165.1677726 -115.61914062 165.47962952 C-116.62596893 165.73680504 -116.62596893 165.73680504 -117.65313721 165.99917603 C-121.1659406 167.57362719 -123.14319711 169.77408891 -124.57533264 173.3236084 C-124.80611008 174.24118423 -125.03688751 175.15876007 -125.2746582 176.10414124 C-125.54496353 177.14880051 -125.81526886 178.19345978 -126.09376526 179.26977539 C-126.50803017 180.95424522 -126.50803017 180.95424522 -126.93066406 182.67274475 C-127.37761879 184.41105309 -127.37761879 184.41105309 -127.83360291 186.18447876 C-128.78404993 189.88699619 -129.71608285 193.5938054 -130.64550781 197.301651 C-131.58050788 201.00534758 -132.51955163 204.70786699 -133.46812439 208.40811157 C-134.05754878 210.70979957 -134.63888871 213.01357659 -135.2111969 215.31958008 C-135.47835007 216.36739151 -135.74550323 217.41520294 -136.02075195 218.49476624 C-136.2507338 219.41313766 -136.48071564 220.33150909 -136.71766663 221.27770996 C-137.67615795 224.1425699 -138.83911422 226.39793462 -140.58300781 228.864151 C-143.60253906 230.23524475 -143.60253906 230.23524475 -147.39550781 231.301651 C-148.42393799 231.59579895 -148.42393799 231.59579895 -149.47314453 231.89588928 C-150.99485245 232.32754855 -152.51912058 232.75025206 -154.04541016 233.16542053 C-156.81393726 233.92773769 -159.56685263 234.73605092 -162.32128906 235.54774475 C-164.28308307 236.11309531 -166.2453199 236.67691162 -168.20800781 237.239151 C-169.14362549 237.51428528 -170.07924316 237.78941956 -171.04321289 238.07289124 C-180.1052774 240.59390439 -180.1052774 240.59390439 -184.58300781 238.864151 C-187.49337304 236.7740926 -190.02054542 234.36253778 -192.58300781 231.864151 C-193.40655762 231.06670471 -194.23010742 230.26925842 -195.07861328 229.44764709 C-197.74587273 226.83495312 -200.38618083 224.19752361 -203.02050781 221.551651 C-203.92994141 220.64608459 -204.839375 219.74051819 -205.77636719 218.80751038 C-206.63939453 217.94319397 -207.50242188 217.07887756 -208.39160156 216.18836975 C-209.1733374 215.40550598 -209.95507324 214.62264221 -210.76049805 213.8160553 C-213.73243343 210.63311847 -213.78911488 208.38942823 -213.73010254 204.07569885 C-213.49418002 200.52863811 -212.67015417 197.21176737 -211.75488281 193.786026 C-211.5646051 193.05216675 -211.37432739 192.3183075 -211.17828369 191.56221008 C-210.77634266 190.02482759 -210.36935579 188.48875611 -209.95751953 186.95399475 C-209.33204738 184.61055255 -208.73219137 182.26150712 -208.13378906 179.911026 C-207.73818321 178.41062187 -207.34109874 176.91060666 -206.94238281 175.411026 C-206.76616394 174.71305908 -206.58994507 174.01509216 -206.40838623 173.29597473 C-205.23695674 169.03326205 -203.95422797 166.69238593 -200.58300781 163.864151 C-198.04089355 162.8338623 -198.04089355 162.8338623 -195.14355469 162.08070374 C-194.05562622 161.79037766 -192.96769775 161.50005157 -191.84680176 161.20092773 C-190.67693726 160.90287735 -189.50707275 160.60482697 -188.30175781 160.29774475 C-187.09612183 159.97757889 -185.89048584 159.65741302 -184.64831543 159.32754517 C-181.449727 158.4792123 -178.24874159 157.64176274 -175.04559326 156.81092834 C-170.53335054 155.64003258 -166.02390324 154.45898191 -161.5177002 153.26504517 C-159.12060249 152.63037973 -156.72114889 152.00453304 -154.31921387 151.38842773 C-153.2312854 151.10125381 -152.14335693 150.8140799 -151.02246094 150.51820374 C-150.06633911 150.270457 -149.11021729 150.02271027 -148.12512207 149.76745605 C-145.37156858 148.789019 -143.6715873 147.91111441 -141.58300781 145.864151 C-140.47247483 143.365631 -140.47247483 143.365631 -139.81542969 140.44642639 C-139.5283313 139.33840164 -139.24123291 138.23037689 -138.94543457 137.08877563 C-138.65052124 135.89187607 -138.35560791 134.6949765 -138.05175781 133.46180725 C-137.57506653 131.61793678 -137.57506653 131.61793678 -137.08874512 129.73681641 C-136.07251934 125.80359024 -135.07524287 121.86597404 -134.08300781 117.926651 C-132.77693901 112.74641123 -131.45046977 107.57187792 -130.11425781 102.39930725 C-129.81934448 101.20443192 -129.52443115 100.00955658 -129.22058105 98.7784729 C-128.93348267 97.66729599 -128.64638428 96.55611908 -128.35058594 95.41127014 C-127.98229675 93.94591576 -127.98229675 93.94591576 -127.60656738 92.45095825 C-126.39135444 89.37979196 -125.16854646 87.91075264 -122.58300781 85.864151 C-120.04089355 84.8338623 -120.04089355 84.8338623 -117.14355469 84.08070374 C-116.05562622 83.79037766 -114.96769775 83.50005157 -113.84680176 83.20092773 C-112.67693726 82.90287735 -111.50707275 82.60482697 -110.30175781 82.29774475 C-109.09612183 81.97757889 -107.89048584 81.65741302 -106.64831543 81.32754517 C-103.449727 80.4792123 -100.24874159 79.64176274 -97.04559326 78.81092834 C-92.53335054 77.64003258 -88.02390324 76.45898191 -83.5177002 75.26504517 C-81.12060249 74.63037973 -78.72114889 74.00453304 -76.31921387 73.38842773 C-75.2312854 73.10125381 -74.14335693 72.8140799 -73.02246094 72.51820374 C-72.06633911 72.270457 -71.11021729 72.02271027 -70.12512207 71.76745605 C-67.37156858 70.789019 -65.6715873 69.91111441 -63.58300781 67.864151 C-62.47247483 65.365631 -62.47247483 65.365631 -61.81542969 62.44642639 C-61.5283313 61.33840164 -61.24123291 60.23037689 -60.94543457 59.08877563 C-60.65052124 57.89187607 -60.35560791 56.6949765 -60.05175781 55.46180725 C-59.73396362 54.23256027 -59.41616943 53.00331329 -59.08874512 51.73681641 C-58.07251934 47.80359024 -57.07524287 43.86597404 -56.08300781 39.926651 C-54.77693901 34.74641123 -53.45046977 29.57187792 -52.11425781 24.39930725 C-51.81934448 23.20443192 -51.52443115 22.00955658 -51.22058105 20.7784729 C-50.93348267 19.66729599 -50.64638428 18.55611908 -50.35058594 17.41127014 C-50.10505981 16.43436722 -49.85953369 15.45746429 -49.60656738 14.45095825 C-48.18652354 10.86212981 -46.2523393 8.6488199 -42.73770142 6.99676514 C-42.10738007 6.82498245 -41.47705872 6.65319977 -40.82763672 6.47621155 C-39.7459874 6.17151192 -39.7459874 6.17151192 -38.64248657 5.86065674 C-37.87262421 5.65942703 -37.10276184 5.45819733 -36.30957031 5.25086975 C-35.10752457 4.92286125 -35.10752457 4.92286125 -33.88119507 4.58822632 C-32.19015902 4.13050776 -30.49727532 3.67956803 -28.80273438 3.23500061 C-26.21867037 2.5544591 -23.64318336 1.84673539 -21.06738281 1.13563538 C-19.41938762 0.69322923 -17.77096262 0.25242043 -16.12207031 -0.18663025 C-15.35625641 -0.39798111 -14.5904425 -0.60933197 -13.80142212 -0.8270874 C-8.90063653 -2.08948293 -4.43067732 -3.17912543 0 0 Z " fill="#F8D734" transform="translate(230.5830078125,18.135848999023438)"/>
<path d="M0 0 C1.78866752 1.5497984 3.44357598 3.17522968 5.09489441 4.87057495 C5.70410736 5.47641922 6.31332031 6.08226349 6.94099426 6.70646667 C8.22047148 7.98624188 9.49253225 9.27347003 10.75749207 10.56759644 C12.69225402 12.54206705 14.65469114 14.48547326 16.62223816 16.42721558 C17.86488465 17.67742074 19.10583022 18.92931932 20.34489441 20.18307495 C21.22291214 21.05061653 21.22291214 21.05061653 22.1186676 21.9356842 C25.49156775 25.42764906 27.31391746 27.79353954 27.32145691 32.8588562 C26.87480294 35.76763469 26.15463772 38.56295291 25.37223816 41.3979187 C25.05140511 42.60283463 25.05140511 42.60283463 24.72409058 43.83209229 C24.27016754 45.52298874 23.81006641 47.21223739 23.34416199 48.89987183 C22.63562838 51.47777478 21.95497016 54.06195302 21.27653503 56.6479187 C20.83092977 58.29420235 20.38371792 59.94005215 19.93473816 61.5854187 C19.73350845 62.35528107 19.53227875 63.12514343 19.32495117 63.91833496 C19.12181808 64.63943451 18.918685 65.36053406 18.70939636 66.10348511 C18.53761368 66.73380646 18.36583099 67.36412781 18.18884277 68.0135498 C16.53678801 71.52818769 14.3234781 73.46237193 10.73464966 74.88241577 C9.75774673 75.12794189 8.78084381 75.37346802 7.77433777 75.62643433 C6.66316086 75.91353271 5.55198395 76.2006311 4.40713501 76.49642944 C3.21225967 76.79134277 2.01738434 77.0862561 0.78630066 77.3901062 C-0.44390305 77.70790039 -1.67410675 78.02569458 -2.94158936 78.3531189 C-7.53885815 79.54060221 -12.14190131 80.70418545 -16.74623108 81.86392212 C-21.26055115 83.00204273 -25.7687966 84.16231849 -30.27619934 85.3276062 C-31.47309891 85.62251953 -32.66999847 85.91743286 -33.90316772 86.22128296 C-35.01119247 86.50838135 -36.11921722 86.79547974 -37.26081848 87.09127808 C-38.72497948 87.45956726 -38.72497948 87.45956726 -40.21871948 87.83529663 C-43.17895918 89.06708482 -44.10588852 90.08663701 -45.67854309 92.8588562 C-46.63608789 95.43575075 -46.63608789 95.43575075 -47.33259583 98.29830933 C-47.61976974 99.38623779 -47.90694366 100.47416626 -48.20281982 101.59506226 C-48.50289444 102.76492676 -48.80296906 103.93479126 -49.11213684 105.1401062 C-49.76751261 107.61542572 -50.42311861 110.09068429 -51.07893372 112.56588745 C-52.10340453 116.46833995 -53.11989236 120.37284503 -54.13288879 124.27828979 C-55.11187067 128.04849314 -56.11237929 131.81285853 -57.11213684 135.5776062 C-57.41018723 136.7474707 -57.70823761 137.91733521 -58.01531982 139.12265015 C-58.3056459 140.21057861 -58.59597198 141.29850708 -58.89509583 142.41940308 C-59.14363815 143.3755249 -59.39218048 144.33164673 -59.64825439 145.31674194 C-60.85631932 148.29749781 -62.21029675 149.81761392 -64.67854309 151.8588562 C-67.22801893 152.80543304 -69.60573246 153.5568273 -72.22541809 154.2182312 C-73.32046661 154.50938812 -73.32046661 154.50938812 -74.43763733 154.806427 C-75.97909695 155.2128578 -77.52235336 155.61252694 -79.06721497 156.00582886 C-81.41144591 156.60448998 -83.74801551 157.2279015 -86.08479309 157.85494995 C-87.58961009 158.2483769 -89.09480781 158.64035106 -90.60041809 159.0307312 C-91.29028809 159.215047 -91.98015808 159.39936279 -92.69093323 159.58926392 C-97.89336507 160.89360192 -103.89124886 162.36772923 -108.82527161 159.69674683 C-109.37626526 159.14180542 -109.92725891 158.58686401 -110.49494934 158.0151062 C-111.15382141 157.37444214 -111.81269348 156.73377808 -112.49153137 156.07369995 C-113.57410217 154.97735229 -113.57410217 154.97735229 -114.67854309 153.8588562 C-116.45806427 152.18132007 -118.23803945 150.50426546 -120.01838684 148.8276062 C-121.88704691 147.00753392 -123.75289003 145.18456544 -125.61604309 143.3588562 C-126.33594421 142.67363892 -126.33594421 142.67363892 -127.07038879 141.97457886 C-128.48405665 140.62797848 -129.87653207 139.25924085 -131.26838684 137.8901062 C-132.09201721 137.09153198 -132.91564758 136.29295776 -133.76423645 135.47018433 C-136.50116563 131.73670715 -137.07005439 128.47759986 -136.38311768 123.8828125 C-135.89592375 121.70786436 -135.31558823 119.58129733 -134.69416809 117.44088745 C-134.36977753 116.27138802 -134.36977753 116.27138802 -134.03883362 115.07826233 C-133.58121119 113.4402133 -133.11692115 111.80401382 -132.64631653 110.16964722 C-131.92894546 107.67275669 -131.23585972 105.17003729 -130.54573059 102.66549683 C-130.09663035 101.0693933 -129.64615622 99.47367558 -129.19416809 97.87838745 C-128.9877771 97.13353592 -128.78138611 96.38868439 -128.56874084 95.6212616 C-127.45066264 91.78160108 -126.41099355 88.79587362 -123.67854309 85.8588562 C-121.25668335 84.82183838 -121.25668335 84.82183838 -118.35261536 84.05953979 C-116.72060936 83.61920914 -116.72060936 83.61920914 -115.05563354 83.16998291 C-113.88060776 82.86879547 -112.70558197 82.56760803 -111.49494934 82.2572937 C-110.28789841 81.93475616 -109.08084747 81.61221863 -107.83721924 81.27990723 C-104.63065243 80.42518711 -101.42135001 79.58297667 -98.20979309 78.74734497 C-93.68795394 77.56796027 -89.17170054 76.36743987 -84.65557861 75.16638184 C-82.25203893 74.5284449 -79.84701205 73.89607997 -77.44039917 73.26983643 C-76.34924301 72.98258698 -75.25808685 72.69533752 -74.13386536 72.39938354 C-73.17472733 72.1494162 -72.21558929 71.89944885 -71.22738647 71.64190674 C-68.85106076 70.91185673 -66.81187028 70.1314814 -64.67854309 68.8588562 C-63.61810233 66.87799297 -63.61810233 66.87799297 -63.03791809 64.4682312 C-62.77591614 63.54510132 -62.51391418 62.62197144 -62.24397278 61.67086792 C-61.97488098 60.66040405 -61.70578918 59.64994019 -61.42854309 58.6088562 C-61.13624817 57.56358765 -60.84395325 56.51831909 -60.5428009 55.44137573 C-58.82338404 49.24404656 -57.19115501 43.02349323 -55.55354309 36.8041687 C-55.37599487 36.13184204 -55.19844666 35.45951538 -55.01551819 34.76681519 C-54.14286433 31.4601049 -53.27834778 28.15175993 -52.43147278 24.83834839 C-52.11597473 23.62566284 -51.80047668 22.41297729 -51.47541809 21.1635437 C-51.20052551 20.09088257 -50.92563293 19.01822144 -50.64241028 17.91305542 C-49.61153756 14.64653626 -48.41474366 11.81319535 -46.67854309 8.8588562 C-43.9147319 7.48859121 -41.62203316 6.67365554 -38.67854309 5.8588562 C-37.02121155 5.36869019 -37.02121155 5.36869019 -35.33039856 4.86862183 C-32.10820336 3.93372784 -28.88099296 3.03412462 -25.64216614 2.15963745 C-23.61355486 1.6081798 -21.5906596 1.03831218 -19.56721497 0.4682312 C-18.25958388 0.11291571 -16.95165047 -0.24128944 -15.64338684 -0.5942688 C-14.47412659 -0.91556763 -13.30486633 -1.23686646 -12.10017395 -1.56790161 C-7.66170374 -2.31149976 -3.88109153 -2.63852835 0 0 Z " fill="#F8D734" transform="translate(247.6785430908203,113.14114379882813)"/>
<path d="M0 0 C1.84184869 1.55935206 3.47316296 3.20613623 5.11517334 4.97450256 C6.02474792 5.89962143 6.02474792 5.89962143 6.95269775 6.84342957 C8.87277838 8.80702995 10.75894619 10.79990876 12.64642334 12.79481506 C13.94385322 14.12884244 15.24331454 15.46089732 16.54486084 16.79090881 C27.13773714 27.68162168 27.13773714 27.68162168 27.15936279 30.76429749 C26.48932216 38.10236048 24.78174818 45.11778924 22.8727417 52.2169342 C22.33118809 54.24254592 21.81161098 56.27301326 21.29290771 58.30458069 C20.94721557 59.61026758 20.60025495 60.91561944 20.25189209 62.22059631 C19.94404785 63.38760071 19.63620361 64.5546051 19.31903076 65.75697327 C18.03337356 69.22474114 16.77587794 71.32142042 14.14642334 73.91981506 C11.44281006 75.11073303 11.44281006 75.11073303 8.32611084 75.91200256 C7.16265137 76.22113586 5.99919189 76.53026917 4.80047607 76.84877014 C3.55338867 77.16096497 2.30630127 77.47315979 1.02142334 77.79481506 C-0.27195963 78.13366793 -1.56484329 78.47443194 -2.85723877 78.81703186 C-6.1902264 79.69672799 -9.52793977 80.55669289 -12.86755371 81.4108429 C-17.24551994 82.53281531 -21.61808844 83.67505067 -25.987854 84.82850647 C-28.23169798 85.42006824 -30.47806569 86.00215832 -32.72711182 86.57362366 C-34.24570801 86.97121887 -34.24570801 86.97121887 -35.79498291 87.37684631 C-36.67871582 87.60347961 -37.56244873 87.83011292 -38.47296143 88.06361389 C-41.21996197 89.05158753 -42.79867002 89.82437448 -44.85357666 91.91981506 C-45.82325771 94.43505276 -46.56210097 96.75472782 -47.22076416 99.34950256 C-47.42097672 100.08839218 -47.62118927 100.8272818 -47.82746887 101.58856201 C-48.25385404 103.16940307 -48.67348013 104.75207996 -49.08694458 106.33634949 C-49.73030669 108.80144383 -50.39105996 111.26125413 -51.0569458 113.72035217 C-51.93333545 116.96295161 -52.80314185 120.20717046 -53.66558838 123.45350647 C-55.17615059 129.13856543 -56.714625 134.81516282 -58.29107666 140.48231506 C-58.62437988 141.73600891 -58.62437988 141.73600891 -58.9644165 143.01502991 C-60.80927282 149.64715364 -60.80927282 149.64715364 -63.85357666 151.91981506 C-66.50052262 152.87429544 -69.07032394 153.69103413 -71.77545166 154.43544006 C-72.55366272 154.65552734 -73.33187378 154.87561462 -74.13366699 155.10237122 C-75.779772 155.56450011 -77.42734365 156.02143195 -79.07623291 156.473526 C-81.58538644 157.16480362 -84.08647915 157.8809945 -86.58795166 158.59950256 C-88.19169131 159.04635049 -89.79584614 159.49171149 -91.40045166 159.93544006 C-92.14236755 160.14992798 -92.88428345 160.36441589 -93.64868164 160.58540344 C-98.35966792 161.84911813 -102.01444815 162.13623017 -106.85357666 160.91981506 C-108.90045166 159.65785217 -108.90045166 159.65785217 -110.60357666 158.00965881 C-111.60517822 157.06195618 -111.60517822 157.06195618 -112.62701416 156.09510803 C-113.36177979 155.37726135 -114.09654541 154.65941467 -114.85357666 153.91981506 C-115.71209229 153.12333557 -116.57060791 152.32685608 -117.45513916 151.50624084 C-120.29005613 148.86647397 -123.07362791 146.17982395 -125.85357666 143.48231506 C-126.33778076 143.02977356 -126.82198486 142.57723206 -127.32086182 142.11097717 C-128.74646671 140.77676945 -130.14421001 139.41298782 -131.54107666 138.04872131 C-132.78437744 136.85871521 -132.78437744 136.85871521 -134.05279541 135.64466858 C-136.81350554 131.46729795 -136.31206761 127.65594149 -135.521698 122.93927002 C-135.09197834 120.89975297 -134.59229332 118.89212627 -134.06060791 116.87684631 C-133.87270187 116.14535873 -133.68479584 115.41387115 -133.49119568 114.66021729 C-133.09356017 113.12701264 -132.69076683 111.5951371 -132.28302002 110.06459045 C-131.66614834 107.73258604 -131.07861739 105.39441559 -130.49224854 103.05458069 C-130.10013153 101.55737301 -129.70630899 100.06061074 -129.31060791 98.56434631 C-129.13955032 97.87154068 -128.96849274 97.17873505 -128.79225159 96.4649353 C-127.45953467 91.61383678 -125.9420415 88.86764009 -121.85357666 85.91981506 C-117.79760827 84.36411079 -113.64936109 83.31156328 -109.43951416 82.25575256 C-108.23292145 81.93700165 -107.02632874 81.61825073 -105.78317261 81.2898407 C-102.58811816 80.44730966 -99.38996312 79.61849301 -96.18920898 78.79792786 C-91.67320579 77.63908795 -87.1612012 76.4655157 -82.65255737 75.27836609 C-80.25476173 74.64773226 -77.85422283 74.02742089 -75.45083618 73.41844177 C-74.36605988 73.13449554 -73.28128357 72.85054932 -72.16363525 72.55799866 C-71.20830902 72.31326813 -70.25298279 72.0685376 -69.26870728 71.81639099 C-66.71437796 70.86813993 -65.52623464 70.04337303 -63.85357666 67.91981506 C-62.8196598 65.26854465 -62.8196598 65.26854465 -62.05670166 62.19715881 C-61.58357544 60.44725647 -61.58357544 60.44725647 -61.10089111 58.66200256 C-60.77177734 57.40645569 -60.44266357 56.15090881 -60.10357666 54.85731506 C-59.75339146 53.55883185 -59.40205931 52.26065745 -59.04962158 50.96278381 C-57.28927138 44.45431239 -55.5968729 37.93097475 -53.95123291 31.39247131 C-53.49925537 29.63012146 -53.49925537 29.63012146 -53.03814697 27.83216858 C-52.46858115 25.60349513 -51.91385905 23.37096081 -51.3760376 21.13441467 C-51.1172583 20.1251593 -50.858479 19.11590393 -50.59185791 18.07606506 C-50.26761841 16.75832092 -50.26761841 16.75832092 -49.93682861 15.41395569 C-47.90750064 10.74151607 -45.0791395 8.4143541 -40.3994751 6.52601624 C-39.09227673 6.15367053 -37.77963545 5.80005621 -36.46295166 5.46278381 C-35.75890198 5.27009415 -35.05485229 5.07740448 -34.32946777 4.87887573 C-32.84570908 4.47690556 -31.35968638 4.08320989 -29.87164307 3.69740295 C-27.61842141 3.11117725 -25.37493234 2.49533123 -23.13092041 1.87489319 C-21.67957778 1.48572778 -20.2277675 1.09830145 -18.77545166 0.71278381 C-17.78590485 0.4410157 -17.78590485 0.4410157 -16.77636719 0.16375732 C-4.90796047 -2.86014875 -4.90796047 -2.86014875 0 0 Z " fill="#F8D734" transform="translate(135.85357666015625,1.0801849365234375)"/>
</svg>
