<svg width="230" height="28" viewBox="0 0 230 28" fill="none" xmlns="http://www.w3.org/2000/svg">
<g clip-path="url(#clip0_95_617)">
<path d="M0 22.7214L15.1831 1.47793L17.4561 6.02106H0V1.44141H18.3945V5.40857L3.20857 26.6548L0.935599 22.1089H18.3917V26.6885H0V22.7214Z" fill="black"/>
<path d="M21.0804 12.481C21.957 11.0144 23.1539 9.85405 24.6683 8.99993C26.1826 8.14581 27.8656 7.71875 29.7171 7.71875C31.5687 7.71875 33.2516 8.14581 34.766 8.99993C36.2804 9.85405 37.4773 11.0144 38.3539 12.481C39.2305 13.9476 39.6716 15.5828 39.6716 17.3866C39.6716 19.1904 39.2333 20.8312 38.3539 22.309C37.4773 23.7869 36.2804 24.9473 34.766 25.7901C33.2516 26.633 31.5687 27.0516 29.7171 27.0516C27.8656 27.0516 26.1826 26.6302 24.6683 25.7901C23.1539 24.9473 21.957 23.7897 21.0804 22.309C20.2038 20.8312 19.7627 19.1904 19.7627 17.3866C19.7627 15.5828 20.201 13.9476 21.0804 12.481ZM25.4634 20.0192C25.8961 20.8115 26.4777 21.4381 27.2138 21.896C27.9471 22.354 28.7815 22.5816 29.7199 22.5816C30.6583 22.5816 31.4619 22.354 32.2093 21.896C32.9538 21.4409 33.5438 20.8143 33.9765 20.0192C34.4092 19.2269 34.6255 18.3475 34.6255 17.3866C34.6255 16.4257 34.4092 15.5463 33.9765 14.754C33.5438 13.9617 32.9594 13.3352 32.2261 12.8772C31.4928 12.422 30.6583 12.1916 29.7199 12.1916C28.7815 12.1916 27.9752 12.4192 27.2306 12.8772C26.4861 13.3352 25.8961 13.9589 25.4634 14.754C25.0307 15.5463 24.8144 16.4257 24.8144 17.3866C24.8144 18.3475 25.0307 19.2269 25.4634 20.0192Z" fill="black"/>
<path d="M42.8467 8.0813H47.7157V12.734L46.9234 11.8321C47.4039 10.8459 48.0473 10.0059 48.8536 9.30628C49.66 8.6095 50.5675 8.1403 51.5761 7.89867C52.5848 7.65986 53.6187 7.69357 54.6779 8.00544V12.6216C53.4024 12.1665 52.2308 12.0316 51.1603 12.2255C50.0898 12.4193 49.2498 12.8745 48.6345 13.5966C48.022 14.3186 47.7157 15.2065 47.7157 16.2657V26.6893H42.8467V8.0813Z" fill="black"/>
<path d="M57.3467 0H62.2157V26.6913H57.3467V0ZM60.8081 12.4437C61.5049 10.9771 62.4854 9.82238 63.747 8.98231C65.0085 8.14224 66.4695 7.7208 68.1299 7.7208C69.7904 7.7208 71.3048 8.14224 72.6731 8.98231C74.0442 9.82519 75.1202 10.9827 75.9013 12.4634C76.6824 13.9413 77.0729 15.5821 77.0729 17.3858C77.0729 19.1896 76.6824 20.8304 75.9013 22.3083C75.1202 23.7861 74.0442 24.9465 72.6731 25.7894C71.302 26.6323 69.7876 27.0509 68.1299 27.0509C66.4723 27.0509 65.0113 26.6294 63.747 25.7894C62.4854 24.9465 61.5049 23.7946 60.8081 22.3279C60.1113 20.8613 59.7629 19.2149 59.7629 17.3858C59.7629 15.5568 60.1113 13.9104 60.8081 12.4437ZM62.8647 20.0184C63.2974 20.8108 63.879 21.4373 64.6151 21.8953C65.3484 22.3532 66.1829 22.5808 67.1213 22.5808C68.0597 22.5808 68.8633 22.3532 69.6106 21.8953C70.3552 21.4401 70.9452 20.8136 71.3779 20.0184C71.8105 19.2261 72.0269 18.3467 72.0269 17.3858C72.0269 16.425 71.8105 15.5455 71.3779 14.7532C70.9452 13.9609 70.3608 13.3344 69.6275 12.8764C68.8942 12.4213 68.0597 12.1909 67.1213 12.1909C66.1829 12.1909 65.3765 12.4185 64.632 12.8764C63.8874 13.3344 63.2974 13.9581 62.8647 14.7532C62.4321 15.5455 62.2157 16.425 62.2157 17.3858C62.2157 18.3467 62.4321 19.2261 62.8647 20.0184Z" fill="black"/>
<path d="M83.8558 15.3991H95.3246L94.2064 16.95C94.1586 15.9891 93.917 15.1238 93.4843 14.3539C93.0516 13.5841 92.4672 12.9829 91.7339 12.5502C91.0006 12.1175 90.1661 11.9012 89.2277 11.9012C88.2893 11.9012 87.4352 12.1428 86.6682 12.6232C85.8984 13.1037 85.2971 13.7667 84.8644 14.6068C84.4317 15.4497 84.2154 16.3741 84.2154 17.3827C84.2154 18.3913 84.4374 19.355 84.8841 20.1951C85.328 21.038 85.9602 21.6926 86.7778 22.1618C87.5954 22.631 88.5197 22.8642 89.5537 22.8642C90.5876 22.8642 91.4698 22.6367 92.2762 22.1787C93.0825 21.7235 93.7119 21.0858 94.1698 20.2682L98.1735 22.0719C97.3082 23.5863 96.1169 24.7944 94.6025 25.6963C93.0881 26.5982 91.3574 27.0477 89.4076 27.0477C87.4577 27.0477 85.8731 26.6263 84.3587 25.7862C82.8443 24.9433 81.6474 23.7858 80.7708 22.3051C79.8942 20.8273 79.4531 19.1865 79.4531 17.3827C79.4531 15.5789 79.8802 13.9437 80.7343 12.4771C81.5884 11.0105 82.76 9.85014 84.2519 8.99602C85.741 8.1419 87.4015 7.71484 89.2277 7.71484C91.2703 7.71484 93.0881 8.23181 94.6728 9.26575C96.2602 10.2997 97.4318 11.6876 98.1904 13.4324C98.949 15.1772 99.1569 17.0708 98.8225 19.1134H83.8558V15.3991Z" fill="black"/>
<path d="M105.784 15.3991H117.253L116.135 16.95C116.087 15.9891 115.846 15.1238 115.413 14.3539C114.98 13.5841 114.396 12.9829 113.663 12.5502C112.929 12.1175 112.095 11.9012 111.156 11.9012C110.218 11.9012 109.364 12.1428 108.597 12.6232C107.827 13.1037 107.226 13.7667 106.793 14.6068C106.36 15.4497 106.144 16.3741 106.144 17.3827C106.144 18.3913 106.366 19.355 106.813 20.1951C107.257 21.038 107.889 21.6926 108.706 22.1618C109.524 22.631 110.448 22.8642 111.482 22.8642C112.516 22.8642 113.399 22.6367 114.205 22.1787C115.011 21.7235 115.641 21.0858 116.099 20.2682L120.102 22.0719C119.237 23.5863 118.046 24.7944 116.531 25.6963C115.017 26.5982 113.286 27.0477 111.336 27.0477C109.386 27.0477 107.802 26.6263 106.287 25.7862C104.773 24.9433 103.576 23.7858 102.7 22.3051C101.823 20.8273 101.382 19.1865 101.382 17.3827C101.382 15.5789 101.809 13.9437 102.663 12.4771C103.517 11.0105 104.689 9.85014 106.181 8.99602C107.67 8.1419 109.33 7.71484 111.156 7.71484C113.199 7.71484 115.017 8.23181 116.601 9.26575C118.189 10.2997 119.361 11.6876 120.119 13.4324C120.878 15.1772 121.086 17.0708 120.751 19.1134H105.784V15.3991Z" fill="black"/>
<path d="M124.468 1.44141H127.28V12.8035H142.753V1.44141H145.565V26.6885H142.753V15.3265H127.28V26.6885H124.468V1.44141Z" fill="black"/>
<path d="M151.769 16.1577H166.233L165.584 17.0231C165.51 15.8205 165.182 14.722 164.592 13.7218C164.002 12.7244 163.209 11.9377 162.212 11.3589C161.215 10.7829 160.102 10.4935 158.874 10.4935C157.646 10.4935 156.48 10.7998 155.447 11.4123C154.413 12.0248 153.601 12.8733 153.011 13.955C152.421 15.0367 152.128 16.2392 152.128 17.5625C152.128 18.8858 152.429 20.0883 153.03 21.17C153.631 22.2517 154.46 23.1002 155.52 23.7127C156.576 24.3252 157.767 24.6315 159.091 24.6315C160.509 24.6315 161.771 24.2831 162.878 23.5863C163.985 22.8895 164.825 21.9399 165.404 20.7374L167.713 21.7123C166.943 23.325 165.803 24.6146 164.286 25.5895C162.771 26.5645 161.026 27.0505 159.057 27.0505C157.278 27.0505 155.654 26.6347 154.188 25.8059C152.721 24.977 151.566 23.8392 150.726 22.3978C149.883 20.9565 149.465 19.3438 149.465 17.5653C149.465 15.7868 149.881 14.1741 150.709 12.7328C151.538 11.2915 152.668 10.1536 154.101 9.32473C155.531 8.4959 157.124 8.08008 158.88 8.08008C160.731 8.08008 162.397 8.52961 163.875 9.4315C165.353 10.3334 166.483 11.5724 167.267 13.1458C168.048 14.722 168.368 16.4696 168.222 18.3941H151.774V16.1577H151.769Z" fill="black"/>
<path d="M172.869 18.2506C174.046 17.36 175.597 16.8205 177.522 16.6267L181.598 16.1575C182.368 16.0844 182.938 15.8877 183.312 15.5618C183.686 15.2359 183.871 14.7386 183.871 14.0643C183.871 12.9348 183.481 12.0442 182.7 11.3952C181.919 10.7462 180.865 10.4202 179.544 10.4202C178.224 10.4202 177.128 10.7462 176.19 11.3952C175.251 12.0442 174.614 13.0416 174.279 14.3874L171.647 13.6653C171.936 12.4628 172.459 11.4457 173.214 10.6169C173.973 9.78808 174.892 9.15592 175.973 8.72324C177.055 8.29056 178.258 8.07422 179.581 8.07422C181.649 8.07422 183.332 8.62209 184.63 9.71503C185.928 10.8108 186.577 12.342 186.577 14.3144V26.685H183.871V22.7179L184.231 22.8246C183.486 24.1957 182.48 25.2409 181.219 25.963C179.957 26.685 178.533 27.0447 176.946 27.0447C175.791 27.0447 174.777 26.8452 173.897 26.449C173.021 26.0529 172.335 25.4685 171.84 24.6987C171.349 23.9288 171.102 23.0382 171.102 22.0295C171.102 20.3943 171.692 19.1328 172.869 18.2422V18.2506ZM174.816 24.0019C175.49 24.5188 176.356 24.7773 177.412 24.7773C178.637 24.7773 179.744 24.4879 180.73 23.912C181.716 23.336 182.486 22.5718 183.04 21.6221C183.593 20.6725 183.868 19.6554 183.868 18.5737V16.9132L184.228 17.02C184.059 17.4302 183.759 17.7308 183.326 17.9219C182.893 18.1158 182.256 18.259 181.416 18.3546L177.485 18.7872C176.378 18.9305 175.49 19.2621 174.816 19.779C174.142 20.296 173.807 20.9984 173.807 21.8891C173.807 22.7797 174.144 23.4821 174.816 23.9991V24.0019Z" fill="black"/>
<path d="M191.047 0H193.753V26.6913H191.047V0Z" fill="black"/>
<path d="M196.925 8.44039H201.035V1.91087L203.741 1.08203V8.44039H209.295V10.8932H203.741V20.488C203.741 21.8338 204.022 22.7975 204.589 23.3734C205.154 23.9494 206.109 24.2388 207.458 24.2388H209.298V26.6916H207.458C205.269 26.6916 203.654 26.1746 202.606 25.1407C201.561 24.1068 201.038 22.5193 201.038 20.3784V10.8932H196.928V8.44039H196.925Z" fill="black"/>
<path d="M213.192 0H215.898V12.5505L215.502 11.9745C216.126 10.7973 217.027 9.85329 218.207 9.14246C219.385 8.43444 220.708 8.07762 222.175 8.07762C223.641 8.07762 225.007 8.42039 226.195 9.10593C227.384 9.79148 228.316 10.7355 228.991 11.938C229.662 13.1405 229.999 14.4751 229.999 15.9417V26.6884H227.294V16.2648C227.294 15.2084 227.046 14.2391 226.555 13.3625C226.06 12.4859 225.383 11.8003 224.518 11.3059C223.652 10.8142 222.678 10.5669 221.596 10.5669C220.514 10.5669 219.576 10.8142 218.71 11.3059C217.845 11.8003 217.159 12.4831 216.654 13.3625C216.148 14.2391 215.895 15.2084 215.895 16.2648V26.6884H213.189V0H213.192Z" fill="black"/>
</g>
<defs>
<clipPath id="clip0_95_617">
<rect width="230" height="27.0509" fill="white"/>
</clipPath>
</defs>
</svg>
