<svg width="30" height="30" viewBox="0 0 30 30" fill="none" xmlns="http://www.w3.org/2000/svg">
<path d="M2.06977 24.9332L24.9332 2.06977C24.9332 2.06977 25.7801 1.22284 26.6271 2.06977L27.928 3.37191C27.928 3.37191 28.7749 4.21883 27.928 5.06576L5.06576 27.928C5.06576 27.928 4.21883 28.7749 3.37071 27.928L2.06977 26.6271C2.06977 26.6271 1.22284 25.7801 2.06977 24.9332Z" fill="#F9D835" stroke="black" stroke-width="1.25" stroke-linecap="round" stroke-linejoin="round"/>
<path d="M1.82227 6.01693C1.82227 7.1289 2.264 8.19533 3.05028 8.98162C3.83657 9.7679 4.903 10.2096 6.01497 10.2096C7.12695 10.2096 8.19338 9.7679 8.97967 8.98162C9.76595 8.19533 10.2077 7.1289 10.2077 6.01693C10.2077 4.90495 9.76595 3.83852 8.97967 3.05223C8.19338 2.26595 7.12695 1.82422 6.01497 1.82422C4.903 1.82422 3.83657 2.26595 3.05028 3.05223C2.264 3.83852 1.82227 4.90495 1.82227 6.01693Z" fill="#F9D835"/>
<path d="M6.01498 4.69758C6.87251 4.69919 7.70881 4.96438 8.41056 5.45721C9.11232 5.95005 9.64561 6.64671 9.93816 7.45278C10.1496 6.87812 10.2324 6.26407 10.1808 5.65393C10.1291 5.04378 9.94429 4.45239 9.63926 3.92144C9.33424 3.3905 8.91646 2.93292 8.41538 2.58097C7.9143 2.22903 7.34212 1.99127 6.73918 1.88448C6.13623 1.77769 5.5172 1.80445 4.92573 1.96288C4.33425 2.12131 3.78472 2.40756 3.31589 2.80143C2.84705 3.19531 2.47032 3.68724 2.21226 4.24253C1.95419 4.79782 1.82107 5.40296 1.82227 6.01528C1.82633 6.50663 1.91759 6.99335 2.09181 7.45278C2.38436 6.64671 2.91765 5.95005 3.6194 5.45721C4.32116 4.96438 5.15746 4.69919 6.01498 4.69758Z" fill="#ECF2FB"/>
<path d="M1.82227 6.01693C1.82227 7.1289 2.264 8.19533 3.05028 8.98162C3.83657 9.7679 4.903 10.2096 6.01497 10.2096C7.12695 10.2096 8.19338 9.7679 8.97967 8.98162C9.76595 8.19533 10.2077 7.1289 10.2077 6.01693C10.2077 4.90495 9.76595 3.83852 8.97967 3.05223C8.19338 2.26595 7.12695 1.82422 6.01497 1.82422C4.903 1.82422 3.83657 2.26595 3.05028 3.05223C2.264 3.83852 1.82227 4.90495 1.82227 6.01693Z" stroke="black" stroke-width="1.25" stroke-linecap="round" stroke-linejoin="round"/>
<path d="M19.791 23.9857C19.791 25.0977 20.2327 26.1641 21.019 26.9504C21.8053 27.7367 22.8717 28.1784 23.9837 28.1784C25.0957 28.1784 26.1621 27.7367 26.9484 26.9504C27.7347 26.1641 28.1764 25.0977 28.1764 23.9857C28.1764 22.8737 27.7347 21.8073 26.9484 21.021C26.1621 20.2347 25.0957 19.793 23.9837 19.793C22.8717 19.793 21.8053 20.2347 21.019 21.021C20.2327 21.8073 19.791 22.8737 19.791 23.9857Z" fill="#F9D835"/>
<path d="M23.9837 22.6646C24.8412 22.6662 25.6775 22.9314 26.3793 23.4242C27.0811 23.917 27.6143 24.6137 27.9069 25.4198C28.1461 24.7853 28.2278 24.1022 28.1451 23.4292C28.0624 22.7562 27.8177 22.1133 27.4319 21.5556C27.0462 20.998 26.5309 20.5422 25.9303 20.2273C25.3298 19.9125 24.6618 19.748 23.9837 19.748C23.3056 19.748 22.6377 19.9125 22.0371 20.2273C21.4365 20.5422 20.9213 20.998 20.5355 21.5556C20.1498 22.1133 19.9051 22.7562 19.8223 23.4292C19.7396 24.1022 19.8213 24.7853 20.0605 25.4198C20.3531 24.6137 20.8864 23.917 21.5881 23.4242C22.2899 22.9314 23.1262 22.6662 23.9837 22.6646Z" fill="#ECF2FB"/>
<path d="M19.791 23.9857C19.791 25.0977 20.2327 26.1641 21.019 26.9504C21.8053 27.7367 22.8717 28.1784 23.9837 28.1784C25.0957 28.1784 26.1621 27.7367 26.9484 26.9504C27.7347 26.1641 28.1764 25.0977 28.1764 23.9857C28.1764 22.8737 27.7347 21.8073 26.9484 21.021C26.1621 20.2347 25.0957 19.793 23.9837 19.793C22.8717 19.793 21.8053 20.2347 21.019 21.021C20.2327 21.8073 19.791 22.8737 19.791 23.9857Z" stroke="black" stroke-width="1.25" stroke-linecap="round" stroke-linejoin="round"/>
</svg>
