<svg width="30" height="30" viewBox="0 0 30 30" fill="none" xmlns="http://www.w3.org/2000/svg">
<g clip-path="url(#clip0_4033_1161)">
<path d="M4.81836 6.01562H2.42253C2.10482 6.01563 1.80012 6.14183 1.57547 6.36649C1.35082 6.59114 1.22461 6.89583 1.22461 7.21354V27.5781C1.22461 27.7354 1.25559 27.8912 1.3158 28.0365C1.376 28.1819 1.46423 28.3139 1.57547 28.4252C1.68671 28.5364 1.81877 28.6247 1.9641 28.6849C2.10944 28.7451 2.26521 28.776 2.42253 28.776H22.7871C22.9444 28.776 23.1002 28.7451 23.2455 28.6849C23.3909 28.6247 23.5229 28.5364 23.6342 28.4252C23.7454 28.3139 23.8336 28.1819 23.8938 28.0365C23.954 27.8912 23.985 27.7354 23.985 27.5781V25.1823" fill="#F9D835"/>
<path d="M4.81836 6.01562H2.42253C2.10482 6.01563 1.80012 6.14183 1.57547 6.36649C1.35082 6.59114 1.22461 6.89583 1.22461 7.21354V27.5781C1.22461 27.7354 1.25559 27.8912 1.3158 28.0365C1.376 28.1819 1.46423 28.3139 1.57547 28.4252C1.68671 28.5364 1.81877 28.6247 1.9641 28.6849C2.10944 28.7451 2.26521 28.776 2.42253 28.776H22.7871C22.9444 28.776 23.1002 28.7451 23.2455 28.6849C23.3909 28.6247 23.5229 28.5364 23.6342 28.4252C23.7454 28.3139 23.8336 28.1819 23.8938 28.0365C23.954 27.8912 23.985 27.7354 23.985 27.5781V25.1823" stroke="black" stroke-width="1.25" stroke-linecap="round" stroke-linejoin="round"/>
<path d="M28.7767 2.42253C28.7767 2.26521 28.7457 2.10944 28.6855 1.9641C28.6253 1.81877 28.5371 1.68671 28.4258 1.57547C28.3146 1.46423 28.1825 1.376 28.0372 1.3158C27.8919 1.25559 27.7361 1.22461 27.5788 1.22461H6.01628C5.69857 1.22461 5.39387 1.35082 5.16922 1.57547C4.94457 1.80012 4.81836 2.10482 4.81836 2.42253V23.985C4.81836 24.3027 4.94457 24.6074 5.16922 24.8321C5.39387 25.0567 5.69857 25.1829 6.01628 25.1829H27.5788C27.7361 25.1829 27.8919 25.152 28.0372 25.0918C28.1825 25.0316 28.3146 24.9433 28.4258 24.8321C28.5371 24.7208 28.6253 24.5888 28.6855 24.4434C28.7457 24.2981 28.7767 24.1423 28.7767 23.985V2.42253Z" fill="#ECF2FB"/>
<path d="M5.17773 24.8332L28.4269 1.58398C28.3162 1.47108 28.1843 1.3812 28.0388 1.31952C27.8932 1.25784 27.7369 1.22558 27.5788 1.22461H6.01628C5.69857 1.22461 5.39387 1.35082 5.16922 1.57547C4.94457 1.80012 4.81836 2.10482 4.81836 2.42253V23.985C4.81933 24.1431 4.85159 24.2994 4.91327 24.445C4.97495 24.5906 5.06483 24.7225 5.17773 24.8332Z" fill="white"/>
<path d="M28.7767 2.42253C28.7767 2.26521 28.7457 2.10944 28.6855 1.9641C28.6253 1.81877 28.5371 1.68671 28.4258 1.57547C28.3146 1.46423 28.1825 1.376 28.0372 1.3158C27.8919 1.25559 27.7361 1.22461 27.5788 1.22461H6.01628C5.69857 1.22461 5.39387 1.35082 5.16922 1.57547C4.94457 1.80012 4.81836 2.10482 4.81836 2.42253V23.985C4.81836 24.3027 4.94457 24.6074 5.16922 24.8321C5.39387 25.0567 5.69857 25.1829 6.01628 25.1829H27.5788C27.7361 25.1829 27.8919 25.152 28.0372 25.0918C28.1825 25.0316 28.3146 24.9433 28.4258 24.8321C28.5371 24.7208 28.6253 24.5888 28.6855 24.4434C28.7457 24.2981 28.7767 24.1423 28.7767 23.985V2.42253Z" stroke="black" stroke-width="1.25" stroke-linecap="round" stroke-linejoin="round"/>
<path d="M14.162 17.7255C14.0638 17.7814 13.9526 17.8105 13.8395 17.8101C13.7264 17.8096 13.6155 17.7795 13.5177 17.7228C13.4199 17.6661 13.3386 17.5847 13.2821 17.4868C13.2255 17.3889 13.1956 17.2779 13.1953 17.1648V9.05734C13.1956 8.94428 13.2255 8.83327 13.2821 8.73538C13.3386 8.63748 13.4199 8.55612 13.5177 8.4994C13.6155 8.44268 13.7264 8.41259 13.8395 8.41211C13.9526 8.41164 14.0638 8.44081 14.162 8.49672L21.2561 12.5505C21.3549 12.6069 21.4371 12.6885 21.4942 12.787C21.5514 12.8854 21.5815 12.9973 21.5815 13.1111C21.5815 13.2249 21.5514 13.3367 21.4942 13.4352C21.4371 13.5336 21.3549 13.6152 21.2561 13.6717L14.162 17.7255Z" fill="#F9D835" stroke="black" stroke-width="1.25" stroke-linecap="round" stroke-linejoin="round"/>
</g>
<defs>
<clipPath id="clip0_4033_1161">
<rect width="30" height="30" fill="white"/>
</clipPath>
</defs>
</svg>
