<svg width="30" height="31" viewBox="0 0 30 31" fill="none" xmlns="http://www.w3.org/2000/svg">
<path d="M6.61393 1.72266H23.3848C23.3848 1.72266 24.5827 1.72266 24.5827 2.92057V19.6914C24.5827 19.6914 24.5827 20.8893 23.3848 20.8893H6.61393C6.61393 20.8893 5.41602 20.8893 5.41602 19.6914V2.92057C5.41602 2.92057 5.41602 1.72266 6.61393 1.72266Z" fill="#F9D835"/>
<path d="M14.9993 1.72266H6.61393C6.29623 1.72266 5.99153 1.84887 5.76688 2.07352C5.54222 2.29817 5.41602 2.60287 5.41602 2.92057V19.6914C5.41602 20.0091 5.54222 20.3138 5.76688 20.5385C5.99153 20.7631 6.29623 20.8893 6.61393 20.8893H14.9993V1.72266Z" fill="#ECF2FB"/>
<path d="M12.0046 20.8893H6.61393C6.29623 20.8893 5.99153 20.7631 5.76688 20.5385C5.54222 20.3138 5.41602 20.0091 5.41602 19.6914V2.92057C5.41602 2.60287 5.54222 2.29817 5.76688 2.07352C5.99153 1.84887 6.29623 1.72266 6.61393 1.72266H23.3848C23.7025 1.72266 24.0072 1.84887 24.2318 2.07352C24.4565 2.29817 24.5827 2.60287 24.5827 2.92057V19.6914C24.5827 20.0091 24.4565 20.3138 24.2318 20.5385C24.0072 20.7631 23.7025 20.8893 23.3848 20.8893H17.9941" stroke="black" stroke-width="1.25" stroke-linecap="round" stroke-linejoin="round"/>
<path d="M14.998 29.2745V9.37109" stroke="black" stroke-width="1.25" stroke-linecap="round" stroke-linejoin="round"/>
<path d="M19.7904 15.3607L14.9987 9.37109L10.207 15.3607" stroke="black" stroke-width="1.25" stroke-linecap="round" stroke-linejoin="round"/>
</svg>
