<svg width="30" height="30" viewBox="0 0 30 30" fill="none" xmlns="http://www.w3.org/2000/svg">
<path d="M1.22461 10.8066H28.7767V25.1816C28.7767 25.8171 28.5243 26.4264 28.075 26.8758C27.6257 27.3251 27.0163 27.5775 26.3809 27.5775H3.62044C2.98503 27.5775 2.37564 27.3251 1.92633 26.8758C1.47703 26.4264 1.22461 25.8171 1.22461 25.1816V10.8066Z" fill="#F9D835"/>
<path d="M1.22461 10.8066V25.1816C1.22461 25.8171 1.47703 26.4264 1.92633 26.8758C2.37564 27.3251 2.98503 27.5775 3.62044 27.5775H7.0369L23.8077 10.8066H1.22461Z" fill="#ECF2FB"/>
<path d="M1.22461 10.8066H28.7767V25.1816C28.7767 25.8171 28.5243 26.4264 28.075 26.8758C27.6257 27.3251 27.0163 27.5775 26.3809 27.5775H3.62044C2.98503 27.5775 2.37564 27.3251 1.92633 26.8758C1.47703 26.4264 1.22461 25.8171 1.22461 25.1816V10.8066Z" stroke="black" stroke-width="1.25" stroke-linecap="round" stroke-linejoin="round"/>
<path d="M12.0059 2.41992L6.01628 8.40951H1.22461V7.21159L6.01628 2.41992H12.0059Z" fill="#F9D835"/>
<path d="M6.01628 2.41992L1.22461 7.21159V4.81576C1.22651 4.18092 1.47953 3.57264 1.92843 3.12374C2.37732 2.67484 2.98561 2.42182 3.62044 2.41992H6.01628Z" fill="white"/>
<path d="M23.985 2.41992L17.9954 8.40951H12.0059L17.9954 2.41992H23.985Z" fill="#F9D835"/>
<path d="M17.9948 2.41992L12.0052 8.40951H6.01562L12.0052 2.41992H17.9948Z" fill="white"/>
<path d="M28.5598 3.83346L23.9837 8.40951H17.9941L23.9837 2.41992H26.3796C26.8404 2.42088 27.2912 2.55475 27.6779 2.80547C28.0646 3.05618 28.3708 3.41311 28.5598 3.83346Z" fill="white"/>
<path d="M11.9039 14.8781C11.7846 14.826 11.6542 14.8043 11.5245 14.8153C11.3947 14.8262 11.2697 14.8692 11.1608 14.9406C11.0519 15.0119 10.9625 15.1093 10.9006 15.2239C10.8388 15.3385 10.8065 15.4667 10.8066 15.5969V22.7844C10.8065 22.9146 10.8388 23.0428 10.9006 23.1574C10.9625 23.2719 11.0519 23.3693 11.1608 23.4407C11.2697 23.512 11.3947 23.5551 11.5245 23.566C11.6542 23.5769 11.7846 23.5553 11.9039 23.5031L19.8413 20.0292C20.0044 19.9579 20.1431 19.8406 20.2405 19.6916C20.338 19.5427 20.3899 19.3686 20.3899 19.1906C20.3899 19.0126 20.338 18.8385 20.2405 18.6896C20.1431 18.5407 20.0044 18.4234 19.8413 18.3521L11.9039 14.8781Z" fill="white"/>
<path d="M28.776 4.81823V8.41198H23.9844L28.5604 3.83594C28.705 4.14308 28.7787 4.47878 28.776 4.81823Z" fill="#F9D835"/>
<path d="M12.0059 2.41992L6.01628 8.40951H1.22461V7.21159L6.01628 2.41992H12.0059Z" stroke="black" stroke-width="1.25" stroke-linecap="round" stroke-linejoin="round"/>
<path d="M6.01628 2.41992L1.22461 7.21159V4.81576C1.22651 4.18092 1.47953 3.57264 1.92843 3.12374C2.37732 2.67484 2.98561 2.42182 3.62044 2.41992H6.01628Z" stroke="black" stroke-width="1.25" stroke-linecap="round" stroke-linejoin="round"/>
<path d="M23.985 2.41992L17.9954 8.40951H12.0059L17.9954 2.41992H23.985Z" stroke="black" stroke-width="1.25" stroke-linecap="round" stroke-linejoin="round"/>
<path d="M17.9948 2.41992L12.0052 8.40951H6.01562L12.0052 2.41992H17.9948Z" stroke="black" stroke-width="1.25" stroke-linecap="round" stroke-linejoin="round"/>
<path d="M28.5598 3.83346L23.9837 8.40951H17.9941L23.9837 2.41992H26.3796C26.8404 2.42088 27.2912 2.55475 27.6779 2.80547C28.0646 3.05618 28.3708 3.41311 28.5598 3.83346Z" stroke="black" stroke-width="1.25" stroke-linecap="round" stroke-linejoin="round"/>
<path d="M11.9039 14.8781C11.7846 14.826 11.6542 14.8043 11.5245 14.8153C11.3947 14.8262 11.2697 14.8692 11.1608 14.9406C11.0519 15.0119 10.9625 15.1093 10.9006 15.2239C10.8388 15.3385 10.8065 15.4667 10.8066 15.5969V22.7844C10.8065 22.9146 10.8388 23.0428 10.9006 23.1574C10.9625 23.2719 11.0519 23.3693 11.1608 23.4407C11.2697 23.512 11.3947 23.5551 11.5245 23.566C11.6542 23.5769 11.7846 23.5553 11.9039 23.5031L19.8413 20.0292C20.0044 19.9579 20.1431 19.8406 20.2405 19.6916C20.338 19.5427 20.3899 19.3686 20.3899 19.1906C20.3899 19.0126 20.338 18.8385 20.2405 18.6896C20.1431 18.5407 20.0044 18.4234 19.8413 18.3521L11.9039 14.8781Z" stroke="black" stroke-width="1.25" stroke-linecap="round" stroke-linejoin="round"/>
<path d="M28.776 4.81823V8.41198H23.9844L28.5604 3.83594C28.705 4.14308 28.7787 4.47878 28.776 4.81823Z" stroke="black" stroke-width="1.25" stroke-linecap="round" stroke-linejoin="round"/>
</svg>
