<svg width="24" height="25" viewBox="0 0 24 25" fill="none" xmlns="http://www.w3.org/2000/svg">
<path d="M22.5469 10.5318L12.256 20.8236C11.0692 22.0104 9.45962 22.6771 7.78129 22.6771C6.10296 22.6771 4.49336 22.0104 3.3066 20.8236C2.11984 19.6369 1.45313 18.0273 1.45313 16.3489C1.45312 14.6706 2.11984 13.061 3.3066 11.8743L11.7591 3.4227C12.1483 3.01977 12.6138 2.69837 13.1285 2.47727C13.6432 2.25617 14.1968 2.13979 14.7569 2.13492C15.3171 2.13006 15.8726 2.2368 16.3911 2.44892C16.9096 2.66104 17.3806 2.9743 17.7767 3.37041C18.1728 3.76652 18.4861 4.23755 18.6982 4.75602C18.9103 5.27449 19.0171 5.83001 19.0122 6.39017C19.0073 6.95034 18.8909 7.50392 18.6698 8.01862C18.4487 8.53333 18.1273 8.99885 17.7244 9.38801L9.27285 17.8443C8.87508 18.2286 8.34228 18.4413 7.78921 18.4365C7.23614 18.4318 6.70704 18.2101 6.31588 17.819C5.92473 17.428 5.7028 16.899 5.69791 16.3459C5.69302 15.7928 5.90555 15.26 6.28973 14.8621L14.7422 6.40676" stroke="black" stroke-width="1.5" stroke-linecap="round" stroke-linejoin="round"/>
</svg>
