<svg width="24" height="24" viewBox="0 0 24 24" fill="none" xmlns="http://www.w3.org/2000/svg">
<path d="M17.68 21.7357H6.32181C5.89148 21.7357 5.47876 21.5648 5.17447 21.2605C4.87016 20.9562 4.69922 20.5435 4.69922 20.1131V5.50977H19.3025V20.1131C19.3025 20.5435 19.1316 20.9562 18.8273 21.2605C18.523 21.5648 18.1103 21.7357 17.68 21.7357Z" stroke="black" stroke-width="1.5" stroke-linecap="round" stroke-linejoin="round"/>
<path d="M9.56543 16.8674V10.377" stroke="black" stroke-width="1.5" stroke-linecap="round" stroke-linejoin="round"/>
<path d="M14.4346 16.8674V10.377" stroke="black" stroke-width="1.5" stroke-linecap="round" stroke-linejoin="round"/>
<path d="M1.45312 5.50977H22.5469" stroke="black" stroke-width="1.5" stroke-linecap="round" stroke-linejoin="round"/>
<path d="M14.4328 2.26367H9.56497C9.13464 2.26367 8.72192 2.43462 8.41763 2.73892C8.11333 3.04321 7.94238 3.45593 7.94238 3.88627V5.50887H16.0553V3.88627C16.0553 3.45593 15.8844 3.04321 15.5801 2.73892C15.2758 2.43462 14.8631 2.26367 14.4328 2.26367Z" stroke="black" stroke-width="1.5" stroke-linecap="round" stroke-linejoin="round"/>
</svg>
