<svg width="50" height="50" viewBox="0 0 50 50" fill="none" xmlns="http://www.w3.org/2000/svg">
<rect width="50" height="50" rx="10" fill="#F9D835"/>
<g clip-path="url(#clip0_5957_4290)">
<path d="M32.1872 21.6471V15.8971C32.1872 15.7701 32.1367 15.6482 32.0468 15.5583C31.957 15.4685 31.8351 15.418 31.708 15.418H28.833V18.293L32.1872 21.6471Z" fill="#F9D835"/>
<path d="M36.0212 25.4779L25.0003 14.457L13.9795 25.4779H16.3753C16.5024 25.4779 16.6243 25.5283 16.7141 25.6182C16.804 25.7081 16.8545 25.8299 16.8545 25.957V34.582C16.8545 34.8362 16.9555 35.08 17.1352 35.2597C17.3149 35.4394 17.5587 35.5404 17.8128 35.5404H32.1878C32.442 35.5404 32.6857 35.4394 32.8655 35.2597C33.0452 35.08 33.1462 34.8362 33.1462 34.582V25.957C33.1462 25.8299 33.1966 25.7081 33.2865 25.6182C33.3764 25.5283 33.4982 25.4779 33.6253 25.4779H36.0212Z" fill="#ECF2FB"/>
<path d="M25.3405 17.0857L33.5918 25.337C33.6364 25.3817 33.6894 25.4172 33.7478 25.4414C33.8062 25.4656 33.8688 25.478 33.932 25.4779H36.0212L25.0003 14.457L13.9795 25.4779H16.0687C16.1319 25.478 16.1944 25.4656 16.2528 25.4414C16.3112 25.4172 16.3643 25.3817 16.4089 25.337L24.6601 17.0857C24.7047 17.0408 24.7577 17.0052 24.8161 16.9809C24.8744 16.9565 24.9371 16.944 25.0003 16.944C25.0636 16.944 25.1262 16.9565 25.1846 16.9809C25.243 17.0052 25.296 17.0408 25.3405 17.0857Z" fill="#F9D835"/>
<path d="M16.8545 25.957V34.582C16.8545 34.8362 16.9555 35.08 17.1352 35.2597C17.3149 35.4394 17.5587 35.5404 17.8128 35.5404H32.1878C32.442 35.5404 32.6857 35.4394 32.8655 35.2597C33.0452 35.08 33.1462 34.8362 33.1462 34.582V26.4362" stroke="black" stroke-linecap="round" stroke-linejoin="round"/>
<path d="M13.9795 25.4779L25.0003 14.457L36.0212 25.4779" stroke="black" stroke-linecap="round" stroke-linejoin="round"/>
<path d="M28.833 15.418H31.708C31.8351 15.418 31.957 15.4685 32.0468 15.5583C32.1367 15.6482 32.1872 15.7701 32.1872 15.8971V18.7721" stroke="black" stroke-linecap="round" stroke-linejoin="round"/>
<path d="M29.7921 26.5433C29.7921 29.0254 25.8236 31.9962 25.2927 32.3796L25.2697 32.3978C25.1916 32.4551 25.0973 32.486 25.0004 32.486C24.9036 32.486 24.8092 32.4551 24.7311 32.3978L24.7129 32.3796C24.1772 31.9962 20.2088 29.0254 20.2088 26.5433C20.19 26.1833 20.243 25.8232 20.3649 25.4839C20.4867 25.1446 20.6749 24.8329 20.9184 24.5671C21.1619 24.3013 21.4559 24.0866 21.7833 23.9356C22.1106 23.7846 22.4647 23.7002 22.825 23.6875C23.2708 23.6967 23.7064 23.8228 24.0882 24.0532C24.47 24.2836 24.7845 24.6103 25.0004 25.0004C25.2163 24.6103 25.5309 24.2836 25.9127 24.0532C26.2945 23.8228 26.73 23.6967 27.1759 23.6875C27.5361 23.7002 27.8903 23.7846 28.2176 23.9356C28.545 24.0866 28.839 24.3013 29.0825 24.5671C29.326 24.8329 29.5142 25.1446 29.636 25.4839C29.7578 25.8232 29.8109 26.1833 29.7921 26.5433Z" fill="#F9D835"/>
<path d="M27.1754 23.6875C26.7296 23.6967 26.294 23.8228 25.9122 24.0532C25.5305 24.2836 25.2159 24.6103 25 25.0004C24.7841 24.6103 24.4695 24.2836 24.0877 24.0532C23.706 23.8228 23.2704 23.6967 22.8246 23.6875C22.4121 23.7184 22.0114 23.8395 21.6508 24.0421C21.2902 24.2447 20.9784 24.5239 20.7375 24.8601C20.4965 25.1963 20.3322 25.5812 20.2562 25.9878C20.1802 26.3944 20.1942 26.8127 20.2974 27.2132C21.6061 28.3338 23.2772 28.941 25 28.9219C26.7228 28.941 28.3939 28.3338 29.7025 27.2132C29.8057 26.8127 29.8198 26.3944 29.7438 25.9878C29.6677 25.5812 29.5035 25.1963 29.2625 24.8601C29.0215 24.5239 28.7097 24.2447 28.3491 24.0421C27.9885 23.8395 27.5879 23.7184 27.1754 23.6875Z" fill="#ECF2FB"/>
<path d="M29.7921 26.5433C29.7921 29.0254 25.8236 31.9962 25.2927 32.3796L25.2697 32.3978C25.1916 32.4551 25.0973 32.486 25.0004 32.486C24.9036 32.486 24.8092 32.4551 24.7311 32.3978L24.7129 32.3796C24.1772 31.9962 20.2088 29.0254 20.2088 26.5433C20.19 26.1833 20.243 25.8232 20.3649 25.4839C20.4867 25.1446 20.6749 24.8329 20.9184 24.5671C21.1619 24.3013 21.4559 24.0866 21.7833 23.9356C22.1106 23.7846 22.4647 23.7002 22.825 23.6875C23.2708 23.6967 23.7064 23.8228 24.0882 24.0532C24.47 24.2836 24.7845 24.6103 25.0004 25.0004C25.2163 24.6103 25.5309 24.2836 25.9127 24.0532C26.2945 23.8228 26.73 23.6967 27.1759 23.6875C27.5361 23.7002 27.8903 23.7846 28.2176 23.9356C28.545 24.0866 28.839 24.3013 29.0825 24.5671C29.326 24.8329 29.5142 25.1446 29.636 25.4839C29.7578 25.8232 29.8109 26.1833 29.7921 26.5433Z" stroke="black" stroke-linecap="round" stroke-linejoin="round"/>
</g>
<defs>
<clipPath id="clip0_5957_4290">
<rect width="24" height="24" fill="white" transform="translate(13 13)"/>
</clipPath>
</defs>
</svg>
