<svg width="24" height="24" viewBox="0 0 24 24" fill="none" xmlns="http://www.w3.org/2000/svg">
<path d="M9.52878 18.0933L8.65503 18.967C8.26328 19.3588 7.7982 19.6695 7.28636 19.8815C6.77451 20.0936 6.22592 20.2027 5.6719 20.2027C4.55301 20.2027 3.47995 19.7582 2.68878 18.967C1.8976 18.1759 1.45313 17.1028 1.45312 15.9839C1.45312 14.865 1.8976 13.792 2.68878 13.0008L7.16346 8.52515C7.91367 7.77325 8.91989 7.332 9.9812 7.28951C11.0425 7.24703 12.0808 7.60644 12.8887 8.29597C13.6966 8.9855 14.2147 9.95441 14.3395 11.0092C14.4643 12.064 14.1866 13.1271 13.5619 13.9861" stroke="black" stroke-width="1.5" stroke-linecap="round" stroke-linejoin="round"/>
<path d="M14.6414 5.96905L15.3446 5.26592C16.1357 4.47475 17.2088 4.03027 18.3277 4.03027C19.4466 4.03027 20.5196 4.47475 21.3108 5.26592C22.102 6.0571 22.5465 7.13016 22.5465 8.24905C22.5465 9.36794 22.102 10.441 21.3108 11.2322L16.8361 15.7069C16.0858 16.4584 15.0795 16.8994 14.0183 16.9416C12.9571 16.9838 11.9191 16.6243 11.1113 15.9347C10.3036 15.2451 9.78573 14.2762 9.66103 13.2215C9.53633 12.1668 9.81401 11.1039 10.4386 10.245" stroke="black" stroke-width="1.5" stroke-linecap="round" stroke-linejoin="round"/>
</svg>
