<svg width="24" height="24" viewBox="0 0 24 24" fill="none" xmlns="http://www.w3.org/2000/svg">
<path d="M18.2766 13.9419C19.0201 13.5144 19.6353 12.8953 20.0578 12.149C20.4804 11.4028 20.695 10.5568 20.6792 9.69935C20.6486 7.93104 19.9261 6.24517 18.6667 5.00352C18.6292 5.3147 18.5291 5.61508 18.3724 5.88653C18.2157 6.15797 18.0056 6.39487 17.7549 6.58293C17.5041 6.77099 17.2179 6.90632 16.9134 6.98075C16.609 7.05519 16.2926 7.06718 15.9833 7.01602C15.1279 6.29655 14.533 5.31553 14.2905 4.22437C14.0481 3.13321 14.1715 1.99257 14.6417 0.978516C10.449 0.978516 7.76564 3.45197 7.26252 7.01602C6.64392 7.08064 6.02373 6.9092 5.52616 6.53602C5.02859 6.16284 4.69035 5.61547 4.57918 5.00352C1.61122 7.52777 1.45789 12.6338 5.53177 14.5265" fill="#F9D835"/>
<path d="M18.2766 13.9419C19.0201 13.5144 19.6353 12.8953 20.0578 12.149C20.4804 11.4028 20.695 10.5568 20.6792 9.69935C20.6486 7.93104 19.9261 6.24517 18.6667 5.00352C18.6292 5.3147 18.5291 5.61508 18.3724 5.88653C18.2157 6.15797 18.0056 6.39487 17.7549 6.58293C17.5041 6.77099 17.2179 6.90632 16.9134 6.98075C16.609 7.05519 16.2926 7.06718 15.9833 7.01602C15.1279 6.29655 14.533 5.31553 14.2905 4.22437C14.0481 3.13321 14.1715 1.99257 14.6417 0.978516C10.449 0.978516 7.76564 3.45197 7.26252 7.01602C6.64392 7.08064 6.02373 6.9092 5.52616 6.53602C5.02859 6.16284 4.69035 5.61547 4.57918 5.00352C1.61122 7.52777 1.45789 12.6338 5.53177 14.5265" stroke="black" stroke-linecap="round" stroke-linejoin="round"/>
<path d="M5.29199 16.3138C5.29199 17.1948 5.46551 18.0671 5.80263 18.881C6.13976 19.6949 6.63389 20.4344 7.25682 21.0573C7.87974 21.6802 8.61926 22.1744 9.43316 22.5115C10.247 22.8486 11.1194 23.0221 12.0003 23.0221C12.8813 23.0221 13.7536 22.8486 14.5675 22.5115C15.3814 22.1744 16.1209 21.6802 16.7438 21.0573C17.3668 20.4344 17.8609 19.6949 18.198 18.881C18.5351 18.0671 18.7087 17.1948 18.7087 16.3138C18.7087 15.4329 18.5351 14.5605 18.198 13.7466C17.8609 12.9327 17.3668 12.1932 16.7438 11.5703C16.1209 10.9474 15.3814 10.4532 14.5675 10.1161C13.7536 9.77898 12.8813 9.60547 12.0003 9.60547C11.1194 9.60547 10.247 9.77898 9.43316 10.1161C8.61926 10.4532 7.87974 10.9474 7.25682 11.5703C6.63389 12.1932 6.13976 12.9327 5.80263 13.7466C5.46551 14.5605 5.29199 15.4329 5.29199 16.3138Z" fill="#F9D835"/>
<path d="M7.25594 21.0579C5.99782 19.7998 5.29102 18.0934 5.29102 16.3141C5.29102 14.5349 5.99782 12.8285 7.25594 11.5704C8.51406 10.3123 10.2204 9.60547 11.9997 9.60547C13.7789 9.60547 15.4853 10.3123 16.7434 11.5704L7.25594 21.0579Z" fill="white"/>
<path d="M5.29199 16.3138C5.29199 17.1948 5.46551 18.0671 5.80263 18.881C6.13976 19.6949 6.63389 20.4344 7.25682 21.0573C7.87974 21.6802 8.61926 22.1744 9.43316 22.5115C10.247 22.8486 11.1194 23.0221 12.0003 23.0221C12.8813 23.0221 13.7536 22.8486 14.5675 22.5115C15.3814 22.1744 16.1209 21.6802 16.7438 21.0573C17.3668 20.4344 17.8609 19.6949 18.198 18.881C18.5351 18.0671 18.7087 17.1948 18.7087 16.3138C18.7087 15.4329 18.5351 14.5605 18.198 13.7466C17.8609 12.9327 17.3668 12.1932 16.7438 11.5703C16.1209 10.9474 15.3814 10.4532 14.5675 10.1161C13.7536 9.77898 12.8813 9.60547 12.0003 9.60547C11.1194 9.60547 10.247 9.77898 9.43316 10.1161C8.61926 10.4532 7.87974 10.9474 7.25682 11.5703C6.63389 12.1932 6.13976 12.9327 5.80263 13.7466C5.46551 14.5605 5.29199 15.4329 5.29199 16.3138Z" stroke="black" stroke-linecap="round" stroke-linejoin="round"/>
<path d="M15.3542 16.3135H12V12.001" stroke="black" stroke-linecap="round" stroke-linejoin="round"/>
</svg>
