<svg width="24" height="24" viewBox="0 0 24 24" fill="none" xmlns="http://www.w3.org/2000/svg">
<g clip-path="url(#clip0_4876_1526)">
<path d="M1.9375 22.9843L2.78658 20.4332C2.81835 20.3378 2.87931 20.2549 2.96083 20.1961C3.04235 20.1372 3.14031 20.1055 3.24083 20.1055H20.7592C20.8597 20.1055 20.9576 20.1372 21.0392 20.1961C21.1207 20.2549 21.1817 20.3378 21.2134 20.4332L22.0625 22.9805" fill="#F9D835"/>
<path d="M1.9375 22.9843L2.78658 20.4332C2.81835 20.3378 2.87931 20.2549 2.96083 20.1961C3.04235 20.1372 3.14031 20.1055 3.24083 20.1055H20.7592C20.8597 20.1055 20.9576 20.1372 21.0392 20.1961C21.1207 20.2549 21.1817 20.3378 21.2134 20.4332L22.0625 22.9805" stroke="black" stroke-linecap="round" stroke-linejoin="round"/>
<path d="M17.2725 9.56641H20.1455V20.1081H17.2725V9.56641Z" fill="#F9D835"/>
<path d="M10.5625 9.56641H13.4375V20.1081H10.5625V9.56641Z" fill="#F9D835"/>
<path d="M3.85352 9.56641H6.73043V20.1081H3.85352V9.56641Z" fill="#F9D835"/>
<path d="M17.2725 9.56641H20.1455V12.4778H17.2725V9.56641Z" fill="#F9D835"/>
<path d="M10.5625 9.56641H13.4375V12.4778H10.5625V9.56641Z" fill="#F9D835"/>
<path d="M3.85352 9.56641H6.73043V12.4778H3.85352V9.56641Z" fill="#F9D835"/>
<path d="M17.2725 9.56641H20.1455V20.1081H17.2725V9.56641Z" stroke="black" stroke-linecap="round" stroke-linejoin="round"/>
<path d="M10.5625 9.56641H13.4375V20.1081H10.5625V9.56641Z" stroke="black" stroke-linecap="round" stroke-linejoin="round"/>
<path d="M3.85352 9.56641H6.73043V20.1081H3.85352V9.56641Z" stroke="black" stroke-linecap="round" stroke-linejoin="round"/>
<path d="M23.0202 22.9844H0.978516" stroke="black" stroke-linecap="round" stroke-linejoin="round"/>
<path d="M21.9376 7.06516L21.2093 9.24057C21.1774 9.33497 21.1169 9.41709 21.0361 9.47549C20.9554 9.53389 20.8585 9.56567 20.7588 9.56641H3.24051C3.14087 9.56567 3.04395 9.53389 2.96322 9.47549C2.88249 9.41709 2.82197 9.33497 2.79009 9.24057L2.06176 7.06516C2.04016 7.00431 2.03156 6.93961 2.03652 6.87523C2.04147 6.81086 2.05986 6.74824 2.09051 6.69141H21.9088C21.9395 6.74824 21.9579 6.81086 21.9628 6.87523C21.9678 6.93961 21.9592 7.00431 21.9376 7.06516Z" fill="white" stroke="black" stroke-linecap="round" stroke-linejoin="round"/>
<path d="M21.9092 6.68894H2.09082C2.13406 6.60728 2.20083 6.54051 2.28249 6.49727L11.7604 1.07311C11.8346 1.03532 11.9167 1.01562 12 1.01562C12.0833 1.01562 12.1654 1.03532 12.2396 1.07311L21.7175 6.49727C21.7991 6.54051 21.8659 6.60728 21.9092 6.68894Z" fill="white" stroke="black" stroke-linecap="round" stroke-linejoin="round"/>
</g>
<defs>
<clipPath id="clip0_4876_1526">
<rect width="24" height="24" fill="white"/>
</clipPath>
</defs>
</svg>
