<svg width="50" height="50" viewBox="0 0 50 50" fill="none" xmlns="http://www.w3.org/2000/svg">
<rect width="50" height="50" rx="10" fill="#F9D835"/>
<path d="M28.4901 36.0206V32.6885C30.4068 32.699 31.3823 32.561 32.0541 31.8883C32.9166 31.0258 32.8333 27.3956 32.8333 27.3956C32.8333 27.3956 33.6507 27.4263 34.2708 27.4013C34.3788 27.3969 34.4845 27.3682 34.5799 27.3172C34.6753 27.2663 34.758 27.1945 34.8218 27.1071C34.909 26.9186 34.9421 26.7096 34.9176 26.5034C35.0288 24.9643 32.862 22.3231 32.862 21.5555C32.8639 16.7341 28.3109 13.9789 24.1776 13.9789C22.9737 13.9675 21.7798 14.1972 20.6661 14.6545C19.5524 15.1118 18.5415 15.7874 17.6931 16.6415C16.8446 17.4956 16.1757 18.5109 15.7258 19.6276C15.2759 20.7443 15.0541 21.9397 15.0734 23.1435C15.0734 26.0597 16.0318 28.7976 18.9068 30.5006V36.0206H28.4901Z" fill="#ECF2FB"/>
<path d="M25.847 17.3091C27.2301 17.456 28.5674 17.8899 29.7733 18.583C30.9792 19.276 32.0273 20.213 32.8505 21.3341C32.7087 16.6517 28.2448 13.9789 24.1776 13.9789C22.9738 13.9675 21.7799 14.1972 20.6663 14.6544C19.5527 15.1116 18.5419 15.7871 17.6934 16.6411C16.8449 17.4951 16.176 18.5103 15.726 19.6269C15.2761 20.7435 15.0542 21.9388 15.0734 23.1425C15.0719 23.8446 15.1361 24.5453 15.2651 25.2355C15.6635 22.8033 16.9877 20.6196 18.9603 19.142C20.933 17.6644 23.4009 17.0076 25.847 17.3091Z" fill="#ECF2FB"/>
<path d="M28.4901 36.0206V32.6885C30.4068 32.699 31.3823 32.561 32.0541 31.8883C32.9166 31.0258 32.8333 27.3956 32.8333 27.3956C32.8333 27.3956 33.6507 27.4263 34.2708 27.4013C34.3788 27.3969 34.4845 27.3682 34.5799 27.3172C34.6753 27.2663 34.758 27.1945 34.8218 27.1071C34.909 26.9186 34.9421 26.7096 34.9176 26.5034C35.0288 24.9643 32.862 22.3231 32.862 21.5555C32.8639 16.7341 28.3109 13.9789 24.1776 13.9789C22.9737 13.9675 21.7798 14.1972 20.6661 14.6545C19.5524 15.1118 18.5415 15.7874 17.6931 16.6415C16.8446 17.4956 16.1757 18.5109 15.7258 19.6276C15.2759 20.7443 15.0541 21.9397 15.0734 23.1435C15.0734 26.0597 16.0318 28.7976 18.9068 30.5006V36.0206" stroke="black" stroke-linecap="round" stroke-linejoin="round"/>
<path d="M28.4922 22.1237C28.4922 21.9966 28.4417 21.8747 28.3518 21.7849C28.262 21.695 28.1401 21.6445 28.013 21.6445H25.6172V19.2487C25.6172 19.1216 25.5667 18.9997 25.4768 18.9099C25.387 18.82 25.2651 18.7695 25.138 18.7695H23.2214C23.0943 18.7695 22.9724 18.82 22.8825 18.9099C22.7927 18.9997 22.7422 19.1216 22.7422 19.2487V21.6445H20.3464C20.2193 21.6445 20.0974 21.695 20.0075 21.7849C19.9177 21.8747 19.8672 21.9966 19.8672 22.1237V24.0404C19.8672 24.1674 19.9177 24.2893 20.0075 24.3792C20.0974 24.469 20.2193 24.5195 20.3464 24.5195H22.7422V26.9154C22.7422 27.0424 22.7927 27.1643 22.8825 27.2542C22.9724 27.344 23.0943 27.3945 23.2214 27.3945H25.138C25.2651 27.3945 25.387 27.344 25.4768 27.2542C25.5667 27.1643 25.6172 27.0424 25.6172 26.9154V24.5195H28.013C28.1401 24.5195 28.262 24.469 28.3518 24.3792C28.4417 24.2893 28.4922 24.1674 28.4922 24.0404V22.1237Z" fill="#F9D835"/>
<path d="M25.138 18.7696H23.2214C23.0943 18.7696 22.9724 18.82 22.8825 18.9099C22.7927 18.9998 22.7422 19.1216 22.7422 19.2487V21.6446H20.3464C20.2193 21.6446 20.0974 21.695 20.0075 21.7849C19.9177 21.8748 19.8672 21.9966 19.8672 22.1237V24.0404C19.8672 24.1675 19.9177 24.2893 20.0075 24.3792C20.0974 24.4691 20.2193 24.5196 20.3464 24.5196H22.6511L25.622 21.5487V19.2487C25.622 19.1854 25.6094 19.1227 25.5851 19.0642C25.5607 19.0058 25.5249 18.9528 25.4799 18.9082C25.4349 18.8636 25.3816 18.8284 25.3229 18.8046C25.2642 18.7808 25.2013 18.7689 25.138 18.7696Z" fill="#ECF2FB"/>
<path d="M28.4922 22.1237C28.4922 21.9966 28.4417 21.8747 28.3518 21.7849C28.262 21.695 28.1401 21.6445 28.013 21.6445H25.6172V19.2487C25.6172 19.1216 25.5667 18.9997 25.4768 18.9099C25.387 18.82 25.2651 18.7695 25.138 18.7695H23.2214C23.0943 18.7695 22.9724 18.82 22.8825 18.9099C22.7927 18.9997 22.7422 19.1216 22.7422 19.2487V21.6445H20.3464C20.2193 21.6445 20.0974 21.695 20.0075 21.7849C19.9177 21.8747 19.8672 21.9966 19.8672 22.1237V24.0404C19.8672 24.1674 19.9177 24.2893 20.0075 24.3792C20.0974 24.469 20.2193 24.5195 20.3464 24.5195H22.7422V26.9154C22.7422 27.0424 22.7927 27.1643 22.8825 27.2542C22.9724 27.344 23.0943 27.3945 23.2214 27.3945H25.138C25.2651 27.3945 25.387 27.344 25.4768 27.2542C25.5667 27.1643 25.6172 27.0424 25.6172 26.9154V24.5195H28.013C28.1401 24.5195 28.262 24.469 28.3518 24.3792C28.4417 24.2893 28.4922 24.1674 28.4922 24.0404V22.1237Z" stroke="black" stroke-linecap="round" stroke-linejoin="round"/>
</svg>
