<svg width="20" height="20" viewBox="0 0 20 20" fill="none" xmlns="http://www.w3.org/2000/svg">
<g clip-path="url(#clip0_67_1733)">
<path d="M3.99464 7.57422H15.9259C15.9259 7.57422 16.7213 7.57422 16.7213 8.36964V18.3123C16.7213 18.3123 16.7213 19.1078 15.9259 19.1078H3.99464C3.99464 19.1078 3.19922 19.1078 3.19922 18.3123V8.36964C3.19922 8.36964 3.19922 7.57422 3.99464 7.57422Z" fill="#F9D835"/>
<path d="M9.96026 7.57422H3.99464C3.78368 7.57422 3.58136 7.65802 3.43219 7.80719C3.28302 7.95636 3.19922 8.15868 3.19922 8.36964V18.3123C3.19922 18.4168 3.21979 18.5202 3.25977 18.6167C3.29974 18.7132 3.35833 18.8009 3.43219 18.8748C3.50605 18.9486 3.59374 19.0072 3.69024 19.0472C3.78675 19.0872 3.89018 19.1078 3.99464 19.1078H9.96026V7.57422Z" fill="#ECF2FB"/>
<path d="M3.99464 7.57422H15.9259C15.9259 7.57422 16.7213 7.57422 16.7213 8.36964V18.3123C16.7213 18.3123 16.7213 19.1078 15.9259 19.1078H3.99464C3.99464 19.1078 3.19922 19.1078 3.19922 18.3123V8.36964C3.19922 8.36964 3.19922 7.57422 3.99464 7.57422Z" stroke="black" stroke-width="0.83" stroke-linecap="round" stroke-linejoin="round"/>
<path d="M16.7212 10.7559H13.5396C13.3286 10.7559 13.1263 10.8397 12.9771 10.9888C12.8279 11.138 12.7441 11.3403 12.7441 11.5513V14.7329C12.7441 14.9439 12.8279 15.1462 12.9771 15.2954C13.1263 15.4446 13.3286 15.5284 13.5396 15.5284H16.7212V10.7559Z" fill="#F9D835" stroke="black" stroke-width="0.83" stroke-linecap="round" stroke-linejoin="round"/>
<path d="M5.58496 5.18729C5.58496 4.02702 6.04588 2.91428 6.86631 2.09385C7.68674 1.27341 8.79949 0.8125 9.95975 0.8125C11.12 0.8125 12.2328 1.27341 13.0532 2.09385C13.8736 2.91428 14.3345 4.02702 14.3345 5.18729V7.57354H5.58496V5.18729Z" stroke="black" stroke-width="0.83" stroke-linecap="round" stroke-linejoin="round"/>
<path d="M12.7441 13.1416H16.718" stroke="black" stroke-width="0.83" stroke-linecap="round" stroke-linejoin="round"/>
</g>
<defs>
<clipPath id="clip0_67_1733">
<rect width="19.92" height="19.92" fill="white"/>
</clipPath>
</defs>
</svg>
