<svg width="37" height="37" viewBox="0 0 37 37" fill="none" xmlns="http://www.w3.org/2000/svg">
<path d="M31.0577 7.41797V31.0569C31.0538 32.2312 30.5856 33.3563 29.7552 34.1867C28.9249 35.017 27.7998 35.4853 26.6254 35.4891H10.3737C9.19926 35.4856 8.07393 35.0175 7.24347 34.1871C6.41301 33.3566 5.94491 32.2313 5.94141 31.0569V7.41797H31.0577Z" fill="#F9D835"/>
<path d="M6.68012 11.8516H30.319C30.319 11.8516 31.0577 11.8516 31.0577 12.5903V30.3194C31.0577 30.3194 31.0577 31.0582 30.319 31.0582H6.68012C6.68012 31.0582 5.94141 31.0582 5.94141 30.3194V12.5903C5.94141 12.5903 5.94141 11.8516 6.68012 11.8516Z" fill="#ECF2FB"/>
<path d="M18.4996 7.41797H5.94141V31.0569C5.94491 32.2313 6.41301 33.3566 7.24347 34.1871C8.07393 35.0175 9.19926 35.4856 10.3737 35.4891H18.4996V7.41797Z" fill="#ECF2FB"/>
<path d="M18.4996 11.8516H6.68012C6.4842 11.8516 6.29631 11.9294 6.15777 12.0679C6.01923 12.2065 5.94141 12.3944 5.94141 12.5903V30.3194C5.94141 30.4165 5.96051 30.5125 5.99764 30.6021C6.03476 30.6918 6.08917 30.7732 6.15777 30.8418C6.22637 30.9104 6.3078 30.9648 6.39743 31.0019C6.48705 31.0391 6.58311 31.0582 6.68012 31.0582H18.4996V11.8516Z" fill="white"/>
<path d="M32.536 6.67882C32.536 6.77583 32.5169 6.87189 32.4798 6.96151C32.4427 7.05114 32.3883 7.13257 32.3197 7.20117C32.2511 7.26977 32.1696 7.32418 32.08 7.3613C31.9904 7.39843 31.8943 7.41753 31.7973 7.41753H5.20356C5.10655 7.41753 5.01049 7.39843 4.92086 7.3613C4.83124 7.32418 4.7498 7.26977 4.68121 7.20117C4.61261 7.13257 4.5582 7.05114 4.52108 6.96151C4.48395 6.87189 4.46484 6.77583 4.46484 6.67882V3.72396C4.46484 3.1362 4.69833 2.57251 5.11394 2.15691C5.52955 1.7413 6.09323 1.50781 6.68099 1.50781H30.3199C30.9076 1.50781 31.4713 1.7413 31.8869 2.15691C32.3025 2.57251 32.536 3.1362 32.536 3.72396V6.67882Z" fill="#F9D835" stroke="black" stroke-width="1.54167" stroke-linecap="round" stroke-linejoin="round"/>
<path d="M25.1484 19.9796C25.1484 19.8826 25.1293 19.7865 25.0922 19.6969C25.0551 19.6073 25.0007 19.5258 24.9321 19.4573C24.8635 19.3887 24.782 19.3342 24.6924 19.2971C24.6028 19.26 24.5067 19.2409 24.4097 19.2409H20.7161V15.5473C20.7161 15.4503 20.697 15.3542 20.6599 15.2646C20.6228 15.175 20.5684 15.0936 20.4998 15.025C20.4312 14.9564 20.3497 14.9019 20.2601 14.8648C20.1705 14.8277 20.0744 14.8086 19.9774 14.8086H17.0226C16.8267 14.8086 16.6388 14.8864 16.5002 15.025C16.3617 15.1635 16.2839 15.3514 16.2839 15.5473V19.2409H12.5903C12.3944 19.2409 12.2065 19.3187 12.0679 19.4573C11.9294 19.5958 11.8516 19.7837 11.8516 19.9796V22.9345C11.8516 23.1304 11.9294 23.3183 12.0679 23.4568C12.2065 23.5953 12.3944 23.6732 12.5903 23.6732H16.2839V27.3668C16.2839 27.5627 16.3617 27.7506 16.5002 27.8891C16.6388 28.0276 16.8267 28.1055 17.0226 28.1055H19.9774C20.1734 28.1055 20.3612 28.0276 20.4998 27.8891C20.6383 27.7506 20.7161 27.5627 20.7161 27.3668V23.6732H24.4097C24.5067 23.6732 24.6028 23.6541 24.6924 23.6169C24.782 23.5798 24.8635 23.5254 24.9321 23.4568C25.0007 23.3882 25.0551 23.3068 25.0922 23.2172C25.1293 23.1275 25.1484 23.0315 25.1484 22.9345V19.9796Z" fill="#F9D835"/>
<path d="M31.0577 7.41797V31.0569C31.0538 32.2312 30.5856 33.3563 29.7552 34.1867C28.9249 35.017 27.7998 35.4853 26.6254 35.4891H10.3737C9.19926 35.4856 8.07393 35.0175 7.24347 34.1871C6.41301 33.3566 5.94491 32.2313 5.94141 31.0569V7.41797H31.0577Z" stroke="black" stroke-width="1.54167" stroke-linecap="round" stroke-linejoin="round"/>
<path d="M6.68012 11.8516H30.319C30.319 11.8516 31.0577 11.8516 31.0577 12.5903V30.3194C31.0577 30.3194 31.0577 31.0582 30.319 31.0582H6.68012C6.68012 31.0582 5.94141 31.0582 5.94141 30.3194V12.5903C5.94141 12.5903 5.94141 11.8516 6.68012 11.8516Z" stroke="black" stroke-width="1.54167" stroke-linecap="round" stroke-linejoin="round"/>
<path d="M18.5 14.8086H17.0226C16.8267 14.8086 16.6388 14.8864 16.5002 15.025C16.3617 15.1635 16.2839 15.3514 16.2839 15.5473V19.2409H12.5903C12.3944 19.2409 12.2065 19.3187 12.0679 19.4573C11.9294 19.5958 11.8516 19.7837 11.8516 19.9796V22.9345C11.8516 23.1304 11.9294 23.3183 12.0679 23.4568C12.2065 23.5953 12.3944 23.6732 12.5903 23.6732H16.2839V27.3668C16.2839 27.5627 16.3617 27.7506 16.5002 27.8891C16.6388 28.0276 16.8267 28.1055 17.0226 28.1055H18.5V14.8086Z" fill="#ECF2FB"/>
<path d="M25.1484 19.9796C25.1484 19.8826 25.1293 19.7865 25.0922 19.6969C25.0551 19.6073 25.0007 19.5258 24.9321 19.4573C24.8635 19.3887 24.782 19.3342 24.6924 19.2971C24.6028 19.26 24.5067 19.2409 24.4097 19.2409H20.7161V15.5473C20.7161 15.4503 20.697 15.3542 20.6599 15.2646C20.6228 15.175 20.5684 15.0936 20.4998 15.025C20.4312 14.9564 20.3497 14.9019 20.2601 14.8648C20.1705 14.8277 20.0744 14.8086 19.9774 14.8086H17.0226C16.8267 14.8086 16.6388 14.8864 16.5002 15.025C16.3617 15.1635 16.2839 15.3514 16.2839 15.5473V19.2409H12.5903C12.3944 19.2409 12.2065 19.3187 12.0679 19.4573C11.9294 19.5958 11.8516 19.7837 11.8516 19.9796V22.9345C11.8516 23.1304 11.9294 23.3183 12.0679 23.4568C12.2065 23.5953 12.3944 23.6732 12.5903 23.6732H16.2839V27.3668C16.2839 27.5627 16.3617 27.7506 16.5002 27.8891C16.6388 28.0276 16.8267 28.1055 17.0226 28.1055H19.9774C20.1734 28.1055 20.3612 28.0276 20.4998 27.8891C20.6383 27.7506 20.7161 27.5627 20.7161 27.3668V23.6732H24.4097C24.5067 23.6732 24.6028 23.6541 24.6924 23.6169C24.782 23.5798 24.8635 23.5254 24.9321 23.4568C25.0007 23.3882 25.0551 23.3068 25.0922 23.2172C25.1293 23.1275 25.1484 23.0315 25.1484 22.9345V19.9796Z" stroke="black" stroke-width="1.54167" stroke-linecap="round" stroke-linejoin="round"/>
<path d="M9.63477 7.41753V1.50781" stroke="black" stroke-width="1.54167" stroke-linecap="round" stroke-linejoin="round"/>
<path d="M14.0684 7.41753V1.50781" stroke="black" stroke-width="1.54167" stroke-linecap="round" stroke-linejoin="round"/>
<path d="M18.5 7.41753V1.50781" stroke="black" stroke-width="1.54167" stroke-linecap="round" stroke-linejoin="round"/>
<path d="M22.9316 7.41753V1.50781" stroke="black" stroke-width="1.54167" stroke-linecap="round" stroke-linejoin="round"/>
<path d="M27.3652 7.41753V1.50781" stroke="black" stroke-width="1.54167" stroke-linecap="round" stroke-linejoin="round"/>
</svg>
