<svg width="24" height="25" viewBox="0 0 24 25" fill="none" xmlns="http://www.w3.org/2000/svg">
<g clip-path="url(#clip0_24_9110)">
<path d="M3.85352 5.3125H1.93685C1.68268 5.3125 1.43893 5.41347 1.25921 5.59319C1.07948 5.77291 0.978516 6.01667 0.978516 6.27083V22.5625C0.978516 22.6883 1.0033 22.813 1.05146 22.9292C1.09963 23.0455 1.17022 23.1512 1.25921 23.2401C1.34819 23.3291 1.45384 23.3997 1.57011 23.4479C1.68638 23.496 1.811 23.5208 1.93685 23.5208H18.2285C18.3544 23.5208 18.479 23.496 18.5953 23.4479C18.7115 23.3997 18.8172 23.3291 18.9062 23.2401C18.9951 23.1512 19.0657 23.0455 19.1139 22.9292C19.1621 22.813 19.1868 22.6883 19.1868 22.5625V20.6458" fill="#F9D835"/>
<path d="M3.85352 5.3125H1.93685C1.68268 5.3125 1.43893 5.41347 1.25921 5.59319C1.07948 5.77291 0.978516 6.01667 0.978516 6.27083V22.5625C0.978516 22.6883 1.0033 22.813 1.05146 22.9292C1.09963 23.0455 1.17022 23.1512 1.25921 23.2401C1.34819 23.3291 1.45384 23.3997 1.57011 23.4479C1.68638 23.496 1.811 23.5208 1.93685 23.5208H18.2285C18.3544 23.5208 18.479 23.496 18.5953 23.4479C18.7115 23.3997 18.8172 23.3291 18.9062 23.2401C18.9952 23.1512 19.0657 23.0455 19.1139 22.9292C19.1621 22.813 19.1868 22.6883 19.1868 22.5625V20.6458" stroke="black" stroke-linecap="round" stroke-linejoin="round"/>
<path d="M23.0212 2.43783C23.0212 2.31198 22.9964 2.18736 22.9482 2.07109C22.9 1.95482 22.8295 1.84917 22.7405 1.76018C22.6515 1.67119 22.5458 1.6006 22.4296 1.55244C22.3133 1.50428 22.1887 1.47949 22.0628 1.47949H4.81283C4.55866 1.47949 4.3149 1.58046 4.13518 1.76018C3.95546 1.9399 3.85449 2.18366 3.85449 2.43783V19.6878C3.85449 19.942 3.95546 20.1857 4.13518 20.3655C4.3149 20.5452 4.55866 20.6462 4.81283 20.6462H22.0628C22.1887 20.6462 22.3133 20.6214 22.4296 20.5732C22.5458 20.5251 22.6515 20.4545 22.7405 20.3655C22.8295 20.2765 22.9 20.1708 22.9482 20.0546C22.9964 19.9383 23.0212 19.8137 23.0212 19.6878V2.43783Z" fill="#ECF2FB"/>
<path d="M4.14199 20.3587L22.7413 1.75933C22.6522 1.67039 22.5463 1.5999 22.4299 1.55188C22.3135 1.50387 22.1888 1.47927 22.0628 1.47949H4.81283C4.55866 1.47949 4.3149 1.58046 4.13518 1.76018C3.95546 1.93991 3.85449 2.18366 3.85449 2.43783V19.6878C3.85809 19.9406 3.96143 20.1817 4.14199 20.3587Z" fill="white"/>
<path d="M23.0212 2.43783C23.0212 2.31198 22.9964 2.18736 22.9482 2.07109C22.9001 1.95482 22.8295 1.84917 22.7405 1.76018C22.6515 1.67119 22.5458 1.6006 22.4296 1.55244C22.3133 1.50428 22.1887 1.47949 22.0628 1.47949H4.81283C4.55866 1.47949 4.3149 1.58046 4.13518 1.76018C3.95546 1.9399 3.85449 2.18366 3.85449 2.43783V19.6878C3.85449 19.942 3.95546 20.1857 4.13518 20.3655C4.3149 20.5452 4.55866 20.6462 4.81283 20.6462H22.0628C22.1887 20.6462 22.3133 20.6214 22.4296 20.5732C22.5458 20.5251 22.6515 20.4545 22.7405 20.3655C22.8295 20.2765 22.9001 20.1708 22.9482 20.0546C22.9964 19.9383 23.0212 19.8137 23.0212 19.6878V2.43783Z" stroke="black" stroke-linecap="round" stroke-linejoin="round"/>
<path d="M7.68457 5.30957H19.1846" stroke="black" stroke-linecap="round" stroke-linejoin="round"/>
<path d="M7.68457 9.14258H19.1846" stroke="black" stroke-linecap="round" stroke-linejoin="round"/>
<path d="M7.68457 12.9766H19.1846" stroke="black" stroke-linecap="round" stroke-linejoin="round"/>
<path d="M7.68457 16.8096H12.9592" stroke="black" stroke-linecap="round" stroke-linejoin="round"/>
</g>
<defs>
<clipPath id="clip0_24_9110">
<rect width="24" height="24" fill="white" transform="translate(0 0.5)"/>
</clipPath>
</defs>
</svg>
