<svg width="50" height="50" viewBox="0 0 50 50" fill="none" xmlns="http://www.w3.org/2000/svg">
<rect width="50" height="50" rx="10" fill="#F9D835"/>
<g clip-path="url(#clip0_11_1253)">
<path d="M19.2507 15.8945H30.7507C30.7507 15.8945 31.2298 15.8945 31.2298 16.3737V35.5413C31.2298 35.5413 31.2298 36.0205 30.7507 36.0205H19.2507C19.2507 36.0205 18.7715 36.0205 18.7715 35.5413V16.3737C18.7715 16.3737 18.7715 15.8945 19.2507 15.8945Z" fill="#ECF2FB"/>
<path d="M31.019 15.9913C30.9416 15.9324 30.8479 15.8989 30.7507 15.8955H19.2507C19.1236 15.8955 19.0017 15.946 18.9118 16.0359C18.822 16.1257 18.7715 16.2476 18.7715 16.3747V28.235L31.019 15.9913Z" fill="white"/>
<path d="M23.3236 15.8955H19.2507C19.1236 15.8955 19.0017 15.946 18.9118 16.0359C18.822 16.1257 18.7715 16.2476 18.7715 16.3747V35.5413C18.7715 35.6043 18.7839 35.6666 18.808 35.7247C18.832 35.7828 18.8673 35.8357 18.9118 35.8802C18.9563 35.9247 19.0091 35.96 19.0673 35.984C19.1254 36.0081 19.1877 36.0205 19.2507 36.0205H30.7507C30.8136 36.0205 30.8759 36.0081 30.934 35.984C30.9922 35.96 31.045 35.9247 31.0895 35.8802C31.134 35.8357 31.1693 35.7828 31.1933 35.7247C31.2174 35.6666 31.2298 35.6043 31.2298 35.5413V23.0667" stroke="black" stroke-linecap="round" stroke-linejoin="round"/>
<path d="M36.0207 34.5833L35.0624 32.7299V28.3542C35.1026 26.6502 33.0681 25.1313 31.229 23.5625V28.7845L30.24 27.7734C30.131 27.6599 30.0006 27.5692 29.8564 27.5063C29.7121 27.4434 29.5569 27.4097 29.3995 27.4071C29.2422 27.4045 29.0859 27.433 28.9397 27.491C28.7934 27.549 28.6601 27.6354 28.5473 27.7452C28.4346 27.855 28.3447 27.9859 28.2828 28.1306C28.2208 28.2753 28.1882 28.4307 28.1866 28.5881C28.185 28.7454 28.2146 28.9015 28.2736 29.0474C28.3326 29.1933 28.4198 29.326 28.5304 29.438L31.229 32.1875V33.625C31.3758 34.4823 31.7024 35.2988 32.1874 36.0208" fill="#ECF2FB"/>
<path d="M36.0207 34.5833L35.0624 32.7299V28.3542C35.1026 26.6502 33.0681 25.1313 31.229 23.5625V28.7845L30.24 27.7734C30.131 27.6599 30.0006 27.5692 29.8564 27.5063C29.7121 27.4434 29.5569 27.4097 29.3995 27.4071C29.2422 27.4045 29.0859 27.433 28.9397 27.491C28.7934 27.549 28.6601 27.6354 28.5473 27.7452C28.4346 27.855 28.3447 27.9859 28.2828 28.1306C28.2208 28.2753 28.1882 28.4307 28.1866 28.5881C28.185 28.7454 28.2146 28.9015 28.2736 29.0474C28.3326 29.1933 28.4198 29.326 28.5304 29.438L31.229 32.1875V33.625C31.3758 34.4823 31.7024 35.2988 32.1874 36.0208" stroke="black" stroke-linecap="round" stroke-linejoin="round"/>
<path d="M32.6842 30.2705L31.2285 28.7832" stroke="black" stroke-linecap="round" stroke-linejoin="round"/>
<path d="M13.9785 15.417L14.9368 17.2704V21.6462C14.8966 23.351 16.9311 24.869 18.7702 26.4378V21.2168L19.7592 22.2269C19.8682 22.3404 19.9986 22.4312 20.1428 22.494C20.2871 22.5569 20.4423 22.5906 20.5997 22.5932C20.757 22.5959 20.9133 22.5674 21.0595 22.5093C21.2058 22.4513 21.3391 22.3649 21.4519 22.2551C21.5646 22.1454 21.6545 22.0144 21.7165 21.8697C21.7784 21.7251 21.811 21.5696 21.8126 21.4122C21.8142 21.2549 21.7846 21.0988 21.7256 20.9529C21.6666 20.8071 21.5794 20.6743 21.4688 20.5623L18.7702 17.8128V16.3753C18.6233 15.5181 18.2967 14.7016 17.8118 13.9795" fill="#ECF2FB"/>
<path d="M13.9785 15.417L14.9368 17.2704V21.6462C14.8966 23.351 16.9311 24.869 18.7702 26.4378V21.2168L19.7592 22.2269C19.8682 22.3404 19.9986 22.4312 20.1428 22.494C20.2871 22.5569 20.4423 22.5906 20.5997 22.5932C20.757 22.5959 20.9133 22.5674 21.0595 22.5093C21.2058 22.4513 21.3392 22.3649 21.4519 22.2551C21.5646 22.1454 21.6545 22.0144 21.7165 21.8697C21.7784 21.7251 21.811 21.5696 21.8126 21.4122C21.8142 21.2549 21.7846 21.0988 21.7256 20.9529C21.6666 20.8071 21.5794 20.6743 21.4688 20.5623L18.7702 17.8128V16.3753C18.6233 15.5181 18.2967 14.7016 17.8118 13.9795" stroke="black" stroke-linecap="round" stroke-linejoin="round"/>
<path d="M17.3164 19.7295L18.7721 21.2168" stroke="black" stroke-linecap="round" stroke-linejoin="round"/>
<path d="M25.9583 28.3545H20.6875" stroke="black" stroke-linecap="round" stroke-linejoin="round"/>
<path d="M29.3125 25.4795H20.6875" stroke="black" stroke-linecap="round" stroke-linejoin="round"/>
<path d="M25 31.2295H20.6875" stroke="black" stroke-linecap="round" stroke-linejoin="round"/>
<path d="M25.4609 17.8118C25.4609 18.3152 25.5601 18.8137 25.7527 19.2788C25.9454 19.7439 26.2277 20.1665 26.5837 20.5224C26.9397 20.8784 27.3622 21.1607 27.8273 21.3534C28.2924 21.546 28.7909 21.6452 29.2943 21.6452C29.7977 21.6452 30.2961 21.546 30.7612 21.3534C31.2263 21.1607 31.6489 20.8784 32.0048 20.5224C32.3608 20.1665 32.6432 19.7439 32.8358 19.2788C33.0285 18.8137 33.1276 18.3152 33.1276 17.8118C33.1276 17.3084 33.0285 16.81 32.8358 16.3449C32.6432 15.8798 32.3608 15.4572 32.0048 15.1013C31.6489 14.7453 31.2263 14.463 30.7612 14.2703C30.2961 14.0777 29.7977 13.9785 29.2943 13.9785C28.7909 13.9785 28.2924 14.0777 27.8273 14.2703C27.3622 14.463 26.9397 14.7453 26.5837 15.1013C26.2277 15.4572 25.9454 15.8798 25.7527 16.3449C25.5601 16.81 25.4609 17.3084 25.4609 17.8118Z" fill="#F9D835" stroke="black" stroke-linecap="round" stroke-linejoin="round"/>
<path d="M33.1458 14.9375L29.6518 18.4306C29.6072 18.4752 29.5544 18.5107 29.4961 18.5348C29.4379 18.559 29.3755 18.5714 29.3125 18.5714C29.2495 18.5714 29.1871 18.559 29.1289 18.5348C29.0706 18.5107 29.0178 18.4752 28.9733 18.4306L27.875 17.3333" stroke="black" stroke-linecap="round" stroke-linejoin="round"/>
</g>
<defs>
<clipPath id="clip0_11_1253">
<rect width="24" height="24" fill="white" transform="translate(13 13)"/>
</clipPath>
</defs>
</svg>
