<svg width="37" height="37" viewBox="0 0 37 37" fill="none" xmlns="http://www.w3.org/2000/svg">
<g clip-path="url(#clip0_5517_4929)">
<path d="M33.0636 18.4993C33.0636 18.4993 26.7313 27.3639 18.5005 27.3639C10.2698 27.3639 3.9375 18.4993 3.9375 18.4993C3.9375 18.4993 10.2698 9.63477 18.5005 9.63477C26.7313 9.63477 33.0636 18.4993 33.0636 18.4993Z" fill="#ECF2FB"/>
<path d="M11.6128 25.3871L25.3868 11.6116C23.3005 10.3694 20.9281 9.68837 18.5005 9.63477C10.2698 9.63477 3.9375 18.4993 3.9375 18.4993C6.02778 21.2688 8.63408 23.6077 11.6128 25.3871Z" fill="white"/>
<path d="M33.0636 18.4993C33.0636 18.4993 26.7313 27.3639 18.5005 27.3639C10.2698 27.3639 3.9375 18.4993 3.9375 18.4993C3.9375 18.4993 10.2698 9.63477 18.5005 9.63477C26.7313 9.63477 33.0636 18.4993 33.0636 18.4993Z" stroke="black" stroke-width="1.54167" stroke-linecap="round" stroke-linejoin="round"/>
<path d="M1.50977 5.94206V2.9872C1.50977 2.59536 1.66542 2.21957 1.9425 1.9425C2.21957 1.66542 2.59536 1.50977 2.9872 1.50977H5.94206" stroke="black" stroke-width="1.54167" stroke-linecap="round" stroke-linejoin="round"/>
<path d="M35.4909 5.94206V2.9872C35.4909 2.79318 35.4527 2.60106 35.3784 2.42181C35.3042 2.24256 35.1953 2.07969 35.0582 1.9425C34.921 1.8053 34.7581 1.69648 34.5788 1.62223C34.3996 1.54798 34.2075 1.50977 34.0135 1.50977H31.0586" stroke="black" stroke-width="1.54167" stroke-linecap="round" stroke-linejoin="round"/>
<path d="M1.50977 31.0566V34.0115C1.50977 34.2055 1.54798 34.3976 1.62223 34.5769C1.69648 34.7561 1.8053 34.919 1.9425 35.0562C2.07969 35.1934 2.24256 35.3022 2.42181 35.3765C2.60106 35.4507 2.79318 35.4889 2.9872 35.4889H5.94206" stroke="black" stroke-width="1.54167" stroke-linecap="round" stroke-linejoin="round"/>
<path d="M35.4909 31.0566V34.0115C35.4909 34.2055 35.4527 34.3976 35.3784 34.5769C35.3042 34.7561 35.1953 34.919 35.0582 35.0562C34.921 35.1934 34.7581 35.3022 34.5788 35.3765C34.3996 35.4507 34.2075 35.4889 34.0135 35.4889H31.0586" stroke="black" stroke-width="1.54167" stroke-linecap="round" stroke-linejoin="round"/>
<path d="M13.3301 18.4991C13.3301 19.8706 13.8749 21.1858 14.8446 22.1556C15.8144 23.1253 17.1296 23.6701 18.5011 23.6701C19.8725 23.6701 21.1878 23.1253 22.1575 22.1556C23.1273 21.1858 23.6721 19.8706 23.6721 18.4991C23.6721 17.1277 23.1273 15.8124 22.1575 14.8427C21.1878 13.8729 19.8725 13.3281 18.5011 13.3281C17.1296 13.3281 15.8144 13.8729 14.8446 14.8427C13.8749 15.8124 13.3301 17.1277 13.3301 18.4991Z" fill="#F9D835"/>
<path d="M14.8428 22.156C13.873 21.1862 13.3281 19.8709 13.3281 18.4994C13.3281 17.1279 13.873 15.8126 14.8428 14.8428C15.8126 13.873 17.1279 13.3281 18.4994 13.3281C19.8709 13.3281 21.1862 13.873 22.156 14.8428L14.8428 22.156Z" fill="#ECF2FB"/>
<path d="M13.3301 18.4991C13.3301 19.8706 13.8749 21.1858 14.8446 22.1556C15.8144 23.1253 17.1296 23.6701 18.5011 23.6701C19.8725 23.6701 21.1878 23.1253 22.1575 22.1556C23.1273 21.1858 23.6721 19.8706 23.6721 18.4991C23.6721 17.1277 23.1273 15.8124 22.1575 14.8427C21.1878 13.8729 19.8725 13.3281 18.5011 13.3281C17.1296 13.3281 15.8144 13.8729 14.8446 14.8427C13.8749 15.8124 13.3301 17.1277 13.3301 18.4991Z" stroke="black" stroke-width="1.54167" stroke-linecap="round" stroke-linejoin="round"/>
<path d="M18.5002 18.1309C18.5733 18.1309 18.6447 18.1525 18.7054 18.1931C18.7662 18.2337 18.8135 18.2914 18.8415 18.3589C18.8694 18.4264 18.8767 18.5006 18.8625 18.5723C18.8482 18.6439 18.813 18.7097 18.7614 18.7614C18.7097 18.813 18.6439 18.8482 18.5723 18.8625C18.5006 18.8767 18.4264 18.8694 18.3589 18.8415C18.2914 18.8135 18.2337 18.7662 18.1931 18.7054C18.1525 18.6447 18.1309 18.5733 18.1309 18.5002C18.1309 18.4023 18.1698 18.3083 18.239 18.239C18.3083 18.1698 18.4023 18.1309 18.5002 18.1309Z" stroke="black" stroke-width="1.54167" stroke-linecap="round" stroke-linejoin="round"/>
</g>
<defs>
<clipPath id="clip0_5517_4929">
<rect width="37" height="37" fill="white"/>
</clipPath>
</defs>
</svg>
