<svg width="30" height="30" viewBox="0 0 30 30" fill="none" xmlns="http://www.w3.org/2000/svg">
<g clip-path="url(#clip0_4876_1781)">
<path d="M22.7871 23.987V18.5964C22.7871 17.0591 22.3321 15.5563 21.4794 14.2772C20.6267 12.9981 19.4144 12.0001 17.9954 11.4089C17.9954 10.6146 17.6799 9.85285 17.1183 9.29122C16.5567 8.72958 15.7949 8.41406 15.0007 8.41406C14.2064 8.41406 13.4446 8.72958 12.883 9.29122C12.3214 9.85285 12.0059 10.6146 12.0059 11.4089C10.5869 12.0001 9.37463 12.9981 8.52193 14.2772C7.66922 15.5563 7.21419 17.0591 7.21419 18.5964V23.987C7.21419 24.6224 6.96178 25.2318 6.51247 25.6811C6.06316 26.1304 5.45377 26.3828 4.81836 26.3828H25.1829C24.5475 26.3828 23.9381 26.1304 23.4888 25.6811C23.0395 25.2318 22.7871 24.6224 22.7871 23.987Z" fill="#F9D835"/>
<path d="M15.0007 8.41406C14.2064 8.41406 13.4446 8.72958 12.883 9.29122C12.3214 9.85285 12.0059 10.6146 12.0059 11.4089C10.5869 12.0001 9.37463 12.9981 8.52193 14.2772C7.66922 15.5563 7.21419 17.0591 7.21419 18.5964V23.987C7.21419 24.6224 6.96178 25.2318 6.51247 25.6811C6.06316 26.1304 5.45377 26.3828 4.81836 26.3828H15.0007V8.41406Z" fill="#ECF2FB"/>
<path d="M17.3991 26.3789C17.3991 27.0143 17.1467 27.6237 16.6974 28.073C16.2481 28.5223 15.6387 28.7747 15.0033 28.7747C14.3678 28.7747 13.7585 28.5223 13.3091 28.073C12.8598 27.6237 12.6074 27.0143 12.6074 26.3789H17.3991Z" fill="#F9D835" stroke="black" stroke-width="1.25" stroke-linecap="round" stroke-linejoin="round"/>
<path d="M4.81836 11.4049C4.81836 10.5397 4.98878 9.68298 5.31988 8.88362C5.65099 8.08426 6.1363 7.35795 6.7481 6.74615C7.98369 5.51055 9.65951 4.81641 11.4069 4.81641" stroke="black" stroke-width="1.25" stroke-linecap="round" stroke-linejoin="round"/>
<path d="M1.22363 11.4049C1.22363 8.70444 2.29641 6.11453 4.20596 4.20498C6.11551 2.29543 8.70541 1.22266 11.4059 1.22266" stroke="black" stroke-width="1.25" stroke-linecap="round" stroke-linejoin="round"/>
<path d="M25.1842 11.4049C25.1842 10.5397 25.0138 9.68298 24.6827 8.88362C24.3516 8.08426 23.8663 7.35795 23.2545 6.74615C22.6427 6.13434 21.9164 5.64903 21.117 5.31793C20.3177 4.98682 19.4609 4.81641 18.5957 4.81641" stroke="black" stroke-width="1.25" stroke-linecap="round" stroke-linejoin="round"/>
<path d="M28.778 11.4049C28.778 8.70444 27.7052 6.11453 25.7957 4.20498C23.8861 2.29543 21.2962 1.22266 18.5957 1.22266" stroke="black" stroke-width="1.25" stroke-linecap="round" stroke-linejoin="round"/>
<path d="M22.7871 23.987V18.5964C22.7871 17.0591 22.3321 15.5563 21.4794 14.2772C20.6267 12.9981 19.4144 12.0001 17.9954 11.4089C17.9954 10.6146 17.6799 9.85285 17.1183 9.29122C16.5567 8.72958 15.7949 8.41406 15.0007 8.41406C14.2064 8.41406 13.4446 8.72958 12.883 9.29122C12.3214 9.85285 12.0059 10.6146 12.0059 11.4089C10.5869 12.0001 9.37463 12.9981 8.52193 14.2772C7.66922 15.5563 7.21419 17.0591 7.21419 18.5964V23.987C7.21419 24.6224 6.96178 25.2318 6.51247 25.6811C6.06316 26.1304 5.45377 26.3828 4.81836 26.3828H25.1829C24.5475 26.3828 23.9381 26.1304 23.4888 25.6811C23.0395 25.2318 22.7871 24.6224 22.7871 23.987Z" stroke="black" stroke-width="1.25" stroke-linecap="round" stroke-linejoin="round"/>
</g>
<defs>
<clipPath id="clip0_4876_1781">
<rect width="30" height="30" fill="white"/>
</clipPath>
</defs>
</svg>
