<svg width="24" height="24" viewBox="0 0 24 24" fill="none" xmlns="http://www.w3.org/2000/svg">
<g clip-path="url(#clip0_24_9623)">
<path d="M2.67084 10.4873C2.38408 10.4064 2.13078 10.2358 1.94809 10.0004C1.7654 9.76505 1.66292 9.47734 1.65568 9.17948C1.64845 8.88161 1.73684 8.58927 1.90789 8.34531C2.07894 8.10135 2.32366 7.91861 2.60615 7.82389L21.4227 1.68701C21.546 1.64683 21.6779 1.64146 21.8041 1.6715C21.9302 1.70154 22.0455 1.76581 22.1375 1.85724C22.2294 1.94867 22.2943 2.06371 22.325 2.18966C22.3557 2.31562 22.351 2.4476 22.3115 2.57108L16.1793 21.397C16.085 21.68 15.9023 21.9252 15.6582 22.0967C15.4141 22.2681 15.1215 22.3566 14.8233 22.3493C14.5251 22.3419 14.2371 22.2391 14.0018 22.0558C13.7664 21.8726 13.5961 21.6187 13.5158 21.3314L11.4102 12.5836L2.67084 10.4873Z" stroke="black" stroke-width="1.5" stroke-linecap="round" stroke-linejoin="round"/>
<path d="M22.1389 1.85547L11.4111 12.5833" stroke="black" stroke-width="1.5" stroke-linecap="round" stroke-linejoin="round"/>
</g>
<defs>
<clipPath id="clip0_24_9623">
<rect width="24" height="24" fill="white"/>
</clipPath>
</defs>
</svg>
