<svg width="24" height="24" viewBox="0 0 24 24" fill="none" xmlns="http://www.w3.org/2000/svg">
<path d="M3.85449 0.980469H20.1462" stroke="black" stroke-linecap="round" stroke-linejoin="round"/>
<path d="M3.85449 23.0234H20.1462" stroke="black" stroke-linecap="round" stroke-linejoin="round"/>
<path d="M11.9997 16.3125L14.8747 19.1875H18.2288V18.2292C18.2288 16.5771 17.5726 14.9927 16.4044 13.8245C15.2362 12.6563 13.6518 12 11.9997 12C10.3476 12 8.76318 12.6563 7.59499 13.8245C6.42679 14.9927 5.77051 16.5771 5.77051 18.2292V19.1875H9.12467L11.9997 16.3125Z" fill="#F9D835"/>
<path d="M11.9997 12C10.3476 12 8.76318 12.6563 7.59499 13.8245C6.42679 14.9927 5.77051 16.5771 5.77051 18.2292V19.1875H9.12467L11.9997 16.3125V12Z" fill="#ECF2FB"/>
<path d="M14.8747 19.1875L11.9997 16.3125L9.12467 19.1875H5.77051V23.0208H18.2288V19.1875H14.8747Z" fill="#F9D835"/>
<path d="M11.9997 16.3125L9.12467 19.1875H5.77051V23.0208H11.9997V16.3125Z" fill="#ECF2FB"/>
<path d="M14.8747 19.1875L11.9997 16.3125L9.12467 19.1875H5.77051V23.0208H18.2288V19.1875H14.8747Z" stroke="black" stroke-linecap="round" stroke-linejoin="round"/>
<path d="M18.2288 5.77214V0.980469H5.77051V5.77214C5.76976 7.16241 6.23657 8.51255 7.09588 9.60547H16.9025C17.7621 8.51264 18.2292 7.16252 18.2288 5.77214Z" fill="#F9D835"/>
<path d="M11.9997 0.980469H5.77051V5.77214C5.76976 7.16241 6.23657 8.51255 7.09588 9.60547H11.9997V0.980469Z" fill="#ECF2FB"/>
<path d="M18.2288 5.77214V0.980469H5.77051V5.77214C5.76976 7.16241 6.23657 8.51255 7.09588 9.60547H16.9025C17.7621 8.51264 18.2292 7.16252 18.2288 5.77214Z" stroke="black" stroke-linecap="round" stroke-linejoin="round"/>
<path d="M7.09668 9.60547C7.67789 10.3515 8.42166 10.955 9.27136 11.3702C10.1211 11.7853 11.0543 12.0011 12 12.0011C12.9457 12.0011 13.8789 11.7853 14.7286 11.3702C15.5783 10.955 16.3221 10.3515 16.9033 9.60547H7.09668Z" fill="#F9D835"/>
<path d="M12.0005 9.60547H7.09668C7.67768 10.3518 8.42147 10.9557 9.27132 11.3709C10.1212 11.7861 11.0546 12.0017 12.0005 12.0013V9.60547Z" fill="#ECF2FB"/>
<path d="M7.09668 9.60547C7.67789 10.3515 8.42166 10.955 9.27136 11.3702C10.1211 11.7853 11.0543 12.0011 12 12.0011C12.9457 12.0011 13.8789 11.7853 14.7286 11.3702C15.5783 10.955 16.3221 10.3515 16.9033 9.60547H7.09668Z" stroke="black" stroke-linecap="round" stroke-linejoin="round"/>
<path d="M11.9997 16.3125L14.8747 19.1875H18.2288V18.2292C18.2288 16.5771 17.5726 14.9927 16.4044 13.8245C15.2362 12.6563 13.6518 12 11.9997 12C10.3476 12 8.76318 12.6563 7.59499 13.8245C6.42679 14.9927 5.77051 16.5771 5.77051 18.2292V19.1875H9.12467L11.9997 16.3125Z" stroke="black" stroke-linecap="round" stroke-linejoin="round"/>
</svg>
