<svg width="24" height="24" viewBox="0 0 24 24" fill="none" xmlns="http://www.w3.org/2000/svg">
<g clip-path="url(#clip0_11_931)">
<path d="M7.68685 23.0208L8.16602 17.2708H10.5618V13.9167C10.5618 12.6458 10.057 11.4271 9.1584 10.5284C8.25979 9.62983 7.04101 9.125 5.77018 9.125C4.49935 9.125 3.28057 9.62983 2.38196 10.5284C1.48335 11.4271 0.978516 12.6458 0.978516 13.9167V17.2708H3.37435L3.85352 23.0208H7.68685Z" fill="#ECF2FB"/>
<path d="M2.41699 4.33268C2.41699 5.22226 2.77038 6.07541 3.3994 6.70444C4.02843 7.33346 4.88158 7.68685 5.77116 7.68685C6.66074 7.68685 7.51388 7.33346 8.14291 6.70444C8.77194 6.07541 9.12533 5.22226 9.12533 4.33268C9.12533 3.4431 8.77194 2.58996 8.14291 1.96093C7.51388 1.3319 6.66074 0.978516 5.77116 0.978516C4.88158 0.978516 4.02843 1.3319 3.3994 1.96093C2.77038 2.58996 2.41699 3.4431 2.41699 4.33268Z" fill="#ECF2FB"/>
<path d="M10.5618 13.9167V15.8333C10.5618 14.5625 10.057 13.3437 9.1584 12.4451C8.25979 11.5465 7.04101 11.0417 5.77018 11.0417C4.49935 11.0417 3.28057 11.5465 2.38196 12.4451C1.48335 13.3437 0.978516 14.5625 0.978516 15.8333V13.9167C0.978516 12.6458 1.48335 11.4271 2.38196 10.5284C3.28057 9.62983 4.49935 9.125 5.77018 9.125C7.04101 9.125 8.25979 9.62983 9.1584 10.5284C10.057 11.4271 10.5618 12.6458 10.5618 13.9167Z" fill="white"/>
<path d="M9.12535 4.33268C9.12669 4.6576 9.07821 4.9808 8.9816 5.29102C8.77645 4.59874 8.35303 3.99132 7.77447 3.55934C7.19591 3.12737 6.49322 2.89398 5.77119 2.89398C5.04915 2.89398 4.34646 3.12737 3.7679 3.55934C3.18935 3.99132 2.76592 4.59874 2.56077 5.29102C2.46416 4.9808 2.41568 4.6576 2.41702 4.33268C2.41702 3.4431 2.7704 2.58996 3.39943 1.96093C4.02846 1.3319 4.88161 0.978516 5.77119 0.978516C6.66077 0.978516 7.51391 1.3319 8.14294 1.96093C8.77197 2.58996 9.12535 3.4431 9.12535 4.33268Z" fill="white"/>
<path d="M10.5618 13.9167C10.5618 12.6458 10.057 11.4271 9.1584 10.5284C8.25979 9.62983 7.04101 9.125 5.77018 9.125C4.49935 9.125 3.28057 9.62983 2.38196 10.5284C1.48335 11.4271 0.978516 12.6458 0.978516 13.9167V17.2708H3.37435L3.85352 23.0208H7.68685L7.80664 21.5833" stroke="black" stroke-linecap="round" stroke-linejoin="round"/>
<path d="M2.41699 4.33268C2.41699 5.22226 2.77038 6.07541 3.3994 6.70444C4.02843 7.33346 4.88158 7.68685 5.77116 7.68685C6.66074 7.68685 7.51388 7.33346 8.14291 6.70444C8.77194 6.07541 9.12533 5.22226 9.12533 4.33268C9.12533 3.4431 8.77194 2.58996 8.14291 1.96093C7.51388 1.3319 6.66074 0.978516 5.77116 0.978516C4.88158 0.978516 4.02843 1.3319 3.3994 1.96093C2.77038 2.58996 2.41699 3.4431 2.41699 4.33268Z" stroke="black" stroke-linecap="round" stroke-linejoin="round"/>
<path d="M12.4795 18.1338V21.1525C12.4788 21.2967 12.5214 21.4378 12.6019 21.5574C12.6824 21.6771 12.797 21.7697 12.9309 21.8234L16.0455 22.9734C16.217 23.0423 16.4086 23.0423 16.5802 22.9734L19.6948 21.8234C19.8286 21.7697 19.9433 21.6771 20.0238 21.5574C20.1043 21.4378 20.1469 21.2967 20.1462 21.1525V18.1338" fill="#F9D835"/>
<path d="M12.4795 18.1338V21.1525C12.4788 21.2967 12.5214 21.4378 12.6019 21.5574C12.6824 21.6771 12.797 21.7697 12.9309 21.8234L16.0455 22.9734C16.217 23.0423 16.4086 23.0423 16.5802 22.9734L19.6948 21.8234C19.8286 21.7697 19.9433 21.6771 20.0238 21.5574C20.1043 21.4378 20.1469 21.2967 20.1462 21.1525V18.1338" stroke="black" stroke-linecap="round" stroke-linejoin="round"/>
<path d="M15.9592 14.5872L9.60449 17.1143L15.9937 19.3692C16.2002 19.4422 16.4255 19.4422 16.632 19.3692L22.4184 17.327C22.4643 17.3108 22.5042 17.2809 22.5328 17.2414C22.5613 17.2018 22.5771 17.1545 22.578 17.1058C22.5789 17.057 22.565 17.0092 22.538 16.9686C22.511 16.928 22.4723 16.8965 22.427 16.8785L16.6665 14.5872C16.4393 14.497 16.1863 14.497 15.9592 14.5872Z" fill="#F9D835" stroke="black" stroke-linecap="round" stroke-linejoin="round"/>
<path d="M9.60449 17.1143V20.6246" stroke="black" stroke-linecap="round" stroke-linejoin="round"/>
</g>
<defs>
<clipPath id="clip0_11_931">
<rect width="24" height="24" fill="white"/>
</clipPath>
</defs>
</svg>
