<svg width="33" height="34" viewBox="0 0 33 34" fill="none" xmlns="http://www.w3.org/2000/svg">
<path d="M9.25391 10.0833C9.25391 12.0055 10.0175 13.8489 11.3766 15.208C12.7358 16.5672 14.5792 17.3307 16.5013 17.3307C18.4234 17.3307 20.2668 16.5672 21.626 15.208C22.9851 13.8489 23.7487 12.0055 23.7487 10.0833C23.7487 8.1612 22.9851 6.3178 21.626 4.95865C20.2668 3.5995 18.4234 2.83594 16.5013 2.83594C14.5792 2.83594 12.7358 3.5995 11.3766 4.95865C10.0175 6.3178 9.25391 8.1612 9.25391 10.0833Z" fill="#ECF2FB"/>
<path d="M4.64062 31.1641C4.64063 28.0188 5.89009 25.0023 8.11416 22.7782C10.3382 20.5542 13.3547 19.3047 16.5 19.3047C19.6453 19.3047 22.6618 20.5542 24.8858 22.7782C27.1099 25.0023 28.3594 28.0188 28.3594 31.1641H4.64062Z" fill="#F9D835"/>
<path d="M16.5013 5.90698C18.1563 5.90728 19.7614 6.47401 21.0497 7.51298C22.3379 8.55194 23.2318 10.0005 23.5827 11.6179C23.8131 10.56 23.8036 9.46394 23.5548 8.41021C23.306 7.35648 22.8243 6.37187 22.145 5.52875C21.4658 4.68562 20.6062 4.00539 19.6296 3.53805C18.653 3.07071 17.584 2.82813 16.5013 2.82812C15.4186 2.82813 14.3497 3.07071 13.373 3.53805C12.3964 4.00539 11.5368 4.68562 10.8576 5.52875C10.1783 6.37187 9.69661 7.35648 9.44783 8.41021C9.19904 9.46394 9.18951 10.56 9.41994 11.6179C9.7708 10.0005 10.6647 8.55194 11.9529 7.51298C13.2412 6.47401 14.8463 5.90728 16.5013 5.90698Z" fill="#ECF2FB"/>
<path d="M16.5 22.3763C19.1085 22.3777 21.6438 23.2397 23.7126 24.8285C25.7815 26.4173 27.2684 28.6442 27.943 31.1641H28.3594C28.3594 28.0188 27.1099 25.0023 24.8858 22.7782C22.6618 20.5542 19.6453 19.3047 16.5 19.3047C13.3547 19.3047 10.3382 20.5542 8.11416 22.7782C5.89009 25.0023 4.64063 28.0188 4.64062 31.1641H5.05702C5.73156 28.6442 7.21852 26.4173 9.28738 24.8285C11.3562 23.2397 13.8915 22.3777 16.5 22.3763Z" fill="#ECF2FB"/>
<path d="M9.25391 10.0833C9.25391 12.0055 10.0175 13.8489 11.3766 15.208C12.7358 16.5672 14.5792 17.3307 16.5013 17.3307C18.4234 17.3307 20.2668 16.5672 21.626 15.208C22.9851 13.8489 23.7487 12.0055 23.7487 10.0833C23.7487 8.1612 22.9851 6.3178 21.626 4.95865C20.2668 3.5995 18.4234 2.83594 16.5013 2.83594C14.5792 2.83594 12.7358 3.5995 11.3766 4.95865C10.0175 6.3178 9.25391 8.1612 9.25391 10.0833Z" stroke="black" stroke-width="1.375" stroke-linecap="round" stroke-linejoin="round"/>
<path d="M4.64062 31.1641C4.64063 28.0188 5.89009 25.0023 8.11416 22.7782C10.3382 20.5542 13.3547 19.3047 16.5 19.3047C19.6453 19.3047 22.6618 20.5542 24.8858 22.7782C27.1099 25.0023 28.3594 28.0188 28.3594 31.1641H4.64062Z" stroke="black" stroke-width="1.375" stroke-linecap="round" stroke-linejoin="round"/>
</svg>
