<svg width="24" height="24" viewBox="0 0 24 24" fill="none" xmlns="http://www.w3.org/2000/svg">
<path d="M15.5931 2.17676L14.5476 4.96359L11.7598 6.01009L14.5476 7.05467L15.5931 9.84342L16.6386 7.05467L19.4264 6.01009L16.6386 4.96359L15.5931 2.17676Z" fill="#F9D835" stroke="black" stroke-linecap="round" stroke-linejoin="round"/>
<path d="M20.3854 9.84375L19.8631 11.2372L18.4688 11.7604L19.8631 12.2827L20.3854 13.6771L20.9077 12.2827L22.3021 11.7604L20.9077 11.2372L20.3854 9.84375Z" fill="#F9D835" stroke="black" stroke-linecap="round" stroke-linejoin="round"/>
<path d="M17.5105 16.073C16.2361 16.0732 14.9796 15.7744 13.8417 15.2006C12.7039 14.6268 11.7165 13.7941 10.959 12.7694C10.2015 11.7447 9.69496 10.5565 9.48014 9.3004C9.26532 8.04431 9.34819 6.75535 9.72209 5.53711C8.21916 5.55926 6.75166 5.99682 5.48201 6.80136C4.21236 7.6059 3.19008 8.74606 2.5283 10.0956C1.86652 11.4452 1.59105 12.9516 1.73238 14.448C1.87372 15.9444 2.42634 17.3726 3.32909 18.5744C4.23184 19.7762 5.44951 20.7048 6.84734 21.2574C8.24517 21.81 9.76864 21.9651 11.2491 21.7055C12.7296 21.4458 14.1094 20.7816 15.2358 19.7864C16.3622 18.7911 17.1913 17.5036 17.6312 16.0663C17.591 16.0673 17.5517 16.073 17.5105 16.073Z" fill="white"/>
<path d="M13.1506 18.5169C11.7421 18.517 10.3576 18.1519 9.13224 17.4571C7.90693 16.7624 6.8827 15.7618 6.15957 14.553C5.43643 13.3442 5.03909 11.9686 5.00634 10.5604C4.97359 9.15225 5.30656 7.75963 5.97273 6.51855C4.85336 7.12004 3.89023 7.97507 3.16035 9.01528C2.43047 10.0555 1.95407 11.252 1.76924 12.5093C1.58442 13.7665 1.69629 15.0495 2.09591 16.2558C2.49554 17.4621 3.17183 18.5581 4.07073 19.4563C4.96963 20.3545 6.0662 21.0299 7.27278 21.4286C8.47935 21.8273 9.76247 21.9382 11.0196 21.7523C12.2766 21.5665 13.4728 21.0892 14.5124 20.3585C15.5521 19.6278 16.4064 18.664 17.007 17.5442C15.8223 18.1838 14.4969 18.5181 13.1506 18.5169Z" fill="#F9D835"/>
<path d="M17.5105 16.073C16.2361 16.0732 14.9796 15.7744 13.8417 15.2006C12.7039 14.6268 11.7165 13.7941 10.959 12.7694C10.2015 11.7447 9.69496 10.5565 9.48014 9.3004C9.26532 8.04431 9.34819 6.75535 9.72209 5.53711C8.21916 5.55926 6.75166 5.99682 5.48201 6.80136C4.21236 7.6059 3.19008 8.74606 2.5283 10.0956C1.86652 11.4452 1.59105 12.9516 1.73238 14.448C1.87372 15.9444 2.42634 17.3726 3.32909 18.5744C4.23184 19.7762 5.44951 20.7048 6.84734 21.2574C8.24517 21.81 9.76864 21.9651 11.2491 21.7055C12.7296 21.4458 14.1094 20.7816 15.2358 19.7864C16.3622 18.7911 17.1913 17.5036 17.6312 16.0663C17.591 16.0673 17.5517 16.073 17.5105 16.073Z" stroke="black" stroke-linecap="round" stroke-linejoin="round"/>
</svg>
