<svg width="31" height="31" viewBox="0 0 31 31" fill="none" xmlns="http://www.w3.org/2000/svg">
<path d="M8.15234 15.9595C8.15234 18.3487 9.10143 20.64 10.7908 22.3294C12.4802 24.0187 14.7715 24.9678 17.1607 24.9678C19.5498 24.9678 21.8411 24.0187 23.5305 22.3294C25.2199 20.64 26.169 18.3487 26.169 15.9595C26.169 13.5703 25.2199 11.279 23.5305 9.58965C21.8411 7.90026 19.5498 6.95117 17.1607 6.95117C14.7715 6.95117 12.4802 7.90026 10.7908 9.58965C9.10143 11.279 8.15234 13.5703 8.15234 15.9595Z" fill="#ECF2FB"/>
<path d="M2.14746 12.3633L5.75079 17.7683L9.95468 12.9638" stroke="black" stroke-width="1.25333" stroke-linecap="round" stroke-linejoin="round"/>
<path d="M5.75718 17.7699C5.17344 10.0827 10.4415 4.79785 16.7413 4.56604C18.252 4.48784 19.7632 4.7108 21.187 5.22197C22.6107 5.73313 23.9186 6.5223 25.0346 7.54355C26.1506 8.56481 27.0523 9.79777 27.6874 11.1707C28.3225 12.5437 28.6783 14.0292 28.734 15.5409C28.7898 17.0526 28.5444 18.5603 28.0121 19.9763C27.4798 21.3923 26.6713 22.6883 25.6336 23.789C24.5958 24.8896 23.3496 25.773 21.9674 26.3876C20.5851 27.0022 19.0945 27.3359 17.5821 27.3691" stroke="black" stroke-width="1.25333" stroke-linecap="round" stroke-linejoin="round"/>
<path d="M14.7588 15.6249C14.7588 15.9403 14.8209 16.2527 14.9416 16.5442C15.0624 16.8356 15.2393 17.1004 15.4624 17.3235C15.6855 17.5466 15.9503 17.7235 16.2417 17.8442C16.5332 17.965 16.8455 18.0271 17.161 18.0271C17.4765 18.0271 17.7889 17.965 18.0803 17.8442C18.3718 17.7235 18.6366 17.5466 18.8596 17.3235C19.0827 17.1004 19.2597 16.8356 19.3804 16.5442C19.5011 16.2527 19.5632 15.9403 19.5632 15.6249C19.5632 15.3094 19.5011 14.997 19.3804 14.7056C19.2597 14.4141 19.0827 14.1493 18.8596 13.9263C18.6366 13.7032 18.3718 13.5262 18.0803 13.4055C17.7889 13.2848 17.4765 13.2227 17.161 13.2227C16.8455 13.2227 16.5332 13.2848 16.2417 13.4055C15.9503 13.5262 15.6855 13.7032 15.4624 13.9263C15.2393 14.1493 15.0624 14.4141 14.9416 14.7056C14.8209 14.997 14.7588 15.3094 14.7588 15.6249Z" fill="#F9D835" stroke="black" stroke-width="1.25333" stroke-linecap="round" stroke-linejoin="round"/>
</svg>
