<svg width="25" height="24" viewBox="0 0 25 24" fill="none" xmlns="http://www.w3.org/2000/svg">
<g clip-path="url(#clip0_2168_3432)">
<path d="M12.5003 23.0202C14.68 23.0202 16.8108 22.3738 18.6232 21.1628C20.4355 19.9519 21.8481 18.2306 22.6822 16.2168C23.5164 14.2031 23.7346 11.9871 23.3094 9.8493C22.8842 7.71146 21.8345 5.74774 20.2932 4.20645C18.7519 2.66516 16.7882 1.61552 14.6504 1.19028C12.5126 0.765042 10.2966 0.983291 8.28284 1.81743C6.26904 2.65157 4.54782 4.06414 3.33684 5.87651C2.12585 7.68887 1.47949 9.81964 1.47949 11.9994C1.47949 14.9223 2.64061 17.7255 4.70742 19.7923C6.77423 21.8591 9.57742 23.0202 12.5003 23.0202Z" fill="#F9D835"/>
<path d="M12.5003 5.29263C15.0488 5.29279 17.5185 6.1762 19.489 7.79247C21.4594 9.40873 22.8088 11.6579 23.3075 14.1572C23.609 12.6481 23.5912 11.0926 23.2552 9.59078C22.9191 8.08898 22.2723 6.67421 21.3563 5.43757C20.4402 4.20094 19.2754 3.16985 17.9367 2.41072C16.598 1.65159 15.1152 1.18123 13.5837 1.02995C12.0522 0.878659 10.5061 1.0498 9.04472 1.53233C7.58338 2.01487 6.23931 2.79811 5.09905 3.83162C3.95879 4.86513 3.04761 6.12599 2.42421 7.53301C1.80081 8.94004 1.47899 10.462 1.47949 12.001C1.4802 12.725 1.55178 13.4472 1.6932 14.1572C2.19182 11.6579 3.54122 9.40873 5.51166 7.79247C7.48211 6.1762 9.95181 5.29279 12.5003 5.29263Z" fill="#ECF2FB"/>
<path d="M12.5003 23.0202C14.68 23.0202 16.8108 22.3738 18.6232 21.1628C20.4355 19.9519 21.8481 18.2306 22.6822 16.2168C23.5164 14.2031 23.7346 11.9871 23.3094 9.8493C22.8842 7.71146 21.8345 5.74774 20.2932 4.20645C18.7519 2.66516 16.7882 1.61552 14.6504 1.19028C12.5126 0.765042 10.2966 0.983291 8.28283 1.81743C6.26904 2.65157 4.54782 4.06414 3.33684 5.87651C2.12585 7.68887 1.47949 9.81964 1.47949 11.9994C1.47949 14.9223 2.64061 17.7255 4.70742 19.7923C6.77423 21.8591 9.57742 23.0202 12.5003 23.0202Z" stroke="black" stroke-linecap="round" stroke-linejoin="round"/>
<path d="M14.8955 16.3125H6.27051V7.6875H14.8955V11.0417L18.7288 8.64583V15.3542L14.8955 12.9583V16.3125Z" fill="white" stroke="black" stroke-linecap="round" stroke-linejoin="round"/>
</g>
<defs>
<clipPath id="clip0_2168_3432">
<rect width="24" height="24" fill="white" transform="translate(0.5)"/>
</clipPath>
</defs>
</svg>
