<svg width="64" height="64" viewBox="0 0 64 64" fill="none" xmlns="http://www.w3.org/2000/svg">
<path d="M12.8329 19.2266H40.944C40.944 19.2266 43.4996 19.2266 43.4996 21.7821V44.7872C43.4996 44.7872 43.4996 47.3428 40.944 47.3428H12.8329C12.8329 47.3428 10.2773 47.3428 10.2773 44.7872V21.7821C10.2773 21.7821 10.2773 19.2266 12.8329 19.2266Z" fill="#F9D835"/>
<path d="M43.4996 21.7821V29.1677C43.4996 28.4899 43.2303 27.8399 42.7511 27.3606C42.2718 26.8814 41.6218 26.6121 40.944 26.6121H12.8329C12.1551 26.6121 11.5051 26.8814 11.0258 27.3606C10.5466 27.8399 10.2773 28.4899 10.2773 29.1677V21.7821C10.2773 21.1043 10.5466 20.4543 11.0258 19.9751C11.5051 19.4958 12.1551 19.2266 12.8329 19.2266H40.944C41.6218 19.2266 42.2718 19.4958 42.7511 19.9751C43.2303 20.4543 43.4996 21.1043 43.4996 21.7821Z" fill="#F9D835"/>
<path d="M21.7773 19.2266H40.944C41.6218 19.2266 42.2718 19.4958 42.7511 19.9751C43.2303 20.4543 43.4996 21.1043 43.4996 21.7821V38.3932" stroke="black" stroke-width="2.66667" stroke-linecap="round" stroke-linejoin="round"/>
<path d="M31.9996 47.3355H12.8329C12.1551 47.3355 11.5051 47.0663 11.0258 46.587C10.5466 46.1077 10.2773 45.4577 10.2773 44.7799V25.6133" stroke="black" stroke-width="2.66667" stroke-linecap="round" stroke-linejoin="round"/>
<path d="M61.3872 42.8181C61.3868 43.2701 61.2666 43.7138 61.0388 44.1042C60.811 44.4945 60.4838 44.8174 60.0905 45.0401C59.6972 45.2627 59.2519 45.3771 58.8 45.3715C58.3481 45.3659 57.9057 45.2405 57.518 45.0082L49.8514 40.4082C49.4729 40.1814 49.1596 39.8605 48.9419 39.4767C48.7243 39.0929 48.6097 38.6593 48.6094 38.2181V28.3332C48.6097 27.892 48.7243 27.4584 48.9419 27.0746C49.1596 26.6908 49.4729 26.3699 49.8514 26.1431L57.518 21.5431C57.9057 21.3108 58.3481 21.1855 58.8 21.1799C59.2519 21.1743 59.6972 21.2886 60.0905 21.5113C60.4838 21.7339 60.811 22.0568 61.0388 22.4472C61.2666 22.8375 61.3868 23.2813 61.3872 23.7332V42.8181Z" fill="#F9D835" stroke="black" stroke-width="2.66667" stroke-linecap="round" stroke-linejoin="round"/>
<path d="M2.60938 9L48.6094 55" stroke="black" stroke-width="2.66667" stroke-linecap="round" stroke-linejoin="round"/>
<path d="M61.3874 23.7451V31.1306C61.3929 30.6774 61.277 30.2309 61.0516 29.8376C60.8263 29.4443 60.4997 29.1186 60.1058 28.8942C59.7119 28.6699 59.2651 28.5552 58.8118 28.562C58.3586 28.5688 57.9155 28.6968 57.5285 28.9329L49.8618 33.5329C49.4764 33.7547 49.1572 34.0753 48.9371 34.4616C48.717 34.848 48.6039 35.286 48.6096 35.7306V28.3451C48.6039 27.9005 48.717 27.4624 48.9371 27.0761C49.1572 26.6898 49.4764 26.3691 49.8618 26.1473L57.5285 21.5473C57.912 21.3114 58.3525 21.1843 58.8027 21.1798C59.2529 21.1753 59.6959 21.2935 60.084 21.5218C60.4822 21.7397 60.8137 22.0616 61.0433 22.4531C61.2728 22.8447 61.3917 23.2912 61.3874 23.7451Z" fill="#F9D835"/>
<path d="M61.3872 42.8181C61.3868 43.2701 61.2666 43.7138 61.0388 44.1042C60.811 44.4945 60.4838 44.8174 60.0905 45.0401C59.6972 45.2627 59.2519 45.377 58.8 45.3715C58.3481 45.3659 57.9057 45.2405 57.518 45.0082L49.8514 40.4082C49.4729 40.1814 49.1596 39.8605 48.9419 39.4767C48.7243 39.0929 48.6097 38.6593 48.6094 38.2181V28.3332C48.6097 27.892 48.7243 27.4584 48.9419 27.0746C49.1596 26.6908 49.4729 26.3699 49.8514 26.1431L57.518 21.5431C57.9057 21.3108 58.3481 21.1855 58.8 21.1799C59.2519 21.1743 59.6972 21.2886 60.0905 21.5113C60.4838 21.7339 60.811 22.0568 61.0388 22.4472C61.2666 22.8375 61.3868 23.2813 61.3872 23.7332V42.8181Z" stroke="black" stroke-width="2.66667" stroke-linecap="round" stroke-linejoin="round"/>
</svg>
