<svg width="24" height="24" viewBox="0 0 24 24" fill="none" xmlns="http://www.w3.org/2000/svg">
<g clip-path="url(#clip0_2168_3412)">
<path d="M0.978516 11.9993C0.978516 14.9223 2.13964 17.7254 4.20644 19.7923C6.27325 21.8591 9.07644 23.0202 11.9993 23.0202C14.9223 23.0202 17.7254 21.8591 19.7923 19.7923C21.8591 17.7254 23.0202 14.9223 23.0202 11.9993C23.0202 9.07644 21.8591 6.27325 19.7923 4.20644C17.7254 2.13964 14.9223 0.978516 11.9993 0.978516C9.07644 0.978516 6.27325 2.13964 4.20644 4.20644C2.13964 6.27325 0.978516 9.07644 0.978516 11.9993Z" fill="#F9D835"/>
<path d="M11.9993 23.0202C9.07644 23.0202 6.27325 21.8591 4.20644 19.7923C2.13964 17.7254 0.978516 14.9223 0.978516 11.9993C0.978516 9.07644 2.13964 6.27325 4.20644 4.20644C6.27325 2.13964 9.07644 0.978516 11.9993 0.978516V23.0202Z" fill="#ECF2FB"/>
<path d="M0.978516 11.9993C0.978516 14.9223 2.13964 17.7254 4.20644 19.7923C6.27325 21.8591 9.07644 23.0202 11.9993 23.0202C14.9223 23.0202 17.7254 21.8591 19.7923 19.7923C21.8591 17.7254 23.0202 14.9223 23.0202 11.9993C23.0202 9.07644 21.8591 6.27325 19.7923 4.20644C17.7254 2.13964 14.9223 0.978516 11.9993 0.978516C9.07644 0.978516 6.27325 2.13964 4.20644 4.20644C2.13964 6.27325 0.978516 9.07644 0.978516 11.9993Z" stroke="black" stroke-linecap="round" stroke-linejoin="round"/>
<path d="M17.75 7.20703L11.0417 16.3112L6.25 12.4779" stroke="black" stroke-linecap="round" stroke-linejoin="round"/>
</g>
<defs>
<clipPath id="clip0_2168_3412">
<rect width="24" height="24" fill="white"/>
</clipPath>
</defs>
</svg>
