<svg width="31" height="31" viewBox="0 0 31 31" fill="none" xmlns="http://www.w3.org/2000/svg">
<g clip-path="url(#clip0_1960_2570)">
<path d="M2.57261 20.339C2.43783 20.4735 2.33091 20.6333 2.25796 20.8092C2.18501 20.9852 2.14746 21.1737 2.14746 21.3642C2.14746 21.5546 2.18501 21.7432 2.25796 21.9191C2.33091 22.095 2.43783 22.2548 2.57261 22.3893L9.52944 29.3473C9.80184 29.6187 10.1707 29.7711 10.5552 29.7711C10.9397 29.7711 11.3085 29.6187 11.5809 29.3473L29.3478 11.5793C29.4825 11.4448 29.5895 11.285 29.6624 11.1091C29.7354 10.9332 29.7729 10.7446 29.7729 10.5542C29.7729 10.3637 29.7354 10.1752 29.6624 9.99925C29.5895 9.82334 29.4825 9.66355 29.3478 9.529L26.5948 6.77486C26.4602 6.64005 26.3003 6.5331 26.1243 6.46013C25.9483 6.38717 25.7596 6.34961 25.5691 6.34961C25.3785 6.34961 25.1899 6.38717 25.0139 6.46013C24.8379 6.5331 24.678 6.64005 24.5433 6.77486L10.5552 20.7642L7.37705 17.5849C7.24241 17.45 7.08251 17.3431 6.9065 17.2701C6.7305 17.1972 6.54183 17.1596 6.3513 17.1596C6.16077 17.1596 5.97211 17.1972 5.7961 17.2701C5.62009 17.3431 5.4602 17.45 5.32555 17.5849L2.57261 20.339Z" fill="#F9D835"/>
<path d="M10.5548 24.9678L27.6706 7.85195L26.5896 6.77095C26.455 6.63614 26.2951 6.5292 26.1191 6.45623C25.9431 6.38326 25.7544 6.3457 25.5639 6.3457C25.3733 6.3457 25.1847 6.38326 25.0087 6.45623C24.8327 6.5292 24.6728 6.63614 24.5381 6.77095L10.5548 20.7639L7.37664 17.5846C7.24199 17.4497 7.0821 17.3428 6.90609 17.2698C6.73008 17.1969 6.54142 17.1593 6.35089 17.1593C6.16036 17.1593 5.97169 17.1969 5.79569 17.2698C5.61968 17.3428 5.45978 17.4497 5.32514 17.5846L4.24414 18.6656L10.5548 24.9678Z" fill="#ECF2FB"/>
<path d="M2.57261 20.339C2.43783 20.4735 2.33091 20.6333 2.25796 20.8092C2.18501 20.9852 2.14746 21.1737 2.14746 21.3642C2.14746 21.5546 2.18501 21.7432 2.25796 21.9191C2.33091 22.095 2.43783 22.2548 2.57261 22.3893L9.52944 29.3473C9.80184 29.6187 10.1707 29.7711 10.5552 29.7711C10.9397 29.7711 11.3085 29.6187 11.5809 29.3473L29.3478 11.5793C29.4825 11.4448 29.5895 11.285 29.6624 11.1091C29.7354 10.9332 29.7729 10.7446 29.7729 10.5542C29.7729 10.3637 29.7354 10.1752 29.6624 9.99925C29.5895 9.82334 29.4825 9.66355 29.3478 9.529L26.5948 6.77486C26.4602 6.64005 26.3003 6.5331 26.1243 6.46013C25.9483 6.38717 25.7596 6.34961 25.5691 6.34961C25.3785 6.34961 25.1899 6.38717 25.0139 6.46013C24.8379 6.5331 24.678 6.64005 24.5433 6.77486L10.5552 20.7642L7.37705 17.5849C7.24241 17.45 7.08251 17.3431 6.9065 17.2701C6.7305 17.1972 6.54183 17.1596 6.3513 17.1596C6.16077 17.1596 5.97211 17.1972 5.7961 17.2701C5.62009 17.3431 5.4602 17.45 5.32555 17.5849L2.57261 20.339Z" stroke="black" stroke-width="1.25333" stroke-linecap="round" stroke-linejoin="round"/>
</g>
<defs>
<clipPath id="clip0_1960_2570">
<rect width="30.08" height="30.08" fill="white" transform="translate(0.919922 0.919922)"/>
</clipPath>
</defs>
</svg>
