<svg width="24" height="24" viewBox="0 0 24 24" fill="none" xmlns="http://www.w3.org/2000/svg">
<g clip-path="url(#clip0_2170_1611)">
<path d="M0.978516 11.9974C0.978516 14.9203 2.13964 17.7235 4.20644 19.7903C6.27325 21.8571 9.07644 23.0182 11.9993 23.0182C14.9223 23.0182 17.7254 21.8571 19.7923 19.7903C21.8591 17.7235 23.0202 14.9203 23.0202 11.9974C23.0202 9.07449 21.8591 6.2713 19.7923 4.20449C17.7254 2.13768 14.9223 0.976563 11.9993 0.976562C9.07644 0.976563 6.27325 2.13768 4.20644 4.20449C2.13964 6.2713 0.978516 9.07449 0.978516 11.9974Z" fill="white"/>
<path d="M11.9993 23.0221C9.07644 23.0221 6.27325 21.861 4.20644 19.7942C2.13964 17.7274 0.978516 14.9242 0.978516 12.0013C0.978516 9.0784 2.13964 6.2752 4.20644 4.2084C6.27325 2.14159 9.07644 0.980469 11.9993 0.980469V23.0221Z" fill="#F4FAF2"/>
<path d="M0.978516 11.9974C0.978516 14.9203 2.13964 17.7235 4.20644 19.7903C6.27325 21.8571 9.07644 23.0182 11.9993 23.0182C14.9223 23.0182 17.7254 21.8571 19.7923 19.7903C21.8591 17.7235 23.0202 14.9203 23.0202 11.9974C23.0202 9.07449 21.8591 6.2713 19.7923 4.20449C17.7254 2.13768 14.9223 0.976563 11.9993 0.976562C9.07644 0.976563 6.27325 2.13768 4.20644 4.20449C2.13964 6.2713 0.978516 9.07449 0.978516 11.9974Z" stroke="#6A9F69" stroke-linecap="round" stroke-linejoin="round"/>
<path d="M17.75 7.20703L11.0417 16.3112L6.25 12.4779" stroke="#6A9F69" stroke-linecap="round" stroke-linejoin="round"/>
</g>
<defs>
<clipPath id="clip0_2170_1611">
<rect width="24" height="24" fill="white"/>
</clipPath>
</defs>
</svg>
