<svg width="31" height="31" viewBox="0 0 31 31" fill="none" xmlns="http://www.w3.org/2000/svg">
<path d="M29.7733 15.9594C29.7734 14.9972 29.4847 14.0571 28.9443 13.2609C28.404 12.4646 27.6371 11.849 26.7428 11.4937C27.125 10.6099 27.2328 9.6317 27.0522 8.68593C26.8716 7.74016 26.4111 6.87046 25.7302 6.18962C25.0494 5.50878 24.1797 5.04821 23.2339 4.86765C22.2881 4.68709 21.3099 4.79487 20.4262 5.17701C20.0712 4.28238 19.4557 3.515 18.6594 2.9743C17.8632 2.43361 16.9229 2.14453 15.9604 2.14453C14.9979 2.14453 14.0576 2.43361 13.2614 2.9743C12.4651 3.515 11.8496 4.28238 11.4947 5.17701C10.6109 4.79487 9.63268 4.68709 8.68691 4.86765C7.74113 5.04821 6.87143 5.50878 6.19059 6.18962C5.50975 6.87046 5.04919 7.74016 4.86863 8.68593C4.68807 9.6317 4.79585 10.6099 5.17798 11.4937C4.28336 11.8487 3.51598 12.4642 2.97528 13.2604C2.43459 14.0567 2.14551 14.997 2.14551 15.9594C2.14551 16.9219 2.43459 17.8622 2.97528 18.6585C3.51598 19.4547 4.28336 20.0702 5.17798 20.4252C4.79585 21.309 4.68807 22.2872 4.86863 23.2329C5.04919 24.1787 5.50975 25.0484 6.19059 25.7293C6.87143 26.4101 7.74113 26.8707 8.68691 27.0512C9.63268 27.2318 10.6109 27.124 11.4947 26.7419C11.8496 27.6365 12.4651 28.4039 13.2614 28.9446C14.0576 29.4853 14.9979 29.7743 15.9604 29.7743C16.9229 29.7743 17.8632 29.4853 18.6594 28.9446C19.4557 28.4039 20.0712 27.6365 20.4262 26.7419C21.3099 27.124 22.2881 27.2318 23.2339 27.0512C24.1797 26.8707 25.0494 26.4101 25.7302 25.7293C26.4111 25.0484 26.8716 24.1787 27.0522 23.2329C27.2328 22.2872 27.125 21.309 26.7428 20.4252C27.6371 20.0699 28.404 19.4542 28.9443 18.658C29.4847 17.8618 29.7734 16.9217 29.7733 15.9594Z" fill="#F9D835"/>
<path d="M25.7279 6.19195C25.0475 5.51119 24.1784 5.05048 23.233 4.86952C22.2877 4.68855 21.3099 4.79567 20.4262 5.17701C20.0712 4.28238 19.4557 3.515 18.6594 2.9743C17.8632 2.43361 16.9229 2.14453 15.9604 2.14453C14.9979 2.14453 14.0576 2.43361 13.2614 2.9743C12.4651 3.515 11.8496 4.28238 11.4947 5.17701C10.6109 4.79487 9.63268 4.68709 8.68691 4.86765C7.74113 5.04821 6.87143 5.50878 6.19059 6.18962C5.50975 6.87046 5.04919 7.74016 4.86863 8.68593C4.68807 9.6317 4.79585 10.6099 5.17798 11.4937C4.28336 11.8487 3.51598 12.4642 2.97528 13.2604C2.43459 14.0567 2.14551 14.997 2.14551 15.9594C2.14551 16.9219 2.43459 17.8622 2.97528 18.6585C3.51598 19.4547 4.28336 20.0702 5.17798 20.4252C4.79665 21.3089 4.68953 22.2868 4.87049 23.2321C5.05146 24.1774 5.51217 25.0465 6.19293 25.7269L25.7279 6.19195Z" fill="#ECF2FB"/>
<path d="M29.7733 15.9594C29.7734 14.9972 29.4847 14.0571 28.9443 13.2609C28.404 12.4646 27.6371 11.849 26.7428 11.4937C27.125 10.6099 27.2328 9.6317 27.0522 8.68593C26.8716 7.74016 26.4111 6.87046 25.7302 6.18962C25.0494 5.50878 24.1797 5.04821 23.2339 4.86765C22.2881 4.68709 21.3099 4.79487 20.4262 5.17701C20.0712 4.28238 19.4557 3.515 18.6594 2.9743C17.8632 2.43361 16.9229 2.14453 15.9604 2.14453C14.9979 2.14453 14.0576 2.43361 13.2614 2.9743C12.4651 3.515 11.8496 4.28238 11.4947 5.17701C10.6109 4.79487 9.63268 4.68709 8.68691 4.86765C7.74113 5.04821 6.87143 5.50878 6.19059 6.18962C5.50975 6.87046 5.04919 7.74016 4.86863 8.68593C4.68807 9.6317 4.79585 10.6099 5.17798 11.4937C4.28336 11.8487 3.51598 12.4642 2.97528 13.2604C2.43459 14.0567 2.14551 14.997 2.14551 15.9594C2.14551 16.9219 2.43459 17.8622 2.97528 18.6585C3.51598 19.4547 4.28336 20.0702 5.17798 20.4252C4.79585 21.309 4.68807 22.2872 4.86863 23.2329C5.04919 24.1787 5.50975 25.0484 6.19059 25.7293C6.87143 26.4101 7.74113 26.8707 8.68691 27.0512C9.63268 27.2318 10.6109 27.124 11.4947 26.7419C11.8496 27.6365 12.4651 28.4039 13.2614 28.9446C14.0576 29.4853 14.9979 29.7743 15.9604 29.7743C16.9229 29.7743 17.8632 29.4853 18.6594 28.9446C19.4557 28.4039 20.0712 27.6365 20.4262 26.7419C21.3099 27.124 22.2881 27.2318 23.2339 27.0512C24.1797 26.8707 25.0494 26.4101 25.7302 25.7293C26.4111 25.0484 26.8716 24.1787 27.0522 23.2329C27.2328 22.2872 27.125 21.309 26.7428 20.4252C27.6371 20.0699 28.404 19.4542 28.9443 18.658C29.4847 17.8618 29.7734 16.9217 29.7733 15.9594Z" stroke="black" stroke-width="1.25334" stroke-linecap="round" stroke-linejoin="round"/>
<path d="M10.5547 14.1582H11.1552C11.3145 14.1582 11.4673 14.2215 11.5799 14.3341C11.6925 14.4467 11.7558 14.5995 11.7558 14.7588V18.9627" stroke="black" stroke-width="1.25334" stroke-linecap="round" stroke-linejoin="round"/>
<path d="M10.5547 18.9629H12.9569" stroke="black" stroke-width="1.25334" stroke-linecap="round" stroke-linejoin="round"/>
<path d="M17.7616 17.7616C17.7616 18.0801 17.6351 18.3856 17.4098 18.6109C17.1846 18.8361 16.879 18.9627 16.5605 18.9627C16.2419 18.9627 15.9364 18.8361 15.7112 18.6109C15.4859 18.3856 15.3594 18.0801 15.3594 17.7616V15.3593C15.3594 15.0408 15.4859 14.7353 15.7112 14.51C15.9364 14.2847 16.2419 14.1582 16.5605 14.1582C16.879 14.1582 17.1846 14.2847 17.4098 14.51C17.6351 14.7353 17.7616 15.0408 17.7616 15.3593V17.7616Z" stroke="black" stroke-width="1.25334" stroke-linecap="round" stroke-linejoin="round"/>
<path d="M22.5663 17.7616C22.5663 18.0801 22.4398 18.3856 22.2145 18.6109C21.9892 18.8361 21.6837 18.9627 21.3652 18.9627C21.0466 18.9627 20.7411 18.8361 20.5159 18.6109C20.2906 18.3856 20.1641 18.0801 20.1641 17.7616V15.3593C20.1641 15.0408 20.2906 14.7353 20.5159 14.51C20.7411 14.2847 21.0466 14.1582 21.3652 14.1582C21.6837 14.1582 21.9892 14.2847 22.2145 14.51C22.4398 14.7353 22.5663 15.0408 22.5663 15.3593V17.7616Z" stroke="black" stroke-width="1.25334" stroke-linecap="round" stroke-linejoin="round"/>
</svg>
