<svg width="24" height="24" viewBox="0 0 24 24" fill="none" xmlns="http://www.w3.org/2000/svg">
<g clip-path="url(#clip0_2170_1987)">
<path d="M0.978516 12.0013C0.978516 14.9242 2.13964 17.7274 4.20644 19.7942C6.27325 21.861 9.07644 23.0221 11.9993 23.0221C14.9223 23.0221 17.7254 21.861 19.7923 19.7942C21.8591 17.7274 23.0202 14.9242 23.0202 12.0013C23.0202 9.0784 21.8591 6.2752 19.7923 4.2084C17.7254 2.14159 14.9223 0.980469 11.9993 0.980469C9.07644 0.980469 6.27325 2.14159 4.20644 4.2084C2.13964 6.2752 0.978516 9.0784 0.978516 12.0013Z" fill="#FEF6F6"/>
<path d="M11.9993 23.0221C9.07644 23.0221 6.27325 21.861 4.20644 19.7942C2.13964 17.7274 0.978516 14.9242 0.978516 12.0013C0.978516 9.0784 2.13964 6.2752 4.20644 4.2084C6.27325 2.14159 9.07644 0.980469 11.9993 0.980469V23.0221Z" fill="white"/>
<path d="M0.978516 12.0013C0.978516 14.9242 2.13964 17.7274 4.20644 19.7942C6.27325 21.861 9.07644 23.0221 11.9993 23.0221C14.9223 23.0221 17.7254 21.861 19.7923 19.7942C21.8591 17.7274 23.0202 14.9242 23.0202 12.0013C23.0202 9.0784 21.8591 6.2752 19.7923 4.2084C17.7254 2.14159 14.9223 0.980469 11.9993 0.980469C9.07644 0.980469 6.27325 2.14159 4.20644 4.2084C2.13964 6.2752 0.978516 9.0784 0.978516 12.0013Z" stroke="#9C3C3C" stroke-linecap="round" stroke-linejoin="round"/>
<path d="M7.20898 16.7904L16.7923 7.20703" stroke="#9C3C3C" stroke-linecap="round" stroke-linejoin="round"/>
<path d="M16.7923 16.7904L7.20898 7.20703" stroke="#9C3C3C" stroke-linecap="round" stroke-linejoin="round"/>
</g>
<defs>
<clipPath id="clip0_2170_1987">
<rect width="24" height="24" fill="white"/>
</clipPath>
</defs>
</svg>
