<svg width="24" height="24" viewBox="0 0 24 24" fill="none" xmlns="http://www.w3.org/2000/svg">
<g clip-path="url(#clip0_2168_3399)">
<path d="M0.978516 11.9993C0.978516 14.9223 2.13964 17.7254 4.20644 19.7923C6.27325 21.8591 9.07644 23.0202 11.9993 23.0202C14.9223 23.0202 17.7254 21.8591 19.7923 19.7923C21.8591 17.7254 23.0202 14.9223 23.0202 11.9993C23.0202 9.07644 21.8591 6.27325 19.7923 4.20644C17.7254 2.13964 14.9223 0.978516 11.9993 0.978516C9.07644 0.978516 6.27325 2.13964 4.20644 4.20644C2.13964 6.27325 0.978516 9.07644 0.978516 11.9993Z" fill="#F9D835"/>
<path d="M4.20655 19.7929C2.13967 17.726 0.978516 14.9227 0.978516 11.9997C0.978516 9.07671 2.13967 6.27343 4.20655 4.20655C6.27343 2.13967 9.07671 0.978516 11.9997 0.978516C14.9227 0.978516 17.726 2.13967 19.7929 4.20655L4.20655 19.7929Z" fill="#ECF2FB"/>
<path d="M0.978516 11.9993C0.978516 14.9223 2.13964 17.7254 4.20644 19.7923C6.27325 21.8591 9.07644 23.0202 11.9993 23.0202C14.9223 23.0202 17.7254 21.8591 19.7923 19.7923C21.8591 17.7254 23.0202 14.9223 23.0202 11.9993C23.0202 9.07644 21.8591 6.27325 19.7923 4.20644C17.7254 2.13964 14.9223 0.978516 11.9993 0.978516C9.07644 0.978516 6.27325 2.13964 4.20644 4.20644C2.13964 6.27325 0.978516 9.07644 0.978516 11.9993Z" stroke="black" stroke-linecap="round" stroke-linejoin="round"/>
<path d="M7.6875 12C7.6875 13.1437 8.14185 14.2406 8.9506 15.0494C9.75935 15.8581 10.8563 16.3125 12 16.3125C13.1437 16.3125 14.2406 15.8581 15.0494 15.0494C15.8581 14.2406 16.3125 13.1437 16.3125 12C16.3125 10.8563 15.8581 9.75935 15.0494 8.9506C14.2406 8.14185 13.1437 7.6875 12 7.6875C10.8563 7.6875 9.75935 8.14185 8.9506 8.9506C8.14185 9.75935 7.6875 10.8563 7.6875 12Z" fill="#F9D835" stroke="black" stroke-linecap="round" stroke-linejoin="round"/>
<path d="M7.37478 19.843C8.21761 19.7836 9.03151 19.5109 9.73998 19.0505C10.4485 18.5902 11.0282 17.9572 11.4248 17.2111C11.8214 16.4651 12.0218 15.6304 12.0072 14.7856C11.9925 13.9408 11.7633 13.1136 11.3411 12.3818C10.9189 11.6499 10.3175 11.0374 9.59349 10.6018C8.86949 10.1663 8.04662 9.92196 7.20224 9.89184C6.35785 9.86172 5.51967 10.0468 4.76647 10.4297C4.01327 10.8125 3.36978 11.3806 2.89648 12.0805" stroke="black" stroke-linecap="round" stroke-linejoin="round"/>
<path d="M21.1044 12.0841C20.6311 11.3844 19.9878 10.8165 19.2348 10.4337C18.4819 10.0509 17.6439 9.86576 16.7998 9.89571C15.9556 9.92567 15.1329 10.1697 14.409 10.6049C13.685 11.0401 13.0836 11.6522 12.6611 12.3837C12.2387 13.1151 12.0091 13.942 11.994 14.7865C11.9788 15.6311 12.1786 16.4656 12.5745 17.2118C12.9705 17.9579 13.5496 18.5912 14.2574 19.0521C14.9653 19.513 15.7787 19.7864 16.6213 19.8466" stroke="black" stroke-linecap="round" stroke-linejoin="round"/>
<path d="M7.52022 4.07422C7.15041 4.83394 6.97985 5.67523 7.02456 6.51899C7.06927 7.36276 7.3278 8.18131 7.77583 8.89769C8.22387 9.61408 8.8467 10.2048 9.58579 10.6143C10.3249 11.0238 11.156 11.2386 12.0009 11.2386C12.8459 11.2386 13.6769 11.0238 14.416 10.6143C15.1551 10.2048 15.778 9.61408 16.226 8.89769C16.674 8.18131 16.9325 7.36276 16.9773 6.51899C17.022 5.67523 16.8514 4.83394 16.4816 4.07422" stroke="black" stroke-linecap="round" stroke-linejoin="round"/>
</g>
<defs>
<clipPath id="clip0_2168_3399">
<rect width="24" height="24" fill="white"/>
</clipPath>
</defs>
</svg>
