<svg width="79" height="78" viewBox="0 0 79 78" fill="none" xmlns="http://www.w3.org/2000/svg">
<g clip-path="url(#clip0_3215_2791)">
<path d="M18.9866 27.8334L18.9577 27.841C16.3169 28.4273 13.955 29.8967 12.2621 32.0067C10.5692 34.1166 9.64664 36.7409 9.64669 39.446V41.7977C9.64735 42.8487 10.0651 43.8564 10.8083 44.5996C11.5515 45.3427 12.5592 45.7605 13.6102 45.7612L23.5152 45.7582C24.5662 45.7575 25.574 45.3397 26.3171 44.5965C27.0603 43.8534 27.4781 42.8456 27.4788 41.7946C27.4784 41.2742 27.5807 40.7589 27.7797 40.278C27.9787 39.7972 28.2705 39.3603 28.6385 38.9923C29.0065 38.6244 29.4434 38.3326 29.9242 38.1336C30.405 37.9346 30.9204 37.8323 31.4408 37.8326L47.2964 37.8341C48.3474 37.8348 49.3551 38.2526 50.0983 38.9958C50.8415 39.7389 51.2593 40.7467 51.2599 41.7977C51.2596 42.3181 51.3619 42.8334 51.5609 43.3142C51.7599 43.7951 52.0517 44.232 52.4197 44.5999C52.7876 44.9679 53.2245 45.2597 53.7054 45.4587C54.1862 45.6577 54.7015 45.76 55.2219 45.7597L65.133 45.7657C66.184 45.7651 67.1918 45.3473 67.9349 44.6041C68.6781 43.861 69.0959 42.8532 69.0966 41.8022L69.0966 39.4505C69.0962 36.7456 68.1737 34.1215 66.4812 32.0115C64.7888 29.9014 62.4275 28.4314 59.787 27.844L59.7567 27.838C46.2919 25.2304 32.452 25.2289 18.9866 27.8334Z" fill="#9C3C3C" stroke="#9C3C3C" stroke-width="1.375" stroke-linecap="round" stroke-linejoin="round"/>
</g>
<defs>
<clipPath id="clip0_3215_2791">
<rect width="55" height="55" fill="white" transform="translate(78.2812 39) rotate(135)"/>
</clipPath>
</defs>
</svg>
