<svg width="31" height="31" viewBox="0 0 31 31" fill="none" xmlns="http://www.w3.org/2000/svg">
<g clip-path="url(#clip0_1960_2561)">
<path d="M27.3709 5.74975C27.3709 5.43119 27.2444 5.12569 27.0191 4.90043C26.7939 4.67518 26.4884 4.54864 26.1698 4.54864H19.6262C19.3142 3.83676 18.8016 3.23119 18.151 2.80597C17.5004 2.38075 16.74 2.1543 15.9628 2.1543C15.1855 2.1543 14.4251 2.38075 13.7745 2.80597C13.1239 3.23119 12.6113 3.83676 12.2994 4.54864H5.75092C5.43236 4.54864 5.12685 4.67518 4.9016 4.90043C4.67635 5.12569 4.5498 5.43119 4.5498 5.74975V28.5709C4.5498 28.7286 4.58087 28.8848 4.64123 29.0305C4.7016 29.1762 4.79007 29.3086 4.9016 29.4202C5.01314 29.5317 5.14555 29.6202 5.29127 29.6805C5.437 29.7409 5.59318 29.772 5.75092 29.772H26.1698C26.3275 29.772 26.4837 29.7409 26.6294 29.6805C26.7752 29.6202 26.9076 29.5317 27.0191 29.4202C27.1307 29.3086 27.2191 29.1762 27.2795 29.0305C27.3398 28.8848 27.3709 28.7286 27.3709 28.5709V5.74975Z" fill="#F9D835" stroke="black" stroke-width="1.25333" stroke-linecap="round" stroke-linejoin="round"/>
<path d="M8.15234 26.169H19.0584C19.4052 26.1689 19.7478 26.0936 20.0628 25.9485C20.3777 25.8034 20.6575 25.5918 20.8829 25.3282L23.1891 22.6389C23.5609 22.2035 23.7657 21.6501 23.7668 21.0775V8.15234H8.15234V26.169Z" fill="#ECF2FB"/>
<path d="M8.15234 23.7528L23.7536 8.15039H8.15234V23.7528Z" fill="white"/>
<path d="M19.2859 13.4512L15.8027 18.1043C15.725 18.2073 15.6261 18.2925 15.5127 18.3541C15.3993 18.4157 15.2741 18.4522 15.1453 18.4613C15.0166 18.4704 14.8874 18.4519 14.7665 18.4068C14.6456 18.3618 14.5357 18.2914 14.4442 18.2004L12.6426 16.3987" stroke="black" stroke-width="1.25333" stroke-linecap="round" stroke-linejoin="round"/>
<path d="M8.15234 26.169H19.0584C19.4052 26.1689 19.7478 26.0936 20.0628 25.9485C20.3777 25.8034 20.6575 25.5918 20.8829 25.3282L23.1891 22.6389C23.5609 22.2035 23.7657 21.6501 23.7668 21.0775V8.15234H8.15234V26.169Z" stroke="black" stroke-width="1.25333" stroke-linecap="round" stroke-linejoin="round"/>
</g>
<defs>
<clipPath id="clip0_1960_2561">
<rect width="30.08" height="30.08" fill="white" transform="translate(0.919922 0.919922)"/>
</clipPath>
</defs>
</svg>
