<svg width="101" height="100" viewBox="0 0 101 100" fill="none" xmlns="http://www.w3.org/2000/svg">
<path d="M24.543 22.049C24.543 23.36 24.8012 24.6581 25.3029 25.8692C25.8045 27.0804 26.5398 28.1809 27.4668 29.1078C28.3938 30.0348 29.4943 30.7701 30.7054 31.2718C31.9166 31.7735 33.2147 32.0317 34.5256 32.0317C35.8365 32.0317 37.1346 31.7735 38.3458 31.2718C39.5569 30.7701 40.6574 30.0348 41.5844 29.1078C42.5114 28.1809 43.2467 27.0804 43.7484 25.8692C44.25 24.6581 44.5082 23.36 44.5082 22.049C44.5082 19.4015 43.4565 16.8624 41.5844 14.9903C39.7123 13.1181 37.1732 12.0664 34.5256 12.0664C31.878 12.0664 29.3389 13.1181 27.4668 14.9903C25.5947 16.8624 24.543 19.4015 24.543 22.049Z" fill="#ECF2FB"/>
<path d="M74.4609 18.0564C74.4609 20.1745 75.3023 22.2058 76.8 23.7035C78.2977 25.2011 80.329 26.0425 82.4471 26.0425C84.5651 26.0425 86.5964 25.2011 88.0941 23.7035C89.5918 22.2058 90.4332 20.1745 90.4332 18.0564C90.4332 15.9384 89.5918 13.9071 88.0941 12.4094C86.5964 10.9117 84.5651 10.0703 82.4471 10.0703C80.329 10.0703 78.2977 10.9117 76.8 12.4094C75.3023 13.9071 74.4609 15.9384 74.4609 18.0564Z" fill="#ECF2FB"/>
<path d="M72.4609 57.9861C72.4609 60.1042 73.3023 62.1355 74.8 63.6331C76.2977 65.1308 78.329 65.9722 80.4471 65.9722C82.5651 65.9722 84.5964 65.1308 86.0941 63.6331C87.5918 62.1355 88.4332 60.1042 88.4332 57.9861C88.4332 55.8681 87.5918 53.8368 86.0941 52.3391C84.5964 50.8414 82.5651 50 80.4471 50C78.329 50 76.2977 50.8414 74.8 52.3391C73.3023 53.8368 72.4609 55.8681 72.4609 57.9861Z" fill="#ECF2FB"/>
<path d="M68.3984 50.8607C72.1167 47.1503 77.1551 45.0664 82.4081 45.0664C87.661 45.0664 92.6994 47.1503 96.4177 50.8607" stroke="black" stroke-width="4.16667" stroke-linecap="round" stroke-linejoin="round"/>
<path d="M49.5742 32.1014C51.415 30.2617 52.8752 28.0774 53.8714 25.6733C54.8677 23.2691 55.3805 20.6922 55.3805 18.0898C55.3805 15.4873 54.8677 12.9104 53.8714 10.5062C52.8752 8.10208 51.415 5.91777 49.5742 4.07812" stroke="black" stroke-width="4.16667" stroke-linecap="round" stroke-linejoin="round"/>
<path d="M74.7617 35.0233L88.7734 30.3594" stroke="black" stroke-width="4.16667" stroke-linecap="round" stroke-linejoin="round"/>
<path d="M65.418 25.6914L70.0898 11.6758" stroke="black" stroke-width="4.16667" stroke-linecap="round" stroke-linejoin="round"/>
<path d="M34.3867 21.1328C34.5178 21.1328 34.6476 21.1586 34.7687 21.2088C34.8899 21.259 34.9999 21.3325 35.0926 21.4252C35.1853 21.5179 35.2588 21.6279 35.309 21.7491C35.3592 21.8702 35.385 22 35.385 22.1311" stroke="black" stroke-width="4.16667" stroke-linecap="round" stroke-linejoin="round"/>
<path d="M33.3867 22.1311C33.3867 21.8663 33.4919 21.6124 33.6791 21.4252C33.8663 21.238 34.1202 21.1328 34.385 21.1328" stroke="black" stroke-width="4.16667" stroke-linecap="round" stroke-linejoin="round"/>
<path d="M34.385 23.1311C34.1202 23.1311 33.8663 23.0259 33.6791 22.8387C33.4919 22.6515 33.3867 22.3976 33.3867 22.1328" stroke="black" stroke-width="4.16667" stroke-linecap="round" stroke-linejoin="round"/>
<path d="M35.385 22.1328C35.385 22.2639 35.3592 22.3937 35.309 22.5148C35.2588 22.6359 35.1853 22.746 35.0926 22.8387C34.9999 22.9314 34.8899 23.0049 34.7687 23.0551C34.6476 23.1053 34.5178 23.1311 34.3867 23.1311" stroke="black" stroke-width="4.16667" stroke-linecap="round" stroke-linejoin="round"/>
<path d="M64.3398 33.1133C64.6046 33.1133 64.8585 33.2185 65.0457 33.4057C65.2329 33.5929 65.3381 33.8468 65.3381 34.1115" stroke="black" stroke-width="4.16667" stroke-linecap="round" stroke-linejoin="round"/>
<path d="M63.3398 34.1115C63.3398 33.8468 63.445 33.5929 63.6322 33.4057C63.8194 33.2185 64.0734 33.1133 64.3381 33.1133" stroke="black" stroke-width="4.16667" stroke-linecap="round" stroke-linejoin="round"/>
<path d="M64.3381 35.1076C64.0734 35.1076 63.8194 35.0025 63.6322 34.8153C63.445 34.628 63.3398 34.3741 63.3398 34.1094" stroke="black" stroke-width="4.16667" stroke-linecap="round" stroke-linejoin="round"/>
<path d="M65.3381 34.1094C65.3381 34.3741 65.2329 34.628 65.0457 34.8153C64.8585 35.0025 64.6046 35.1076 64.3398 35.1076" stroke="black" stroke-width="4.16667" stroke-linecap="round" stroke-linejoin="round"/>
<path d="M80.3125 57.0703C80.5773 57.0703 80.8312 57.1755 81.0184 57.3627C81.2056 57.5499 81.3108 57.8038 81.3108 58.0686" stroke="black" stroke-width="4.16667" stroke-linecap="round" stroke-linejoin="round"/>
<path d="M79.3125 58.0686C79.3125 57.8038 79.4177 57.5499 79.6049 57.3627C79.7921 57.1755 80.046 57.0703 80.3108 57.0703" stroke="black" stroke-width="4.16667" stroke-linecap="round" stroke-linejoin="round"/>
<path d="M80.3108 59.0686C80.1797 59.0686 80.0499 59.0428 79.9287 58.9926C79.8076 58.9424 79.6976 58.8689 79.6049 58.7762C79.5122 58.6835 79.4387 58.5734 79.3885 58.4523C79.3383 58.3312 79.3125 58.2014 79.3125 58.0703" stroke="black" stroke-width="4.16667" stroke-linecap="round" stroke-linejoin="round"/>
<path d="M81.3108 58.0703C81.3108 58.2014 81.2849 58.3312 81.2348 58.4523C81.1846 58.5734 81.1111 58.6835 81.0184 58.7762C80.9257 58.8689 80.8156 58.9424 80.6945 58.9926C80.5734 59.0428 80.4436 59.0686 80.3125 59.0686" stroke="black" stroke-width="4.16667" stroke-linecap="round" stroke-linejoin="round"/>
<path d="M82.3047 17.1406C82.5694 17.1406 82.8234 17.2458 83.0106 17.433C83.1978 17.6202 83.3029 17.8741 83.3029 18.1389" stroke="black" stroke-width="4.16667" stroke-linecap="round" stroke-linejoin="round"/>
<path d="M81.3047 18.1389C81.3047 17.8741 81.4099 17.6202 81.5971 17.433C81.7843 17.2458 82.0382 17.1406 82.303 17.1406" stroke="black" stroke-width="4.16667" stroke-linecap="round" stroke-linejoin="round"/>
<path d="M82.303 19.1389C82.0382 19.1389 81.7843 19.0337 81.5971 18.8465C81.4099 18.6593 81.3047 18.4054 81.3047 18.1406" stroke="black" stroke-width="4.16667" stroke-linecap="round" stroke-linejoin="round"/>
<path d="M83.3029 18.1406C83.3029 18.4054 83.1978 18.6593 83.0106 18.8465C82.8234 19.0337 82.5694 19.1389 82.3047 19.1389" stroke="black" stroke-width="4.16667" stroke-linecap="round" stroke-linejoin="round"/>
<path d="M63.0588 68.2678L12.5027 95.2848C11.484 95.8295 10.3171 96.032 9.17451 95.8624C8.03189 95.6928 6.97412 95.1602 6.15753 94.3431C5.34095 93.5261 4.80887 92.4681 4.63992 91.3253C4.47097 90.1826 4.67412 89.0159 5.21935 87.9975L32.2324 37.4414L63.0588 68.2678Z" fill="#F9D835"/>
<path d="M47.6489 52.8546L32.2357 37.4414L5.2227 87.9975C4.67825 89.0174 4.47742 90.1857 4.65008 91.3288C4.82274 92.472 5.35966 93.5289 6.18104 94.3424L47.6489 52.8546Z" fill="#ECF2FB"/>
<path d="M63.0588 68.2678L12.5027 95.2848C11.484 95.8295 10.3171 96.032 9.17451 95.8624C8.03189 95.6928 6.97412 95.1602 6.15753 94.3431C5.34095 93.5261 4.80887 92.4681 4.63992 91.3253C4.47097 90.1826 4.67412 89.0159 5.21935 87.9975L32.2324 37.4414" stroke="black" stroke-width="4.16667" stroke-linecap="round" stroke-linejoin="round"/>
<path d="M41.4566 59.0468C45.5752 63.1655 50.2689 66.3717 54.505 67.9603C58.7411 69.5488 62.1726 69.3895 64.0447 67.5174C65.9168 65.6453 66.0761 62.2137 64.4876 57.9776C62.8991 53.7415 59.6928 49.0479 55.5742 44.9292C53.5348 42.8899 51.3329 41.0531 49.094 39.5237C46.8552 37.9944 44.6233 36.8024 42.5258 36.0158C40.4283 35.2292 38.5062 34.8635 36.8694 34.9395C35.2326 35.0155 33.913 35.5317 32.986 36.4587C32.0591 37.3857 31.5428 38.7052 31.4668 40.3421C31.3909 41.9789 31.7566 43.9009 32.5432 45.9984C33.3297 48.0959 34.5217 50.3278 36.0511 52.5667C37.5804 54.8055 39.4172 57.0075 41.4566 59.0468Z" fill="#F9D835" stroke="black" stroke-width="4.16667" stroke-linecap="round" stroke-linejoin="round"/>
</svg>
