<svg width="30" height="30" viewBox="0 0 30 30" fill="none" xmlns="http://www.w3.org/2000/svg">
<path d="M28.7747 3.02015C28.7747 2.86284 28.7438 2.70707 28.6836 2.56173C28.6234 2.41639 28.5351 2.28433 28.4239 2.1731C28.3126 2.06186 28.1806 1.97362 28.0352 1.91342C27.8899 1.85322 27.7341 1.82224 27.5768 1.82224H2.42057C2.10287 1.82224 1.79817 1.94844 1.57352 2.1731C1.34887 2.39775 1.22266 2.70244 1.22266 3.02015V26.9785C1.22266 27.2962 1.34887 27.6009 1.57352 27.8255C1.79817 28.0502 2.10287 28.1764 2.42057 28.1764H27.5768C27.7341 28.1764 27.8899 28.1454 28.0352 28.0852C28.1806 28.025 28.3126 27.9368 28.4239 27.8255C28.5351 27.7143 28.6234 27.5822 28.6836 27.4369C28.7438 27.2916 28.7747 27.1358 28.7747 26.9785V3.02015Z" fill="white"/>
<path d="M27.5768 22.85H2.42057C2.10287 22.85 1.79817 22.7237 1.57352 22.4991C1.34887 22.2744 1.22266 21.9697 1.22266 21.652V26.9792C1.22266 27.2969 1.34887 27.6016 1.57352 27.8262C1.79817 28.0509 2.10287 28.1771 2.42057 28.1771H27.5768C27.7341 28.1771 27.8899 28.1461 28.0352 28.0859C28.1806 28.0257 28.3126 27.9375 28.4239 27.8262C28.5351 27.715 28.6234 27.5829 28.6836 27.4376C28.7438 27.2923 28.7747 27.1365 28.7747 26.9792V21.652C28.7747 21.8094 28.7438 21.9651 28.6836 22.1105C28.6234 22.2558 28.5351 22.3879 28.4239 22.4991C28.3126 22.6103 28.1806 22.6986 28.0352 22.7588C27.8899 22.819 27.7341 22.85 27.5768 22.85Z" fill="#ECF2FB"/>
<path d="M25.181 11.4063C25.181 11.4849 25.1655 11.5628 25.1354 11.6355C25.1053 11.7082 25.0612 11.7742 25.0056 11.8298C24.9499 11.8854 24.8839 11.9295 24.8112 11.9596C24.7386 11.9897 24.6607 12.0052 24.582 12.0052H5.41536C5.25651 12.0052 5.10416 11.9421 4.99184 11.8298C4.87951 11.7175 4.81641 11.5651 4.81641 11.4063V6.01565C4.81641 5.85679 4.87951 5.70444 4.99184 5.59212C5.10416 5.47979 5.25651 5.41669 5.41536 5.41669H24.582C24.6607 5.41669 24.7386 5.43218 24.8112 5.46228C24.8839 5.49238 24.9499 5.5365 25.0056 5.59212C25.0612 5.64774 25.1053 5.71377 25.1354 5.78643C25.1655 5.8591 25.181 5.93699 25.181 6.01565V11.4063Z" fill="#F9D835"/>
<path d="M4.81641 15.5985H13.2018" stroke="black" stroke-width="1.25" stroke-linecap="round" stroke-linejoin="round"/>
<path d="M4.81641 19.193H13.2018" stroke="black" stroke-width="1.25" stroke-linecap="round" stroke-linejoin="round"/>
<path d="M4.81641 22.786H13.2018" stroke="black" stroke-width="1.25" stroke-linecap="round" stroke-linejoin="round"/>
<path d="M16.7969 15.5985H25.1823" stroke="black" stroke-width="1.25" stroke-linecap="round" stroke-linejoin="round"/>
<path d="M16.7969 19.193H25.1823" stroke="black" stroke-width="1.25" stroke-linecap="round" stroke-linejoin="round"/>
<path d="M16.7969 22.786H25.1823" stroke="black" stroke-width="1.25" stroke-linecap="round" stroke-linejoin="round"/>
<path d="M28.7747 3.02015C28.7747 2.86284 28.7438 2.70707 28.6836 2.56173C28.6234 2.41639 28.5351 2.28433 28.4239 2.1731C28.3126 2.06186 28.1806 1.97362 28.0352 1.91342C27.8899 1.85322 27.7341 1.82224 27.5768 1.82224H2.42057C2.10287 1.82224 1.79817 1.94844 1.57352 2.1731C1.34887 2.39775 1.22266 2.70244 1.22266 3.02015V26.9785C1.22266 27.2962 1.34887 27.6009 1.57352 27.8255C1.79817 28.0502 2.10287 28.1764 2.42057 28.1764H27.5768C27.7341 28.1764 27.8899 28.1454 28.0352 28.0852C28.1806 28.025 28.3126 27.9368 28.4239 27.8255C28.5351 27.7143 28.6234 27.5822 28.6836 27.4369C28.7438 27.2916 28.7747 27.1358 28.7747 26.9785V3.02015Z" stroke="black" stroke-width="1.25" stroke-linecap="round" stroke-linejoin="round"/>
<path d="M25.181 11.4063C25.181 11.4849 25.1655 11.5628 25.1354 11.6355C25.1053 11.7082 25.0612 11.7742 25.0056 11.8298C24.9499 11.8854 24.8839 11.9295 24.8112 11.9596C24.7386 11.9897 24.6607 12.0052 24.582 12.0052H5.41536C5.25651 12.0052 5.10416 11.9421 4.99184 11.8298C4.87951 11.7175 4.81641 11.5651 4.81641 11.4063V6.01565C4.81641 5.85679 4.87951 5.70444 4.99184 5.59212C5.10416 5.47979 5.25651 5.41669 5.41536 5.41669H24.582C24.6607 5.41669 24.7386 5.43218 24.8112 5.46228C24.8839 5.49238 24.9499 5.5365 25.0056 5.59212C25.0612 5.64774 25.1053 5.71377 25.1354 5.78643C25.1655 5.8591 25.181 5.93699 25.181 6.01565V11.4063Z" stroke="black" stroke-width="1.25" stroke-linecap="round" stroke-linejoin="round"/>
</svg>
