<svg width="16" height="16" viewBox="0 0 16 16" fill="none" xmlns="http://www.w3.org/2000/svg">
<g clip-path="url(#clip0_6276_4145)">
<path d="M14.5494 14.0938C14.5494 14.3424 14.4506 14.5808 14.2748 14.7567C14.099 14.9325 13.8605 15.0312 13.6119 15.0312H2.39062C2.14198 15.0312 1.90353 14.9325 1.72771 14.7567C1.5519 14.5808 1.45313 14.3424 1.45312 14.0938V1.90625C1.45312 1.65761 1.5519 1.41915 1.72771 1.24334C1.90353 1.06752 2.14198 0.96875 2.39062 0.96875H11.7656C12.0101 0.968775 12.2449 1.06432 12.42 1.235L14.2669 3.03688C14.3564 3.12426 14.4275 3.22867 14.476 3.34395C14.5245 3.45923 14.5494 3.58305 14.5494 3.70813V14.0938Z" stroke="black" stroke-linecap="round" stroke-linejoin="round"/>
<path d="M4.26562 5.1875C4.26562 5.56046 4.41378 5.91815 4.67751 6.18187C4.94123 6.44559 5.29891 6.59375 5.67188 6.59375C6.04484 6.59375 6.40252 6.44559 6.66624 6.18187C6.92997 5.91815 7.07813 5.56046 7.07813 5.1875C7.07813 4.81454 6.92997 4.45685 6.66624 4.19313C6.40252 3.92941 6.04484 3.78125 5.67188 3.78125C5.29891 3.78125 4.94123 3.92941 4.67751 4.19313C4.41378 4.45685 4.26562 4.81454 4.26562 5.1875Z" stroke="black" stroke-linecap="round" stroke-linejoin="round"/>
<path d="M12.2594 11.875L9.80625 8.195C9.74926 8.10926 9.67218 8.03874 9.58172 7.98958C9.49125 7.94042 9.39015 7.91411 9.2872 7.91294C9.18425 7.91177 9.08258 7.93578 8.99102 7.98286C8.89947 8.02995 8.8208 8.0987 8.76188 8.18312L7.08 10.5862L6.0375 9.75C5.96907 9.69516 5.88997 9.65517 5.80525 9.63256C5.72052 9.60996 5.63201 9.60524 5.54536 9.6187C5.45871 9.63216 5.3758 9.66351 5.30193 9.71076C5.22805 9.758 5.16482 9.82011 5.11625 9.89312L3.79688 11.875" stroke="black" stroke-linecap="round" stroke-linejoin="round"/>
</g>
<defs>
<clipPath id="clip0_6276_4145">
<rect width="16" height="16" fill="white"/>
</clipPath>
</defs>
</svg>
