<svg width="16" height="16" viewBox="0 0 16 16" fill="none" xmlns="http://www.w3.org/2000/svg">
<path d="M9.98438 8.03369C9.98438 6.73079 11.0391 5.67609 12.3419 5.67609C13.6448 5.67609 14.6996 6.73079 14.6996 8.03369V12.8729" stroke="black" stroke-miterlimit="10" stroke-linecap="round" stroke-linejoin="round"/>
<path d="M14.6375 8.65399C13.9551 9.21237 13.0864 9.52255 12.2179 9.52255H11.9077C10.8529 9.52255 9.98438 10.2671 9.98438 11.1977C9.98438 12.1283 10.8529 12.8729 11.9077 12.8729C11.9077 12.8729 13.8309 12.8728 14.6375 11.1977" stroke="black" stroke-miterlimit="10" stroke-linecap="round" stroke-linejoin="round"/>
<path d="M1.28516 12.8728L4.05211 4.57195C4.19396 4.14641 4.5922 3.85938 5.04076 3.85938C5.48932 3.85938 5.88756 4.14641 6.02941 4.57195L8.79637 12.8728M2.28665 9.86837H7.79488" stroke="black" stroke-linecap="round" stroke-linejoin="round"/>
</svg>
