<svg width="30" height="30" viewBox="0 0 30 30" fill="none" xmlns="http://www.w3.org/2000/svg">
<g clip-path="url(#clip0_6276_2927)">
<path d="M2.42057 1.22217H27.5768C27.5768 1.22217 28.7747 1.22217 28.7747 2.42008V27.5763C28.7747 27.5763 28.7747 28.7743 27.5768 28.7743H2.42057C2.42057 28.7743 1.22266 28.7743 1.22266 27.5763V2.42008C1.22266 2.42008 1.22266 1.22217 2.42057 1.22217Z" fill="#ECF2FB"/>
<path d="M14.9987 1.22363H2.42057C2.10287 1.22363 1.79817 1.34984 1.57352 1.57449C1.34886 1.79915 1.22266 2.10384 1.22266 2.42155V27.5778C1.22266 27.7351 1.25364 27.8909 1.31384 28.0362C1.37404 28.1816 1.46228 28.3136 1.57352 28.4249C1.68475 28.5361 1.81681 28.6243 1.96215 28.6845C2.10749 28.7447 2.26326 28.7757 2.42057 28.7757H14.9987V1.22363Z" fill="white"/>
<path d="M2.42057 1.22217H27.5768C27.5768 1.22217 28.7747 1.22217 28.7747 2.42008V27.5763C28.7747 27.5763 28.7747 28.7743 27.5768 28.7743H2.42057C2.42057 28.7743 1.22266 28.7743 1.22266 27.5763V2.42008C1.22266 2.42008 1.22266 1.22217 2.42057 1.22217Z" stroke="black" stroke-width="1.25" stroke-linecap="round" stroke-linejoin="round"/>
<path d="M8.41406 8.40961H13.2057" stroke="black" stroke-width="1.25" stroke-linecap="round" stroke-linejoin="round"/>
<path d="M4.81641 13.2012H13.2018" stroke="black" stroke-width="1.25" stroke-linecap="round" stroke-linejoin="round"/>
<path d="M4.81641 17.9929H25.181" stroke="black" stroke-width="1.25" stroke-linecap="round" stroke-linejoin="round"/>
<path d="M4.81641 22.7845H19.1914" stroke="black" stroke-width="1.25" stroke-linecap="round" stroke-linejoin="round"/>
<path d="M17.3958 6.01379H24.5833C24.5833 6.01379 25.1823 6.01379 25.1823 6.61275V13.8003C25.1823 13.8003 25.1823 14.3992 24.5833 14.3992H17.3958C17.3958 14.3992 16.7969 14.3992 16.7969 13.8003V6.61275C16.7969 6.61275 16.7969 6.01379 17.3958 6.01379Z" fill="#F9D835" stroke="black" stroke-width="1.25" stroke-linecap="round" stroke-linejoin="round"/>
</g>
<defs>
<clipPath id="clip0_6276_2927">
<rect width="30" height="30" fill="white"/>
</clipPath>
</defs>
</svg>
